G04 #@! TF.GenerationSoftware,KiCad,Pcbnew,9.0.4*
G04 #@! TF.CreationDate,2025-09-19T17:16:51+02:00*
G04 #@! TF.ProjectId,mobo,6d6f626f-2e6b-4696-9361-645f70636258,REV05*
G04 #@! TF.SameCoordinates,Original*
G04 #@! TF.FileFunction,Legend,Bot*
G04 #@! TF.FilePolarity,Positive*
%FSLAX46Y46*%
G04 Gerber Fmt 4.6, Leading zero omitted, Abs format (unit mm)*
G04 Created by KiCad (PCBNEW 9.0.4) date 2025-09-19 17:16:51*
%MOMM*%
%LPD*%
G01*
G04 APERTURE LIST*
%ADD10C,0.120000*%
G04 APERTURE END LIST*
D10*
X82625000Y-121700000D02*
X127675000Y-121700000D01*
X127675000Y-134650000D01*
X82625000Y-134650000D01*
X82625000Y-121700000D01*
G36*
X82625000Y-121700000D02*
G01*
X127675000Y-121700000D01*
X127675000Y-134650000D01*
X82625000Y-134650000D01*
X82625000Y-121700000D01*
G37*
X78659523Y-108513855D02*
X78202380Y-108513855D01*
X78430952Y-109313855D02*
X78430952Y-108513855D01*
X77935713Y-109313855D02*
X77935713Y-108513855D01*
X77935713Y-108513855D02*
X77630951Y-108513855D01*
X77630951Y-108513855D02*
X77554761Y-108551950D01*
X77554761Y-108551950D02*
X77516666Y-108590045D01*
X77516666Y-108590045D02*
X77478570Y-108666236D01*
X77478570Y-108666236D02*
X77478570Y-108780521D01*
X77478570Y-108780521D02*
X77516666Y-108856712D01*
X77516666Y-108856712D02*
X77554761Y-108894807D01*
X77554761Y-108894807D02*
X77630951Y-108932902D01*
X77630951Y-108932902D02*
X77935713Y-108932902D01*
X77211904Y-108513855D02*
X76716666Y-108513855D01*
X76716666Y-108513855D02*
X76983332Y-108818617D01*
X76983332Y-108818617D02*
X76869047Y-108818617D01*
X76869047Y-108818617D02*
X76792856Y-108856712D01*
X76792856Y-108856712D02*
X76754761Y-108894807D01*
X76754761Y-108894807D02*
X76716666Y-108970998D01*
X76716666Y-108970998D02*
X76716666Y-109161474D01*
X76716666Y-109161474D02*
X76754761Y-109237664D01*
X76754761Y-109237664D02*
X76792856Y-109275760D01*
X76792856Y-109275760D02*
X76869047Y-109313855D01*
X76869047Y-109313855D02*
X77097618Y-109313855D01*
X77097618Y-109313855D02*
X77173809Y-109275760D01*
X77173809Y-109275760D02*
X77211904Y-109237664D01*
X152015855Y-98059523D02*
X152015855Y-98516666D01*
X152815855Y-98288094D02*
X152015855Y-98288094D01*
X152815855Y-98783333D02*
X152015855Y-98783333D01*
X152015855Y-98783333D02*
X152015855Y-99088095D01*
X152015855Y-99088095D02*
X152053950Y-99164285D01*
X152053950Y-99164285D02*
X152092045Y-99202380D01*
X152092045Y-99202380D02*
X152168236Y-99240476D01*
X152168236Y-99240476D02*
X152282521Y-99240476D01*
X152282521Y-99240476D02*
X152358712Y-99202380D01*
X152358712Y-99202380D02*
X152396807Y-99164285D01*
X152396807Y-99164285D02*
X152434902Y-99088095D01*
X152434902Y-99088095D02*
X152434902Y-98783333D01*
X152015855Y-99507142D02*
X152015855Y-100002380D01*
X152015855Y-100002380D02*
X152320617Y-99735714D01*
X152320617Y-99735714D02*
X152320617Y-99849999D01*
X152320617Y-99849999D02*
X152358712Y-99926190D01*
X152358712Y-99926190D02*
X152396807Y-99964285D01*
X152396807Y-99964285D02*
X152472998Y-100002380D01*
X152472998Y-100002380D02*
X152663474Y-100002380D01*
X152663474Y-100002380D02*
X152739664Y-99964285D01*
X152739664Y-99964285D02*
X152777760Y-99926190D01*
X152777760Y-99926190D02*
X152815855Y-99849999D01*
X152815855Y-99849999D02*
X152815855Y-99621428D01*
X152815855Y-99621428D02*
X152777760Y-99545237D01*
X152777760Y-99545237D02*
X152739664Y-99507142D01*
X152015855Y-100497619D02*
X152015855Y-100573809D01*
X152015855Y-100573809D02*
X152053950Y-100650000D01*
X152053950Y-100650000D02*
X152092045Y-100688095D01*
X152092045Y-100688095D02*
X152168236Y-100726190D01*
X152168236Y-100726190D02*
X152320617Y-100764285D01*
X152320617Y-100764285D02*
X152511093Y-100764285D01*
X152511093Y-100764285D02*
X152663474Y-100726190D01*
X152663474Y-100726190D02*
X152739664Y-100688095D01*
X152739664Y-100688095D02*
X152777760Y-100650000D01*
X152777760Y-100650000D02*
X152815855Y-100573809D01*
X152815855Y-100573809D02*
X152815855Y-100497619D01*
X152815855Y-100497619D02*
X152777760Y-100421428D01*
X152777760Y-100421428D02*
X152739664Y-100383333D01*
X152739664Y-100383333D02*
X152663474Y-100345238D01*
X152663474Y-100345238D02*
X152511093Y-100307142D01*
X152511093Y-100307142D02*
X152320617Y-100307142D01*
X152320617Y-100307142D02*
X152168236Y-100345238D01*
X152168236Y-100345238D02*
X152092045Y-100383333D01*
X152092045Y-100383333D02*
X152053950Y-100421428D01*
X152053950Y-100421428D02*
X152015855Y-100497619D01*
X208213855Y-92959523D02*
X208213855Y-93416666D01*
X209013855Y-93188094D02*
X208213855Y-93188094D01*
X209013855Y-93683333D02*
X208213855Y-93683333D01*
X208213855Y-93683333D02*
X208213855Y-93988095D01*
X208213855Y-93988095D02*
X208251950Y-94064285D01*
X208251950Y-94064285D02*
X208290045Y-94102380D01*
X208290045Y-94102380D02*
X208366236Y-94140476D01*
X208366236Y-94140476D02*
X208480521Y-94140476D01*
X208480521Y-94140476D02*
X208556712Y-94102380D01*
X208556712Y-94102380D02*
X208594807Y-94064285D01*
X208594807Y-94064285D02*
X208632902Y-93988095D01*
X208632902Y-93988095D02*
X208632902Y-93683333D01*
X208213855Y-94864285D02*
X208213855Y-94483333D01*
X208213855Y-94483333D02*
X208594807Y-94445237D01*
X208594807Y-94445237D02*
X208556712Y-94483333D01*
X208556712Y-94483333D02*
X208518617Y-94559523D01*
X208518617Y-94559523D02*
X208518617Y-94749999D01*
X208518617Y-94749999D02*
X208556712Y-94826190D01*
X208556712Y-94826190D02*
X208594807Y-94864285D01*
X208594807Y-94864285D02*
X208670998Y-94902380D01*
X208670998Y-94902380D02*
X208861474Y-94902380D01*
X208861474Y-94902380D02*
X208937664Y-94864285D01*
X208937664Y-94864285D02*
X208975760Y-94826190D01*
X208975760Y-94826190D02*
X209013855Y-94749999D01*
X209013855Y-94749999D02*
X209013855Y-94559523D01*
X209013855Y-94559523D02*
X208975760Y-94483333D01*
X208975760Y-94483333D02*
X208937664Y-94445237D01*
X208556712Y-95359523D02*
X208518617Y-95283333D01*
X208518617Y-95283333D02*
X208480521Y-95245238D01*
X208480521Y-95245238D02*
X208404331Y-95207142D01*
X208404331Y-95207142D02*
X208366236Y-95207142D01*
X208366236Y-95207142D02*
X208290045Y-95245238D01*
X208290045Y-95245238D02*
X208251950Y-95283333D01*
X208251950Y-95283333D02*
X208213855Y-95359523D01*
X208213855Y-95359523D02*
X208213855Y-95511904D01*
X208213855Y-95511904D02*
X208251950Y-95588095D01*
X208251950Y-95588095D02*
X208290045Y-95626190D01*
X208290045Y-95626190D02*
X208366236Y-95664285D01*
X208366236Y-95664285D02*
X208404331Y-95664285D01*
X208404331Y-95664285D02*
X208480521Y-95626190D01*
X208480521Y-95626190D02*
X208518617Y-95588095D01*
X208518617Y-95588095D02*
X208556712Y-95511904D01*
X208556712Y-95511904D02*
X208556712Y-95359523D01*
X208556712Y-95359523D02*
X208594807Y-95283333D01*
X208594807Y-95283333D02*
X208632902Y-95245238D01*
X208632902Y-95245238D02*
X208709093Y-95207142D01*
X208709093Y-95207142D02*
X208861474Y-95207142D01*
X208861474Y-95207142D02*
X208937664Y-95245238D01*
X208937664Y-95245238D02*
X208975760Y-95283333D01*
X208975760Y-95283333D02*
X209013855Y-95359523D01*
X209013855Y-95359523D02*
X209013855Y-95511904D01*
X209013855Y-95511904D02*
X208975760Y-95588095D01*
X208975760Y-95588095D02*
X208937664Y-95626190D01*
X208937664Y-95626190D02*
X208861474Y-95664285D01*
X208861474Y-95664285D02*
X208709093Y-95664285D01*
X208709093Y-95664285D02*
X208632902Y-95626190D01*
X208632902Y-95626190D02*
X208594807Y-95588095D01*
X208594807Y-95588095D02*
X208556712Y-95511904D01*
X155915855Y-74459523D02*
X155915855Y-74916666D01*
X156715855Y-74688094D02*
X155915855Y-74688094D01*
X156715855Y-75183333D02*
X155915855Y-75183333D01*
X155915855Y-75183333D02*
X155915855Y-75488095D01*
X155915855Y-75488095D02*
X155953950Y-75564285D01*
X155953950Y-75564285D02*
X155992045Y-75602380D01*
X155992045Y-75602380D02*
X156068236Y-75640476D01*
X156068236Y-75640476D02*
X156182521Y-75640476D01*
X156182521Y-75640476D02*
X156258712Y-75602380D01*
X156258712Y-75602380D02*
X156296807Y-75564285D01*
X156296807Y-75564285D02*
X156334902Y-75488095D01*
X156334902Y-75488095D02*
X156334902Y-75183333D01*
X155992045Y-75945237D02*
X155953950Y-75983333D01*
X155953950Y-75983333D02*
X155915855Y-76059523D01*
X155915855Y-76059523D02*
X155915855Y-76249999D01*
X155915855Y-76249999D02*
X155953950Y-76326190D01*
X155953950Y-76326190D02*
X155992045Y-76364285D01*
X155992045Y-76364285D02*
X156068236Y-76402380D01*
X156068236Y-76402380D02*
X156144426Y-76402380D01*
X156144426Y-76402380D02*
X156258712Y-76364285D01*
X156258712Y-76364285D02*
X156715855Y-75907142D01*
X156715855Y-75907142D02*
X156715855Y-76402380D01*
X155915855Y-76897619D02*
X155915855Y-76973809D01*
X155915855Y-76973809D02*
X155953950Y-77050000D01*
X155953950Y-77050000D02*
X155992045Y-77088095D01*
X155992045Y-77088095D02*
X156068236Y-77126190D01*
X156068236Y-77126190D02*
X156220617Y-77164285D01*
X156220617Y-77164285D02*
X156411093Y-77164285D01*
X156411093Y-77164285D02*
X156563474Y-77126190D01*
X156563474Y-77126190D02*
X156639664Y-77088095D01*
X156639664Y-77088095D02*
X156677760Y-77050000D01*
X156677760Y-77050000D02*
X156715855Y-76973809D01*
X156715855Y-76973809D02*
X156715855Y-76897619D01*
X156715855Y-76897619D02*
X156677760Y-76821428D01*
X156677760Y-76821428D02*
X156639664Y-76783333D01*
X156639664Y-76783333D02*
X156563474Y-76745238D01*
X156563474Y-76745238D02*
X156411093Y-76707142D01*
X156411093Y-76707142D02*
X156220617Y-76707142D01*
X156220617Y-76707142D02*
X156068236Y-76745238D01*
X156068236Y-76745238D02*
X155992045Y-76783333D01*
X155992045Y-76783333D02*
X155953950Y-76821428D01*
X155953950Y-76821428D02*
X155915855Y-76897619D01*
X78959523Y-102013855D02*
X78502380Y-102013855D01*
X78730952Y-102813855D02*
X78730952Y-102013855D01*
X78235713Y-102813855D02*
X78235713Y-102013855D01*
X78235713Y-102013855D02*
X77930951Y-102013855D01*
X77930951Y-102013855D02*
X77854761Y-102051950D01*
X77854761Y-102051950D02*
X77816666Y-102090045D01*
X77816666Y-102090045D02*
X77778570Y-102166236D01*
X77778570Y-102166236D02*
X77778570Y-102280521D01*
X77778570Y-102280521D02*
X77816666Y-102356712D01*
X77816666Y-102356712D02*
X77854761Y-102394807D01*
X77854761Y-102394807D02*
X77930951Y-102432902D01*
X77930951Y-102432902D02*
X78235713Y-102432902D01*
X77054761Y-102013855D02*
X77435713Y-102013855D01*
X77435713Y-102013855D02*
X77473809Y-102394807D01*
X77473809Y-102394807D02*
X77435713Y-102356712D01*
X77435713Y-102356712D02*
X77359523Y-102318617D01*
X77359523Y-102318617D02*
X77169047Y-102318617D01*
X77169047Y-102318617D02*
X77092856Y-102356712D01*
X77092856Y-102356712D02*
X77054761Y-102394807D01*
X77054761Y-102394807D02*
X77016666Y-102470998D01*
X77016666Y-102470998D02*
X77016666Y-102661474D01*
X77016666Y-102661474D02*
X77054761Y-102737664D01*
X77054761Y-102737664D02*
X77092856Y-102775760D01*
X77092856Y-102775760D02*
X77169047Y-102813855D01*
X77169047Y-102813855D02*
X77359523Y-102813855D01*
X77359523Y-102813855D02*
X77435713Y-102775760D01*
X77435713Y-102775760D02*
X77473809Y-102737664D01*
X106740476Y-90615855D02*
X106283333Y-90615855D01*
X106511905Y-91415855D02*
X106511905Y-90615855D01*
X106016666Y-91415855D02*
X106016666Y-90615855D01*
X106016666Y-90615855D02*
X105711904Y-90615855D01*
X105711904Y-90615855D02*
X105635714Y-90653950D01*
X105635714Y-90653950D02*
X105597619Y-90692045D01*
X105597619Y-90692045D02*
X105559523Y-90768236D01*
X105559523Y-90768236D02*
X105559523Y-90882521D01*
X105559523Y-90882521D02*
X105597619Y-90958712D01*
X105597619Y-90958712D02*
X105635714Y-90996807D01*
X105635714Y-90996807D02*
X105711904Y-91034902D01*
X105711904Y-91034902D02*
X106016666Y-91034902D01*
X105254762Y-90692045D02*
X105216666Y-90653950D01*
X105216666Y-90653950D02*
X105140476Y-90615855D01*
X105140476Y-90615855D02*
X104950000Y-90615855D01*
X104950000Y-90615855D02*
X104873809Y-90653950D01*
X104873809Y-90653950D02*
X104835714Y-90692045D01*
X104835714Y-90692045D02*
X104797619Y-90768236D01*
X104797619Y-90768236D02*
X104797619Y-90844426D01*
X104797619Y-90844426D02*
X104835714Y-90958712D01*
X104835714Y-90958712D02*
X105292857Y-91415855D01*
X105292857Y-91415855D02*
X104797619Y-91415855D01*
X104492857Y-90692045D02*
X104454761Y-90653950D01*
X104454761Y-90653950D02*
X104378571Y-90615855D01*
X104378571Y-90615855D02*
X104188095Y-90615855D01*
X104188095Y-90615855D02*
X104111904Y-90653950D01*
X104111904Y-90653950D02*
X104073809Y-90692045D01*
X104073809Y-90692045D02*
X104035714Y-90768236D01*
X104035714Y-90768236D02*
X104035714Y-90844426D01*
X104035714Y-90844426D02*
X104073809Y-90958712D01*
X104073809Y-90958712D02*
X104530952Y-91415855D01*
X104530952Y-91415855D02*
X104035714Y-91415855D01*
X88740476Y-63715855D02*
X88283333Y-63715855D01*
X88511905Y-64515855D02*
X88511905Y-63715855D01*
X88016666Y-64515855D02*
X88016666Y-63715855D01*
X88016666Y-63715855D02*
X87711904Y-63715855D01*
X87711904Y-63715855D02*
X87635714Y-63753950D01*
X87635714Y-63753950D02*
X87597619Y-63792045D01*
X87597619Y-63792045D02*
X87559523Y-63868236D01*
X87559523Y-63868236D02*
X87559523Y-63982521D01*
X87559523Y-63982521D02*
X87597619Y-64058712D01*
X87597619Y-64058712D02*
X87635714Y-64096807D01*
X87635714Y-64096807D02*
X87711904Y-64134902D01*
X87711904Y-64134902D02*
X88016666Y-64134902D01*
X87292857Y-63715855D02*
X86759523Y-63715855D01*
X86759523Y-63715855D02*
X87102381Y-64515855D01*
X86492857Y-63792045D02*
X86454761Y-63753950D01*
X86454761Y-63753950D02*
X86378571Y-63715855D01*
X86378571Y-63715855D02*
X86188095Y-63715855D01*
X86188095Y-63715855D02*
X86111904Y-63753950D01*
X86111904Y-63753950D02*
X86073809Y-63792045D01*
X86073809Y-63792045D02*
X86035714Y-63868236D01*
X86035714Y-63868236D02*
X86035714Y-63944426D01*
X86035714Y-63944426D02*
X86073809Y-64058712D01*
X86073809Y-64058712D02*
X86530952Y-64515855D01*
X86530952Y-64515855D02*
X86035714Y-64515855D01*
X167613855Y-96359523D02*
X167613855Y-96816666D01*
X168413855Y-96588094D02*
X167613855Y-96588094D01*
X168413855Y-97083333D02*
X167613855Y-97083333D01*
X167613855Y-97083333D02*
X167613855Y-97388095D01*
X167613855Y-97388095D02*
X167651950Y-97464285D01*
X167651950Y-97464285D02*
X167690045Y-97502380D01*
X167690045Y-97502380D02*
X167766236Y-97540476D01*
X167766236Y-97540476D02*
X167880521Y-97540476D01*
X167880521Y-97540476D02*
X167956712Y-97502380D01*
X167956712Y-97502380D02*
X167994807Y-97464285D01*
X167994807Y-97464285D02*
X168032902Y-97388095D01*
X168032902Y-97388095D02*
X168032902Y-97083333D01*
X167613855Y-97807142D02*
X167613855Y-98302380D01*
X167613855Y-98302380D02*
X167918617Y-98035714D01*
X167918617Y-98035714D02*
X167918617Y-98149999D01*
X167918617Y-98149999D02*
X167956712Y-98226190D01*
X167956712Y-98226190D02*
X167994807Y-98264285D01*
X167994807Y-98264285D02*
X168070998Y-98302380D01*
X168070998Y-98302380D02*
X168261474Y-98302380D01*
X168261474Y-98302380D02*
X168337664Y-98264285D01*
X168337664Y-98264285D02*
X168375760Y-98226190D01*
X168375760Y-98226190D02*
X168413855Y-98149999D01*
X168413855Y-98149999D02*
X168413855Y-97921428D01*
X168413855Y-97921428D02*
X168375760Y-97845237D01*
X168375760Y-97845237D02*
X168337664Y-97807142D01*
X167613855Y-98988095D02*
X167613855Y-98835714D01*
X167613855Y-98835714D02*
X167651950Y-98759523D01*
X167651950Y-98759523D02*
X167690045Y-98721428D01*
X167690045Y-98721428D02*
X167804331Y-98645238D01*
X167804331Y-98645238D02*
X167956712Y-98607142D01*
X167956712Y-98607142D02*
X168261474Y-98607142D01*
X168261474Y-98607142D02*
X168337664Y-98645238D01*
X168337664Y-98645238D02*
X168375760Y-98683333D01*
X168375760Y-98683333D02*
X168413855Y-98759523D01*
X168413855Y-98759523D02*
X168413855Y-98911904D01*
X168413855Y-98911904D02*
X168375760Y-98988095D01*
X168375760Y-98988095D02*
X168337664Y-99026190D01*
X168337664Y-99026190D02*
X168261474Y-99064285D01*
X168261474Y-99064285D02*
X168070998Y-99064285D01*
X168070998Y-99064285D02*
X167994807Y-99026190D01*
X167994807Y-99026190D02*
X167956712Y-98988095D01*
X167956712Y-98988095D02*
X167918617Y-98911904D01*
X167918617Y-98911904D02*
X167918617Y-98759523D01*
X167918617Y-98759523D02*
X167956712Y-98683333D01*
X167956712Y-98683333D02*
X167994807Y-98645238D01*
X167994807Y-98645238D02*
X168070998Y-98607142D01*
X134740476Y-118215855D02*
X134283333Y-118215855D01*
X134511905Y-119015855D02*
X134511905Y-118215855D01*
X134016666Y-119015855D02*
X134016666Y-118215855D01*
X134016666Y-118215855D02*
X133711904Y-118215855D01*
X133711904Y-118215855D02*
X133635714Y-118253950D01*
X133635714Y-118253950D02*
X133597619Y-118292045D01*
X133597619Y-118292045D02*
X133559523Y-118368236D01*
X133559523Y-118368236D02*
X133559523Y-118482521D01*
X133559523Y-118482521D02*
X133597619Y-118558712D01*
X133597619Y-118558712D02*
X133635714Y-118596807D01*
X133635714Y-118596807D02*
X133711904Y-118634902D01*
X133711904Y-118634902D02*
X134016666Y-118634902D01*
X132797619Y-119015855D02*
X133254762Y-119015855D01*
X133026190Y-119015855D02*
X133026190Y-118215855D01*
X133026190Y-118215855D02*
X133102381Y-118330140D01*
X133102381Y-118330140D02*
X133178571Y-118406331D01*
X133178571Y-118406331D02*
X133254762Y-118444426D01*
X132530952Y-118215855D02*
X132035714Y-118215855D01*
X132035714Y-118215855D02*
X132302380Y-118520617D01*
X132302380Y-118520617D02*
X132188095Y-118520617D01*
X132188095Y-118520617D02*
X132111904Y-118558712D01*
X132111904Y-118558712D02*
X132073809Y-118596807D01*
X132073809Y-118596807D02*
X132035714Y-118672998D01*
X132035714Y-118672998D02*
X132035714Y-118863474D01*
X132035714Y-118863474D02*
X132073809Y-118939664D01*
X132073809Y-118939664D02*
X132111904Y-118977760D01*
X132111904Y-118977760D02*
X132188095Y-119015855D01*
X132188095Y-119015855D02*
X132416666Y-119015855D01*
X132416666Y-119015855D02*
X132492857Y-118977760D01*
X132492857Y-118977760D02*
X132530952Y-118939664D01*
X167713855Y-124459523D02*
X167713855Y-124916666D01*
X168513855Y-124688094D02*
X167713855Y-124688094D01*
X168513855Y-125183333D02*
X167713855Y-125183333D01*
X167713855Y-125183333D02*
X167713855Y-125488095D01*
X167713855Y-125488095D02*
X167751950Y-125564285D01*
X167751950Y-125564285D02*
X167790045Y-125602380D01*
X167790045Y-125602380D02*
X167866236Y-125640476D01*
X167866236Y-125640476D02*
X167980521Y-125640476D01*
X167980521Y-125640476D02*
X168056712Y-125602380D01*
X168056712Y-125602380D02*
X168094807Y-125564285D01*
X168094807Y-125564285D02*
X168132902Y-125488095D01*
X168132902Y-125488095D02*
X168132902Y-125183333D01*
X167713855Y-126326190D02*
X167713855Y-126173809D01*
X167713855Y-126173809D02*
X167751950Y-126097618D01*
X167751950Y-126097618D02*
X167790045Y-126059523D01*
X167790045Y-126059523D02*
X167904331Y-125983333D01*
X167904331Y-125983333D02*
X168056712Y-125945237D01*
X168056712Y-125945237D02*
X168361474Y-125945237D01*
X168361474Y-125945237D02*
X168437664Y-125983333D01*
X168437664Y-125983333D02*
X168475760Y-126021428D01*
X168475760Y-126021428D02*
X168513855Y-126097618D01*
X168513855Y-126097618D02*
X168513855Y-126249999D01*
X168513855Y-126249999D02*
X168475760Y-126326190D01*
X168475760Y-126326190D02*
X168437664Y-126364285D01*
X168437664Y-126364285D02*
X168361474Y-126402380D01*
X168361474Y-126402380D02*
X168170998Y-126402380D01*
X168170998Y-126402380D02*
X168094807Y-126364285D01*
X168094807Y-126364285D02*
X168056712Y-126326190D01*
X168056712Y-126326190D02*
X168018617Y-126249999D01*
X168018617Y-126249999D02*
X168018617Y-126097618D01*
X168018617Y-126097618D02*
X168056712Y-126021428D01*
X168056712Y-126021428D02*
X168094807Y-125983333D01*
X168094807Y-125983333D02*
X168170998Y-125945237D01*
X167713855Y-127088095D02*
X167713855Y-126935714D01*
X167713855Y-126935714D02*
X167751950Y-126859523D01*
X167751950Y-126859523D02*
X167790045Y-126821428D01*
X167790045Y-126821428D02*
X167904331Y-126745238D01*
X167904331Y-126745238D02*
X168056712Y-126707142D01*
X168056712Y-126707142D02*
X168361474Y-126707142D01*
X168361474Y-126707142D02*
X168437664Y-126745238D01*
X168437664Y-126745238D02*
X168475760Y-126783333D01*
X168475760Y-126783333D02*
X168513855Y-126859523D01*
X168513855Y-126859523D02*
X168513855Y-127011904D01*
X168513855Y-127011904D02*
X168475760Y-127088095D01*
X168475760Y-127088095D02*
X168437664Y-127126190D01*
X168437664Y-127126190D02*
X168361474Y-127164285D01*
X168361474Y-127164285D02*
X168170998Y-127164285D01*
X168170998Y-127164285D02*
X168094807Y-127126190D01*
X168094807Y-127126190D02*
X168056712Y-127088095D01*
X168056712Y-127088095D02*
X168018617Y-127011904D01*
X168018617Y-127011904D02*
X168018617Y-126859523D01*
X168018617Y-126859523D02*
X168056712Y-126783333D01*
X168056712Y-126783333D02*
X168094807Y-126745238D01*
X168094807Y-126745238D02*
X168170998Y-126707142D01*
X183715855Y-102759523D02*
X183715855Y-103216666D01*
X184515855Y-102988094D02*
X183715855Y-102988094D01*
X184515855Y-103483333D02*
X183715855Y-103483333D01*
X183715855Y-103483333D02*
X183715855Y-103788095D01*
X183715855Y-103788095D02*
X183753950Y-103864285D01*
X183753950Y-103864285D02*
X183792045Y-103902380D01*
X183792045Y-103902380D02*
X183868236Y-103940476D01*
X183868236Y-103940476D02*
X183982521Y-103940476D01*
X183982521Y-103940476D02*
X184058712Y-103902380D01*
X184058712Y-103902380D02*
X184096807Y-103864285D01*
X184096807Y-103864285D02*
X184134902Y-103788095D01*
X184134902Y-103788095D02*
X184134902Y-103483333D01*
X183715855Y-104664285D02*
X183715855Y-104283333D01*
X183715855Y-104283333D02*
X184096807Y-104245237D01*
X184096807Y-104245237D02*
X184058712Y-104283333D01*
X184058712Y-104283333D02*
X184020617Y-104359523D01*
X184020617Y-104359523D02*
X184020617Y-104549999D01*
X184020617Y-104549999D02*
X184058712Y-104626190D01*
X184058712Y-104626190D02*
X184096807Y-104664285D01*
X184096807Y-104664285D02*
X184172998Y-104702380D01*
X184172998Y-104702380D02*
X184363474Y-104702380D01*
X184363474Y-104702380D02*
X184439664Y-104664285D01*
X184439664Y-104664285D02*
X184477760Y-104626190D01*
X184477760Y-104626190D02*
X184515855Y-104549999D01*
X184515855Y-104549999D02*
X184515855Y-104359523D01*
X184515855Y-104359523D02*
X184477760Y-104283333D01*
X184477760Y-104283333D02*
X184439664Y-104245237D01*
X183715855Y-105197619D02*
X183715855Y-105273809D01*
X183715855Y-105273809D02*
X183753950Y-105350000D01*
X183753950Y-105350000D02*
X183792045Y-105388095D01*
X183792045Y-105388095D02*
X183868236Y-105426190D01*
X183868236Y-105426190D02*
X184020617Y-105464285D01*
X184020617Y-105464285D02*
X184211093Y-105464285D01*
X184211093Y-105464285D02*
X184363474Y-105426190D01*
X184363474Y-105426190D02*
X184439664Y-105388095D01*
X184439664Y-105388095D02*
X184477760Y-105350000D01*
X184477760Y-105350000D02*
X184515855Y-105273809D01*
X184515855Y-105273809D02*
X184515855Y-105197619D01*
X184515855Y-105197619D02*
X184477760Y-105121428D01*
X184477760Y-105121428D02*
X184439664Y-105083333D01*
X184439664Y-105083333D02*
X184363474Y-105045238D01*
X184363474Y-105045238D02*
X184211093Y-105007142D01*
X184211093Y-105007142D02*
X184020617Y-105007142D01*
X184020617Y-105007142D02*
X183868236Y-105045238D01*
X183868236Y-105045238D02*
X183792045Y-105083333D01*
X183792045Y-105083333D02*
X183753950Y-105121428D01*
X183753950Y-105121428D02*
X183715855Y-105197619D01*
X200813855Y-62259523D02*
X200813855Y-62716666D01*
X201613855Y-62488094D02*
X200813855Y-62488094D01*
X201613855Y-62983333D02*
X200813855Y-62983333D01*
X200813855Y-62983333D02*
X200813855Y-63288095D01*
X200813855Y-63288095D02*
X200851950Y-63364285D01*
X200851950Y-63364285D02*
X200890045Y-63402380D01*
X200890045Y-63402380D02*
X200966236Y-63440476D01*
X200966236Y-63440476D02*
X201080521Y-63440476D01*
X201080521Y-63440476D02*
X201156712Y-63402380D01*
X201156712Y-63402380D02*
X201194807Y-63364285D01*
X201194807Y-63364285D02*
X201232902Y-63288095D01*
X201232902Y-63288095D02*
X201232902Y-62983333D01*
X201613855Y-64202380D02*
X201613855Y-63745237D01*
X201613855Y-63973809D02*
X200813855Y-63973809D01*
X200813855Y-63973809D02*
X200928140Y-63897618D01*
X200928140Y-63897618D02*
X201004331Y-63821428D01*
X201004331Y-63821428D02*
X201042426Y-63745237D01*
X201613855Y-64583333D02*
X201613855Y-64735714D01*
X201613855Y-64735714D02*
X201575760Y-64811904D01*
X201575760Y-64811904D02*
X201537664Y-64850000D01*
X201537664Y-64850000D02*
X201423379Y-64926190D01*
X201423379Y-64926190D02*
X201270998Y-64964285D01*
X201270998Y-64964285D02*
X200966236Y-64964285D01*
X200966236Y-64964285D02*
X200890045Y-64926190D01*
X200890045Y-64926190D02*
X200851950Y-64888095D01*
X200851950Y-64888095D02*
X200813855Y-64811904D01*
X200813855Y-64811904D02*
X200813855Y-64659523D01*
X200813855Y-64659523D02*
X200851950Y-64583333D01*
X200851950Y-64583333D02*
X200890045Y-64545238D01*
X200890045Y-64545238D02*
X200966236Y-64507142D01*
X200966236Y-64507142D02*
X201156712Y-64507142D01*
X201156712Y-64507142D02*
X201232902Y-64545238D01*
X201232902Y-64545238D02*
X201270998Y-64583333D01*
X201270998Y-64583333D02*
X201309093Y-64659523D01*
X201309093Y-64659523D02*
X201309093Y-64811904D01*
X201309093Y-64811904D02*
X201270998Y-64888095D01*
X201270998Y-64888095D02*
X201232902Y-64926190D01*
X201232902Y-64926190D02*
X201156712Y-64964285D01*
X77759523Y-93215855D02*
X77302380Y-93215855D01*
X77530952Y-94015855D02*
X77530952Y-93215855D01*
X77035713Y-94015855D02*
X77035713Y-93215855D01*
X77035713Y-93215855D02*
X76730951Y-93215855D01*
X76730951Y-93215855D02*
X76654761Y-93253950D01*
X76654761Y-93253950D02*
X76616666Y-93292045D01*
X76616666Y-93292045D02*
X76578570Y-93368236D01*
X76578570Y-93368236D02*
X76578570Y-93482521D01*
X76578570Y-93482521D02*
X76616666Y-93558712D01*
X76616666Y-93558712D02*
X76654761Y-93596807D01*
X76654761Y-93596807D02*
X76730951Y-93634902D01*
X76730951Y-93634902D02*
X77035713Y-93634902D01*
X76197618Y-94015855D02*
X76045237Y-94015855D01*
X76045237Y-94015855D02*
X75969047Y-93977760D01*
X75969047Y-93977760D02*
X75930951Y-93939664D01*
X75930951Y-93939664D02*
X75854761Y-93825379D01*
X75854761Y-93825379D02*
X75816666Y-93672998D01*
X75816666Y-93672998D02*
X75816666Y-93368236D01*
X75816666Y-93368236D02*
X75854761Y-93292045D01*
X75854761Y-93292045D02*
X75892856Y-93253950D01*
X75892856Y-93253950D02*
X75969047Y-93215855D01*
X75969047Y-93215855D02*
X76121428Y-93215855D01*
X76121428Y-93215855D02*
X76197618Y-93253950D01*
X76197618Y-93253950D02*
X76235713Y-93292045D01*
X76235713Y-93292045D02*
X76273809Y-93368236D01*
X76273809Y-93368236D02*
X76273809Y-93558712D01*
X76273809Y-93558712D02*
X76235713Y-93634902D01*
X76235713Y-93634902D02*
X76197618Y-93672998D01*
X76197618Y-93672998D02*
X76121428Y-93711093D01*
X76121428Y-93711093D02*
X75969047Y-93711093D01*
X75969047Y-93711093D02*
X75892856Y-93672998D01*
X75892856Y-93672998D02*
X75854761Y-93634902D01*
X75854761Y-93634902D02*
X75816666Y-93558712D01*
X208213855Y-70059523D02*
X208213855Y-70516666D01*
X209013855Y-70288094D02*
X208213855Y-70288094D01*
X209013855Y-70783333D02*
X208213855Y-70783333D01*
X208213855Y-70783333D02*
X208213855Y-71088095D01*
X208213855Y-71088095D02*
X208251950Y-71164285D01*
X208251950Y-71164285D02*
X208290045Y-71202380D01*
X208290045Y-71202380D02*
X208366236Y-71240476D01*
X208366236Y-71240476D02*
X208480521Y-71240476D01*
X208480521Y-71240476D02*
X208556712Y-71202380D01*
X208556712Y-71202380D02*
X208594807Y-71164285D01*
X208594807Y-71164285D02*
X208632902Y-71088095D01*
X208632902Y-71088095D02*
X208632902Y-70783333D01*
X209013855Y-72002380D02*
X209013855Y-71545237D01*
X209013855Y-71773809D02*
X208213855Y-71773809D01*
X208213855Y-71773809D02*
X208328140Y-71697618D01*
X208328140Y-71697618D02*
X208404331Y-71621428D01*
X208404331Y-71621428D02*
X208442426Y-71545237D01*
X208213855Y-72269047D02*
X208213855Y-72802381D01*
X208213855Y-72802381D02*
X209013855Y-72459523D01*
X200913855Y-124859523D02*
X200913855Y-125316666D01*
X201713855Y-125088094D02*
X200913855Y-125088094D01*
X201713855Y-125583333D02*
X200913855Y-125583333D01*
X200913855Y-125583333D02*
X200913855Y-125888095D01*
X200913855Y-125888095D02*
X200951950Y-125964285D01*
X200951950Y-125964285D02*
X200990045Y-126002380D01*
X200990045Y-126002380D02*
X201066236Y-126040476D01*
X201066236Y-126040476D02*
X201180521Y-126040476D01*
X201180521Y-126040476D02*
X201256712Y-126002380D01*
X201256712Y-126002380D02*
X201294807Y-125964285D01*
X201294807Y-125964285D02*
X201332902Y-125888095D01*
X201332902Y-125888095D02*
X201332902Y-125583333D01*
X201180521Y-126726190D02*
X201713855Y-126726190D01*
X200875760Y-126535714D02*
X201447188Y-126345237D01*
X201447188Y-126345237D02*
X201447188Y-126840476D01*
X200913855Y-127488095D02*
X200913855Y-127335714D01*
X200913855Y-127335714D02*
X200951950Y-127259523D01*
X200951950Y-127259523D02*
X200990045Y-127221428D01*
X200990045Y-127221428D02*
X201104331Y-127145238D01*
X201104331Y-127145238D02*
X201256712Y-127107142D01*
X201256712Y-127107142D02*
X201561474Y-127107142D01*
X201561474Y-127107142D02*
X201637664Y-127145238D01*
X201637664Y-127145238D02*
X201675760Y-127183333D01*
X201675760Y-127183333D02*
X201713855Y-127259523D01*
X201713855Y-127259523D02*
X201713855Y-127411904D01*
X201713855Y-127411904D02*
X201675760Y-127488095D01*
X201675760Y-127488095D02*
X201637664Y-127526190D01*
X201637664Y-127526190D02*
X201561474Y-127564285D01*
X201561474Y-127564285D02*
X201370998Y-127564285D01*
X201370998Y-127564285D02*
X201294807Y-127526190D01*
X201294807Y-127526190D02*
X201256712Y-127488095D01*
X201256712Y-127488095D02*
X201218617Y-127411904D01*
X201218617Y-127411904D02*
X201218617Y-127259523D01*
X201218617Y-127259523D02*
X201256712Y-127183333D01*
X201256712Y-127183333D02*
X201294807Y-127145238D01*
X201294807Y-127145238D02*
X201370998Y-127107142D01*
X182215855Y-128559523D02*
X182215855Y-129016666D01*
X183015855Y-128788094D02*
X182215855Y-128788094D01*
X183015855Y-129283333D02*
X182215855Y-129283333D01*
X182215855Y-129283333D02*
X182215855Y-129588095D01*
X182215855Y-129588095D02*
X182253950Y-129664285D01*
X182253950Y-129664285D02*
X182292045Y-129702380D01*
X182292045Y-129702380D02*
X182368236Y-129740476D01*
X182368236Y-129740476D02*
X182482521Y-129740476D01*
X182482521Y-129740476D02*
X182558712Y-129702380D01*
X182558712Y-129702380D02*
X182596807Y-129664285D01*
X182596807Y-129664285D02*
X182634902Y-129588095D01*
X182634902Y-129588095D02*
X182634902Y-129283333D01*
X182482521Y-130426190D02*
X183015855Y-130426190D01*
X182177760Y-130235714D02*
X182749188Y-130045237D01*
X182749188Y-130045237D02*
X182749188Y-130540476D01*
X182215855Y-130997619D02*
X182215855Y-131073809D01*
X182215855Y-131073809D02*
X182253950Y-131150000D01*
X182253950Y-131150000D02*
X182292045Y-131188095D01*
X182292045Y-131188095D02*
X182368236Y-131226190D01*
X182368236Y-131226190D02*
X182520617Y-131264285D01*
X182520617Y-131264285D02*
X182711093Y-131264285D01*
X182711093Y-131264285D02*
X182863474Y-131226190D01*
X182863474Y-131226190D02*
X182939664Y-131188095D01*
X182939664Y-131188095D02*
X182977760Y-131150000D01*
X182977760Y-131150000D02*
X183015855Y-131073809D01*
X183015855Y-131073809D02*
X183015855Y-130997619D01*
X183015855Y-130997619D02*
X182977760Y-130921428D01*
X182977760Y-130921428D02*
X182939664Y-130883333D01*
X182939664Y-130883333D02*
X182863474Y-130845238D01*
X182863474Y-130845238D02*
X182711093Y-130807142D01*
X182711093Y-130807142D02*
X182520617Y-130807142D01*
X182520617Y-130807142D02*
X182368236Y-130845238D01*
X182368236Y-130845238D02*
X182292045Y-130883333D01*
X182292045Y-130883333D02*
X182253950Y-130921428D01*
X182253950Y-130921428D02*
X182215855Y-130997619D01*
X134840476Y-97815855D02*
X134383333Y-97815855D01*
X134611905Y-98615855D02*
X134611905Y-97815855D01*
X134116666Y-98615855D02*
X134116666Y-97815855D01*
X134116666Y-97815855D02*
X133811904Y-97815855D01*
X133811904Y-97815855D02*
X133735714Y-97853950D01*
X133735714Y-97853950D02*
X133697619Y-97892045D01*
X133697619Y-97892045D02*
X133659523Y-97968236D01*
X133659523Y-97968236D02*
X133659523Y-98082521D01*
X133659523Y-98082521D02*
X133697619Y-98158712D01*
X133697619Y-98158712D02*
X133735714Y-98196807D01*
X133735714Y-98196807D02*
X133811904Y-98234902D01*
X133811904Y-98234902D02*
X134116666Y-98234902D01*
X132897619Y-98615855D02*
X133354762Y-98615855D01*
X133126190Y-98615855D02*
X133126190Y-97815855D01*
X133126190Y-97815855D02*
X133202381Y-97930140D01*
X133202381Y-97930140D02*
X133278571Y-98006331D01*
X133278571Y-98006331D02*
X133354762Y-98044426D01*
X132173809Y-97815855D02*
X132554761Y-97815855D01*
X132554761Y-97815855D02*
X132592857Y-98196807D01*
X132592857Y-98196807D02*
X132554761Y-98158712D01*
X132554761Y-98158712D02*
X132478571Y-98120617D01*
X132478571Y-98120617D02*
X132288095Y-98120617D01*
X132288095Y-98120617D02*
X132211904Y-98158712D01*
X132211904Y-98158712D02*
X132173809Y-98196807D01*
X132173809Y-98196807D02*
X132135714Y-98272998D01*
X132135714Y-98272998D02*
X132135714Y-98463474D01*
X132135714Y-98463474D02*
X132173809Y-98539664D01*
X132173809Y-98539664D02*
X132211904Y-98577760D01*
X132211904Y-98577760D02*
X132288095Y-98615855D01*
X132288095Y-98615855D02*
X132478571Y-98615855D01*
X132478571Y-98615855D02*
X132554761Y-98577760D01*
X132554761Y-98577760D02*
X132592857Y-98539664D01*
X208213855Y-98459523D02*
X208213855Y-98916666D01*
X209013855Y-98688094D02*
X208213855Y-98688094D01*
X209013855Y-99183333D02*
X208213855Y-99183333D01*
X208213855Y-99183333D02*
X208213855Y-99488095D01*
X208213855Y-99488095D02*
X208251950Y-99564285D01*
X208251950Y-99564285D02*
X208290045Y-99602380D01*
X208290045Y-99602380D02*
X208366236Y-99640476D01*
X208366236Y-99640476D02*
X208480521Y-99640476D01*
X208480521Y-99640476D02*
X208556712Y-99602380D01*
X208556712Y-99602380D02*
X208594807Y-99564285D01*
X208594807Y-99564285D02*
X208632902Y-99488095D01*
X208632902Y-99488095D02*
X208632902Y-99183333D01*
X208213855Y-100364285D02*
X208213855Y-99983333D01*
X208213855Y-99983333D02*
X208594807Y-99945237D01*
X208594807Y-99945237D02*
X208556712Y-99983333D01*
X208556712Y-99983333D02*
X208518617Y-100059523D01*
X208518617Y-100059523D02*
X208518617Y-100249999D01*
X208518617Y-100249999D02*
X208556712Y-100326190D01*
X208556712Y-100326190D02*
X208594807Y-100364285D01*
X208594807Y-100364285D02*
X208670998Y-100402380D01*
X208670998Y-100402380D02*
X208861474Y-100402380D01*
X208861474Y-100402380D02*
X208937664Y-100364285D01*
X208937664Y-100364285D02*
X208975760Y-100326190D01*
X208975760Y-100326190D02*
X209013855Y-100249999D01*
X209013855Y-100249999D02*
X209013855Y-100059523D01*
X209013855Y-100059523D02*
X208975760Y-99983333D01*
X208975760Y-99983333D02*
X208937664Y-99945237D01*
X208213855Y-100669047D02*
X208213855Y-101202381D01*
X208213855Y-101202381D02*
X209013855Y-100859523D01*
X153715855Y-53759523D02*
X153715855Y-54216666D01*
X154515855Y-53988094D02*
X153715855Y-53988094D01*
X154515855Y-54483333D02*
X153715855Y-54483333D01*
X153715855Y-54483333D02*
X153715855Y-54788095D01*
X153715855Y-54788095D02*
X153753950Y-54864285D01*
X153753950Y-54864285D02*
X153792045Y-54902380D01*
X153792045Y-54902380D02*
X153868236Y-54940476D01*
X153868236Y-54940476D02*
X153982521Y-54940476D01*
X153982521Y-54940476D02*
X154058712Y-54902380D01*
X154058712Y-54902380D02*
X154096807Y-54864285D01*
X154096807Y-54864285D02*
X154134902Y-54788095D01*
X154134902Y-54788095D02*
X154134902Y-54483333D01*
X153792045Y-55245237D02*
X153753950Y-55283333D01*
X153753950Y-55283333D02*
X153715855Y-55359523D01*
X153715855Y-55359523D02*
X153715855Y-55549999D01*
X153715855Y-55549999D02*
X153753950Y-55626190D01*
X153753950Y-55626190D02*
X153792045Y-55664285D01*
X153792045Y-55664285D02*
X153868236Y-55702380D01*
X153868236Y-55702380D02*
X153944426Y-55702380D01*
X153944426Y-55702380D02*
X154058712Y-55664285D01*
X154058712Y-55664285D02*
X154515855Y-55207142D01*
X154515855Y-55207142D02*
X154515855Y-55702380D01*
X154515855Y-56464285D02*
X154515855Y-56007142D01*
X154515855Y-56235714D02*
X153715855Y-56235714D01*
X153715855Y-56235714D02*
X153830140Y-56159523D01*
X153830140Y-56159523D02*
X153906331Y-56083333D01*
X153906331Y-56083333D02*
X153944426Y-56007142D01*
X208013855Y-127059523D02*
X208013855Y-127516666D01*
X208813855Y-127288094D02*
X208013855Y-127288094D01*
X208813855Y-127783333D02*
X208013855Y-127783333D01*
X208013855Y-127783333D02*
X208013855Y-128088095D01*
X208013855Y-128088095D02*
X208051950Y-128164285D01*
X208051950Y-128164285D02*
X208090045Y-128202380D01*
X208090045Y-128202380D02*
X208166236Y-128240476D01*
X208166236Y-128240476D02*
X208280521Y-128240476D01*
X208280521Y-128240476D02*
X208356712Y-128202380D01*
X208356712Y-128202380D02*
X208394807Y-128164285D01*
X208394807Y-128164285D02*
X208432902Y-128088095D01*
X208432902Y-128088095D02*
X208432902Y-127783333D01*
X208280521Y-128926190D02*
X208813855Y-128926190D01*
X207975760Y-128735714D02*
X208547188Y-128545237D01*
X208547188Y-128545237D02*
X208547188Y-129040476D01*
X208013855Y-129269047D02*
X208013855Y-129802381D01*
X208013855Y-129802381D02*
X208813855Y-129459523D01*
X208313855Y-64459523D02*
X208313855Y-64916666D01*
X209113855Y-64688094D02*
X208313855Y-64688094D01*
X209113855Y-65183333D02*
X208313855Y-65183333D01*
X208313855Y-65183333D02*
X208313855Y-65488095D01*
X208313855Y-65488095D02*
X208351950Y-65564285D01*
X208351950Y-65564285D02*
X208390045Y-65602380D01*
X208390045Y-65602380D02*
X208466236Y-65640476D01*
X208466236Y-65640476D02*
X208580521Y-65640476D01*
X208580521Y-65640476D02*
X208656712Y-65602380D01*
X208656712Y-65602380D02*
X208694807Y-65564285D01*
X208694807Y-65564285D02*
X208732902Y-65488095D01*
X208732902Y-65488095D02*
X208732902Y-65183333D01*
X209113855Y-66402380D02*
X209113855Y-65945237D01*
X209113855Y-66173809D02*
X208313855Y-66173809D01*
X208313855Y-66173809D02*
X208428140Y-66097618D01*
X208428140Y-66097618D02*
X208504331Y-66021428D01*
X208504331Y-66021428D02*
X208542426Y-65945237D01*
X208656712Y-66859523D02*
X208618617Y-66783333D01*
X208618617Y-66783333D02*
X208580521Y-66745238D01*
X208580521Y-66745238D02*
X208504331Y-66707142D01*
X208504331Y-66707142D02*
X208466236Y-66707142D01*
X208466236Y-66707142D02*
X208390045Y-66745238D01*
X208390045Y-66745238D02*
X208351950Y-66783333D01*
X208351950Y-66783333D02*
X208313855Y-66859523D01*
X208313855Y-66859523D02*
X208313855Y-67011904D01*
X208313855Y-67011904D02*
X208351950Y-67088095D01*
X208351950Y-67088095D02*
X208390045Y-67126190D01*
X208390045Y-67126190D02*
X208466236Y-67164285D01*
X208466236Y-67164285D02*
X208504331Y-67164285D01*
X208504331Y-67164285D02*
X208580521Y-67126190D01*
X208580521Y-67126190D02*
X208618617Y-67088095D01*
X208618617Y-67088095D02*
X208656712Y-67011904D01*
X208656712Y-67011904D02*
X208656712Y-66859523D01*
X208656712Y-66859523D02*
X208694807Y-66783333D01*
X208694807Y-66783333D02*
X208732902Y-66745238D01*
X208732902Y-66745238D02*
X208809093Y-66707142D01*
X208809093Y-66707142D02*
X208961474Y-66707142D01*
X208961474Y-66707142D02*
X209037664Y-66745238D01*
X209037664Y-66745238D02*
X209075760Y-66783333D01*
X209075760Y-66783333D02*
X209113855Y-66859523D01*
X209113855Y-66859523D02*
X209113855Y-67011904D01*
X209113855Y-67011904D02*
X209075760Y-67088095D01*
X209075760Y-67088095D02*
X209037664Y-67126190D01*
X209037664Y-67126190D02*
X208961474Y-67164285D01*
X208961474Y-67164285D02*
X208809093Y-67164285D01*
X208809093Y-67164285D02*
X208732902Y-67126190D01*
X208732902Y-67126190D02*
X208694807Y-67088095D01*
X208694807Y-67088095D02*
X208656712Y-67011904D01*
X150715855Y-81359523D02*
X150715855Y-81816666D01*
X151515855Y-81588094D02*
X150715855Y-81588094D01*
X151515855Y-82083333D02*
X150715855Y-82083333D01*
X150715855Y-82083333D02*
X150715855Y-82388095D01*
X150715855Y-82388095D02*
X150753950Y-82464285D01*
X150753950Y-82464285D02*
X150792045Y-82502380D01*
X150792045Y-82502380D02*
X150868236Y-82540476D01*
X150868236Y-82540476D02*
X150982521Y-82540476D01*
X150982521Y-82540476D02*
X151058712Y-82502380D01*
X151058712Y-82502380D02*
X151096807Y-82464285D01*
X151096807Y-82464285D02*
X151134902Y-82388095D01*
X151134902Y-82388095D02*
X151134902Y-82083333D01*
X150715855Y-82807142D02*
X150715855Y-83302380D01*
X150715855Y-83302380D02*
X151020617Y-83035714D01*
X151020617Y-83035714D02*
X151020617Y-83149999D01*
X151020617Y-83149999D02*
X151058712Y-83226190D01*
X151058712Y-83226190D02*
X151096807Y-83264285D01*
X151096807Y-83264285D02*
X151172998Y-83302380D01*
X151172998Y-83302380D02*
X151363474Y-83302380D01*
X151363474Y-83302380D02*
X151439664Y-83264285D01*
X151439664Y-83264285D02*
X151477760Y-83226190D01*
X151477760Y-83226190D02*
X151515855Y-83149999D01*
X151515855Y-83149999D02*
X151515855Y-82921428D01*
X151515855Y-82921428D02*
X151477760Y-82845237D01*
X151477760Y-82845237D02*
X151439664Y-82807142D01*
X151515855Y-84064285D02*
X151515855Y-83607142D01*
X151515855Y-83835714D02*
X150715855Y-83835714D01*
X150715855Y-83835714D02*
X150830140Y-83759523D01*
X150830140Y-83759523D02*
X150906331Y-83683333D01*
X150906331Y-83683333D02*
X150944426Y-83607142D01*
X146240476Y-88715855D02*
X145783333Y-88715855D01*
X146011905Y-89515855D02*
X146011905Y-88715855D01*
X145516666Y-89515855D02*
X145516666Y-88715855D01*
X145516666Y-88715855D02*
X145211904Y-88715855D01*
X145211904Y-88715855D02*
X145135714Y-88753950D01*
X145135714Y-88753950D02*
X145097619Y-88792045D01*
X145097619Y-88792045D02*
X145059523Y-88868236D01*
X145059523Y-88868236D02*
X145059523Y-88982521D01*
X145059523Y-88982521D02*
X145097619Y-89058712D01*
X145097619Y-89058712D02*
X145135714Y-89096807D01*
X145135714Y-89096807D02*
X145211904Y-89134902D01*
X145211904Y-89134902D02*
X145516666Y-89134902D01*
X144754762Y-88792045D02*
X144716666Y-88753950D01*
X144716666Y-88753950D02*
X144640476Y-88715855D01*
X144640476Y-88715855D02*
X144450000Y-88715855D01*
X144450000Y-88715855D02*
X144373809Y-88753950D01*
X144373809Y-88753950D02*
X144335714Y-88792045D01*
X144335714Y-88792045D02*
X144297619Y-88868236D01*
X144297619Y-88868236D02*
X144297619Y-88944426D01*
X144297619Y-88944426D02*
X144335714Y-89058712D01*
X144335714Y-89058712D02*
X144792857Y-89515855D01*
X144792857Y-89515855D02*
X144297619Y-89515855D01*
X143573809Y-88715855D02*
X143954761Y-88715855D01*
X143954761Y-88715855D02*
X143992857Y-89096807D01*
X143992857Y-89096807D02*
X143954761Y-89058712D01*
X143954761Y-89058712D02*
X143878571Y-89020617D01*
X143878571Y-89020617D02*
X143688095Y-89020617D01*
X143688095Y-89020617D02*
X143611904Y-89058712D01*
X143611904Y-89058712D02*
X143573809Y-89096807D01*
X143573809Y-89096807D02*
X143535714Y-89172998D01*
X143535714Y-89172998D02*
X143535714Y-89363474D01*
X143535714Y-89363474D02*
X143573809Y-89439664D01*
X143573809Y-89439664D02*
X143611904Y-89477760D01*
X143611904Y-89477760D02*
X143688095Y-89515855D01*
X143688095Y-89515855D02*
X143878571Y-89515855D01*
X143878571Y-89515855D02*
X143954761Y-89477760D01*
X143954761Y-89477760D02*
X143992857Y-89439664D01*
X134840476Y-107915855D02*
X134383333Y-107915855D01*
X134611905Y-108715855D02*
X134611905Y-107915855D01*
X134116666Y-108715855D02*
X134116666Y-107915855D01*
X134116666Y-107915855D02*
X133811904Y-107915855D01*
X133811904Y-107915855D02*
X133735714Y-107953950D01*
X133735714Y-107953950D02*
X133697619Y-107992045D01*
X133697619Y-107992045D02*
X133659523Y-108068236D01*
X133659523Y-108068236D02*
X133659523Y-108182521D01*
X133659523Y-108182521D02*
X133697619Y-108258712D01*
X133697619Y-108258712D02*
X133735714Y-108296807D01*
X133735714Y-108296807D02*
X133811904Y-108334902D01*
X133811904Y-108334902D02*
X134116666Y-108334902D01*
X132897619Y-108715855D02*
X133354762Y-108715855D01*
X133126190Y-108715855D02*
X133126190Y-107915855D01*
X133126190Y-107915855D02*
X133202381Y-108030140D01*
X133202381Y-108030140D02*
X133278571Y-108106331D01*
X133278571Y-108106331D02*
X133354762Y-108144426D01*
X132211904Y-108182521D02*
X132211904Y-108715855D01*
X132402380Y-107877760D02*
X132592857Y-108449188D01*
X132592857Y-108449188D02*
X132097618Y-108449188D01*
X174913855Y-121459523D02*
X174913855Y-121916666D01*
X175713855Y-121688094D02*
X174913855Y-121688094D01*
X175713855Y-122183333D02*
X174913855Y-122183333D01*
X174913855Y-122183333D02*
X174913855Y-122488095D01*
X174913855Y-122488095D02*
X174951950Y-122564285D01*
X174951950Y-122564285D02*
X174990045Y-122602380D01*
X174990045Y-122602380D02*
X175066236Y-122640476D01*
X175066236Y-122640476D02*
X175180521Y-122640476D01*
X175180521Y-122640476D02*
X175256712Y-122602380D01*
X175256712Y-122602380D02*
X175294807Y-122564285D01*
X175294807Y-122564285D02*
X175332902Y-122488095D01*
X175332902Y-122488095D02*
X175332902Y-122183333D01*
X174913855Y-123326190D02*
X174913855Y-123173809D01*
X174913855Y-123173809D02*
X174951950Y-123097618D01*
X174951950Y-123097618D02*
X174990045Y-123059523D01*
X174990045Y-123059523D02*
X175104331Y-122983333D01*
X175104331Y-122983333D02*
X175256712Y-122945237D01*
X175256712Y-122945237D02*
X175561474Y-122945237D01*
X175561474Y-122945237D02*
X175637664Y-122983333D01*
X175637664Y-122983333D02*
X175675760Y-123021428D01*
X175675760Y-123021428D02*
X175713855Y-123097618D01*
X175713855Y-123097618D02*
X175713855Y-123249999D01*
X175713855Y-123249999D02*
X175675760Y-123326190D01*
X175675760Y-123326190D02*
X175637664Y-123364285D01*
X175637664Y-123364285D02*
X175561474Y-123402380D01*
X175561474Y-123402380D02*
X175370998Y-123402380D01*
X175370998Y-123402380D02*
X175294807Y-123364285D01*
X175294807Y-123364285D02*
X175256712Y-123326190D01*
X175256712Y-123326190D02*
X175218617Y-123249999D01*
X175218617Y-123249999D02*
X175218617Y-123097618D01*
X175218617Y-123097618D02*
X175256712Y-123021428D01*
X175256712Y-123021428D02*
X175294807Y-122983333D01*
X175294807Y-122983333D02*
X175370998Y-122945237D01*
X175256712Y-123859523D02*
X175218617Y-123783333D01*
X175218617Y-123783333D02*
X175180521Y-123745238D01*
X175180521Y-123745238D02*
X175104331Y-123707142D01*
X175104331Y-123707142D02*
X175066236Y-123707142D01*
X175066236Y-123707142D02*
X174990045Y-123745238D01*
X174990045Y-123745238D02*
X174951950Y-123783333D01*
X174951950Y-123783333D02*
X174913855Y-123859523D01*
X174913855Y-123859523D02*
X174913855Y-124011904D01*
X174913855Y-124011904D02*
X174951950Y-124088095D01*
X174951950Y-124088095D02*
X174990045Y-124126190D01*
X174990045Y-124126190D02*
X175066236Y-124164285D01*
X175066236Y-124164285D02*
X175104331Y-124164285D01*
X175104331Y-124164285D02*
X175180521Y-124126190D01*
X175180521Y-124126190D02*
X175218617Y-124088095D01*
X175218617Y-124088095D02*
X175256712Y-124011904D01*
X175256712Y-124011904D02*
X175256712Y-123859523D01*
X175256712Y-123859523D02*
X175294807Y-123783333D01*
X175294807Y-123783333D02*
X175332902Y-123745238D01*
X175332902Y-123745238D02*
X175409093Y-123707142D01*
X175409093Y-123707142D02*
X175561474Y-123707142D01*
X175561474Y-123707142D02*
X175637664Y-123745238D01*
X175637664Y-123745238D02*
X175675760Y-123783333D01*
X175675760Y-123783333D02*
X175713855Y-123859523D01*
X175713855Y-123859523D02*
X175713855Y-124011904D01*
X175713855Y-124011904D02*
X175675760Y-124088095D01*
X175675760Y-124088095D02*
X175637664Y-124126190D01*
X175637664Y-124126190D02*
X175561474Y-124164285D01*
X175561474Y-124164285D02*
X175409093Y-124164285D01*
X175409093Y-124164285D02*
X175332902Y-124126190D01*
X175332902Y-124126190D02*
X175294807Y-124088095D01*
X175294807Y-124088095D02*
X175256712Y-124011904D01*
X174813855Y-64359523D02*
X174813855Y-64816666D01*
X175613855Y-64588094D02*
X174813855Y-64588094D01*
X175613855Y-65083333D02*
X174813855Y-65083333D01*
X174813855Y-65083333D02*
X174813855Y-65388095D01*
X174813855Y-65388095D02*
X174851950Y-65464285D01*
X174851950Y-65464285D02*
X174890045Y-65502380D01*
X174890045Y-65502380D02*
X174966236Y-65540476D01*
X174966236Y-65540476D02*
X175080521Y-65540476D01*
X175080521Y-65540476D02*
X175156712Y-65502380D01*
X175156712Y-65502380D02*
X175194807Y-65464285D01*
X175194807Y-65464285D02*
X175232902Y-65388095D01*
X175232902Y-65388095D02*
X175232902Y-65083333D01*
X174890045Y-65845237D02*
X174851950Y-65883333D01*
X174851950Y-65883333D02*
X174813855Y-65959523D01*
X174813855Y-65959523D02*
X174813855Y-66149999D01*
X174813855Y-66149999D02*
X174851950Y-66226190D01*
X174851950Y-66226190D02*
X174890045Y-66264285D01*
X174890045Y-66264285D02*
X174966236Y-66302380D01*
X174966236Y-66302380D02*
X175042426Y-66302380D01*
X175042426Y-66302380D02*
X175156712Y-66264285D01*
X175156712Y-66264285D02*
X175613855Y-65807142D01*
X175613855Y-65807142D02*
X175613855Y-66302380D01*
X175156712Y-66759523D02*
X175118617Y-66683333D01*
X175118617Y-66683333D02*
X175080521Y-66645238D01*
X175080521Y-66645238D02*
X175004331Y-66607142D01*
X175004331Y-66607142D02*
X174966236Y-66607142D01*
X174966236Y-66607142D02*
X174890045Y-66645238D01*
X174890045Y-66645238D02*
X174851950Y-66683333D01*
X174851950Y-66683333D02*
X174813855Y-66759523D01*
X174813855Y-66759523D02*
X174813855Y-66911904D01*
X174813855Y-66911904D02*
X174851950Y-66988095D01*
X174851950Y-66988095D02*
X174890045Y-67026190D01*
X174890045Y-67026190D02*
X174966236Y-67064285D01*
X174966236Y-67064285D02*
X175004331Y-67064285D01*
X175004331Y-67064285D02*
X175080521Y-67026190D01*
X175080521Y-67026190D02*
X175118617Y-66988095D01*
X175118617Y-66988095D02*
X175156712Y-66911904D01*
X175156712Y-66911904D02*
X175156712Y-66759523D01*
X175156712Y-66759523D02*
X175194807Y-66683333D01*
X175194807Y-66683333D02*
X175232902Y-66645238D01*
X175232902Y-66645238D02*
X175309093Y-66607142D01*
X175309093Y-66607142D02*
X175461474Y-66607142D01*
X175461474Y-66607142D02*
X175537664Y-66645238D01*
X175537664Y-66645238D02*
X175575760Y-66683333D01*
X175575760Y-66683333D02*
X175613855Y-66759523D01*
X175613855Y-66759523D02*
X175613855Y-66911904D01*
X175613855Y-66911904D02*
X175575760Y-66988095D01*
X175575760Y-66988095D02*
X175537664Y-67026190D01*
X175537664Y-67026190D02*
X175461474Y-67064285D01*
X175461474Y-67064285D02*
X175309093Y-67064285D01*
X175309093Y-67064285D02*
X175232902Y-67026190D01*
X175232902Y-67026190D02*
X175194807Y-66988095D01*
X175194807Y-66988095D02*
X175156712Y-66911904D01*
X201013855Y-96359523D02*
X201013855Y-96816666D01*
X201813855Y-96588094D02*
X201013855Y-96588094D01*
X201813855Y-97083333D02*
X201013855Y-97083333D01*
X201013855Y-97083333D02*
X201013855Y-97388095D01*
X201013855Y-97388095D02*
X201051950Y-97464285D01*
X201051950Y-97464285D02*
X201090045Y-97502380D01*
X201090045Y-97502380D02*
X201166236Y-97540476D01*
X201166236Y-97540476D02*
X201280521Y-97540476D01*
X201280521Y-97540476D02*
X201356712Y-97502380D01*
X201356712Y-97502380D02*
X201394807Y-97464285D01*
X201394807Y-97464285D02*
X201432902Y-97388095D01*
X201432902Y-97388095D02*
X201432902Y-97083333D01*
X201013855Y-98264285D02*
X201013855Y-97883333D01*
X201013855Y-97883333D02*
X201394807Y-97845237D01*
X201394807Y-97845237D02*
X201356712Y-97883333D01*
X201356712Y-97883333D02*
X201318617Y-97959523D01*
X201318617Y-97959523D02*
X201318617Y-98149999D01*
X201318617Y-98149999D02*
X201356712Y-98226190D01*
X201356712Y-98226190D02*
X201394807Y-98264285D01*
X201394807Y-98264285D02*
X201470998Y-98302380D01*
X201470998Y-98302380D02*
X201661474Y-98302380D01*
X201661474Y-98302380D02*
X201737664Y-98264285D01*
X201737664Y-98264285D02*
X201775760Y-98226190D01*
X201775760Y-98226190D02*
X201813855Y-98149999D01*
X201813855Y-98149999D02*
X201813855Y-97959523D01*
X201813855Y-97959523D02*
X201775760Y-97883333D01*
X201775760Y-97883333D02*
X201737664Y-97845237D01*
X201013855Y-98988095D02*
X201013855Y-98835714D01*
X201013855Y-98835714D02*
X201051950Y-98759523D01*
X201051950Y-98759523D02*
X201090045Y-98721428D01*
X201090045Y-98721428D02*
X201204331Y-98645238D01*
X201204331Y-98645238D02*
X201356712Y-98607142D01*
X201356712Y-98607142D02*
X201661474Y-98607142D01*
X201661474Y-98607142D02*
X201737664Y-98645238D01*
X201737664Y-98645238D02*
X201775760Y-98683333D01*
X201775760Y-98683333D02*
X201813855Y-98759523D01*
X201813855Y-98759523D02*
X201813855Y-98911904D01*
X201813855Y-98911904D02*
X201775760Y-98988095D01*
X201775760Y-98988095D02*
X201737664Y-99026190D01*
X201737664Y-99026190D02*
X201661474Y-99064285D01*
X201661474Y-99064285D02*
X201470998Y-99064285D01*
X201470998Y-99064285D02*
X201394807Y-99026190D01*
X201394807Y-99026190D02*
X201356712Y-98988095D01*
X201356712Y-98988095D02*
X201318617Y-98911904D01*
X201318617Y-98911904D02*
X201318617Y-98759523D01*
X201318617Y-98759523D02*
X201356712Y-98683333D01*
X201356712Y-98683333D02*
X201394807Y-98645238D01*
X201394807Y-98645238D02*
X201470998Y-98607142D01*
X167713855Y-119359523D02*
X167713855Y-119816666D01*
X168513855Y-119588094D02*
X167713855Y-119588094D01*
X168513855Y-120083333D02*
X167713855Y-120083333D01*
X167713855Y-120083333D02*
X167713855Y-120388095D01*
X167713855Y-120388095D02*
X167751950Y-120464285D01*
X167751950Y-120464285D02*
X167790045Y-120502380D01*
X167790045Y-120502380D02*
X167866236Y-120540476D01*
X167866236Y-120540476D02*
X167980521Y-120540476D01*
X167980521Y-120540476D02*
X168056712Y-120502380D01*
X168056712Y-120502380D02*
X168094807Y-120464285D01*
X168094807Y-120464285D02*
X168132902Y-120388095D01*
X168132902Y-120388095D02*
X168132902Y-120083333D01*
X167713855Y-121226190D02*
X167713855Y-121073809D01*
X167713855Y-121073809D02*
X167751950Y-120997618D01*
X167751950Y-120997618D02*
X167790045Y-120959523D01*
X167790045Y-120959523D02*
X167904331Y-120883333D01*
X167904331Y-120883333D02*
X168056712Y-120845237D01*
X168056712Y-120845237D02*
X168361474Y-120845237D01*
X168361474Y-120845237D02*
X168437664Y-120883333D01*
X168437664Y-120883333D02*
X168475760Y-120921428D01*
X168475760Y-120921428D02*
X168513855Y-120997618D01*
X168513855Y-120997618D02*
X168513855Y-121149999D01*
X168513855Y-121149999D02*
X168475760Y-121226190D01*
X168475760Y-121226190D02*
X168437664Y-121264285D01*
X168437664Y-121264285D02*
X168361474Y-121302380D01*
X168361474Y-121302380D02*
X168170998Y-121302380D01*
X168170998Y-121302380D02*
X168094807Y-121264285D01*
X168094807Y-121264285D02*
X168056712Y-121226190D01*
X168056712Y-121226190D02*
X168018617Y-121149999D01*
X168018617Y-121149999D02*
X168018617Y-120997618D01*
X168018617Y-120997618D02*
X168056712Y-120921428D01*
X168056712Y-120921428D02*
X168094807Y-120883333D01*
X168094807Y-120883333D02*
X168170998Y-120845237D01*
X168513855Y-121683333D02*
X168513855Y-121835714D01*
X168513855Y-121835714D02*
X168475760Y-121911904D01*
X168475760Y-121911904D02*
X168437664Y-121950000D01*
X168437664Y-121950000D02*
X168323379Y-122026190D01*
X168323379Y-122026190D02*
X168170998Y-122064285D01*
X168170998Y-122064285D02*
X167866236Y-122064285D01*
X167866236Y-122064285D02*
X167790045Y-122026190D01*
X167790045Y-122026190D02*
X167751950Y-121988095D01*
X167751950Y-121988095D02*
X167713855Y-121911904D01*
X167713855Y-121911904D02*
X167713855Y-121759523D01*
X167713855Y-121759523D02*
X167751950Y-121683333D01*
X167751950Y-121683333D02*
X167790045Y-121645238D01*
X167790045Y-121645238D02*
X167866236Y-121607142D01*
X167866236Y-121607142D02*
X168056712Y-121607142D01*
X168056712Y-121607142D02*
X168132902Y-121645238D01*
X168132902Y-121645238D02*
X168170998Y-121683333D01*
X168170998Y-121683333D02*
X168209093Y-121759523D01*
X168209093Y-121759523D02*
X168209093Y-121911904D01*
X168209093Y-121911904D02*
X168170998Y-121988095D01*
X168170998Y-121988095D02*
X168132902Y-122026190D01*
X168132902Y-122026190D02*
X168056712Y-122064285D01*
X174813855Y-127059523D02*
X174813855Y-127516666D01*
X175613855Y-127288094D02*
X174813855Y-127288094D01*
X175613855Y-127783333D02*
X174813855Y-127783333D01*
X174813855Y-127783333D02*
X174813855Y-128088095D01*
X174813855Y-128088095D02*
X174851950Y-128164285D01*
X174851950Y-128164285D02*
X174890045Y-128202380D01*
X174890045Y-128202380D02*
X174966236Y-128240476D01*
X174966236Y-128240476D02*
X175080521Y-128240476D01*
X175080521Y-128240476D02*
X175156712Y-128202380D01*
X175156712Y-128202380D02*
X175194807Y-128164285D01*
X175194807Y-128164285D02*
X175232902Y-128088095D01*
X175232902Y-128088095D02*
X175232902Y-127783333D01*
X174813855Y-128926190D02*
X174813855Y-128773809D01*
X174813855Y-128773809D02*
X174851950Y-128697618D01*
X174851950Y-128697618D02*
X174890045Y-128659523D01*
X174890045Y-128659523D02*
X175004331Y-128583333D01*
X175004331Y-128583333D02*
X175156712Y-128545237D01*
X175156712Y-128545237D02*
X175461474Y-128545237D01*
X175461474Y-128545237D02*
X175537664Y-128583333D01*
X175537664Y-128583333D02*
X175575760Y-128621428D01*
X175575760Y-128621428D02*
X175613855Y-128697618D01*
X175613855Y-128697618D02*
X175613855Y-128849999D01*
X175613855Y-128849999D02*
X175575760Y-128926190D01*
X175575760Y-128926190D02*
X175537664Y-128964285D01*
X175537664Y-128964285D02*
X175461474Y-129002380D01*
X175461474Y-129002380D02*
X175270998Y-129002380D01*
X175270998Y-129002380D02*
X175194807Y-128964285D01*
X175194807Y-128964285D02*
X175156712Y-128926190D01*
X175156712Y-128926190D02*
X175118617Y-128849999D01*
X175118617Y-128849999D02*
X175118617Y-128697618D01*
X175118617Y-128697618D02*
X175156712Y-128621428D01*
X175156712Y-128621428D02*
X175194807Y-128583333D01*
X175194807Y-128583333D02*
X175270998Y-128545237D01*
X174813855Y-129269047D02*
X174813855Y-129802381D01*
X174813855Y-129802381D02*
X175613855Y-129459523D01*
X167613855Y-68059523D02*
X167613855Y-68516666D01*
X168413855Y-68288094D02*
X167613855Y-68288094D01*
X168413855Y-68783333D02*
X167613855Y-68783333D01*
X167613855Y-68783333D02*
X167613855Y-69088095D01*
X167613855Y-69088095D02*
X167651950Y-69164285D01*
X167651950Y-69164285D02*
X167690045Y-69202380D01*
X167690045Y-69202380D02*
X167766236Y-69240476D01*
X167766236Y-69240476D02*
X167880521Y-69240476D01*
X167880521Y-69240476D02*
X167956712Y-69202380D01*
X167956712Y-69202380D02*
X167994807Y-69164285D01*
X167994807Y-69164285D02*
X168032902Y-69088095D01*
X168032902Y-69088095D02*
X168032902Y-68783333D01*
X167690045Y-69545237D02*
X167651950Y-69583333D01*
X167651950Y-69583333D02*
X167613855Y-69659523D01*
X167613855Y-69659523D02*
X167613855Y-69849999D01*
X167613855Y-69849999D02*
X167651950Y-69926190D01*
X167651950Y-69926190D02*
X167690045Y-69964285D01*
X167690045Y-69964285D02*
X167766236Y-70002380D01*
X167766236Y-70002380D02*
X167842426Y-70002380D01*
X167842426Y-70002380D02*
X167956712Y-69964285D01*
X167956712Y-69964285D02*
X168413855Y-69507142D01*
X168413855Y-69507142D02*
X168413855Y-70002380D01*
X167613855Y-70688095D02*
X167613855Y-70535714D01*
X167613855Y-70535714D02*
X167651950Y-70459523D01*
X167651950Y-70459523D02*
X167690045Y-70421428D01*
X167690045Y-70421428D02*
X167804331Y-70345238D01*
X167804331Y-70345238D02*
X167956712Y-70307142D01*
X167956712Y-70307142D02*
X168261474Y-70307142D01*
X168261474Y-70307142D02*
X168337664Y-70345238D01*
X168337664Y-70345238D02*
X168375760Y-70383333D01*
X168375760Y-70383333D02*
X168413855Y-70459523D01*
X168413855Y-70459523D02*
X168413855Y-70611904D01*
X168413855Y-70611904D02*
X168375760Y-70688095D01*
X168375760Y-70688095D02*
X168337664Y-70726190D01*
X168337664Y-70726190D02*
X168261474Y-70764285D01*
X168261474Y-70764285D02*
X168070998Y-70764285D01*
X168070998Y-70764285D02*
X167994807Y-70726190D01*
X167994807Y-70726190D02*
X167956712Y-70688095D01*
X167956712Y-70688095D02*
X167918617Y-70611904D01*
X167918617Y-70611904D02*
X167918617Y-70459523D01*
X167918617Y-70459523D02*
X167956712Y-70383333D01*
X167956712Y-70383333D02*
X167994807Y-70345238D01*
X167994807Y-70345238D02*
X168070998Y-70307142D01*
X174813855Y-69959523D02*
X174813855Y-70416666D01*
X175613855Y-70188094D02*
X174813855Y-70188094D01*
X175613855Y-70683333D02*
X174813855Y-70683333D01*
X174813855Y-70683333D02*
X174813855Y-70988095D01*
X174813855Y-70988095D02*
X174851950Y-71064285D01*
X174851950Y-71064285D02*
X174890045Y-71102380D01*
X174890045Y-71102380D02*
X174966236Y-71140476D01*
X174966236Y-71140476D02*
X175080521Y-71140476D01*
X175080521Y-71140476D02*
X175156712Y-71102380D01*
X175156712Y-71102380D02*
X175194807Y-71064285D01*
X175194807Y-71064285D02*
X175232902Y-70988095D01*
X175232902Y-70988095D02*
X175232902Y-70683333D01*
X174890045Y-71445237D02*
X174851950Y-71483333D01*
X174851950Y-71483333D02*
X174813855Y-71559523D01*
X174813855Y-71559523D02*
X174813855Y-71749999D01*
X174813855Y-71749999D02*
X174851950Y-71826190D01*
X174851950Y-71826190D02*
X174890045Y-71864285D01*
X174890045Y-71864285D02*
X174966236Y-71902380D01*
X174966236Y-71902380D02*
X175042426Y-71902380D01*
X175042426Y-71902380D02*
X175156712Y-71864285D01*
X175156712Y-71864285D02*
X175613855Y-71407142D01*
X175613855Y-71407142D02*
X175613855Y-71902380D01*
X174813855Y-72169047D02*
X174813855Y-72702381D01*
X174813855Y-72702381D02*
X175613855Y-72359523D01*
X83159523Y-112515855D02*
X82702380Y-112515855D01*
X82930952Y-113315855D02*
X82930952Y-112515855D01*
X82435713Y-113315855D02*
X82435713Y-112515855D01*
X82435713Y-112515855D02*
X82130951Y-112515855D01*
X82130951Y-112515855D02*
X82054761Y-112553950D01*
X82054761Y-112553950D02*
X82016666Y-112592045D01*
X82016666Y-112592045D02*
X81978570Y-112668236D01*
X81978570Y-112668236D02*
X81978570Y-112782521D01*
X81978570Y-112782521D02*
X82016666Y-112858712D01*
X82016666Y-112858712D02*
X82054761Y-112896807D01*
X82054761Y-112896807D02*
X82130951Y-112934902D01*
X82130951Y-112934902D02*
X82435713Y-112934902D01*
X81673809Y-112592045D02*
X81635713Y-112553950D01*
X81635713Y-112553950D02*
X81559523Y-112515855D01*
X81559523Y-112515855D02*
X81369047Y-112515855D01*
X81369047Y-112515855D02*
X81292856Y-112553950D01*
X81292856Y-112553950D02*
X81254761Y-112592045D01*
X81254761Y-112592045D02*
X81216666Y-112668236D01*
X81216666Y-112668236D02*
X81216666Y-112744426D01*
X81216666Y-112744426D02*
X81254761Y-112858712D01*
X81254761Y-112858712D02*
X81711904Y-113315855D01*
X81711904Y-113315855D02*
X81216666Y-113315855D01*
X167513855Y-91059523D02*
X167513855Y-91516666D01*
X168313855Y-91288094D02*
X167513855Y-91288094D01*
X168313855Y-91783333D02*
X167513855Y-91783333D01*
X167513855Y-91783333D02*
X167513855Y-92088095D01*
X167513855Y-92088095D02*
X167551950Y-92164285D01*
X167551950Y-92164285D02*
X167590045Y-92202380D01*
X167590045Y-92202380D02*
X167666236Y-92240476D01*
X167666236Y-92240476D02*
X167780521Y-92240476D01*
X167780521Y-92240476D02*
X167856712Y-92202380D01*
X167856712Y-92202380D02*
X167894807Y-92164285D01*
X167894807Y-92164285D02*
X167932902Y-92088095D01*
X167932902Y-92088095D02*
X167932902Y-91783333D01*
X167513855Y-92507142D02*
X167513855Y-93002380D01*
X167513855Y-93002380D02*
X167818617Y-92735714D01*
X167818617Y-92735714D02*
X167818617Y-92849999D01*
X167818617Y-92849999D02*
X167856712Y-92926190D01*
X167856712Y-92926190D02*
X167894807Y-92964285D01*
X167894807Y-92964285D02*
X167970998Y-93002380D01*
X167970998Y-93002380D02*
X168161474Y-93002380D01*
X168161474Y-93002380D02*
X168237664Y-92964285D01*
X168237664Y-92964285D02*
X168275760Y-92926190D01*
X168275760Y-92926190D02*
X168313855Y-92849999D01*
X168313855Y-92849999D02*
X168313855Y-92621428D01*
X168313855Y-92621428D02*
X168275760Y-92545237D01*
X168275760Y-92545237D02*
X168237664Y-92507142D01*
X168313855Y-93383333D02*
X168313855Y-93535714D01*
X168313855Y-93535714D02*
X168275760Y-93611904D01*
X168275760Y-93611904D02*
X168237664Y-93650000D01*
X168237664Y-93650000D02*
X168123379Y-93726190D01*
X168123379Y-93726190D02*
X167970998Y-93764285D01*
X167970998Y-93764285D02*
X167666236Y-93764285D01*
X167666236Y-93764285D02*
X167590045Y-93726190D01*
X167590045Y-93726190D02*
X167551950Y-93688095D01*
X167551950Y-93688095D02*
X167513855Y-93611904D01*
X167513855Y-93611904D02*
X167513855Y-93459523D01*
X167513855Y-93459523D02*
X167551950Y-93383333D01*
X167551950Y-93383333D02*
X167590045Y-93345238D01*
X167590045Y-93345238D02*
X167666236Y-93307142D01*
X167666236Y-93307142D02*
X167856712Y-93307142D01*
X167856712Y-93307142D02*
X167932902Y-93345238D01*
X167932902Y-93345238D02*
X167970998Y-93383333D01*
X167970998Y-93383333D02*
X168009093Y-93459523D01*
X168009093Y-93459523D02*
X168009093Y-93611904D01*
X168009093Y-93611904D02*
X167970998Y-93688095D01*
X167970998Y-93688095D02*
X167932902Y-93726190D01*
X167932902Y-93726190D02*
X167856712Y-93764285D01*
X134840476Y-128515855D02*
X134383333Y-128515855D01*
X134611905Y-129315855D02*
X134611905Y-128515855D01*
X134116666Y-129315855D02*
X134116666Y-128515855D01*
X134116666Y-128515855D02*
X133811904Y-128515855D01*
X133811904Y-128515855D02*
X133735714Y-128553950D01*
X133735714Y-128553950D02*
X133697619Y-128592045D01*
X133697619Y-128592045D02*
X133659523Y-128668236D01*
X133659523Y-128668236D02*
X133659523Y-128782521D01*
X133659523Y-128782521D02*
X133697619Y-128858712D01*
X133697619Y-128858712D02*
X133735714Y-128896807D01*
X133735714Y-128896807D02*
X133811904Y-128934902D01*
X133811904Y-128934902D02*
X134116666Y-128934902D01*
X132897619Y-129315855D02*
X133354762Y-129315855D01*
X133126190Y-129315855D02*
X133126190Y-128515855D01*
X133126190Y-128515855D02*
X133202381Y-128630140D01*
X133202381Y-128630140D02*
X133278571Y-128706331D01*
X133278571Y-128706331D02*
X133354762Y-128744426D01*
X132592857Y-128592045D02*
X132554761Y-128553950D01*
X132554761Y-128553950D02*
X132478571Y-128515855D01*
X132478571Y-128515855D02*
X132288095Y-128515855D01*
X132288095Y-128515855D02*
X132211904Y-128553950D01*
X132211904Y-128553950D02*
X132173809Y-128592045D01*
X132173809Y-128592045D02*
X132135714Y-128668236D01*
X132135714Y-128668236D02*
X132135714Y-128744426D01*
X132135714Y-128744426D02*
X132173809Y-128858712D01*
X132173809Y-128858712D02*
X132630952Y-129315855D01*
X132630952Y-129315855D02*
X132135714Y-129315855D01*
X167613855Y-62659523D02*
X167613855Y-63116666D01*
X168413855Y-62888094D02*
X167613855Y-62888094D01*
X168413855Y-63383333D02*
X167613855Y-63383333D01*
X167613855Y-63383333D02*
X167613855Y-63688095D01*
X167613855Y-63688095D02*
X167651950Y-63764285D01*
X167651950Y-63764285D02*
X167690045Y-63802380D01*
X167690045Y-63802380D02*
X167766236Y-63840476D01*
X167766236Y-63840476D02*
X167880521Y-63840476D01*
X167880521Y-63840476D02*
X167956712Y-63802380D01*
X167956712Y-63802380D02*
X167994807Y-63764285D01*
X167994807Y-63764285D02*
X168032902Y-63688095D01*
X168032902Y-63688095D02*
X168032902Y-63383333D01*
X167690045Y-64145237D02*
X167651950Y-64183333D01*
X167651950Y-64183333D02*
X167613855Y-64259523D01*
X167613855Y-64259523D02*
X167613855Y-64449999D01*
X167613855Y-64449999D02*
X167651950Y-64526190D01*
X167651950Y-64526190D02*
X167690045Y-64564285D01*
X167690045Y-64564285D02*
X167766236Y-64602380D01*
X167766236Y-64602380D02*
X167842426Y-64602380D01*
X167842426Y-64602380D02*
X167956712Y-64564285D01*
X167956712Y-64564285D02*
X168413855Y-64107142D01*
X168413855Y-64107142D02*
X168413855Y-64602380D01*
X168413855Y-64983333D02*
X168413855Y-65135714D01*
X168413855Y-65135714D02*
X168375760Y-65211904D01*
X168375760Y-65211904D02*
X168337664Y-65250000D01*
X168337664Y-65250000D02*
X168223379Y-65326190D01*
X168223379Y-65326190D02*
X168070998Y-65364285D01*
X168070998Y-65364285D02*
X167766236Y-65364285D01*
X167766236Y-65364285D02*
X167690045Y-65326190D01*
X167690045Y-65326190D02*
X167651950Y-65288095D01*
X167651950Y-65288095D02*
X167613855Y-65211904D01*
X167613855Y-65211904D02*
X167613855Y-65059523D01*
X167613855Y-65059523D02*
X167651950Y-64983333D01*
X167651950Y-64983333D02*
X167690045Y-64945238D01*
X167690045Y-64945238D02*
X167766236Y-64907142D01*
X167766236Y-64907142D02*
X167956712Y-64907142D01*
X167956712Y-64907142D02*
X168032902Y-64945238D01*
X168032902Y-64945238D02*
X168070998Y-64983333D01*
X168070998Y-64983333D02*
X168109093Y-65059523D01*
X168109093Y-65059523D02*
X168109093Y-65211904D01*
X168109093Y-65211904D02*
X168070998Y-65288095D01*
X168070998Y-65288095D02*
X168032902Y-65326190D01*
X168032902Y-65326190D02*
X167956712Y-65364285D01*
X151815855Y-131159523D02*
X151815855Y-131616666D01*
X152615855Y-131388094D02*
X151815855Y-131388094D01*
X152615855Y-131883333D02*
X151815855Y-131883333D01*
X151815855Y-131883333D02*
X151815855Y-132188095D01*
X151815855Y-132188095D02*
X151853950Y-132264285D01*
X151853950Y-132264285D02*
X151892045Y-132302380D01*
X151892045Y-132302380D02*
X151968236Y-132340476D01*
X151968236Y-132340476D02*
X152082521Y-132340476D01*
X152082521Y-132340476D02*
X152158712Y-132302380D01*
X152158712Y-132302380D02*
X152196807Y-132264285D01*
X152196807Y-132264285D02*
X152234902Y-132188095D01*
X152234902Y-132188095D02*
X152234902Y-131883333D01*
X151815855Y-133026190D02*
X151815855Y-132873809D01*
X151815855Y-132873809D02*
X151853950Y-132797618D01*
X151853950Y-132797618D02*
X151892045Y-132759523D01*
X151892045Y-132759523D02*
X152006331Y-132683333D01*
X152006331Y-132683333D02*
X152158712Y-132645237D01*
X152158712Y-132645237D02*
X152463474Y-132645237D01*
X152463474Y-132645237D02*
X152539664Y-132683333D01*
X152539664Y-132683333D02*
X152577760Y-132721428D01*
X152577760Y-132721428D02*
X152615855Y-132797618D01*
X152615855Y-132797618D02*
X152615855Y-132949999D01*
X152615855Y-132949999D02*
X152577760Y-133026190D01*
X152577760Y-133026190D02*
X152539664Y-133064285D01*
X152539664Y-133064285D02*
X152463474Y-133102380D01*
X152463474Y-133102380D02*
X152272998Y-133102380D01*
X152272998Y-133102380D02*
X152196807Y-133064285D01*
X152196807Y-133064285D02*
X152158712Y-133026190D01*
X152158712Y-133026190D02*
X152120617Y-132949999D01*
X152120617Y-132949999D02*
X152120617Y-132797618D01*
X152120617Y-132797618D02*
X152158712Y-132721428D01*
X152158712Y-132721428D02*
X152196807Y-132683333D01*
X152196807Y-132683333D02*
X152272998Y-132645237D01*
X151815855Y-133597619D02*
X151815855Y-133673809D01*
X151815855Y-133673809D02*
X151853950Y-133750000D01*
X151853950Y-133750000D02*
X151892045Y-133788095D01*
X151892045Y-133788095D02*
X151968236Y-133826190D01*
X151968236Y-133826190D02*
X152120617Y-133864285D01*
X152120617Y-133864285D02*
X152311093Y-133864285D01*
X152311093Y-133864285D02*
X152463474Y-133826190D01*
X152463474Y-133826190D02*
X152539664Y-133788095D01*
X152539664Y-133788095D02*
X152577760Y-133750000D01*
X152577760Y-133750000D02*
X152615855Y-133673809D01*
X152615855Y-133673809D02*
X152615855Y-133597619D01*
X152615855Y-133597619D02*
X152577760Y-133521428D01*
X152577760Y-133521428D02*
X152539664Y-133483333D01*
X152539664Y-133483333D02*
X152463474Y-133445238D01*
X152463474Y-133445238D02*
X152311093Y-133407142D01*
X152311093Y-133407142D02*
X152120617Y-133407142D01*
X152120617Y-133407142D02*
X151968236Y-133445238D01*
X151968236Y-133445238D02*
X151892045Y-133483333D01*
X151892045Y-133483333D02*
X151853950Y-133521428D01*
X151853950Y-133521428D02*
X151815855Y-133597619D01*
X88740476Y-68215855D02*
X88283333Y-68215855D01*
X88511905Y-69015855D02*
X88511905Y-68215855D01*
X88016666Y-69015855D02*
X88016666Y-68215855D01*
X88016666Y-68215855D02*
X87711904Y-68215855D01*
X87711904Y-68215855D02*
X87635714Y-68253950D01*
X87635714Y-68253950D02*
X87597619Y-68292045D01*
X87597619Y-68292045D02*
X87559523Y-68368236D01*
X87559523Y-68368236D02*
X87559523Y-68482521D01*
X87559523Y-68482521D02*
X87597619Y-68558712D01*
X87597619Y-68558712D02*
X87635714Y-68596807D01*
X87635714Y-68596807D02*
X87711904Y-68634902D01*
X87711904Y-68634902D02*
X88016666Y-68634902D01*
X87292857Y-68215855D02*
X86759523Y-68215855D01*
X86759523Y-68215855D02*
X87102381Y-69015855D01*
X86035714Y-69015855D02*
X86492857Y-69015855D01*
X86264285Y-69015855D02*
X86264285Y-68215855D01*
X86264285Y-68215855D02*
X86340476Y-68330140D01*
X86340476Y-68330140D02*
X86416666Y-68406331D01*
X86416666Y-68406331D02*
X86492857Y-68444426D01*
X74359523Y-101615855D02*
X73902380Y-101615855D01*
X74130952Y-102415855D02*
X74130952Y-101615855D01*
X73635713Y-102415855D02*
X73635713Y-101615855D01*
X73635713Y-101615855D02*
X73330951Y-101615855D01*
X73330951Y-101615855D02*
X73254761Y-101653950D01*
X73254761Y-101653950D02*
X73216666Y-101692045D01*
X73216666Y-101692045D02*
X73178570Y-101768236D01*
X73178570Y-101768236D02*
X73178570Y-101882521D01*
X73178570Y-101882521D02*
X73216666Y-101958712D01*
X73216666Y-101958712D02*
X73254761Y-101996807D01*
X73254761Y-101996807D02*
X73330951Y-102034902D01*
X73330951Y-102034902D02*
X73635713Y-102034902D01*
X72416666Y-102415855D02*
X72873809Y-102415855D01*
X72645237Y-102415855D02*
X72645237Y-101615855D01*
X72645237Y-101615855D02*
X72721428Y-101730140D01*
X72721428Y-101730140D02*
X72797618Y-101806331D01*
X72797618Y-101806331D02*
X72873809Y-101844426D01*
X78859523Y-105213855D02*
X78402380Y-105213855D01*
X78630952Y-106013855D02*
X78630952Y-105213855D01*
X78135713Y-106013855D02*
X78135713Y-105213855D01*
X78135713Y-105213855D02*
X77830951Y-105213855D01*
X77830951Y-105213855D02*
X77754761Y-105251950D01*
X77754761Y-105251950D02*
X77716666Y-105290045D01*
X77716666Y-105290045D02*
X77678570Y-105366236D01*
X77678570Y-105366236D02*
X77678570Y-105480521D01*
X77678570Y-105480521D02*
X77716666Y-105556712D01*
X77716666Y-105556712D02*
X77754761Y-105594807D01*
X77754761Y-105594807D02*
X77830951Y-105632902D01*
X77830951Y-105632902D02*
X78135713Y-105632902D01*
X76992856Y-105480521D02*
X76992856Y-106013855D01*
X77183332Y-105175760D02*
X77373809Y-105747188D01*
X77373809Y-105747188D02*
X76878570Y-105747188D01*
X200913855Y-119659523D02*
X200913855Y-120116666D01*
X201713855Y-119888094D02*
X200913855Y-119888094D01*
X201713855Y-120383333D02*
X200913855Y-120383333D01*
X200913855Y-120383333D02*
X200913855Y-120688095D01*
X200913855Y-120688095D02*
X200951950Y-120764285D01*
X200951950Y-120764285D02*
X200990045Y-120802380D01*
X200990045Y-120802380D02*
X201066236Y-120840476D01*
X201066236Y-120840476D02*
X201180521Y-120840476D01*
X201180521Y-120840476D02*
X201256712Y-120802380D01*
X201256712Y-120802380D02*
X201294807Y-120764285D01*
X201294807Y-120764285D02*
X201332902Y-120688095D01*
X201332902Y-120688095D02*
X201332902Y-120383333D01*
X201180521Y-121526190D02*
X201713855Y-121526190D01*
X200875760Y-121335714D02*
X201447188Y-121145237D01*
X201447188Y-121145237D02*
X201447188Y-121640476D01*
X201713855Y-121983333D02*
X201713855Y-122135714D01*
X201713855Y-122135714D02*
X201675760Y-122211904D01*
X201675760Y-122211904D02*
X201637664Y-122250000D01*
X201637664Y-122250000D02*
X201523379Y-122326190D01*
X201523379Y-122326190D02*
X201370998Y-122364285D01*
X201370998Y-122364285D02*
X201066236Y-122364285D01*
X201066236Y-122364285D02*
X200990045Y-122326190D01*
X200990045Y-122326190D02*
X200951950Y-122288095D01*
X200951950Y-122288095D02*
X200913855Y-122211904D01*
X200913855Y-122211904D02*
X200913855Y-122059523D01*
X200913855Y-122059523D02*
X200951950Y-121983333D01*
X200951950Y-121983333D02*
X200990045Y-121945238D01*
X200990045Y-121945238D02*
X201066236Y-121907142D01*
X201066236Y-121907142D02*
X201256712Y-121907142D01*
X201256712Y-121907142D02*
X201332902Y-121945238D01*
X201332902Y-121945238D02*
X201370998Y-121983333D01*
X201370998Y-121983333D02*
X201409093Y-122059523D01*
X201409093Y-122059523D02*
X201409093Y-122211904D01*
X201409093Y-122211904D02*
X201370998Y-122288095D01*
X201370998Y-122288095D02*
X201332902Y-122326190D01*
X201332902Y-122326190D02*
X201256712Y-122364285D01*
X79340476Y-73815855D02*
X78883333Y-73815855D01*
X79111905Y-74615855D02*
X79111905Y-73815855D01*
X78616666Y-74615855D02*
X78616666Y-73815855D01*
X78616666Y-73815855D02*
X78311904Y-73815855D01*
X78311904Y-73815855D02*
X78235714Y-73853950D01*
X78235714Y-73853950D02*
X78197619Y-73892045D01*
X78197619Y-73892045D02*
X78159523Y-73968236D01*
X78159523Y-73968236D02*
X78159523Y-74082521D01*
X78159523Y-74082521D02*
X78197619Y-74158712D01*
X78197619Y-74158712D02*
X78235714Y-74196807D01*
X78235714Y-74196807D02*
X78311904Y-74234902D01*
X78311904Y-74234902D02*
X78616666Y-74234902D01*
X77892857Y-73815855D02*
X77359523Y-73815855D01*
X77359523Y-73815855D02*
X77702381Y-74615855D01*
X76902380Y-73815855D02*
X76826190Y-73815855D01*
X76826190Y-73815855D02*
X76749999Y-73853950D01*
X76749999Y-73853950D02*
X76711904Y-73892045D01*
X76711904Y-73892045D02*
X76673809Y-73968236D01*
X76673809Y-73968236D02*
X76635714Y-74120617D01*
X76635714Y-74120617D02*
X76635714Y-74311093D01*
X76635714Y-74311093D02*
X76673809Y-74463474D01*
X76673809Y-74463474D02*
X76711904Y-74539664D01*
X76711904Y-74539664D02*
X76749999Y-74577760D01*
X76749999Y-74577760D02*
X76826190Y-74615855D01*
X76826190Y-74615855D02*
X76902380Y-74615855D01*
X76902380Y-74615855D02*
X76978571Y-74577760D01*
X76978571Y-74577760D02*
X77016666Y-74539664D01*
X77016666Y-74539664D02*
X77054761Y-74463474D01*
X77054761Y-74463474D02*
X77092857Y-74311093D01*
X77092857Y-74311093D02*
X77092857Y-74120617D01*
X77092857Y-74120617D02*
X77054761Y-73968236D01*
X77054761Y-73968236D02*
X77016666Y-73892045D01*
X77016666Y-73892045D02*
X76978571Y-73853950D01*
X76978571Y-73853950D02*
X76902380Y-73815855D01*
X181715855Y-70759523D02*
X181715855Y-71216666D01*
X182515855Y-70988094D02*
X181715855Y-70988094D01*
X182515855Y-71483333D02*
X181715855Y-71483333D01*
X181715855Y-71483333D02*
X181715855Y-71788095D01*
X181715855Y-71788095D02*
X181753950Y-71864285D01*
X181753950Y-71864285D02*
X181792045Y-71902380D01*
X181792045Y-71902380D02*
X181868236Y-71940476D01*
X181868236Y-71940476D02*
X181982521Y-71940476D01*
X181982521Y-71940476D02*
X182058712Y-71902380D01*
X182058712Y-71902380D02*
X182096807Y-71864285D01*
X182096807Y-71864285D02*
X182134902Y-71788095D01*
X182134902Y-71788095D02*
X182134902Y-71483333D01*
X182515855Y-72702380D02*
X182515855Y-72245237D01*
X182515855Y-72473809D02*
X181715855Y-72473809D01*
X181715855Y-72473809D02*
X181830140Y-72397618D01*
X181830140Y-72397618D02*
X181906331Y-72321428D01*
X181906331Y-72321428D02*
X181944426Y-72245237D01*
X181715855Y-73197619D02*
X181715855Y-73273809D01*
X181715855Y-73273809D02*
X181753950Y-73350000D01*
X181753950Y-73350000D02*
X181792045Y-73388095D01*
X181792045Y-73388095D02*
X181868236Y-73426190D01*
X181868236Y-73426190D02*
X182020617Y-73464285D01*
X182020617Y-73464285D02*
X182211093Y-73464285D01*
X182211093Y-73464285D02*
X182363474Y-73426190D01*
X182363474Y-73426190D02*
X182439664Y-73388095D01*
X182439664Y-73388095D02*
X182477760Y-73350000D01*
X182477760Y-73350000D02*
X182515855Y-73273809D01*
X182515855Y-73273809D02*
X182515855Y-73197619D01*
X182515855Y-73197619D02*
X182477760Y-73121428D01*
X182477760Y-73121428D02*
X182439664Y-73083333D01*
X182439664Y-73083333D02*
X182363474Y-73045238D01*
X182363474Y-73045238D02*
X182211093Y-73007142D01*
X182211093Y-73007142D02*
X182020617Y-73007142D01*
X182020617Y-73007142D02*
X181868236Y-73045238D01*
X181868236Y-73045238D02*
X181792045Y-73083333D01*
X181792045Y-73083333D02*
X181753950Y-73121428D01*
X181753950Y-73121428D02*
X181715855Y-73197619D01*
X146240476Y-97215855D02*
X145783333Y-97215855D01*
X146011905Y-98015855D02*
X146011905Y-97215855D01*
X145516666Y-98015855D02*
X145516666Y-97215855D01*
X145516666Y-97215855D02*
X145211904Y-97215855D01*
X145211904Y-97215855D02*
X145135714Y-97253950D01*
X145135714Y-97253950D02*
X145097619Y-97292045D01*
X145097619Y-97292045D02*
X145059523Y-97368236D01*
X145059523Y-97368236D02*
X145059523Y-97482521D01*
X145059523Y-97482521D02*
X145097619Y-97558712D01*
X145097619Y-97558712D02*
X145135714Y-97596807D01*
X145135714Y-97596807D02*
X145211904Y-97634902D01*
X145211904Y-97634902D02*
X145516666Y-97634902D01*
X144754762Y-97292045D02*
X144716666Y-97253950D01*
X144716666Y-97253950D02*
X144640476Y-97215855D01*
X144640476Y-97215855D02*
X144450000Y-97215855D01*
X144450000Y-97215855D02*
X144373809Y-97253950D01*
X144373809Y-97253950D02*
X144335714Y-97292045D01*
X144335714Y-97292045D02*
X144297619Y-97368236D01*
X144297619Y-97368236D02*
X144297619Y-97444426D01*
X144297619Y-97444426D02*
X144335714Y-97558712D01*
X144335714Y-97558712D02*
X144792857Y-98015855D01*
X144792857Y-98015855D02*
X144297619Y-98015855D01*
X143611904Y-97482521D02*
X143611904Y-98015855D01*
X143802380Y-97177760D02*
X143992857Y-97749188D01*
X143992857Y-97749188D02*
X143497618Y-97749188D01*
X200913855Y-67659523D02*
X200913855Y-68116666D01*
X201713855Y-67888094D02*
X200913855Y-67888094D01*
X201713855Y-68383333D02*
X200913855Y-68383333D01*
X200913855Y-68383333D02*
X200913855Y-68688095D01*
X200913855Y-68688095D02*
X200951950Y-68764285D01*
X200951950Y-68764285D02*
X200990045Y-68802380D01*
X200990045Y-68802380D02*
X201066236Y-68840476D01*
X201066236Y-68840476D02*
X201180521Y-68840476D01*
X201180521Y-68840476D02*
X201256712Y-68802380D01*
X201256712Y-68802380D02*
X201294807Y-68764285D01*
X201294807Y-68764285D02*
X201332902Y-68688095D01*
X201332902Y-68688095D02*
X201332902Y-68383333D01*
X201713855Y-69602380D02*
X201713855Y-69145237D01*
X201713855Y-69373809D02*
X200913855Y-69373809D01*
X200913855Y-69373809D02*
X201028140Y-69297618D01*
X201028140Y-69297618D02*
X201104331Y-69221428D01*
X201104331Y-69221428D02*
X201142426Y-69145237D01*
X200913855Y-70288095D02*
X200913855Y-70135714D01*
X200913855Y-70135714D02*
X200951950Y-70059523D01*
X200951950Y-70059523D02*
X200990045Y-70021428D01*
X200990045Y-70021428D02*
X201104331Y-69945238D01*
X201104331Y-69945238D02*
X201256712Y-69907142D01*
X201256712Y-69907142D02*
X201561474Y-69907142D01*
X201561474Y-69907142D02*
X201637664Y-69945238D01*
X201637664Y-69945238D02*
X201675760Y-69983333D01*
X201675760Y-69983333D02*
X201713855Y-70059523D01*
X201713855Y-70059523D02*
X201713855Y-70211904D01*
X201713855Y-70211904D02*
X201675760Y-70288095D01*
X201675760Y-70288095D02*
X201637664Y-70326190D01*
X201637664Y-70326190D02*
X201561474Y-70364285D01*
X201561474Y-70364285D02*
X201370998Y-70364285D01*
X201370998Y-70364285D02*
X201294807Y-70326190D01*
X201294807Y-70326190D02*
X201256712Y-70288095D01*
X201256712Y-70288095D02*
X201218617Y-70211904D01*
X201218617Y-70211904D02*
X201218617Y-70059523D01*
X201218617Y-70059523D02*
X201256712Y-69983333D01*
X201256712Y-69983333D02*
X201294807Y-69945238D01*
X201294807Y-69945238D02*
X201370998Y-69907142D01*
X208013855Y-121159523D02*
X208013855Y-121616666D01*
X208813855Y-121388094D02*
X208013855Y-121388094D01*
X208813855Y-121883333D02*
X208013855Y-121883333D01*
X208013855Y-121883333D02*
X208013855Y-122188095D01*
X208013855Y-122188095D02*
X208051950Y-122264285D01*
X208051950Y-122264285D02*
X208090045Y-122302380D01*
X208090045Y-122302380D02*
X208166236Y-122340476D01*
X208166236Y-122340476D02*
X208280521Y-122340476D01*
X208280521Y-122340476D02*
X208356712Y-122302380D01*
X208356712Y-122302380D02*
X208394807Y-122264285D01*
X208394807Y-122264285D02*
X208432902Y-122188095D01*
X208432902Y-122188095D02*
X208432902Y-121883333D01*
X208280521Y-123026190D02*
X208813855Y-123026190D01*
X207975760Y-122835714D02*
X208547188Y-122645237D01*
X208547188Y-122645237D02*
X208547188Y-123140476D01*
X208356712Y-123559523D02*
X208318617Y-123483333D01*
X208318617Y-123483333D02*
X208280521Y-123445238D01*
X208280521Y-123445238D02*
X208204331Y-123407142D01*
X208204331Y-123407142D02*
X208166236Y-123407142D01*
X208166236Y-123407142D02*
X208090045Y-123445238D01*
X208090045Y-123445238D02*
X208051950Y-123483333D01*
X208051950Y-123483333D02*
X208013855Y-123559523D01*
X208013855Y-123559523D02*
X208013855Y-123711904D01*
X208013855Y-123711904D02*
X208051950Y-123788095D01*
X208051950Y-123788095D02*
X208090045Y-123826190D01*
X208090045Y-123826190D02*
X208166236Y-123864285D01*
X208166236Y-123864285D02*
X208204331Y-123864285D01*
X208204331Y-123864285D02*
X208280521Y-123826190D01*
X208280521Y-123826190D02*
X208318617Y-123788095D01*
X208318617Y-123788095D02*
X208356712Y-123711904D01*
X208356712Y-123711904D02*
X208356712Y-123559523D01*
X208356712Y-123559523D02*
X208394807Y-123483333D01*
X208394807Y-123483333D02*
X208432902Y-123445238D01*
X208432902Y-123445238D02*
X208509093Y-123407142D01*
X208509093Y-123407142D02*
X208661474Y-123407142D01*
X208661474Y-123407142D02*
X208737664Y-123445238D01*
X208737664Y-123445238D02*
X208775760Y-123483333D01*
X208775760Y-123483333D02*
X208813855Y-123559523D01*
X208813855Y-123559523D02*
X208813855Y-123711904D01*
X208813855Y-123711904D02*
X208775760Y-123788095D01*
X208775760Y-123788095D02*
X208737664Y-123826190D01*
X208737664Y-123826190D02*
X208661474Y-123864285D01*
X208661474Y-123864285D02*
X208509093Y-123864285D01*
X208509093Y-123864285D02*
X208432902Y-123826190D01*
X208432902Y-123826190D02*
X208394807Y-123788095D01*
X208394807Y-123788095D02*
X208356712Y-123711904D01*
X201013855Y-90959523D02*
X201013855Y-91416666D01*
X201813855Y-91188094D02*
X201013855Y-91188094D01*
X201813855Y-91683333D02*
X201013855Y-91683333D01*
X201013855Y-91683333D02*
X201013855Y-91988095D01*
X201013855Y-91988095D02*
X201051950Y-92064285D01*
X201051950Y-92064285D02*
X201090045Y-92102380D01*
X201090045Y-92102380D02*
X201166236Y-92140476D01*
X201166236Y-92140476D02*
X201280521Y-92140476D01*
X201280521Y-92140476D02*
X201356712Y-92102380D01*
X201356712Y-92102380D02*
X201394807Y-92064285D01*
X201394807Y-92064285D02*
X201432902Y-91988095D01*
X201432902Y-91988095D02*
X201432902Y-91683333D01*
X201013855Y-92864285D02*
X201013855Y-92483333D01*
X201013855Y-92483333D02*
X201394807Y-92445237D01*
X201394807Y-92445237D02*
X201356712Y-92483333D01*
X201356712Y-92483333D02*
X201318617Y-92559523D01*
X201318617Y-92559523D02*
X201318617Y-92749999D01*
X201318617Y-92749999D02*
X201356712Y-92826190D01*
X201356712Y-92826190D02*
X201394807Y-92864285D01*
X201394807Y-92864285D02*
X201470998Y-92902380D01*
X201470998Y-92902380D02*
X201661474Y-92902380D01*
X201661474Y-92902380D02*
X201737664Y-92864285D01*
X201737664Y-92864285D02*
X201775760Y-92826190D01*
X201775760Y-92826190D02*
X201813855Y-92749999D01*
X201813855Y-92749999D02*
X201813855Y-92559523D01*
X201813855Y-92559523D02*
X201775760Y-92483333D01*
X201775760Y-92483333D02*
X201737664Y-92445237D01*
X201813855Y-93283333D02*
X201813855Y-93435714D01*
X201813855Y-93435714D02*
X201775760Y-93511904D01*
X201775760Y-93511904D02*
X201737664Y-93550000D01*
X201737664Y-93550000D02*
X201623379Y-93626190D01*
X201623379Y-93626190D02*
X201470998Y-93664285D01*
X201470998Y-93664285D02*
X201166236Y-93664285D01*
X201166236Y-93664285D02*
X201090045Y-93626190D01*
X201090045Y-93626190D02*
X201051950Y-93588095D01*
X201051950Y-93588095D02*
X201013855Y-93511904D01*
X201013855Y-93511904D02*
X201013855Y-93359523D01*
X201013855Y-93359523D02*
X201051950Y-93283333D01*
X201051950Y-93283333D02*
X201090045Y-93245238D01*
X201090045Y-93245238D02*
X201166236Y-93207142D01*
X201166236Y-93207142D02*
X201356712Y-93207142D01*
X201356712Y-93207142D02*
X201432902Y-93245238D01*
X201432902Y-93245238D02*
X201470998Y-93283333D01*
X201470998Y-93283333D02*
X201509093Y-93359523D01*
X201509093Y-93359523D02*
X201509093Y-93511904D01*
X201509093Y-93511904D02*
X201470998Y-93588095D01*
X201470998Y-93588095D02*
X201432902Y-93626190D01*
X201432902Y-93626190D02*
X201356712Y-93664285D01*
X187115855Y-53559523D02*
X187115855Y-54016666D01*
X187915855Y-53788094D02*
X187115855Y-53788094D01*
X187915855Y-54283333D02*
X187115855Y-54283333D01*
X187115855Y-54283333D02*
X187115855Y-54588095D01*
X187115855Y-54588095D02*
X187153950Y-54664285D01*
X187153950Y-54664285D02*
X187192045Y-54702380D01*
X187192045Y-54702380D02*
X187268236Y-54740476D01*
X187268236Y-54740476D02*
X187382521Y-54740476D01*
X187382521Y-54740476D02*
X187458712Y-54702380D01*
X187458712Y-54702380D02*
X187496807Y-54664285D01*
X187496807Y-54664285D02*
X187534902Y-54588095D01*
X187534902Y-54588095D02*
X187534902Y-54283333D01*
X187915855Y-55502380D02*
X187915855Y-55045237D01*
X187915855Y-55273809D02*
X187115855Y-55273809D01*
X187115855Y-55273809D02*
X187230140Y-55197618D01*
X187230140Y-55197618D02*
X187306331Y-55121428D01*
X187306331Y-55121428D02*
X187344426Y-55045237D01*
X187915855Y-56264285D02*
X187915855Y-55807142D01*
X187915855Y-56035714D02*
X187115855Y-56035714D01*
X187115855Y-56035714D02*
X187230140Y-55959523D01*
X187230140Y-55959523D02*
X187306331Y-55883333D01*
X187306331Y-55883333D02*
X187344426Y-55807142D01*
X86459523Y-75915855D02*
X86002380Y-75915855D01*
X86230952Y-76715855D02*
X86230952Y-75915855D01*
X85735713Y-76715855D02*
X85735713Y-75915855D01*
X85735713Y-75915855D02*
X85430951Y-75915855D01*
X85430951Y-75915855D02*
X85354761Y-75953950D01*
X85354761Y-75953950D02*
X85316666Y-75992045D01*
X85316666Y-75992045D02*
X85278570Y-76068236D01*
X85278570Y-76068236D02*
X85278570Y-76182521D01*
X85278570Y-76182521D02*
X85316666Y-76258712D01*
X85316666Y-76258712D02*
X85354761Y-76296807D01*
X85354761Y-76296807D02*
X85430951Y-76334902D01*
X85430951Y-76334902D02*
X85735713Y-76334902D01*
X85011904Y-75915855D02*
X84478570Y-75915855D01*
X84478570Y-75915855D02*
X84821428Y-76715855D01*
X154915855Y-110059523D02*
X154915855Y-110516666D01*
X155715855Y-110288094D02*
X154915855Y-110288094D01*
X155715855Y-110783333D02*
X154915855Y-110783333D01*
X154915855Y-110783333D02*
X154915855Y-111088095D01*
X154915855Y-111088095D02*
X154953950Y-111164285D01*
X154953950Y-111164285D02*
X154992045Y-111202380D01*
X154992045Y-111202380D02*
X155068236Y-111240476D01*
X155068236Y-111240476D02*
X155182521Y-111240476D01*
X155182521Y-111240476D02*
X155258712Y-111202380D01*
X155258712Y-111202380D02*
X155296807Y-111164285D01*
X155296807Y-111164285D02*
X155334902Y-111088095D01*
X155334902Y-111088095D02*
X155334902Y-110783333D01*
X154915855Y-111926190D02*
X154915855Y-111773809D01*
X154915855Y-111773809D02*
X154953950Y-111697618D01*
X154953950Y-111697618D02*
X154992045Y-111659523D01*
X154992045Y-111659523D02*
X155106331Y-111583333D01*
X155106331Y-111583333D02*
X155258712Y-111545237D01*
X155258712Y-111545237D02*
X155563474Y-111545237D01*
X155563474Y-111545237D02*
X155639664Y-111583333D01*
X155639664Y-111583333D02*
X155677760Y-111621428D01*
X155677760Y-111621428D02*
X155715855Y-111697618D01*
X155715855Y-111697618D02*
X155715855Y-111849999D01*
X155715855Y-111849999D02*
X155677760Y-111926190D01*
X155677760Y-111926190D02*
X155639664Y-111964285D01*
X155639664Y-111964285D02*
X155563474Y-112002380D01*
X155563474Y-112002380D02*
X155372998Y-112002380D01*
X155372998Y-112002380D02*
X155296807Y-111964285D01*
X155296807Y-111964285D02*
X155258712Y-111926190D01*
X155258712Y-111926190D02*
X155220617Y-111849999D01*
X155220617Y-111849999D02*
X155220617Y-111697618D01*
X155220617Y-111697618D02*
X155258712Y-111621428D01*
X155258712Y-111621428D02*
X155296807Y-111583333D01*
X155296807Y-111583333D02*
X155372998Y-111545237D01*
X155715855Y-112764285D02*
X155715855Y-112307142D01*
X155715855Y-112535714D02*
X154915855Y-112535714D01*
X154915855Y-112535714D02*
X155030140Y-112459523D01*
X155030140Y-112459523D02*
X155106331Y-112383333D01*
X155106331Y-112383333D02*
X155144426Y-112307142D01*
X174913855Y-93159523D02*
X174913855Y-93616666D01*
X175713855Y-93388094D02*
X174913855Y-93388094D01*
X175713855Y-93883333D02*
X174913855Y-93883333D01*
X174913855Y-93883333D02*
X174913855Y-94188095D01*
X174913855Y-94188095D02*
X174951950Y-94264285D01*
X174951950Y-94264285D02*
X174990045Y-94302380D01*
X174990045Y-94302380D02*
X175066236Y-94340476D01*
X175066236Y-94340476D02*
X175180521Y-94340476D01*
X175180521Y-94340476D02*
X175256712Y-94302380D01*
X175256712Y-94302380D02*
X175294807Y-94264285D01*
X175294807Y-94264285D02*
X175332902Y-94188095D01*
X175332902Y-94188095D02*
X175332902Y-93883333D01*
X174913855Y-94607142D02*
X174913855Y-95102380D01*
X174913855Y-95102380D02*
X175218617Y-94835714D01*
X175218617Y-94835714D02*
X175218617Y-94949999D01*
X175218617Y-94949999D02*
X175256712Y-95026190D01*
X175256712Y-95026190D02*
X175294807Y-95064285D01*
X175294807Y-95064285D02*
X175370998Y-95102380D01*
X175370998Y-95102380D02*
X175561474Y-95102380D01*
X175561474Y-95102380D02*
X175637664Y-95064285D01*
X175637664Y-95064285D02*
X175675760Y-95026190D01*
X175675760Y-95026190D02*
X175713855Y-94949999D01*
X175713855Y-94949999D02*
X175713855Y-94721428D01*
X175713855Y-94721428D02*
X175675760Y-94645237D01*
X175675760Y-94645237D02*
X175637664Y-94607142D01*
X175256712Y-95559523D02*
X175218617Y-95483333D01*
X175218617Y-95483333D02*
X175180521Y-95445238D01*
X175180521Y-95445238D02*
X175104331Y-95407142D01*
X175104331Y-95407142D02*
X175066236Y-95407142D01*
X175066236Y-95407142D02*
X174990045Y-95445238D01*
X174990045Y-95445238D02*
X174951950Y-95483333D01*
X174951950Y-95483333D02*
X174913855Y-95559523D01*
X174913855Y-95559523D02*
X174913855Y-95711904D01*
X174913855Y-95711904D02*
X174951950Y-95788095D01*
X174951950Y-95788095D02*
X174990045Y-95826190D01*
X174990045Y-95826190D02*
X175066236Y-95864285D01*
X175066236Y-95864285D02*
X175104331Y-95864285D01*
X175104331Y-95864285D02*
X175180521Y-95826190D01*
X175180521Y-95826190D02*
X175218617Y-95788095D01*
X175218617Y-95788095D02*
X175256712Y-95711904D01*
X175256712Y-95711904D02*
X175256712Y-95559523D01*
X175256712Y-95559523D02*
X175294807Y-95483333D01*
X175294807Y-95483333D02*
X175332902Y-95445238D01*
X175332902Y-95445238D02*
X175409093Y-95407142D01*
X175409093Y-95407142D02*
X175561474Y-95407142D01*
X175561474Y-95407142D02*
X175637664Y-95445238D01*
X175637664Y-95445238D02*
X175675760Y-95483333D01*
X175675760Y-95483333D02*
X175713855Y-95559523D01*
X175713855Y-95559523D02*
X175713855Y-95711904D01*
X175713855Y-95711904D02*
X175675760Y-95788095D01*
X175675760Y-95788095D02*
X175637664Y-95826190D01*
X175637664Y-95826190D02*
X175561474Y-95864285D01*
X175561474Y-95864285D02*
X175409093Y-95864285D01*
X175409093Y-95864285D02*
X175332902Y-95826190D01*
X175332902Y-95826190D02*
X175294807Y-95788095D01*
X175294807Y-95788095D02*
X175256712Y-95711904D01*
X187915855Y-81659523D02*
X187915855Y-82116666D01*
X188715855Y-81888094D02*
X187915855Y-81888094D01*
X188715855Y-82383333D02*
X187915855Y-82383333D01*
X187915855Y-82383333D02*
X187915855Y-82688095D01*
X187915855Y-82688095D02*
X187953950Y-82764285D01*
X187953950Y-82764285D02*
X187992045Y-82802380D01*
X187992045Y-82802380D02*
X188068236Y-82840476D01*
X188068236Y-82840476D02*
X188182521Y-82840476D01*
X188182521Y-82840476D02*
X188258712Y-82802380D01*
X188258712Y-82802380D02*
X188296807Y-82764285D01*
X188296807Y-82764285D02*
X188334902Y-82688095D01*
X188334902Y-82688095D02*
X188334902Y-82383333D01*
X187915855Y-83564285D02*
X187915855Y-83183333D01*
X187915855Y-83183333D02*
X188296807Y-83145237D01*
X188296807Y-83145237D02*
X188258712Y-83183333D01*
X188258712Y-83183333D02*
X188220617Y-83259523D01*
X188220617Y-83259523D02*
X188220617Y-83449999D01*
X188220617Y-83449999D02*
X188258712Y-83526190D01*
X188258712Y-83526190D02*
X188296807Y-83564285D01*
X188296807Y-83564285D02*
X188372998Y-83602380D01*
X188372998Y-83602380D02*
X188563474Y-83602380D01*
X188563474Y-83602380D02*
X188639664Y-83564285D01*
X188639664Y-83564285D02*
X188677760Y-83526190D01*
X188677760Y-83526190D02*
X188715855Y-83449999D01*
X188715855Y-83449999D02*
X188715855Y-83259523D01*
X188715855Y-83259523D02*
X188677760Y-83183333D01*
X188677760Y-83183333D02*
X188639664Y-83145237D01*
X188715855Y-84364285D02*
X188715855Y-83907142D01*
X188715855Y-84135714D02*
X187915855Y-84135714D01*
X187915855Y-84135714D02*
X188030140Y-84059523D01*
X188030140Y-84059523D02*
X188106331Y-83983333D01*
X188106331Y-83983333D02*
X188144426Y-83907142D01*
X89559523Y-75915855D02*
X89102380Y-75915855D01*
X89330952Y-76715855D02*
X89330952Y-75915855D01*
X88835713Y-76715855D02*
X88835713Y-75915855D01*
X88835713Y-75915855D02*
X88530951Y-75915855D01*
X88530951Y-75915855D02*
X88454761Y-75953950D01*
X88454761Y-75953950D02*
X88416666Y-75992045D01*
X88416666Y-75992045D02*
X88378570Y-76068236D01*
X88378570Y-76068236D02*
X88378570Y-76182521D01*
X88378570Y-76182521D02*
X88416666Y-76258712D01*
X88416666Y-76258712D02*
X88454761Y-76296807D01*
X88454761Y-76296807D02*
X88530951Y-76334902D01*
X88530951Y-76334902D02*
X88835713Y-76334902D01*
X87921428Y-76258712D02*
X87997618Y-76220617D01*
X87997618Y-76220617D02*
X88035713Y-76182521D01*
X88035713Y-76182521D02*
X88073809Y-76106331D01*
X88073809Y-76106331D02*
X88073809Y-76068236D01*
X88073809Y-76068236D02*
X88035713Y-75992045D01*
X88035713Y-75992045D02*
X87997618Y-75953950D01*
X87997618Y-75953950D02*
X87921428Y-75915855D01*
X87921428Y-75915855D02*
X87769047Y-75915855D01*
X87769047Y-75915855D02*
X87692856Y-75953950D01*
X87692856Y-75953950D02*
X87654761Y-75992045D01*
X87654761Y-75992045D02*
X87616666Y-76068236D01*
X87616666Y-76068236D02*
X87616666Y-76106331D01*
X87616666Y-76106331D02*
X87654761Y-76182521D01*
X87654761Y-76182521D02*
X87692856Y-76220617D01*
X87692856Y-76220617D02*
X87769047Y-76258712D01*
X87769047Y-76258712D02*
X87921428Y-76258712D01*
X87921428Y-76258712D02*
X87997618Y-76296807D01*
X87997618Y-76296807D02*
X88035713Y-76334902D01*
X88035713Y-76334902D02*
X88073809Y-76411093D01*
X88073809Y-76411093D02*
X88073809Y-76563474D01*
X88073809Y-76563474D02*
X88035713Y-76639664D01*
X88035713Y-76639664D02*
X87997618Y-76677760D01*
X87997618Y-76677760D02*
X87921428Y-76715855D01*
X87921428Y-76715855D02*
X87769047Y-76715855D01*
X87769047Y-76715855D02*
X87692856Y-76677760D01*
X87692856Y-76677760D02*
X87654761Y-76639664D01*
X87654761Y-76639664D02*
X87616666Y-76563474D01*
X87616666Y-76563474D02*
X87616666Y-76411093D01*
X87616666Y-76411093D02*
X87654761Y-76334902D01*
X87654761Y-76334902D02*
X87692856Y-76296807D01*
X87692856Y-76296807D02*
X87769047Y-76258712D01*
X77759523Y-84815855D02*
X77302380Y-84815855D01*
X77530952Y-85615855D02*
X77530952Y-84815855D01*
X77035713Y-85615855D02*
X77035713Y-84815855D01*
X77035713Y-84815855D02*
X76730951Y-84815855D01*
X76730951Y-84815855D02*
X76654761Y-84853950D01*
X76654761Y-84853950D02*
X76616666Y-84892045D01*
X76616666Y-84892045D02*
X76578570Y-84968236D01*
X76578570Y-84968236D02*
X76578570Y-85082521D01*
X76578570Y-85082521D02*
X76616666Y-85158712D01*
X76616666Y-85158712D02*
X76654761Y-85196807D01*
X76654761Y-85196807D02*
X76730951Y-85234902D01*
X76730951Y-85234902D02*
X77035713Y-85234902D01*
X75892856Y-84815855D02*
X76045237Y-84815855D01*
X76045237Y-84815855D02*
X76121428Y-84853950D01*
X76121428Y-84853950D02*
X76159523Y-84892045D01*
X76159523Y-84892045D02*
X76235713Y-85006331D01*
X76235713Y-85006331D02*
X76273809Y-85158712D01*
X76273809Y-85158712D02*
X76273809Y-85463474D01*
X76273809Y-85463474D02*
X76235713Y-85539664D01*
X76235713Y-85539664D02*
X76197618Y-85577760D01*
X76197618Y-85577760D02*
X76121428Y-85615855D01*
X76121428Y-85615855D02*
X75969047Y-85615855D01*
X75969047Y-85615855D02*
X75892856Y-85577760D01*
X75892856Y-85577760D02*
X75854761Y-85539664D01*
X75854761Y-85539664D02*
X75816666Y-85463474D01*
X75816666Y-85463474D02*
X75816666Y-85272998D01*
X75816666Y-85272998D02*
X75854761Y-85196807D01*
X75854761Y-85196807D02*
X75892856Y-85158712D01*
X75892856Y-85158712D02*
X75969047Y-85120617D01*
X75969047Y-85120617D02*
X76121428Y-85120617D01*
X76121428Y-85120617D02*
X76197618Y-85158712D01*
X76197618Y-85158712D02*
X76235713Y-85196807D01*
X76235713Y-85196807D02*
X76273809Y-85272998D01*
X106740476Y-97715855D02*
X106283333Y-97715855D01*
X106511905Y-98515855D02*
X106511905Y-97715855D01*
X106016666Y-98515855D02*
X106016666Y-97715855D01*
X106016666Y-97715855D02*
X105711904Y-97715855D01*
X105711904Y-97715855D02*
X105635714Y-97753950D01*
X105635714Y-97753950D02*
X105597619Y-97792045D01*
X105597619Y-97792045D02*
X105559523Y-97868236D01*
X105559523Y-97868236D02*
X105559523Y-97982521D01*
X105559523Y-97982521D02*
X105597619Y-98058712D01*
X105597619Y-98058712D02*
X105635714Y-98096807D01*
X105635714Y-98096807D02*
X105711904Y-98134902D01*
X105711904Y-98134902D02*
X106016666Y-98134902D01*
X105254762Y-97792045D02*
X105216666Y-97753950D01*
X105216666Y-97753950D02*
X105140476Y-97715855D01*
X105140476Y-97715855D02*
X104950000Y-97715855D01*
X104950000Y-97715855D02*
X104873809Y-97753950D01*
X104873809Y-97753950D02*
X104835714Y-97792045D01*
X104835714Y-97792045D02*
X104797619Y-97868236D01*
X104797619Y-97868236D02*
X104797619Y-97944426D01*
X104797619Y-97944426D02*
X104835714Y-98058712D01*
X104835714Y-98058712D02*
X105292857Y-98515855D01*
X105292857Y-98515855D02*
X104797619Y-98515855D01*
X104530952Y-97715855D02*
X104035714Y-97715855D01*
X104035714Y-97715855D02*
X104302380Y-98020617D01*
X104302380Y-98020617D02*
X104188095Y-98020617D01*
X104188095Y-98020617D02*
X104111904Y-98058712D01*
X104111904Y-98058712D02*
X104073809Y-98096807D01*
X104073809Y-98096807D02*
X104035714Y-98172998D01*
X104035714Y-98172998D02*
X104035714Y-98363474D01*
X104035714Y-98363474D02*
X104073809Y-98439664D01*
X104073809Y-98439664D02*
X104111904Y-98477760D01*
X104111904Y-98477760D02*
X104188095Y-98515855D01*
X104188095Y-98515855D02*
X104416666Y-98515855D01*
X104416666Y-98515855D02*
X104492857Y-98477760D01*
X104492857Y-98477760D02*
X104530952Y-98439664D01*
X184315855Y-114259523D02*
X184315855Y-114716666D01*
X185115855Y-114488094D02*
X184315855Y-114488094D01*
X185115855Y-114983333D02*
X184315855Y-114983333D01*
X184315855Y-114983333D02*
X184315855Y-115288095D01*
X184315855Y-115288095D02*
X184353950Y-115364285D01*
X184353950Y-115364285D02*
X184392045Y-115402380D01*
X184392045Y-115402380D02*
X184468236Y-115440476D01*
X184468236Y-115440476D02*
X184582521Y-115440476D01*
X184582521Y-115440476D02*
X184658712Y-115402380D01*
X184658712Y-115402380D02*
X184696807Y-115364285D01*
X184696807Y-115364285D02*
X184734902Y-115288095D01*
X184734902Y-115288095D02*
X184734902Y-114983333D01*
X184582521Y-116126190D02*
X185115855Y-116126190D01*
X184277760Y-115935714D02*
X184849188Y-115745237D01*
X184849188Y-115745237D02*
X184849188Y-116240476D01*
X185115855Y-116964285D02*
X185115855Y-116507142D01*
X185115855Y-116735714D02*
X184315855Y-116735714D01*
X184315855Y-116735714D02*
X184430140Y-116659523D01*
X184430140Y-116659523D02*
X184506331Y-116583333D01*
X184506331Y-116583333D02*
X184544426Y-116507142D01*
X174813855Y-98359523D02*
X174813855Y-98816666D01*
X175613855Y-98588094D02*
X174813855Y-98588094D01*
X175613855Y-99083333D02*
X174813855Y-99083333D01*
X174813855Y-99083333D02*
X174813855Y-99388095D01*
X174813855Y-99388095D02*
X174851950Y-99464285D01*
X174851950Y-99464285D02*
X174890045Y-99502380D01*
X174890045Y-99502380D02*
X174966236Y-99540476D01*
X174966236Y-99540476D02*
X175080521Y-99540476D01*
X175080521Y-99540476D02*
X175156712Y-99502380D01*
X175156712Y-99502380D02*
X175194807Y-99464285D01*
X175194807Y-99464285D02*
X175232902Y-99388095D01*
X175232902Y-99388095D02*
X175232902Y-99083333D01*
X174813855Y-99807142D02*
X174813855Y-100302380D01*
X174813855Y-100302380D02*
X175118617Y-100035714D01*
X175118617Y-100035714D02*
X175118617Y-100149999D01*
X175118617Y-100149999D02*
X175156712Y-100226190D01*
X175156712Y-100226190D02*
X175194807Y-100264285D01*
X175194807Y-100264285D02*
X175270998Y-100302380D01*
X175270998Y-100302380D02*
X175461474Y-100302380D01*
X175461474Y-100302380D02*
X175537664Y-100264285D01*
X175537664Y-100264285D02*
X175575760Y-100226190D01*
X175575760Y-100226190D02*
X175613855Y-100149999D01*
X175613855Y-100149999D02*
X175613855Y-99921428D01*
X175613855Y-99921428D02*
X175575760Y-99845237D01*
X175575760Y-99845237D02*
X175537664Y-99807142D01*
X174813855Y-100569047D02*
X174813855Y-101102381D01*
X174813855Y-101102381D02*
X175613855Y-100759523D01*
X81750000Y-108850000D02*
G75*
G02*
X79350000Y-108850000I-1200000J0D01*
G01*
X79350000Y-108850000D02*
G75*
G02*
X81750000Y-108850000I1200000J0D01*
G01*
X155650000Y-99450000D02*
G75*
G02*
X153250000Y-99450000I-1200000J0D01*
G01*
X153250000Y-99450000D02*
G75*
G02*
X155650000Y-99450000I1200000J0D01*
G01*
X207575000Y-95087500D02*
G75*
G02*
X205175000Y-95087500I-1200000J0D01*
G01*
X205175000Y-95087500D02*
G75*
G02*
X207575000Y-95087500I1200000J0D01*
G01*
X159550000Y-75850000D02*
G75*
G02*
X157150000Y-75850000I-1200000J0D01*
G01*
X157150000Y-75850000D02*
G75*
G02*
X159550000Y-75850000I1200000J0D01*
G01*
X81750000Y-102450000D02*
G75*
G02*
X79350000Y-102450000I-1200000J0D01*
G01*
X79350000Y-102450000D02*
G75*
G02*
X81750000Y-102450000I1200000J0D01*
G01*
X106550000Y-93050000D02*
G75*
G02*
X104150000Y-93050000I-1200000J0D01*
G01*
X104150000Y-93050000D02*
G75*
G02*
X106550000Y-93050000I1200000J0D01*
G01*
X88550000Y-66150000D02*
G75*
G02*
X86150000Y-66150000I-1200000J0D01*
G01*
X86150000Y-66150000D02*
G75*
G02*
X88550000Y-66150000I1200000J0D01*
G01*
X171350000Y-97025000D02*
G75*
G02*
X168950000Y-97025000I-1200000J0D01*
G01*
X168950000Y-97025000D02*
G75*
G02*
X171350000Y-97025000I1200000J0D01*
G01*
X134550000Y-120650000D02*
G75*
G02*
X132150000Y-120650000I-1200000J0D01*
G01*
X132150000Y-120650000D02*
G75*
G02*
X134550000Y-120650000I1200000J0D01*
G01*
X171400000Y-125412500D02*
G75*
G02*
X169000000Y-125412500I-1200000J0D01*
G01*
X169000000Y-125412500D02*
G75*
G02*
X171400000Y-125412500I1200000J0D01*
G01*
X187350000Y-104150000D02*
G75*
G02*
X184950000Y-104150000I-1200000J0D01*
G01*
X184950000Y-104150000D02*
G75*
G02*
X187350000Y-104150000I1200000J0D01*
G01*
X204625000Y-64437500D02*
G75*
G02*
X202225000Y-64437500I-1200000J0D01*
G01*
X202225000Y-64437500D02*
G75*
G02*
X204625000Y-64437500I1200000J0D01*
G01*
X77950000Y-95650000D02*
G75*
G02*
X75550000Y-95650000I-1200000J0D01*
G01*
X75550000Y-95650000D02*
G75*
G02*
X77950000Y-95650000I1200000J0D01*
G01*
X207575001Y-70487500D02*
G75*
G02*
X205175001Y-70487500I-1200000J0D01*
G01*
X205175001Y-70487500D02*
G75*
G02*
X207575001Y-70487500I1200000J0D01*
G01*
X204625000Y-125625000D02*
G75*
G02*
X202225000Y-125625000I-1200000J0D01*
G01*
X202225000Y-125625000D02*
G75*
G02*
X204625000Y-125625000I1200000J0D01*
G01*
X185850000Y-129950000D02*
G75*
G02*
X183450000Y-129950000I-1200000J0D01*
G01*
X183450000Y-129950000D02*
G75*
G02*
X185850000Y-129950000I1200000J0D01*
G01*
X134650000Y-100250000D02*
G75*
G02*
X132250000Y-100250000I-1200000J0D01*
G01*
X132250000Y-100250000D02*
G75*
G02*
X134650000Y-100250000I1200000J0D01*
G01*
X207550001Y-99087500D02*
G75*
G02*
X205150001Y-99087500I-1200000J0D01*
G01*
X205150001Y-99087500D02*
G75*
G02*
X207550001Y-99087500I1200000J0D01*
G01*
X157350000Y-55150000D02*
G75*
G02*
X154950000Y-55150000I-1200000J0D01*
G01*
X154950000Y-55150000D02*
G75*
G02*
X157350000Y-55150000I1200000J0D01*
G01*
X207525000Y-127625000D02*
G75*
G02*
X205125000Y-127625000I-1200000J0D01*
G01*
X205125000Y-127625000D02*
G75*
G02*
X207525000Y-127625000I1200000J0D01*
G01*
X207600000Y-66487500D02*
G75*
G02*
X205200000Y-66487500I-1200000J0D01*
G01*
X205200000Y-66487500D02*
G75*
G02*
X207600000Y-66487500I1200000J0D01*
G01*
X154350000Y-82750000D02*
G75*
G02*
X151950000Y-82750000I-1200000J0D01*
G01*
X151950000Y-82750000D02*
G75*
G02*
X154350000Y-82750000I1200000J0D01*
G01*
X146050000Y-91150000D02*
G75*
G02*
X143650000Y-91150000I-1200000J0D01*
G01*
X143650000Y-91150000D02*
G75*
G02*
X146050000Y-91150000I1200000J0D01*
G01*
X134650000Y-110350000D02*
G75*
G02*
X132250000Y-110350000I-1200000J0D01*
G01*
X132250000Y-110350000D02*
G75*
G02*
X134650000Y-110350000I1200000J0D01*
G01*
X174325000Y-123412500D02*
G75*
G02*
X171925000Y-123412500I-1200000J0D01*
G01*
X171925000Y-123412500D02*
G75*
G02*
X174325000Y-123412500I1200000J0D01*
G01*
X174275000Y-66525000D02*
G75*
G02*
X171875000Y-66525000I-1200000J0D01*
G01*
X171875000Y-66525000D02*
G75*
G02*
X174275000Y-66525000I1200000J0D01*
G01*
X204650000Y-97087500D02*
G75*
G02*
X202250000Y-97087500I-1200000J0D01*
G01*
X202250000Y-97087500D02*
G75*
G02*
X204650000Y-97087500I1200000J0D01*
G01*
X171350000Y-121362500D02*
G75*
G02*
X168950000Y-121362500I-1200000J0D01*
G01*
X168950000Y-121362500D02*
G75*
G02*
X171350000Y-121362500I1200000J0D01*
G01*
X174300001Y-127412500D02*
G75*
G02*
X171900001Y-127412500I-1200000J0D01*
G01*
X171900001Y-127412500D02*
G75*
G02*
X174300001Y-127412500I1200000J0D01*
G01*
X171350000Y-68525000D02*
G75*
G02*
X168950000Y-68525000I-1200000J0D01*
G01*
X168950000Y-68525000D02*
G75*
G02*
X171350000Y-68525000I1200000J0D01*
G01*
X174250001Y-70525000D02*
G75*
G02*
X171850001Y-70525000I-1200000J0D01*
G01*
X171850001Y-70525000D02*
G75*
G02*
X174250001Y-70525000I1200000J0D01*
G01*
X83350000Y-114950000D02*
G75*
G02*
X80950000Y-114950000I-1200000J0D01*
G01*
X80950000Y-114950000D02*
G75*
G02*
X83350000Y-114950000I1200000J0D01*
G01*
X171300000Y-92975000D02*
G75*
G02*
X168900000Y-92975000I-1200000J0D01*
G01*
X168900000Y-92975000D02*
G75*
G02*
X171300000Y-92975000I1200000J0D01*
G01*
X134650000Y-130950000D02*
G75*
G02*
X132250000Y-130950000I-1200000J0D01*
G01*
X132250000Y-130950000D02*
G75*
G02*
X134650000Y-130950000I1200000J0D01*
G01*
X171300000Y-64475000D02*
G75*
G02*
X168900000Y-64475000I-1200000J0D01*
G01*
X168900000Y-64475000D02*
G75*
G02*
X171300000Y-64475000I1200000J0D01*
G01*
X155450000Y-132550000D02*
G75*
G02*
X153050000Y-132550000I-1200000J0D01*
G01*
X153050000Y-132550000D02*
G75*
G02*
X155450000Y-132550000I1200000J0D01*
G01*
X88550000Y-70650000D02*
G75*
G02*
X86150000Y-70650000I-1200000J0D01*
G01*
X86150000Y-70650000D02*
G75*
G02*
X88550000Y-70650000I1200000J0D01*
G01*
X74550000Y-104050000D02*
G75*
G02*
X72150000Y-104050000I-1200000J0D01*
G01*
X72150000Y-104050000D02*
G75*
G02*
X74550000Y-104050000I1200000J0D01*
G01*
X81750000Y-105650000D02*
G75*
G02*
X79350000Y-105650000I-1200000J0D01*
G01*
X79350000Y-105650000D02*
G75*
G02*
X81750000Y-105650000I1200000J0D01*
G01*
X204575000Y-121575000D02*
G75*
G02*
X202175000Y-121575000I-1200000J0D01*
G01*
X202175000Y-121575000D02*
G75*
G02*
X204575000Y-121575000I1200000J0D01*
G01*
X79150000Y-76250000D02*
G75*
G02*
X76750000Y-76250000I-1200000J0D01*
G01*
X76750000Y-76250000D02*
G75*
G02*
X79150000Y-76250000I1200000J0D01*
G01*
X185350000Y-72150000D02*
G75*
G02*
X182950000Y-72150000I-1200000J0D01*
G01*
X182950000Y-72150000D02*
G75*
G02*
X185350000Y-72150000I1200000J0D01*
G01*
X146050000Y-99650000D02*
G75*
G02*
X143650000Y-99650000I-1200000J0D01*
G01*
X143650000Y-99650000D02*
G75*
G02*
X146050000Y-99650000I1200000J0D01*
G01*
X204675000Y-68487500D02*
G75*
G02*
X202275000Y-68487500I-1200000J0D01*
G01*
X202275000Y-68487500D02*
G75*
G02*
X204675000Y-68487500I1200000J0D01*
G01*
X207550000Y-123625000D02*
G75*
G02*
X205150000Y-123625000I-1200000J0D01*
G01*
X205150000Y-123625000D02*
G75*
G02*
X207550000Y-123625000I1200000J0D01*
G01*
X204600000Y-93037500D02*
G75*
G02*
X202200000Y-93037500I-1200000J0D01*
G01*
X202200000Y-93037500D02*
G75*
G02*
X204600000Y-93037500I1200000J0D01*
G01*
X190750000Y-54950000D02*
G75*
G02*
X188350000Y-54950000I-1200000J0D01*
G01*
X188350000Y-54950000D02*
G75*
G02*
X190750000Y-54950000I1200000J0D01*
G01*
X86650000Y-78350000D02*
G75*
G02*
X84250000Y-78350000I-1200000J0D01*
G01*
X84250000Y-78350000D02*
G75*
G02*
X86650000Y-78350000I1200000J0D01*
G01*
X158550000Y-111450000D02*
G75*
G02*
X156150000Y-111450000I-1200000J0D01*
G01*
X156150000Y-111450000D02*
G75*
G02*
X158550000Y-111450000I1200000J0D01*
G01*
X174275000Y-95025000D02*
G75*
G02*
X171875000Y-95025000I-1200000J0D01*
G01*
X171875000Y-95025000D02*
G75*
G02*
X174275000Y-95025000I1200000J0D01*
G01*
X191550000Y-83050000D02*
G75*
G02*
X189150000Y-83050000I-1200000J0D01*
G01*
X189150000Y-83050000D02*
G75*
G02*
X191550000Y-83050000I1200000J0D01*
G01*
X89750000Y-78350000D02*
G75*
G02*
X87350000Y-78350000I-1200000J0D01*
G01*
X87350000Y-78350000D02*
G75*
G02*
X89750000Y-78350000I1200000J0D01*
G01*
X77950000Y-87250000D02*
G75*
G02*
X75550000Y-87250000I-1200000J0D01*
G01*
X75550000Y-87250000D02*
G75*
G02*
X77950000Y-87250000I1200000J0D01*
G01*
X106550000Y-100150000D02*
G75*
G02*
X104150000Y-100150000I-1200000J0D01*
G01*
X104150000Y-100150000D02*
G75*
G02*
X106550000Y-100150000I1200000J0D01*
G01*
X187950000Y-115650000D02*
G75*
G02*
X185550000Y-115650000I-1200000J0D01*
G01*
X185550000Y-115650000D02*
G75*
G02*
X187950000Y-115650000I1200000J0D01*
G01*
X174250001Y-99025000D02*
G75*
G02*
X171850001Y-99025000I-1200000J0D01*
G01*
X171850001Y-99025000D02*
G75*
G02*
X174250001Y-99025000I1200000J0D01*
G01*
M02*
