G04 #@! TF.GenerationSoftware,KiCad,Pcbnew,9.0.4*
G04 #@! TF.CreationDate,2025-09-19T17:16:51+02:00*
G04 #@! TF.ProjectId,mobo,6d6f626f-2e6b-4696-9361-645f70636258,REV05*
G04 #@! TF.SameCoordinates,Original*
G04 #@! TF.FileFunction,Soldermask,Bot*
G04 #@! TF.FilePolarity,Negative*
%FSLAX46Y46*%
G04 Gerber Fmt 4.6, Leading zero omitted, Abs format (unit mm)*
G04 Created by KiCad (PCBNEW 9.0.4) date 2025-09-19 17:16:51*
%MOMM*%
%LPD*%
G01*
G04 APERTURE LIST*
G04 Aperture macros list*
%AMRoundRect*
0 Rectangle with rounded corners*
0 $1 Rounding radius*
0 $2 $3 $4 $5 $6 $7 $8 $9 X,Y pos of 4 corners*
0 Add a 4 corners polygon primitive as box body*
4,1,4,$2,$3,$4,$5,$6,$7,$8,$9,$2,$3,0*
0 Add four circle primitives for the rounded corners*
1,1,$1+$1,$2,$3*
1,1,$1+$1,$4,$5*
1,1,$1+$1,$6,$7*
1,1,$1+$1,$8,$9*
0 Add four rect primitives between the rounded corners*
20,1,$1+$1,$2,$3,$4,$5,0*
20,1,$1+$1,$4,$5,$6,$7,0*
20,1,$1+$1,$6,$7,$8,$9,0*
20,1,$1+$1,$8,$9,$2,$3,0*%
G04 Aperture macros list end*
%ADD10C,0.010000*%
%ADD11C,5.600000*%
%ADD12R,1.600000X1.600000*%
%ADD13O,1.600000X1.600000*%
%ADD14R,3.500000X3.500000*%
%ADD15C,2.500000*%
%ADD16RoundRect,0.750000X-0.750000X-1.000000X0.750000X-1.000000X0.750000X1.000000X-0.750000X1.000000X0*%
%ADD17RoundRect,0.875000X-0.875000X-0.875000X0.875000X-0.875000X0.875000X0.875000X-0.875000X0.875000X0*%
%ADD18C,1.600000*%
%ADD19C,4.000000*%
%ADD20R,1.700000X1.700000*%
%ADD21O,1.700000X1.700000*%
%ADD22C,2.000000*%
G04 APERTURE END LIST*
D10*
X83147514Y-61723350D02*
X83150394Y-61727922D01*
X83152075Y-61732875D01*
X83150794Y-61733527D01*
X83147312Y-61730074D01*
X83144432Y-61725502D01*
X83142751Y-61720549D01*
X83144032Y-61719897D01*
X83147514Y-61723350D01*
G36*
X83147514Y-61723350D02*
G01*
X83150394Y-61727922D01*
X83152075Y-61732875D01*
X83150794Y-61733527D01*
X83147312Y-61730074D01*
X83144432Y-61725502D01*
X83142751Y-61720549D01*
X83144032Y-61719897D01*
X83147514Y-61723350D01*
G37*
X87305972Y-55762565D02*
X87308250Y-55765650D01*
X87307645Y-55767167D01*
X87303301Y-55768825D01*
X87301033Y-55768368D01*
X87300313Y-55765650D01*
X87300963Y-55764782D01*
X87305263Y-55762475D01*
X87305972Y-55762565D01*
G36*
X87305972Y-55762565D02*
G01*
X87308250Y-55765650D01*
X87307645Y-55767167D01*
X87303301Y-55768825D01*
X87301033Y-55768368D01*
X87300313Y-55765650D01*
X87300963Y-55764782D01*
X87305263Y-55762475D01*
X87305972Y-55762565D01*
G37*
X87684488Y-57442050D02*
X87682898Y-57443558D01*
X87677157Y-57445176D01*
X87676435Y-57445165D01*
X87673575Y-57444515D01*
X87676550Y-57442050D01*
X87680958Y-57439711D01*
X87684744Y-57439245D01*
X87684488Y-57442050D01*
G36*
X87684488Y-57442050D02*
G01*
X87682898Y-57443558D01*
X87677157Y-57445176D01*
X87676435Y-57445165D01*
X87673575Y-57444515D01*
X87676550Y-57442050D01*
X87680958Y-57439711D01*
X87684744Y-57439245D01*
X87684488Y-57442050D01*
G37*
X85337411Y-56502820D02*
X85352421Y-56504949D01*
X85376105Y-56513021D01*
X85397741Y-56526044D01*
X85416476Y-56543176D01*
X85431460Y-56563578D01*
X85441841Y-56586407D01*
X85446767Y-56610823D01*
X85447108Y-56620364D01*
X85446549Y-56631570D01*
X85445036Y-56639226D01*
X85442753Y-56643500D01*
X85436739Y-56652722D01*
X85427820Y-56665418D01*
X85416612Y-56680776D01*
X85403733Y-56697981D01*
X85389798Y-56716220D01*
X85375426Y-56734680D01*
X85361232Y-56752546D01*
X85347833Y-56769006D01*
X85335847Y-56783246D01*
X85318230Y-56803018D01*
X85298289Y-56823348D01*
X85277930Y-56841544D01*
X85255785Y-56858732D01*
X85230485Y-56876038D01*
X85200664Y-56894591D01*
X85188025Y-56902139D01*
X85176505Y-56908811D01*
X85168938Y-56912784D01*
X85164523Y-56914422D01*
X85162460Y-56914087D01*
X85161950Y-56912142D01*
X85162979Y-56908791D01*
X85166048Y-56900103D01*
X85170918Y-56886728D01*
X85177353Y-56869298D01*
X85185114Y-56848444D01*
X85193961Y-56824798D01*
X85203657Y-56798991D01*
X85213964Y-56771654D01*
X85224641Y-56743420D01*
X85235452Y-56714920D01*
X85246158Y-56686784D01*
X85256520Y-56659645D01*
X85266300Y-56634135D01*
X85275259Y-56610884D01*
X85283159Y-56590524D01*
X85289761Y-56573687D01*
X85291232Y-56569963D01*
X85298464Y-56551605D01*
X85304904Y-56535182D01*
X85310165Y-56521684D01*
X85313861Y-56512106D01*
X85315603Y-56507439D01*
X85316777Y-56505026D01*
X85319970Y-56502965D01*
X85326324Y-56502340D01*
X85337411Y-56502820D01*
G36*
X85337411Y-56502820D02*
G01*
X85352421Y-56504949D01*
X85376105Y-56513021D01*
X85397741Y-56526044D01*
X85416476Y-56543176D01*
X85431460Y-56563578D01*
X85441841Y-56586407D01*
X85446767Y-56610823D01*
X85447108Y-56620364D01*
X85446549Y-56631570D01*
X85445036Y-56639226D01*
X85442753Y-56643500D01*
X85436739Y-56652722D01*
X85427820Y-56665418D01*
X85416612Y-56680776D01*
X85403733Y-56697981D01*
X85389798Y-56716220D01*
X85375426Y-56734680D01*
X85361232Y-56752546D01*
X85347833Y-56769006D01*
X85335847Y-56783246D01*
X85318230Y-56803018D01*
X85298289Y-56823348D01*
X85277930Y-56841544D01*
X85255785Y-56858732D01*
X85230485Y-56876038D01*
X85200664Y-56894591D01*
X85188025Y-56902139D01*
X85176505Y-56908811D01*
X85168938Y-56912784D01*
X85164523Y-56914422D01*
X85162460Y-56914087D01*
X85161950Y-56912142D01*
X85162979Y-56908791D01*
X85166048Y-56900103D01*
X85170918Y-56886728D01*
X85177353Y-56869298D01*
X85185114Y-56848444D01*
X85193961Y-56824798D01*
X85203657Y-56798991D01*
X85213964Y-56771654D01*
X85224641Y-56743420D01*
X85235452Y-56714920D01*
X85246158Y-56686784D01*
X85256520Y-56659645D01*
X85266300Y-56634135D01*
X85275259Y-56610884D01*
X85283159Y-56590524D01*
X85289761Y-56573687D01*
X85291232Y-56569963D01*
X85298464Y-56551605D01*
X85304904Y-56535182D01*
X85310165Y-56521684D01*
X85313861Y-56512106D01*
X85315603Y-56507439D01*
X85316777Y-56505026D01*
X85319970Y-56502965D01*
X85326324Y-56502340D01*
X85337411Y-56502820D01*
G37*
X84109770Y-57838974D02*
X84122124Y-57839522D01*
X84134707Y-57840830D01*
X84148342Y-57843091D01*
X84163853Y-57846494D01*
X84182062Y-57851232D01*
X84203794Y-57857497D01*
X84229871Y-57865478D01*
X84261118Y-57875367D01*
X84277386Y-57880548D01*
X84315091Y-57892337D01*
X84347570Y-57902111D01*
X84375353Y-57909993D01*
X84398969Y-57916105D01*
X84418948Y-57920569D01*
X84435821Y-57923508D01*
X84450115Y-57925044D01*
X84462361Y-57925301D01*
X84473088Y-57924399D01*
X84503014Y-57921632D01*
X84537386Y-57922837D01*
X84569426Y-57929291D01*
X84599975Y-57941105D01*
X84603419Y-57942863D01*
X84621222Y-57954455D01*
X84639570Y-57969897D01*
X84656869Y-57987592D01*
X84671530Y-58005943D01*
X84681961Y-58023355D01*
X84693292Y-58052654D01*
X84700260Y-58085941D01*
X84701188Y-58119005D01*
X84696168Y-58151282D01*
X84685296Y-58182208D01*
X84668665Y-58211216D01*
X84646369Y-58237743D01*
X84627645Y-58253950D01*
X84599604Y-58271887D01*
X84568098Y-58286247D01*
X84534445Y-58296451D01*
X84499963Y-58301921D01*
X84499449Y-58301964D01*
X84484389Y-58302641D01*
X84469202Y-58302435D01*
X84457100Y-58301387D01*
X84455216Y-58301139D01*
X84445162Y-58300299D01*
X84430358Y-58299498D01*
X84412038Y-58298784D01*
X84391437Y-58298208D01*
X84369788Y-58297821D01*
X84330159Y-58296836D01*
X84287738Y-58294381D01*
X84249419Y-58290384D01*
X84214049Y-58284689D01*
X84180473Y-58277139D01*
X84147538Y-58267577D01*
X84142968Y-58266108D01*
X84122625Y-58259620D01*
X84101647Y-58252994D01*
X84082258Y-58246931D01*
X84066683Y-58242131D01*
X84050374Y-58236845D01*
X84020595Y-58224984D01*
X83995721Y-58211592D01*
X83974813Y-58196200D01*
X83959694Y-58181983D01*
X83936912Y-58154171D01*
X83919797Y-58123543D01*
X83908421Y-58090240D01*
X83902855Y-58054406D01*
X83902998Y-58024497D01*
X83908599Y-57991243D01*
X83919553Y-57959903D01*
X83935362Y-57931009D01*
X83955526Y-57905096D01*
X83979546Y-57882698D01*
X84006925Y-57864347D01*
X84037162Y-57850579D01*
X84069759Y-57841927D01*
X84104218Y-57838925D01*
X84109770Y-57838974D01*
G36*
X84109770Y-57838974D02*
G01*
X84122124Y-57839522D01*
X84134707Y-57840830D01*
X84148342Y-57843091D01*
X84163853Y-57846494D01*
X84182062Y-57851232D01*
X84203794Y-57857497D01*
X84229871Y-57865478D01*
X84261118Y-57875367D01*
X84277386Y-57880548D01*
X84315091Y-57892337D01*
X84347570Y-57902111D01*
X84375353Y-57909993D01*
X84398969Y-57916105D01*
X84418948Y-57920569D01*
X84435821Y-57923508D01*
X84450115Y-57925044D01*
X84462361Y-57925301D01*
X84473088Y-57924399D01*
X84503014Y-57921632D01*
X84537386Y-57922837D01*
X84569426Y-57929291D01*
X84599975Y-57941105D01*
X84603419Y-57942863D01*
X84621222Y-57954455D01*
X84639570Y-57969897D01*
X84656869Y-57987592D01*
X84671530Y-58005943D01*
X84681961Y-58023355D01*
X84693292Y-58052654D01*
X84700260Y-58085941D01*
X84701188Y-58119005D01*
X84696168Y-58151282D01*
X84685296Y-58182208D01*
X84668665Y-58211216D01*
X84646369Y-58237743D01*
X84627645Y-58253950D01*
X84599604Y-58271887D01*
X84568098Y-58286247D01*
X84534445Y-58296451D01*
X84499963Y-58301921D01*
X84499449Y-58301964D01*
X84484389Y-58302641D01*
X84469202Y-58302435D01*
X84457100Y-58301387D01*
X84455216Y-58301139D01*
X84445162Y-58300299D01*
X84430358Y-58299498D01*
X84412038Y-58298784D01*
X84391437Y-58298208D01*
X84369788Y-58297821D01*
X84330159Y-58296836D01*
X84287738Y-58294381D01*
X84249419Y-58290384D01*
X84214049Y-58284689D01*
X84180473Y-58277139D01*
X84147538Y-58267577D01*
X84142968Y-58266108D01*
X84122625Y-58259620D01*
X84101647Y-58252994D01*
X84082258Y-58246931D01*
X84066683Y-58242131D01*
X84050374Y-58236845D01*
X84020595Y-58224984D01*
X83995721Y-58211592D01*
X83974813Y-58196200D01*
X83959694Y-58181983D01*
X83936912Y-58154171D01*
X83919797Y-58123543D01*
X83908421Y-58090240D01*
X83902855Y-58054406D01*
X83902998Y-58024497D01*
X83908599Y-57991243D01*
X83919553Y-57959903D01*
X83935362Y-57931009D01*
X83955526Y-57905096D01*
X83979546Y-57882698D01*
X84006925Y-57864347D01*
X84037162Y-57850579D01*
X84069759Y-57841927D01*
X84104218Y-57838925D01*
X84109770Y-57838974D01*
G37*
X83458519Y-56591633D02*
X83464091Y-56593284D01*
X83468540Y-56596977D01*
X83472463Y-56603519D01*
X83476451Y-56613715D01*
X83481099Y-56628373D01*
X83487002Y-56648300D01*
X83487875Y-56651210D01*
X83493114Y-56667517D01*
X83500041Y-56687768D01*
X83508090Y-56710369D01*
X83516697Y-56733727D01*
X83525295Y-56756250D01*
X83528185Y-56763693D01*
X83536372Y-56785044D01*
X83544125Y-56805624D01*
X83550967Y-56824152D01*
X83556424Y-56839342D01*
X83560019Y-56849912D01*
X83560175Y-56850406D01*
X83563015Y-56860590D01*
X83566885Y-56876088D01*
X83571600Y-56896043D01*
X83576972Y-56919599D01*
X83582815Y-56945901D01*
X83588944Y-56974093D01*
X83595172Y-57003319D01*
X83601313Y-57032722D01*
X83607181Y-57061446D01*
X83612588Y-57088637D01*
X83617350Y-57113437D01*
X83618339Y-57118693D01*
X83621406Y-57134835D01*
X83624094Y-57148756D01*
X83626141Y-57159117D01*
X83627289Y-57164574D01*
X83627302Y-57169379D01*
X83623497Y-57176650D01*
X83620208Y-57179528D01*
X83616093Y-57181380D01*
X83611700Y-57180657D01*
X83606548Y-57176873D01*
X83600152Y-57169540D01*
X83592030Y-57158171D01*
X83581697Y-57142278D01*
X83568671Y-57121375D01*
X83556078Y-57101174D01*
X83542214Y-57079324D01*
X83528397Y-57057887D01*
X83515706Y-57038538D01*
X83505221Y-57022950D01*
X83496089Y-57009629D01*
X83476661Y-56981165D01*
X83460304Y-56956968D01*
X83446606Y-56936387D01*
X83435155Y-56918769D01*
X83425536Y-56903464D01*
X83417338Y-56889818D01*
X83410148Y-56877182D01*
X83403553Y-56864902D01*
X83397140Y-56852328D01*
X83395961Y-56849957D01*
X83385111Y-56827355D01*
X83374209Y-56803354D01*
X83363559Y-56778749D01*
X83353467Y-56754333D01*
X83344239Y-56730901D01*
X83336179Y-56709247D01*
X83329594Y-56690166D01*
X83324788Y-56674451D01*
X83322068Y-56662896D01*
X83321739Y-56656297D01*
X83325213Y-56649918D01*
X83332890Y-56640970D01*
X83343387Y-56630919D01*
X83355384Y-56620936D01*
X83367565Y-56612189D01*
X83378610Y-56605848D01*
X83399288Y-56597578D01*
X83420769Y-56592751D01*
X83444988Y-56591227D01*
X83451233Y-56591217D01*
X83458519Y-56591633D01*
G36*
X83458519Y-56591633D02*
G01*
X83464091Y-56593284D01*
X83468540Y-56596977D01*
X83472463Y-56603519D01*
X83476451Y-56613715D01*
X83481099Y-56628373D01*
X83487002Y-56648300D01*
X83487875Y-56651210D01*
X83493114Y-56667517D01*
X83500041Y-56687768D01*
X83508090Y-56710369D01*
X83516697Y-56733727D01*
X83525295Y-56756250D01*
X83528185Y-56763693D01*
X83536372Y-56785044D01*
X83544125Y-56805624D01*
X83550967Y-56824152D01*
X83556424Y-56839342D01*
X83560019Y-56849912D01*
X83560175Y-56850406D01*
X83563015Y-56860590D01*
X83566885Y-56876088D01*
X83571600Y-56896043D01*
X83576972Y-56919599D01*
X83582815Y-56945901D01*
X83588944Y-56974093D01*
X83595172Y-57003319D01*
X83601313Y-57032722D01*
X83607181Y-57061446D01*
X83612588Y-57088637D01*
X83617350Y-57113437D01*
X83618339Y-57118693D01*
X83621406Y-57134835D01*
X83624094Y-57148756D01*
X83626141Y-57159117D01*
X83627289Y-57164574D01*
X83627302Y-57169379D01*
X83623497Y-57176650D01*
X83620208Y-57179528D01*
X83616093Y-57181380D01*
X83611700Y-57180657D01*
X83606548Y-57176873D01*
X83600152Y-57169540D01*
X83592030Y-57158171D01*
X83581697Y-57142278D01*
X83568671Y-57121375D01*
X83556078Y-57101174D01*
X83542214Y-57079324D01*
X83528397Y-57057887D01*
X83515706Y-57038538D01*
X83505221Y-57022950D01*
X83496089Y-57009629D01*
X83476661Y-56981165D01*
X83460304Y-56956968D01*
X83446606Y-56936387D01*
X83435155Y-56918769D01*
X83425536Y-56903464D01*
X83417338Y-56889818D01*
X83410148Y-56877182D01*
X83403553Y-56864902D01*
X83397140Y-56852328D01*
X83395961Y-56849957D01*
X83385111Y-56827355D01*
X83374209Y-56803354D01*
X83363559Y-56778749D01*
X83353467Y-56754333D01*
X83344239Y-56730901D01*
X83336179Y-56709247D01*
X83329594Y-56690166D01*
X83324788Y-56674451D01*
X83322068Y-56662896D01*
X83321739Y-56656297D01*
X83325213Y-56649918D01*
X83332890Y-56640970D01*
X83343387Y-56630919D01*
X83355384Y-56620936D01*
X83367565Y-56612189D01*
X83378610Y-56605848D01*
X83399288Y-56597578D01*
X83420769Y-56592751D01*
X83444988Y-56591227D01*
X83451233Y-56591217D01*
X83458519Y-56591633D01*
G37*
X85780771Y-56724095D02*
X85795120Y-56728736D01*
X85814301Y-56736982D01*
X85838473Y-56748888D01*
X85844934Y-56752300D01*
X85868313Y-56765963D01*
X85891688Y-56781473D01*
X85914106Y-56798057D01*
X85934617Y-56814946D01*
X85952271Y-56831368D01*
X85966116Y-56846554D01*
X85975202Y-56859732D01*
X85979165Y-56868698D01*
X85984030Y-56882208D01*
X85989094Y-56898258D01*
X85993736Y-56915000D01*
X85997190Y-56928318D01*
X86002445Y-56948282D01*
X86008462Y-56970906D01*
X86014740Y-56994306D01*
X86020777Y-57016600D01*
X86030732Y-57053557D01*
X86039235Y-57086190D01*
X86046232Y-57114539D01*
X86051906Y-57139507D01*
X86056437Y-57161994D01*
X86060008Y-57182905D01*
X86062800Y-57203141D01*
X86064995Y-57223605D01*
X86066774Y-57245200D01*
X86067748Y-57258875D01*
X86069814Y-57289880D01*
X86071603Y-57319561D01*
X86073084Y-57347201D01*
X86074227Y-57372086D01*
X86074999Y-57393501D01*
X86075371Y-57410731D01*
X86075311Y-57423060D01*
X86074789Y-57429774D01*
X86073992Y-57432658D01*
X86070385Y-57442113D01*
X86064902Y-57454330D01*
X86058377Y-57467396D01*
X86035207Y-57507068D01*
X86002375Y-57552214D01*
X85965024Y-57593005D01*
X85923296Y-57629342D01*
X85877338Y-57661128D01*
X85827293Y-57688265D01*
X85773304Y-57710656D01*
X85715517Y-57728204D01*
X85654075Y-57740811D01*
X85642693Y-57742495D01*
X85628321Y-57744127D01*
X85613192Y-57745178D01*
X85595909Y-57745710D01*
X85575078Y-57745785D01*
X85549300Y-57745465D01*
X85543569Y-57745359D01*
X85514259Y-57744484D01*
X85489318Y-57742942D01*
X85467072Y-57740448D01*
X85445843Y-57736718D01*
X85423956Y-57731466D01*
X85399734Y-57724408D01*
X85371500Y-57715258D01*
X85367233Y-57713850D01*
X85347906Y-57707834D01*
X85328363Y-57702249D01*
X85310669Y-57697666D01*
X85296888Y-57694656D01*
X85270090Y-57688789D01*
X85225235Y-57674395D01*
X85180915Y-57654238D01*
X85136479Y-57628049D01*
X85133340Y-57625971D01*
X85099184Y-57600063D01*
X85070390Y-57571485D01*
X85046354Y-57539645D01*
X85046158Y-57539342D01*
X85034129Y-57519816D01*
X85022953Y-57499864D01*
X85013066Y-57480445D01*
X85004905Y-57462514D01*
X84998905Y-57447030D01*
X84995503Y-57434949D01*
X84995134Y-57427229D01*
X84997183Y-57423580D01*
X85003215Y-57416193D01*
X85012121Y-57406747D01*
X85022844Y-57396419D01*
X85034065Y-57386545D01*
X85046904Y-57376850D01*
X85060175Y-57369072D01*
X85075339Y-57362492D01*
X85093858Y-57356392D01*
X85117192Y-57350053D01*
X85132293Y-57345720D01*
X85161212Y-57335306D01*
X85190091Y-57322533D01*
X85215925Y-57308661D01*
X85228388Y-57301693D01*
X85244631Y-57293515D01*
X85259664Y-57286753D01*
X85260024Y-57286604D01*
X85274652Y-57279721D01*
X85290796Y-57270901D01*
X85305024Y-57262014D01*
X85308245Y-57259829D01*
X85320579Y-57251624D01*
X85336061Y-57241498D01*
X85353029Y-57230529D01*
X85369826Y-57219800D01*
X85383757Y-57210791D01*
X85397039Y-57201670D01*
X85409380Y-57192419D01*
X85421654Y-57182280D01*
X85434734Y-57170494D01*
X85449492Y-57156307D01*
X85466801Y-57138959D01*
X85487536Y-57117693D01*
X85501127Y-57103283D01*
X85523152Y-57078357D01*
X85546026Y-57050519D01*
X85570036Y-57019374D01*
X85595466Y-56984527D01*
X85622602Y-56945584D01*
X85651730Y-56902149D01*
X85683136Y-56853828D01*
X85717103Y-56800227D01*
X85728851Y-56781607D01*
X85740174Y-56763896D01*
X85750118Y-56748584D01*
X85758190Y-56736418D01*
X85763900Y-56728149D01*
X85766755Y-56724527D01*
X85771094Y-56723005D01*
X85780771Y-56724095D01*
G36*
X85780771Y-56724095D02*
G01*
X85795120Y-56728736D01*
X85814301Y-56736982D01*
X85838473Y-56748888D01*
X85844934Y-56752300D01*
X85868313Y-56765963D01*
X85891688Y-56781473D01*
X85914106Y-56798057D01*
X85934617Y-56814946D01*
X85952271Y-56831368D01*
X85966116Y-56846554D01*
X85975202Y-56859732D01*
X85979165Y-56868698D01*
X85984030Y-56882208D01*
X85989094Y-56898258D01*
X85993736Y-56915000D01*
X85997190Y-56928318D01*
X86002445Y-56948282D01*
X86008462Y-56970906D01*
X86014740Y-56994306D01*
X86020777Y-57016600D01*
X86030732Y-57053557D01*
X86039235Y-57086190D01*
X86046232Y-57114539D01*
X86051906Y-57139507D01*
X86056437Y-57161994D01*
X86060008Y-57182905D01*
X86062800Y-57203141D01*
X86064995Y-57223605D01*
X86066774Y-57245200D01*
X86067748Y-57258875D01*
X86069814Y-57289880D01*
X86071603Y-57319561D01*
X86073084Y-57347201D01*
X86074227Y-57372086D01*
X86074999Y-57393501D01*
X86075371Y-57410731D01*
X86075311Y-57423060D01*
X86074789Y-57429774D01*
X86073992Y-57432658D01*
X86070385Y-57442113D01*
X86064902Y-57454330D01*
X86058377Y-57467396D01*
X86035207Y-57507068D01*
X86002375Y-57552214D01*
X85965024Y-57593005D01*
X85923296Y-57629342D01*
X85877338Y-57661128D01*
X85827293Y-57688265D01*
X85773304Y-57710656D01*
X85715517Y-57728204D01*
X85654075Y-57740811D01*
X85642693Y-57742495D01*
X85628321Y-57744127D01*
X85613192Y-57745178D01*
X85595909Y-57745710D01*
X85575078Y-57745785D01*
X85549300Y-57745465D01*
X85543569Y-57745359D01*
X85514259Y-57744484D01*
X85489318Y-57742942D01*
X85467072Y-57740448D01*
X85445843Y-57736718D01*
X85423956Y-57731466D01*
X85399734Y-57724408D01*
X85371500Y-57715258D01*
X85367233Y-57713850D01*
X85347906Y-57707834D01*
X85328363Y-57702249D01*
X85310669Y-57697666D01*
X85296888Y-57694656D01*
X85270090Y-57688789D01*
X85225235Y-57674395D01*
X85180915Y-57654238D01*
X85136479Y-57628049D01*
X85133340Y-57625971D01*
X85099184Y-57600063D01*
X85070390Y-57571485D01*
X85046354Y-57539645D01*
X85046158Y-57539342D01*
X85034129Y-57519816D01*
X85022953Y-57499864D01*
X85013066Y-57480445D01*
X85004905Y-57462514D01*
X84998905Y-57447030D01*
X84995503Y-57434949D01*
X84995134Y-57427229D01*
X84997183Y-57423580D01*
X85003215Y-57416193D01*
X85012121Y-57406747D01*
X85022844Y-57396419D01*
X85034065Y-57386545D01*
X85046904Y-57376850D01*
X85060175Y-57369072D01*
X85075339Y-57362492D01*
X85093858Y-57356392D01*
X85117192Y-57350053D01*
X85132293Y-57345720D01*
X85161212Y-57335306D01*
X85190091Y-57322533D01*
X85215925Y-57308661D01*
X85228388Y-57301693D01*
X85244631Y-57293515D01*
X85259664Y-57286753D01*
X85260024Y-57286604D01*
X85274652Y-57279721D01*
X85290796Y-57270901D01*
X85305024Y-57262014D01*
X85308245Y-57259829D01*
X85320579Y-57251624D01*
X85336061Y-57241498D01*
X85353029Y-57230529D01*
X85369826Y-57219800D01*
X85383757Y-57210791D01*
X85397039Y-57201670D01*
X85409380Y-57192419D01*
X85421654Y-57182280D01*
X85434734Y-57170494D01*
X85449492Y-57156307D01*
X85466801Y-57138959D01*
X85487536Y-57117693D01*
X85501127Y-57103283D01*
X85523152Y-57078357D01*
X85546026Y-57050519D01*
X85570036Y-57019374D01*
X85595466Y-56984527D01*
X85622602Y-56945584D01*
X85651730Y-56902149D01*
X85683136Y-56853828D01*
X85717103Y-56800227D01*
X85728851Y-56781607D01*
X85740174Y-56763896D01*
X85750118Y-56748584D01*
X85758190Y-56736418D01*
X85763900Y-56728149D01*
X85766755Y-56724527D01*
X85771094Y-56723005D01*
X85780771Y-56724095D01*
G37*
X83068899Y-56884171D02*
X83098485Y-56890632D01*
X83124092Y-56901286D01*
X83127171Y-56903001D01*
X83135505Y-56908716D01*
X83140448Y-56915173D01*
X83144006Y-56924735D01*
X83144536Y-56926396D01*
X83148250Y-56936210D01*
X83154259Y-56950586D01*
X83162150Y-56968625D01*
X83171511Y-56989426D01*
X83181928Y-57012087D01*
X83192988Y-57035709D01*
X83204278Y-57059390D01*
X83215386Y-57082231D01*
X83225898Y-57103329D01*
X83227524Y-57106497D01*
X83236858Y-57123647D01*
X83248667Y-57144100D01*
X83262010Y-57166287D01*
X83275947Y-57188639D01*
X83289539Y-57209587D01*
X83303390Y-57230252D01*
X83315411Y-57247613D01*
X83326013Y-57262033D01*
X83336191Y-57274753D01*
X83346942Y-57287016D01*
X83359261Y-57300063D01*
X83374142Y-57315136D01*
X83387266Y-57328009D01*
X83402218Y-57342122D01*
X83416130Y-57354711D01*
X83427878Y-57364761D01*
X83436338Y-57371259D01*
X83446209Y-57378818D01*
X83458197Y-57389817D01*
X83467569Y-57400348D01*
X83474438Y-57408892D01*
X83494930Y-57430273D01*
X83519686Y-57451516D01*
X83547362Y-57471426D01*
X83552970Y-57475193D01*
X83569435Y-57486933D01*
X83586240Y-57499701D01*
X83600503Y-57511333D01*
X83606702Y-57516537D01*
X83629664Y-57533893D01*
X83656015Y-57550963D01*
X83686687Y-57568321D01*
X83722613Y-57586540D01*
X83732417Y-57591346D01*
X83748024Y-57599462D01*
X83758627Y-57606016D01*
X83764792Y-57611606D01*
X83767086Y-57616832D01*
X83766076Y-57622296D01*
X83762329Y-57628598D01*
X83756097Y-57636158D01*
X83745460Y-57647339D01*
X83731948Y-57660510D01*
X83716668Y-57674647D01*
X83700727Y-57688731D01*
X83685232Y-57701738D01*
X83671288Y-57712649D01*
X83655344Y-57723964D01*
X83628964Y-57741006D01*
X83600826Y-57757552D01*
X83573087Y-57772353D01*
X83547908Y-57784156D01*
X83529873Y-57791541D01*
X83475803Y-57810505D01*
X83419142Y-57826097D01*
X83362056Y-57837770D01*
X83306707Y-57844979D01*
X83264935Y-57847496D01*
X83225128Y-57846988D01*
X83187423Y-57843095D01*
X83150038Y-57835628D01*
X83111195Y-57824401D01*
X83093403Y-57818231D01*
X83063124Y-57805822D01*
X83034783Y-57791348D01*
X83007343Y-57774130D01*
X82979769Y-57753489D01*
X82951024Y-57728747D01*
X82920072Y-57699225D01*
X82918368Y-57697531D01*
X82903621Y-57682609D01*
X82889902Y-57668280D01*
X82878094Y-57655501D01*
X82869081Y-57645227D01*
X82863749Y-57638412D01*
X82853841Y-57623636D01*
X82861427Y-57581262D01*
X82864247Y-57566558D01*
X82868613Y-57545663D01*
X82873794Y-57522224D01*
X82879366Y-57498160D01*
X82884903Y-57475387D01*
X82889836Y-57455148D01*
X82895299Y-57431633D01*
X82900369Y-57408744D01*
X82904639Y-57388320D01*
X82907702Y-57372200D01*
X82908246Y-57369109D01*
X82912100Y-57348721D01*
X82916492Y-57327545D01*
X82921096Y-57306990D01*
X82925586Y-57288463D01*
X82929636Y-57273374D01*
X82932922Y-57263133D01*
X82932980Y-57262978D01*
X82936238Y-57252039D01*
X82939663Y-57236785D01*
X82942893Y-57219191D01*
X82945564Y-57201229D01*
X82947314Y-57184875D01*
X82948208Y-57173909D01*
X82949782Y-57157530D01*
X82951633Y-57143096D01*
X82954078Y-57128583D01*
X82957437Y-57111963D01*
X82962027Y-57091212D01*
X82964532Y-57079230D01*
X82968760Y-57054989D01*
X82972290Y-57029790D01*
X82974608Y-57007075D01*
X82975770Y-56993862D01*
X82978116Y-56973220D01*
X82981005Y-56952595D01*
X82984219Y-56933249D01*
X82987544Y-56916443D01*
X82990765Y-56903441D01*
X82993664Y-56895504D01*
X82994689Y-56893764D01*
X83000248Y-56888110D01*
X83008850Y-56884494D01*
X83021565Y-56882602D01*
X83039463Y-56882124D01*
X83068899Y-56884171D01*
G36*
X83068899Y-56884171D02*
G01*
X83098485Y-56890632D01*
X83124092Y-56901286D01*
X83127171Y-56903001D01*
X83135505Y-56908716D01*
X83140448Y-56915173D01*
X83144006Y-56924735D01*
X83144536Y-56926396D01*
X83148250Y-56936210D01*
X83154259Y-56950586D01*
X83162150Y-56968625D01*
X83171511Y-56989426D01*
X83181928Y-57012087D01*
X83192988Y-57035709D01*
X83204278Y-57059390D01*
X83215386Y-57082231D01*
X83225898Y-57103329D01*
X83227524Y-57106497D01*
X83236858Y-57123647D01*
X83248667Y-57144100D01*
X83262010Y-57166287D01*
X83275947Y-57188639D01*
X83289539Y-57209587D01*
X83303390Y-57230252D01*
X83315411Y-57247613D01*
X83326013Y-57262033D01*
X83336191Y-57274753D01*
X83346942Y-57287016D01*
X83359261Y-57300063D01*
X83374142Y-57315136D01*
X83387266Y-57328009D01*
X83402218Y-57342122D01*
X83416130Y-57354711D01*
X83427878Y-57364761D01*
X83436338Y-57371259D01*
X83446209Y-57378818D01*
X83458197Y-57389817D01*
X83467569Y-57400348D01*
X83474438Y-57408892D01*
X83494930Y-57430273D01*
X83519686Y-57451516D01*
X83547362Y-57471426D01*
X83552970Y-57475193D01*
X83569435Y-57486933D01*
X83586240Y-57499701D01*
X83600503Y-57511333D01*
X83606702Y-57516537D01*
X83629664Y-57533893D01*
X83656015Y-57550963D01*
X83686687Y-57568321D01*
X83722613Y-57586540D01*
X83732417Y-57591346D01*
X83748024Y-57599462D01*
X83758627Y-57606016D01*
X83764792Y-57611606D01*
X83767086Y-57616832D01*
X83766076Y-57622296D01*
X83762329Y-57628598D01*
X83756097Y-57636158D01*
X83745460Y-57647339D01*
X83731948Y-57660510D01*
X83716668Y-57674647D01*
X83700727Y-57688731D01*
X83685232Y-57701738D01*
X83671288Y-57712649D01*
X83655344Y-57723964D01*
X83628964Y-57741006D01*
X83600826Y-57757552D01*
X83573087Y-57772353D01*
X83547908Y-57784156D01*
X83529873Y-57791541D01*
X83475803Y-57810505D01*
X83419142Y-57826097D01*
X83362056Y-57837770D01*
X83306707Y-57844979D01*
X83264935Y-57847496D01*
X83225128Y-57846988D01*
X83187423Y-57843095D01*
X83150038Y-57835628D01*
X83111195Y-57824401D01*
X83093403Y-57818231D01*
X83063124Y-57805822D01*
X83034783Y-57791348D01*
X83007343Y-57774130D01*
X82979769Y-57753489D01*
X82951024Y-57728747D01*
X82920072Y-57699225D01*
X82918368Y-57697531D01*
X82903621Y-57682609D01*
X82889902Y-57668280D01*
X82878094Y-57655501D01*
X82869081Y-57645227D01*
X82863749Y-57638412D01*
X82853841Y-57623636D01*
X82861427Y-57581262D01*
X82864247Y-57566558D01*
X82868613Y-57545663D01*
X82873794Y-57522224D01*
X82879366Y-57498160D01*
X82884903Y-57475387D01*
X82889836Y-57455148D01*
X82895299Y-57431633D01*
X82900369Y-57408744D01*
X82904639Y-57388320D01*
X82907702Y-57372200D01*
X82908246Y-57369109D01*
X82912100Y-57348721D01*
X82916492Y-57327545D01*
X82921096Y-57306990D01*
X82925586Y-57288463D01*
X82929636Y-57273374D01*
X82932922Y-57263133D01*
X82932980Y-57262978D01*
X82936238Y-57252039D01*
X82939663Y-57236785D01*
X82942893Y-57219191D01*
X82945564Y-57201229D01*
X82947314Y-57184875D01*
X82948208Y-57173909D01*
X82949782Y-57157530D01*
X82951633Y-57143096D01*
X82954078Y-57128583D01*
X82957437Y-57111963D01*
X82962027Y-57091212D01*
X82964532Y-57079230D01*
X82968760Y-57054989D01*
X82972290Y-57029790D01*
X82974608Y-57007075D01*
X82975770Y-56993862D01*
X82978116Y-56973220D01*
X82981005Y-56952595D01*
X82984219Y-56933249D01*
X82987544Y-56916443D01*
X82990765Y-56903441D01*
X82993664Y-56895504D01*
X82994689Y-56893764D01*
X83000248Y-56888110D01*
X83008850Y-56884494D01*
X83021565Y-56882602D01*
X83039463Y-56882124D01*
X83068899Y-56884171D01*
G37*
X86380902Y-55341041D02*
X86420619Y-55363489D01*
X86463070Y-55387025D01*
X86509738Y-55412504D01*
X86528755Y-55422859D01*
X86552563Y-55435907D01*
X86575913Y-55448788D01*
X86597523Y-55460792D01*
X86616110Y-55471208D01*
X86630388Y-55479324D01*
X86637082Y-55483170D01*
X86663999Y-55498502D01*
X86690308Y-55513240D01*
X86718096Y-55528548D01*
X86749450Y-55545585D01*
X86756592Y-55549452D01*
X86775089Y-55559546D01*
X86788514Y-55567020D01*
X86797289Y-55572113D01*
X86801838Y-55575063D01*
X86803800Y-55576370D01*
X86810458Y-55580339D01*
X86819300Y-55585316D01*
X86822646Y-55587152D01*
X86840735Y-55597105D01*
X86854255Y-55604604D01*
X86864080Y-55610150D01*
X86871083Y-55614240D01*
X86876137Y-55617374D01*
X86880116Y-55620049D01*
X86880529Y-55620337D01*
X86886709Y-55624311D01*
X86890176Y-55625949D01*
X86890183Y-55625950D01*
X86893443Y-55627510D01*
X86901015Y-55631697D01*
X86911778Y-55637879D01*
X86924611Y-55645420D01*
X86927258Y-55646988D01*
X86949171Y-55659620D01*
X86966620Y-55668926D01*
X86980254Y-55675208D01*
X86990726Y-55678769D01*
X86998688Y-55679913D01*
X87006819Y-55680971D01*
X87016150Y-55684184D01*
X87021064Y-55686774D01*
X87030741Y-55691831D01*
X87041550Y-55697448D01*
X87049014Y-55701452D01*
X87061479Y-55708596D01*
X87071713Y-55714967D01*
X87072219Y-55715301D01*
X87080374Y-55720213D01*
X87092511Y-55727024D01*
X87107076Y-55734876D01*
X87122513Y-55742915D01*
X87124296Y-55743833D01*
X87142223Y-55753554D01*
X87162693Y-55765346D01*
X87183318Y-55777806D01*
X87201711Y-55789528D01*
X87218566Y-55800282D01*
X87234927Y-55809871D01*
X87248146Y-55816649D01*
X87257273Y-55820091D01*
X87257469Y-55820137D01*
X87267792Y-55823392D01*
X87280855Y-55828544D01*
X87293880Y-55834501D01*
X87295387Y-55835245D01*
X87310560Y-55841923D01*
X87322436Y-55845096D01*
X87332681Y-55845017D01*
X87342960Y-55841939D01*
X87344748Y-55841101D01*
X87349592Y-55837706D01*
X87354835Y-55832101D01*
X87360954Y-55823588D01*
X87368423Y-55811465D01*
X87377716Y-55795031D01*
X87389310Y-55773587D01*
X87391928Y-55768770D01*
X87401447Y-55752215D01*
X87411769Y-55735361D01*
X87421079Y-55721200D01*
X87425987Y-55714062D01*
X87434810Y-55700676D01*
X87442355Y-55688101D01*
X87449052Y-55675349D01*
X87455331Y-55661430D01*
X87461620Y-55645355D01*
X87468348Y-55626137D01*
X87475944Y-55602785D01*
X87484839Y-55574311D01*
X87486149Y-55570062D01*
X87503293Y-55512380D01*
X87519389Y-55454150D01*
X87534664Y-55394406D01*
X87549348Y-55332182D01*
X87563669Y-55266514D01*
X87577855Y-55196435D01*
X87592134Y-55120980D01*
X87597557Y-55090434D01*
X87605166Y-55044618D01*
X87613077Y-54993953D01*
X87621179Y-54939287D01*
X87629367Y-54881467D01*
X87637532Y-54821342D01*
X87645565Y-54759759D01*
X87653359Y-54697568D01*
X87660807Y-54635615D01*
X87667800Y-54574750D01*
X87674230Y-54515821D01*
X87679989Y-54459674D01*
X87684970Y-54407160D01*
X87689065Y-54359125D01*
X87693375Y-54302597D01*
X87697773Y-54239942D01*
X87701919Y-54175784D01*
X87705774Y-54110906D01*
X87709303Y-54046091D01*
X87712468Y-53982120D01*
X87715233Y-53919776D01*
X87717562Y-53859840D01*
X87719418Y-53803096D01*
X87720765Y-53750325D01*
X87721565Y-53702309D01*
X87721782Y-53659831D01*
X87721772Y-53648902D01*
X87721849Y-53625603D01*
X87722051Y-53604822D01*
X87722362Y-53587324D01*
X87722766Y-53573877D01*
X87723247Y-53565247D01*
X87723791Y-53562200D01*
X87724699Y-53562568D01*
X87728770Y-53567156D01*
X87734715Y-53576202D01*
X87742030Y-53588714D01*
X87750206Y-53603699D01*
X87758737Y-53620164D01*
X87767117Y-53637116D01*
X87774838Y-53653562D01*
X87781394Y-53668509D01*
X87786278Y-53680964D01*
X87788983Y-53689935D01*
X87789108Y-53690519D01*
X87792786Y-53703753D01*
X87798237Y-53719204D01*
X87804330Y-53733650D01*
X87805991Y-53737274D01*
X87812617Y-53752897D01*
X87819489Y-53770532D01*
X87825359Y-53787014D01*
X87826690Y-53790940D01*
X87833050Y-53808566D01*
X87840147Y-53826910D01*
X87846679Y-53842577D01*
X87852147Y-53855191D01*
X87863787Y-53883099D01*
X87876166Y-53913930D01*
X87888478Y-53945628D01*
X87899919Y-53976139D01*
X87909682Y-54003407D01*
X87911070Y-54007362D01*
X87918473Y-54027477D01*
X87927302Y-54050280D01*
X87936568Y-54073257D01*
X87945280Y-54093895D01*
X87955526Y-54117633D01*
X87974181Y-54162033D01*
X87990382Y-54202278D01*
X88003988Y-54238009D01*
X88014862Y-54268868D01*
X88022863Y-54294494D01*
X88027848Y-54311034D01*
X88035711Y-54335144D01*
X88045133Y-54362523D01*
X88055610Y-54391763D01*
X88066637Y-54421460D01*
X88077707Y-54450206D01*
X88088315Y-54476595D01*
X88091526Y-54484548D01*
X88095899Y-54495863D01*
X88100949Y-54509449D01*
X88106865Y-54525841D01*
X88113835Y-54545577D01*
X88122050Y-54569193D01*
X88131698Y-54597225D01*
X88142969Y-54630211D01*
X88156052Y-54668687D01*
X88163412Y-54689967D01*
X88171626Y-54712987D01*
X88179785Y-54735211D01*
X88187248Y-54754893D01*
X88193373Y-54770287D01*
X88199393Y-54785224D01*
X88206532Y-54803797D01*
X88212938Y-54821309D01*
X88217718Y-54835375D01*
X88218330Y-54837293D01*
X88223631Y-54853521D01*
X88229321Y-54870406D01*
X88234270Y-54884587D01*
X88236340Y-54890520D01*
X88240676Y-54903356D01*
X88246301Y-54920315D01*
X88252842Y-54940265D01*
X88259928Y-54962071D01*
X88267185Y-54984600D01*
X88273033Y-55002709D01*
X88279557Y-55022587D01*
X88285357Y-55039913D01*
X88290136Y-55053812D01*
X88293596Y-55063407D01*
X88295439Y-55067824D01*
X88297055Y-55071248D01*
X88300473Y-55080991D01*
X88305122Y-55096404D01*
X88311053Y-55117660D01*
X88318319Y-55144937D01*
X88321155Y-55157290D01*
X88323340Y-55169974D01*
X88324196Y-55179418D01*
X88324258Y-55180679D01*
X88325730Y-55189358D01*
X88328866Y-55202148D01*
X88333268Y-55217536D01*
X88338538Y-55234007D01*
X88340156Y-55238837D01*
X88345132Y-55254201D01*
X88349155Y-55267382D01*
X88351845Y-55277109D01*
X88352826Y-55282110D01*
X88352849Y-55282618D01*
X88353780Y-55288725D01*
X88355864Y-55299412D01*
X88358828Y-55313328D01*
X88362396Y-55329120D01*
X88364198Y-55336935D01*
X88382810Y-55423756D01*
X88399960Y-55515101D01*
X88415390Y-55609399D01*
X88428841Y-55705080D01*
X88440055Y-55800575D01*
X88441129Y-55811193D01*
X88442981Y-55830698D01*
X88445180Y-55854870D01*
X88447645Y-55882742D01*
X88450293Y-55913347D01*
X88453044Y-55945717D01*
X88455816Y-55978884D01*
X88458528Y-56011883D01*
X88461098Y-56043745D01*
X88463446Y-56073502D01*
X88465490Y-56100189D01*
X88467149Y-56122837D01*
X88468969Y-56151886D01*
X88471098Y-56197481D01*
X88472709Y-56247408D01*
X88473805Y-56300499D01*
X88474384Y-56355586D01*
X88474448Y-56411501D01*
X88473997Y-56467074D01*
X88473030Y-56521137D01*
X88471548Y-56572523D01*
X88469551Y-56620062D01*
X88467040Y-56662587D01*
X88465073Y-56689056D01*
X88458710Y-56760152D01*
X88450690Y-56833543D01*
X88441172Y-56908269D01*
X88430318Y-56983370D01*
X88418286Y-57057885D01*
X88408970Y-57109979D01*
X88405238Y-57130855D01*
X88391333Y-57201319D01*
X88376731Y-57268317D01*
X88361592Y-57330889D01*
X88346077Y-57388075D01*
X88341618Y-57403189D01*
X88332282Y-57433490D01*
X88321669Y-57466584D01*
X88310438Y-57500472D01*
X88299243Y-57533156D01*
X88288740Y-57562639D01*
X88280149Y-57585810D01*
X88269514Y-57613358D01*
X88258687Y-57639965D01*
X88247375Y-57666202D01*
X88235286Y-57692643D01*
X88222128Y-57719859D01*
X88207607Y-57748425D01*
X88191432Y-57778912D01*
X88173310Y-57811893D01*
X88152949Y-57847941D01*
X88130056Y-57887629D01*
X88104340Y-57931528D01*
X88075506Y-57980212D01*
X88074422Y-57982035D01*
X88057374Y-58010720D01*
X88039509Y-58040809D01*
X88021506Y-58071159D01*
X88004041Y-58100626D01*
X87987793Y-58128068D01*
X87973439Y-58152340D01*
X87961656Y-58172300D01*
X87952779Y-58187203D01*
X87940042Y-58208030D01*
X87928448Y-58226336D01*
X87918488Y-58241366D01*
X87910653Y-58252367D01*
X87905434Y-58258584D01*
X87901336Y-58262231D01*
X87890667Y-58269436D01*
X87877865Y-58274792D01*
X87861886Y-58278578D01*
X87841687Y-58281075D01*
X87816223Y-58282564D01*
X87805459Y-58282916D01*
X87786919Y-58283069D01*
X87771154Y-58282327D01*
X87755786Y-58280538D01*
X87738435Y-58277548D01*
X87732060Y-58276385D01*
X87714176Y-58273425D01*
X87693049Y-58270232D01*
X87670804Y-58267121D01*
X87649563Y-58264405D01*
X87642922Y-58263601D01*
X87619049Y-58260654D01*
X87593488Y-58257432D01*
X87568905Y-58254271D01*
X87547963Y-58251511D01*
X87546195Y-58251273D01*
X87500402Y-58245097D01*
X87460398Y-58239622D01*
X87425688Y-58234751D01*
X87395779Y-58230385D01*
X87370178Y-58226428D01*
X87348391Y-58222782D01*
X87329926Y-58219350D01*
X87314288Y-58216035D01*
X87300984Y-58212738D01*
X87289521Y-58209363D01*
X87279406Y-58205813D01*
X87270144Y-58201989D01*
X87261244Y-58197795D01*
X87252210Y-58193133D01*
X87248348Y-58191057D01*
X87238692Y-58185894D01*
X87231605Y-58182968D01*
X87226072Y-58182787D01*
X87221079Y-58185860D01*
X87215610Y-58192694D01*
X87208651Y-58203797D01*
X87199186Y-58219678D01*
X87197834Y-58221942D01*
X87189716Y-58236204D01*
X87184629Y-58246867D01*
X87181999Y-58255321D01*
X87181250Y-58262952D01*
X87181049Y-58268627D01*
X87179403Y-58275096D01*
X87175044Y-58280903D01*
X87166731Y-58288207D01*
X87160612Y-58293666D01*
X87153347Y-58301497D01*
X87149357Y-58307613D01*
X87149344Y-58307649D01*
X87146471Y-58313189D01*
X87140824Y-58322635D01*
X87133213Y-58334675D01*
X87124449Y-58347993D01*
X87118590Y-58356553D01*
X87107875Y-58370946D01*
X87099422Y-58380227D01*
X87092882Y-58384804D01*
X87088055Y-58387614D01*
X87079521Y-58394653D01*
X87071191Y-58403439D01*
X87063326Y-58412891D01*
X87052756Y-58425515D01*
X87041547Y-58438838D01*
X87030485Y-58451931D01*
X87020355Y-58463866D01*
X87011944Y-58473716D01*
X87006037Y-58480553D01*
X87003421Y-58483450D01*
X87002373Y-58484429D01*
X86996454Y-58490942D01*
X86988087Y-58501018D01*
X86978251Y-58513392D01*
X86967924Y-58526798D01*
X86958084Y-58539972D01*
X86949711Y-58551649D01*
X86943782Y-58560562D01*
X86918183Y-58597590D01*
X86884671Y-58636041D01*
X86847125Y-58669870D01*
X86842260Y-58674051D01*
X86831141Y-58685069D01*
X86819290Y-58698287D01*
X86808566Y-58711690D01*
X86802358Y-58719968D01*
X86793467Y-58731598D01*
X86786009Y-58741098D01*
X86781146Y-58746975D01*
X86777853Y-58750758D01*
X86770692Y-58759162D01*
X86761549Y-58770013D01*
X86751616Y-58781900D01*
X86743997Y-58790767D01*
X86731522Y-58804689D01*
X86716806Y-58820656D01*
X86701091Y-58837321D01*
X86685623Y-58853337D01*
X86671631Y-58867722D01*
X86657869Y-58882061D01*
X86645725Y-58894903D01*
X86636148Y-58905242D01*
X86630090Y-58912075D01*
X86623683Y-58919402D01*
X86608579Y-58935377D01*
X86589059Y-58954784D01*
X86565469Y-58977284D01*
X86538157Y-59002533D01*
X86536595Y-59003958D01*
X86521474Y-59017850D01*
X86505750Y-59032426D01*
X86491193Y-59046037D01*
X86479575Y-59057037D01*
X86473743Y-59062585D01*
X86461607Y-59073960D01*
X86450330Y-59084332D01*
X86441761Y-59091992D01*
X86437050Y-59096123D01*
X86428700Y-59103653D01*
X86419958Y-59111847D01*
X86410394Y-59121153D01*
X86399575Y-59132018D01*
X86387068Y-59144889D01*
X86372440Y-59160212D01*
X86355259Y-59178435D01*
X86335093Y-59200005D01*
X86311508Y-59225369D01*
X86291759Y-59246681D01*
X86284074Y-59254975D01*
X86263387Y-59277200D01*
X86234865Y-59307527D01*
X86204111Y-59339927D01*
X86171720Y-59373790D01*
X86138289Y-59408504D01*
X86104414Y-59443458D01*
X86070691Y-59478042D01*
X86037717Y-59511644D01*
X86006088Y-59543653D01*
X85976400Y-59573458D01*
X85949249Y-59600447D01*
X85925231Y-59624011D01*
X85904944Y-59643537D01*
X85853462Y-59690301D01*
X85793704Y-59740327D01*
X85728759Y-59790820D01*
X85659167Y-59841413D01*
X85585467Y-59891737D01*
X85508199Y-59941426D01*
X85427901Y-59990111D01*
X85345113Y-60037424D01*
X85260375Y-60082998D01*
X85246457Y-60090252D01*
X85202412Y-60113197D01*
X85163203Y-60133570D01*
X85128213Y-60151650D01*
X85119125Y-60156302D01*
X85096828Y-60167716D01*
X85068430Y-60182047D01*
X85042405Y-60194921D01*
X85018135Y-60206618D01*
X84995005Y-60217417D01*
X84972399Y-60227595D01*
X84949701Y-60237433D01*
X84926296Y-60247210D01*
X84901566Y-60257203D01*
X84874896Y-60267692D01*
X84845671Y-60278956D01*
X84813274Y-60291273D01*
X84777089Y-60304923D01*
X84736500Y-60320184D01*
X84682176Y-60340534D01*
X84627061Y-60361017D01*
X84577186Y-60379367D01*
X84532635Y-60395555D01*
X84493488Y-60409552D01*
X84459827Y-60421329D01*
X84431733Y-60430858D01*
X84409288Y-60438110D01*
X84392574Y-60443056D01*
X84381671Y-60445666D01*
X84379298Y-60446027D01*
X84367682Y-60446928D01*
X84353065Y-60447186D01*
X84338038Y-60446738D01*
X84327586Y-60446015D01*
X84307976Y-60444243D01*
X84284874Y-60441782D01*
X84259096Y-60438747D01*
X84231460Y-60435258D01*
X84202783Y-60431432D01*
X84173880Y-60427387D01*
X84145569Y-60423240D01*
X84118666Y-60419111D01*
X84093988Y-60415115D01*
X84072352Y-60411373D01*
X84054574Y-60408000D01*
X84041472Y-60405116D01*
X84033861Y-60402838D01*
X84027538Y-60399721D01*
X84016032Y-60393335D01*
X84000794Y-60384451D01*
X83982669Y-60373591D01*
X83962501Y-60361280D01*
X83941136Y-60348042D01*
X83919419Y-60334401D01*
X83898193Y-60320880D01*
X83878303Y-60308003D01*
X83860595Y-60296294D01*
X83845913Y-60286277D01*
X83841268Y-60283021D01*
X83819606Y-60267563D01*
X83794713Y-60249445D01*
X83767641Y-60229459D01*
X83739441Y-60208396D01*
X83711162Y-60187049D01*
X83683857Y-60166211D01*
X83658575Y-60146674D01*
X83636369Y-60129229D01*
X83618288Y-60114670D01*
X83608104Y-60106284D01*
X83588668Y-60089880D01*
X84018962Y-60089880D01*
X84019031Y-60091331D01*
X84021234Y-60101237D01*
X84026030Y-60114656D01*
X84032721Y-60130069D01*
X84040607Y-60145955D01*
X84048991Y-60160795D01*
X84057176Y-60173069D01*
X84067430Y-60185449D01*
X84080362Y-60199065D01*
X84092716Y-60210392D01*
X84105546Y-60220000D01*
X84126572Y-60233031D01*
X84149385Y-60244717D01*
X84171889Y-60254014D01*
X84191988Y-60259877D01*
X84195658Y-60260579D01*
X84214861Y-60262936D01*
X84237931Y-60264183D01*
X84262934Y-60264339D01*
X84287933Y-60263425D01*
X84310994Y-60261461D01*
X84330183Y-60258465D01*
X84340614Y-60256082D01*
X84379582Y-60243542D01*
X84414649Y-60226063D01*
X84418412Y-60223644D01*
X84430948Y-60214019D01*
X84444369Y-60201911D01*
X84457150Y-60188845D01*
X84467767Y-60176349D01*
X84474693Y-60165949D01*
X84479681Y-60156302D01*
X84450496Y-60124649D01*
X84445267Y-60119046D01*
X84420517Y-60094351D01*
X84396586Y-60073421D01*
X84374210Y-60056862D01*
X84354125Y-60045278D01*
X84344405Y-60040886D01*
X84329959Y-60034720D01*
X84313412Y-60027916D01*
X84296763Y-60021307D01*
X84258663Y-60006500D01*
X84196750Y-60007070D01*
X84188967Y-60007138D01*
X84165881Y-60007374D01*
X84147692Y-60007825D01*
X84133279Y-60008777D01*
X84121516Y-60010514D01*
X84111280Y-60013322D01*
X84101447Y-60017486D01*
X84090893Y-60023291D01*
X84078496Y-60031021D01*
X84063131Y-60040962D01*
X84053039Y-60047705D01*
X84037339Y-60059640D01*
X84026783Y-60070252D01*
X84020836Y-60080135D01*
X84018962Y-60089880D01*
X83588668Y-60089880D01*
X83556930Y-60063092D01*
X83506991Y-60019082D01*
X83457337Y-59973360D01*
X83407013Y-59925035D01*
X83355069Y-59873214D01*
X83300550Y-59817004D01*
X83278054Y-59793518D01*
X83217362Y-59730594D01*
X83159022Y-59670764D01*
X83103254Y-59614244D01*
X83050279Y-59561252D01*
X83000316Y-59512007D01*
X82953586Y-59466727D01*
X82910311Y-59425629D01*
X82870709Y-59388931D01*
X82835002Y-59356851D01*
X82829965Y-59352353D01*
X82815853Y-59339408D01*
X82797983Y-59322667D01*
X82776851Y-59302616D01*
X82752952Y-59279741D01*
X82726782Y-59254526D01*
X82698836Y-59227459D01*
X82678664Y-59207832D01*
X83256950Y-59207832D01*
X83258741Y-59210424D01*
X83264308Y-59216557D01*
X83272750Y-59225185D01*
X83283144Y-59235338D01*
X83312717Y-59263036D01*
X83352290Y-59298632D01*
X83395789Y-59336393D01*
X83442417Y-59375671D01*
X83491381Y-59415813D01*
X83541884Y-59456171D01*
X83593131Y-59496093D01*
X83644329Y-59534928D01*
X83694680Y-59572027D01*
X83731130Y-59598188D01*
X83766896Y-59623158D01*
X83799388Y-59644970D01*
X83829418Y-59664126D01*
X83857798Y-59681128D01*
X83885341Y-59696476D01*
X83912859Y-59710673D01*
X83941163Y-59724219D01*
X83954841Y-59730395D01*
X83967872Y-59735995D01*
X83978087Y-59740083D01*
X83984025Y-59742052D01*
X83987195Y-59742145D01*
X83996849Y-59740014D01*
X84011600Y-59734840D01*
X84031650Y-59726558D01*
X84056737Y-59716300D01*
X84088658Y-59705333D01*
X84119875Y-59697330D01*
X84151315Y-59692238D01*
X84183908Y-59690005D01*
X84218584Y-59690576D01*
X84256269Y-59693898D01*
X84297894Y-59699919D01*
X84344388Y-59708584D01*
X84362470Y-59712216D01*
X84394858Y-59718510D01*
X84422896Y-59723568D01*
X84447807Y-59727542D01*
X84470813Y-59730583D01*
X84493135Y-59732846D01*
X84515997Y-59734481D01*
X84540619Y-59735641D01*
X84568225Y-59736479D01*
X84584429Y-59736814D01*
X84605141Y-59737003D01*
X84625667Y-59736858D01*
X84647092Y-59736345D01*
X84670501Y-59735425D01*
X84696980Y-59734062D01*
X84727614Y-59732220D01*
X84763488Y-59729860D01*
X84787941Y-59728187D01*
X84828880Y-59725270D01*
X84864353Y-59722544D01*
X84894931Y-59719933D01*
X84921184Y-59717363D01*
X84943683Y-59714755D01*
X84962998Y-59712036D01*
X84979699Y-59709127D01*
X84994357Y-59705954D01*
X85007542Y-59702440D01*
X85019825Y-59698509D01*
X85031775Y-59694086D01*
X85036857Y-59691909D01*
X85048375Y-59686541D01*
X85064354Y-59678804D01*
X85084117Y-59669048D01*
X85106987Y-59657617D01*
X85132287Y-59644861D01*
X85159340Y-59631125D01*
X85187467Y-59616757D01*
X85215992Y-59602105D01*
X85244238Y-59587516D01*
X85271527Y-59573336D01*
X85297181Y-59559913D01*
X85320524Y-59547594D01*
X85340879Y-59536727D01*
X85357568Y-59527658D01*
X85369913Y-59520736D01*
X85381559Y-59513882D01*
X85412530Y-59494295D01*
X85444680Y-59471974D01*
X85478474Y-59446548D01*
X85514376Y-59417647D01*
X85552853Y-59384901D01*
X85594370Y-59347939D01*
X85639391Y-59306392D01*
X85645911Y-59300280D01*
X85663251Y-59283953D01*
X85676528Y-59271260D01*
X85686202Y-59261695D01*
X85692730Y-59254748D01*
X85696571Y-59249913D01*
X85698181Y-59246681D01*
X85698018Y-59244544D01*
X85696541Y-59242995D01*
X85693753Y-59241171D01*
X85685764Y-59236348D01*
X85674682Y-59229906D01*
X85662013Y-59222728D01*
X85645628Y-59213184D01*
X85627932Y-59201878D01*
X85610268Y-59189390D01*
X85592118Y-59175263D01*
X85572963Y-59159041D01*
X85552287Y-59140266D01*
X85529569Y-59118482D01*
X85504293Y-59093231D01*
X85475939Y-59064056D01*
X85443989Y-59030502D01*
X85422026Y-59007460D01*
X85394422Y-58979088D01*
X85368248Y-58952840D01*
X85343902Y-58929091D01*
X85321784Y-58908215D01*
X85302291Y-58890587D01*
X85285822Y-58876580D01*
X85272776Y-58866570D01*
X85263550Y-58860932D01*
X85260048Y-58859105D01*
X85248843Y-58851206D01*
X85239738Y-58842140D01*
X85237058Y-58838848D01*
X85224561Y-58827179D01*
X85211486Y-58821323D01*
X85196973Y-58820854D01*
X85189669Y-58822227D01*
X85181239Y-58825471D01*
X85174205Y-58830926D01*
X85168209Y-58839275D01*
X85162894Y-58851199D01*
X85157901Y-58867381D01*
X85152872Y-58888504D01*
X85147450Y-58915250D01*
X85145826Y-58923218D01*
X85141164Y-58943335D01*
X85135421Y-58965448D01*
X85129004Y-58988189D01*
X85122323Y-59010194D01*
X85115785Y-59030095D01*
X85109798Y-59046527D01*
X85104771Y-59058125D01*
X85102852Y-59062728D01*
X85099194Y-59073254D01*
X85094615Y-59087688D01*
X85089515Y-59104764D01*
X85084292Y-59123212D01*
X85082185Y-59130778D01*
X85075309Y-59154631D01*
X85067669Y-59180171D01*
X85060054Y-59204786D01*
X85053253Y-59225868D01*
X85037073Y-59274549D01*
X85000293Y-59304246D01*
X84997922Y-59306162D01*
X84980665Y-59320120D01*
X84961075Y-59335994D01*
X84941384Y-59351974D01*
X84923825Y-59366249D01*
X84917679Y-59371219D01*
X84901983Y-59383657D01*
X84886714Y-59395440D01*
X84873358Y-59405431D01*
X84863397Y-59412496D01*
X84842656Y-59426438D01*
X84807835Y-59425674D01*
X84796645Y-59425561D01*
X84782152Y-59425804D01*
X84770373Y-59426445D01*
X84763123Y-59427413D01*
X84760843Y-59427941D01*
X84756681Y-59428194D01*
X84752589Y-59426642D01*
X84747521Y-59422525D01*
X84740433Y-59415085D01*
X84730280Y-59403564D01*
X84730013Y-59403258D01*
X84721479Y-59393786D01*
X84709350Y-59380732D01*
X84694469Y-59364981D01*
X84677679Y-59347421D01*
X84659823Y-59328939D01*
X84641744Y-59310421D01*
X84607200Y-59275039D01*
X84567629Y-59234024D01*
X84529616Y-59194109D01*
X84494188Y-59156373D01*
X84462370Y-59121895D01*
X84455301Y-59113903D01*
X84442524Y-59098471D01*
X84430423Y-59082785D01*
X84420882Y-59069237D01*
X84417878Y-59064896D01*
X84409855Y-59054399D01*
X84399415Y-59041643D01*
X84387282Y-59027420D01*
X84374174Y-59012523D01*
X84360814Y-58997744D01*
X84347922Y-58983875D01*
X84336219Y-58971709D01*
X84326425Y-58962037D01*
X84319263Y-58955654D01*
X84315451Y-58953350D01*
X84315283Y-58953341D01*
X84311089Y-58950655D01*
X84306219Y-58944618D01*
X84305147Y-58942950D01*
X84296455Y-58930166D01*
X84286196Y-58916052D01*
X84275236Y-58901698D01*
X84264443Y-58888191D01*
X84254686Y-58876623D01*
X84246830Y-58868081D01*
X84241743Y-58863656D01*
X84241696Y-58863628D01*
X84227684Y-58858839D01*
X84212399Y-58859136D01*
X84198300Y-58864473D01*
X84196960Y-58865366D01*
X84189024Y-58873194D01*
X84180516Y-58885885D01*
X84171258Y-58903777D01*
X84161070Y-58927211D01*
X84149775Y-58956525D01*
X84149513Y-58957236D01*
X84142406Y-58976148D01*
X84134697Y-58996054D01*
X84127299Y-59014629D01*
X84121124Y-59029550D01*
X84120302Y-59031504D01*
X84114335Y-59046940D01*
X84107650Y-59065945D01*
X84101004Y-59086290D01*
X84095157Y-59105750D01*
X84093812Y-59110480D01*
X84088535Y-59129046D01*
X84083416Y-59147057D01*
X84078981Y-59162663D01*
X84075757Y-59174012D01*
X84071838Y-59187115D01*
X84066409Y-59204077D01*
X84061152Y-59219482D01*
X84058897Y-59225647D01*
X84056021Y-59232392D01*
X84052565Y-59238356D01*
X84047911Y-59244028D01*
X84041442Y-59249895D01*
X84032538Y-59256447D01*
X84020581Y-59264173D01*
X84004954Y-59273561D01*
X83985037Y-59285101D01*
X83960213Y-59299280D01*
X83957926Y-59300585D01*
X83939660Y-59311139D01*
X83922447Y-59321297D01*
X83907411Y-59330381D01*
X83895671Y-59337715D01*
X83888350Y-59342624D01*
X83881919Y-59347118D01*
X83874569Y-59351646D01*
X83870423Y-59353400D01*
X83868025Y-59351459D01*
X83862351Y-59345172D01*
X83854168Y-59335318D01*
X83844145Y-59322709D01*
X83832956Y-59308156D01*
X83824203Y-59296851D01*
X83790337Y-59256915D01*
X83751932Y-59216875D01*
X83736261Y-59201071D01*
X83720821Y-59184819D01*
X83706714Y-59169329D01*
X83695034Y-59155802D01*
X83686874Y-59145437D01*
X83677963Y-59133288D01*
X83660453Y-59110612D01*
X83640613Y-59086401D01*
X83617671Y-59059725D01*
X83590853Y-59029653D01*
X83583083Y-59020905D01*
X83567094Y-59002230D01*
X83549896Y-58981452D01*
X83533102Y-58960532D01*
X83518321Y-58941428D01*
X83513427Y-58934983D01*
X83499118Y-58916738D01*
X83487716Y-58903211D01*
X83479402Y-58894607D01*
X83474353Y-58891132D01*
X83472070Y-58890036D01*
X83465389Y-58884717D01*
X83456811Y-58876212D01*
X83447625Y-58865747D01*
X83442593Y-58859728D01*
X83434654Y-58850725D01*
X83428634Y-58844530D01*
X83425549Y-58842225D01*
X83425334Y-58842312D01*
X83423085Y-58846079D01*
X83419467Y-58854581D01*
X83414932Y-58866690D01*
X83409932Y-58881276D01*
X83405342Y-58894910D01*
X83397460Y-58916701D01*
X83388941Y-58938024D01*
X83379254Y-58960059D01*
X83367872Y-58983987D01*
X83354267Y-59010990D01*
X83337909Y-59042250D01*
X83335514Y-59046791D01*
X83325279Y-59066722D01*
X83315693Y-59086175D01*
X83307359Y-59103879D01*
X83300878Y-59118561D01*
X83296853Y-59128950D01*
X83291159Y-59144924D01*
X83278833Y-59172509D01*
X83265139Y-59194473D01*
X83263091Y-59197285D01*
X83258700Y-59204002D01*
X83256950Y-59207832D01*
X82678664Y-59207832D01*
X82669610Y-59199023D01*
X82639600Y-59169705D01*
X82609300Y-59139990D01*
X82579207Y-59110364D01*
X82549815Y-59081313D01*
X82521621Y-59053321D01*
X82495119Y-59026874D01*
X82470806Y-59002458D01*
X82449177Y-58980558D01*
X82430727Y-58961660D01*
X82415953Y-58946250D01*
X82397225Y-58926319D01*
X82368784Y-58895381D01*
X82343446Y-58866755D01*
X82320212Y-58839211D01*
X82298079Y-58811517D01*
X82276049Y-58782443D01*
X82253121Y-58750756D01*
X82228295Y-58715225D01*
X82223699Y-58708569D01*
X82212398Y-58692246D01*
X82198362Y-58672017D01*
X82182187Y-58648737D01*
X82164466Y-58623258D01*
X82145794Y-58596438D01*
X82126765Y-58569129D01*
X82107973Y-58542187D01*
X82100177Y-58531009D01*
X82067280Y-58483648D01*
X82037809Y-58440827D01*
X82011490Y-58402070D01*
X81988051Y-58366906D01*
X81967218Y-58334861D01*
X81948718Y-58305461D01*
X81932277Y-58278233D01*
X81917623Y-58252704D01*
X81904481Y-58228400D01*
X81892578Y-58204849D01*
X81881641Y-58181577D01*
X81871397Y-58158110D01*
X81861572Y-58133976D01*
X81851893Y-58108701D01*
X81842087Y-58081812D01*
X81839130Y-58073691D01*
X81823840Y-58035178D01*
X81804943Y-57992511D01*
X81782264Y-57945287D01*
X81781064Y-57942866D01*
X81765818Y-57911513D01*
X81753328Y-57884422D01*
X81743166Y-57860460D01*
X81742666Y-57859131D01*
X82399799Y-57859131D01*
X82399930Y-57865472D01*
X82400680Y-57876432D01*
X82401941Y-57890971D01*
X82403601Y-57908049D01*
X82405550Y-57926627D01*
X82407677Y-57945664D01*
X82409873Y-57964121D01*
X82412026Y-57980958D01*
X82414026Y-57995135D01*
X82415762Y-58005612D01*
X82417871Y-58015649D01*
X82422290Y-58032702D01*
X82428272Y-58051998D01*
X82436009Y-58074022D01*
X82445687Y-58099264D01*
X82457498Y-58128210D01*
X82471631Y-58161348D01*
X82488274Y-58199165D01*
X82507616Y-58242150D01*
X82508125Y-58243269D01*
X82528252Y-58287128D01*
X82547117Y-58327093D01*
X82565146Y-58363826D01*
X82582764Y-58397989D01*
X82600394Y-58430243D01*
X82618462Y-58461249D01*
X82637394Y-58491671D01*
X82657613Y-58522168D01*
X82679545Y-58553403D01*
X82703614Y-58586037D01*
X82730245Y-58620732D01*
X82759864Y-58658150D01*
X82792895Y-58698952D01*
X82829763Y-58743800D01*
X82846413Y-58763958D01*
X82865132Y-58786656D01*
X82883188Y-58808585D01*
X82899902Y-58828921D01*
X82914598Y-58846839D01*
X82926599Y-58861516D01*
X82935226Y-58872126D01*
X82938350Y-58875968D01*
X82948704Y-58888422D01*
X82957771Y-58898919D01*
X82964667Y-58906452D01*
X82968506Y-58910012D01*
X82969452Y-58910504D01*
X82973932Y-58910718D01*
X82980408Y-58907651D01*
X82990177Y-58900748D01*
X82992812Y-58898606D01*
X83002876Y-58888908D01*
X83015060Y-58875536D01*
X83028363Y-58859742D01*
X83041783Y-58842780D01*
X83054319Y-58825903D01*
X83064970Y-58810365D01*
X83072734Y-58797419D01*
X83074317Y-58794198D01*
X83078929Y-58783454D01*
X83084880Y-58768355D01*
X83091738Y-58750043D01*
X83099071Y-58729662D01*
X83106445Y-58708354D01*
X83110632Y-58696045D01*
X83120724Y-58666876D01*
X83129589Y-58642213D01*
X83137684Y-58620917D01*
X83145469Y-58601849D01*
X83153401Y-58583868D01*
X83161939Y-58565837D01*
X83171542Y-58546615D01*
X83182979Y-58525160D01*
X83198585Y-58498555D01*
X83214761Y-58473611D01*
X83231034Y-58450907D01*
X83246933Y-58431027D01*
X83261987Y-58414552D01*
X83275724Y-58402063D01*
X83287672Y-58394144D01*
X83297360Y-58391375D01*
X83298170Y-58391436D01*
X83305456Y-58393959D01*
X83316694Y-58399791D01*
X83331017Y-58408389D01*
X83347556Y-58419212D01*
X83365444Y-58431716D01*
X83383810Y-58445359D01*
X83384888Y-58446201D01*
X83393973Y-58453954D01*
X83406479Y-58465408D01*
X83421594Y-58479781D01*
X83438501Y-58496289D01*
X83456388Y-58514147D01*
X83474438Y-58532572D01*
X83493429Y-58551985D01*
X83513205Y-58571840D01*
X83532691Y-58591084D01*
X83550868Y-58608716D01*
X83566715Y-58623740D01*
X83579213Y-58635154D01*
X83585570Y-58640796D01*
X83599852Y-58653569D01*
X83613120Y-58665558D01*
X83624120Y-58675630D01*
X83631600Y-58682648D01*
X83638423Y-58688763D01*
X83649940Y-58698270D01*
X83663534Y-58708908D01*
X83677500Y-58719316D01*
X83683380Y-58723605D01*
X83698018Y-58734687D01*
X83710793Y-58745212D01*
X83722869Y-58756283D01*
X83735408Y-58769006D01*
X83749577Y-58784485D01*
X83766538Y-58803825D01*
X83773478Y-58811713D01*
X83794210Y-58833987D01*
X83815461Y-58855108D01*
X83836359Y-58874294D01*
X83856030Y-58890767D01*
X83873601Y-58903746D01*
X83888199Y-58912453D01*
X83896098Y-58915660D01*
X83912432Y-58918123D01*
X83927599Y-58914951D01*
X83940491Y-58906275D01*
X83946532Y-58899189D01*
X83949374Y-58891822D01*
X83949925Y-58881322D01*
X83950178Y-58875671D01*
X83953452Y-58858761D01*
X83960397Y-58837462D01*
X83969997Y-58812027D01*
X83983127Y-58778066D01*
X83994935Y-58748773D01*
X84005808Y-58723322D01*
X84016130Y-58700889D01*
X84026287Y-58680648D01*
X84036662Y-58661774D01*
X84047643Y-58643440D01*
X84059613Y-58624823D01*
X84063859Y-58618588D01*
X84074520Y-58604070D01*
X84086230Y-58589348D01*
X84098189Y-58575311D01*
X84109599Y-58562846D01*
X84119660Y-58552843D01*
X84127572Y-58546190D01*
X84132537Y-58543775D01*
X84132938Y-58543803D01*
X84138892Y-58546143D01*
X84148955Y-58551867D01*
X84162379Y-58560443D01*
X84178411Y-58571340D01*
X84196304Y-58584028D01*
X84215305Y-58597976D01*
X84234666Y-58612653D01*
X84253635Y-58627528D01*
X84271462Y-58642071D01*
X84279409Y-58648587D01*
X84296607Y-58662176D01*
X84314733Y-58675982D01*
X84330975Y-58687843D01*
X84340888Y-58695267D01*
X84356064Y-58707522D01*
X84373134Y-58722037D01*
X84390660Y-58737582D01*
X84407202Y-58752930D01*
X84450693Y-58793056D01*
X84497092Y-58833025D01*
X84547264Y-58873461D01*
X84553214Y-58878165D01*
X84566272Y-58888771D01*
X84578295Y-58898873D01*
X84587275Y-58906799D01*
X84593935Y-58912750D01*
X84605159Y-58922399D01*
X84618309Y-58933429D01*
X84631725Y-58944433D01*
X84640551Y-58951779D01*
X84657398Y-58966566D01*
X84674371Y-58982244D01*
X84688875Y-58996451D01*
X84698010Y-59005476D01*
X84712666Y-59019042D01*
X84727258Y-59031663D01*
X84739675Y-59041469D01*
X84742307Y-59043415D01*
X84756043Y-59054072D01*
X84769798Y-59065417D01*
X84780950Y-59075301D01*
X84787790Y-59081646D01*
X84804369Y-59096299D01*
X84819092Y-59108281D01*
X84831131Y-59116936D01*
X84839656Y-59121612D01*
X84847071Y-59123671D01*
X84861065Y-59123331D01*
X84873147Y-59117605D01*
X84882274Y-59107130D01*
X84887399Y-59092543D01*
X84888774Y-59086447D01*
X84892559Y-59074278D01*
X84897302Y-59062143D01*
X84897407Y-59061903D01*
X84900755Y-59053121D01*
X84905337Y-59039558D01*
X84910743Y-59022511D01*
X84916562Y-59003274D01*
X84922383Y-58983141D01*
X84927383Y-58965621D01*
X84934393Y-58941573D01*
X84941529Y-58917579D01*
X84948187Y-58895662D01*
X84953765Y-58877845D01*
X84957437Y-58866297D01*
X84964241Y-58844167D01*
X84970097Y-58823776D01*
X84975411Y-58803525D01*
X84980595Y-58781815D01*
X84986056Y-58757047D01*
X84992204Y-58727624D01*
X84995551Y-58711926D01*
X85002883Y-58681088D01*
X85010595Y-58652916D01*
X85018410Y-58628321D01*
X85026048Y-58608212D01*
X85033230Y-58593500D01*
X85037424Y-58586716D01*
X85046770Y-58573696D01*
X85056110Y-58563076D01*
X85064447Y-58555921D01*
X85070786Y-58553300D01*
X85071090Y-58553306D01*
X85075951Y-58554199D01*
X85084012Y-58556748D01*
X85095788Y-58561151D01*
X85111792Y-58567609D01*
X85132537Y-58576322D01*
X85158537Y-58587490D01*
X85159126Y-58587747D01*
X85170121Y-58593019D01*
X85185864Y-58601177D01*
X85205716Y-58611853D01*
X85229034Y-58624676D01*
X85255179Y-58639276D01*
X85283510Y-58655283D01*
X85313386Y-58672327D01*
X85344166Y-58690038D01*
X85375211Y-58708046D01*
X85405878Y-58725981D01*
X85435528Y-58743473D01*
X85463519Y-58760151D01*
X85489212Y-58775646D01*
X85511965Y-58789588D01*
X85531138Y-58801607D01*
X85546090Y-58811332D01*
X85560087Y-58820749D01*
X85615882Y-58859199D01*
X85668571Y-58896987D01*
X85716808Y-58933152D01*
X85721278Y-58936492D01*
X85737824Y-58947807D01*
X85755916Y-58958986D01*
X85772371Y-58968030D01*
X85781033Y-58972507D01*
X85798546Y-58982062D01*
X85816954Y-58992601D01*
X85833463Y-59002547D01*
X85841727Y-59007633D01*
X85863224Y-59020203D01*
X85882713Y-59030656D01*
X85899401Y-59038602D01*
X85912494Y-59043654D01*
X85921199Y-59045425D01*
X85921689Y-59045416D01*
X85930489Y-59042301D01*
X85937172Y-59034991D01*
X85939825Y-59025529D01*
X85939904Y-59024862D01*
X85942546Y-59019041D01*
X85948187Y-59010402D01*
X85955796Y-59000556D01*
X85964772Y-58988809D01*
X85974243Y-58974685D01*
X85981528Y-58962028D01*
X85984261Y-58956298D01*
X85990126Y-58942973D01*
X85997436Y-58925512D01*
X86005741Y-58905040D01*
X86014593Y-58882684D01*
X86023543Y-58859569D01*
X86032141Y-58836822D01*
X86039938Y-58815569D01*
X86040990Y-58812715D01*
X86046241Y-58799998D01*
X86051555Y-58789136D01*
X86055928Y-58782223D01*
X86057102Y-58780659D01*
X86059473Y-58776608D01*
X86062381Y-58770487D01*
X86066010Y-58761803D01*
X86070543Y-58750060D01*
X86076165Y-58734765D01*
X86083060Y-58715423D01*
X86091411Y-58691539D01*
X86101401Y-58662620D01*
X86113216Y-58628172D01*
X86118885Y-58610724D01*
X86124793Y-58590857D01*
X86129894Y-58572043D01*
X86133493Y-58556734D01*
X86134254Y-58553143D01*
X86138722Y-58534587D01*
X86144140Y-58514884D01*
X86149505Y-58497737D01*
X86151118Y-58492852D01*
X86155824Y-58477416D01*
X86161189Y-58458537D01*
X86166671Y-58438162D01*
X86171725Y-58418236D01*
X86176008Y-58400906D01*
X86184898Y-58366191D01*
X86194209Y-58331635D01*
X86204368Y-58295703D01*
X86215806Y-58256861D01*
X86228951Y-58213575D01*
X86230001Y-58210153D01*
X86235159Y-58193279D01*
X86239910Y-58177622D01*
X86243765Y-58164798D01*
X86246236Y-58156425D01*
X86246362Y-58155987D01*
X86249608Y-58145506D01*
X86254049Y-58132017D01*
X86258763Y-58118325D01*
X86258905Y-58117922D01*
X86263701Y-58103854D01*
X86268242Y-58089761D01*
X86271561Y-58078637D01*
X86274064Y-58069878D01*
X86278262Y-58055820D01*
X86282515Y-58042125D01*
X86282841Y-58041086D01*
X86286503Y-58028044D01*
X86290293Y-58012418D01*
X86293927Y-57995664D01*
X86297120Y-57979237D01*
X86299587Y-57964593D01*
X86301045Y-57953188D01*
X86301209Y-57946478D01*
X86300952Y-57945458D01*
X86299334Y-57944516D01*
X86295909Y-57946491D01*
X86290118Y-57951877D01*
X86281403Y-57961170D01*
X86269205Y-57974865D01*
X86265230Y-57979370D01*
X86250591Y-57995569D01*
X86238831Y-58007674D01*
X86229088Y-58016399D01*
X86220502Y-58022457D01*
X86212210Y-58026564D01*
X86203350Y-58029431D01*
X86196088Y-58031846D01*
X86183608Y-58037257D01*
X86171600Y-58043641D01*
X86154301Y-58053592D01*
X86116629Y-58072254D01*
X86081251Y-58085365D01*
X86047858Y-58093050D01*
X86044683Y-58093560D01*
X86030469Y-58096126D01*
X86013885Y-58099428D01*
X85997899Y-58102884D01*
X85986256Y-58105347D01*
X85975505Y-58107070D01*
X85964369Y-58108094D01*
X85951359Y-58108506D01*
X85934986Y-58108393D01*
X85913761Y-58107844D01*
X85891689Y-58107000D01*
X85864183Y-58105369D01*
X85841120Y-58103269D01*
X85822977Y-58100755D01*
X85810229Y-58097884D01*
X85803350Y-58094714D01*
X85793926Y-58088280D01*
X85776591Y-58081026D01*
X85753331Y-58075014D01*
X85742045Y-58072159D01*
X85719467Y-58064161D01*
X85694567Y-58052831D01*
X85684359Y-58047834D01*
X85665004Y-58038798D01*
X85645294Y-58030034D01*
X85628214Y-58022890D01*
X85626515Y-58022213D01*
X85609100Y-58015162D01*
X85595760Y-58009374D01*
X85584778Y-58003932D01*
X85574438Y-57997922D01*
X85563021Y-57990426D01*
X85548812Y-57980529D01*
X85543489Y-57976834D01*
X85526980Y-57965859D01*
X85509606Y-57954858D01*
X85494349Y-57945736D01*
X85489838Y-57943132D01*
X85470288Y-57931045D01*
X85456099Y-57920753D01*
X85447464Y-57912408D01*
X85444574Y-57906162D01*
X85444949Y-57901235D01*
X85446758Y-57897489D01*
X85450852Y-57896333D01*
X85458080Y-57897825D01*
X85469295Y-57902024D01*
X85485345Y-57908989D01*
X85488754Y-57910484D01*
X85510902Y-57919231D01*
X85534088Y-57927011D01*
X85555048Y-57932714D01*
X85563384Y-57934670D01*
X85582006Y-57939295D01*
X85600386Y-57944144D01*
X85615541Y-57948440D01*
X85619306Y-57949535D01*
X85632992Y-57953033D01*
X85645195Y-57955480D01*
X85653641Y-57956403D01*
X85658528Y-57956789D01*
X85669547Y-57958557D01*
X85683507Y-57961431D01*
X85698525Y-57965048D01*
X85709247Y-57967751D01*
X85719864Y-57970086D01*
X85729881Y-57971684D01*
X85740688Y-57972663D01*
X85753676Y-57973145D01*
X85770233Y-57973248D01*
X85791748Y-57973094D01*
X85803470Y-57972962D01*
X85822110Y-57972623D01*
X85835994Y-57972091D01*
X85846179Y-57971264D01*
X85853717Y-57970040D01*
X85859665Y-57968316D01*
X85865078Y-57965990D01*
X85871151Y-57963328D01*
X85884036Y-57958587D01*
X85897013Y-57954665D01*
X85909493Y-57950793D01*
X85929380Y-57942972D01*
X85950230Y-57933291D01*
X85969666Y-57922876D01*
X85985312Y-57912852D01*
X85990686Y-57908843D01*
X86015260Y-57888594D01*
X86041676Y-57864147D01*
X86068943Y-57836610D01*
X86096073Y-57807088D01*
X86122075Y-57776688D01*
X86145961Y-57746517D01*
X86166740Y-57717681D01*
X86183424Y-57691287D01*
X86187729Y-57683714D01*
X86207373Y-57646602D01*
X86227144Y-57605378D01*
X86246267Y-57561795D01*
X86263963Y-57517605D01*
X86279456Y-57474564D01*
X86283704Y-57461803D01*
X86289007Y-57444732D01*
X86292816Y-57430055D01*
X86295598Y-57415587D01*
X86297819Y-57399146D01*
X86299944Y-57378550D01*
X86300258Y-57375375D01*
X87364171Y-57375375D01*
X87364238Y-57380520D01*
X87364855Y-57397693D01*
X87366276Y-57411368D01*
X87368817Y-57423810D01*
X87372792Y-57437287D01*
X87384635Y-57465992D01*
X87401554Y-57492661D01*
X87422569Y-57514654D01*
X87447475Y-57531758D01*
X87476066Y-57543763D01*
X87477826Y-57544297D01*
X87485864Y-57546396D01*
X87494438Y-57547933D01*
X87504377Y-57548923D01*
X87516508Y-57549383D01*
X87531660Y-57549328D01*
X87550662Y-57548776D01*
X87574341Y-57547741D01*
X87603525Y-57546240D01*
X87605699Y-57546122D01*
X87632091Y-57544302D01*
X87654123Y-57541786D01*
X87673643Y-57538155D01*
X87692501Y-57532992D01*
X87712544Y-57525879D01*
X87735621Y-57516399D01*
X87747925Y-57511197D01*
X87763237Y-57504898D01*
X87776603Y-57499581D01*
X87786088Y-57496027D01*
X87788315Y-57495230D01*
X87801837Y-57489952D01*
X87819721Y-57482455D01*
X87840864Y-57473219D01*
X87864165Y-57462721D01*
X87888524Y-57451442D01*
X87893514Y-57449040D01*
X87902726Y-57444123D01*
X87911585Y-57438490D01*
X87921062Y-57431390D01*
X87932128Y-57422070D01*
X87945754Y-57409777D01*
X87962910Y-57393757D01*
X87983916Y-57373715D01*
X88001309Y-57356445D01*
X88015270Y-57341606D01*
X88026517Y-57328352D01*
X88035766Y-57315838D01*
X88043731Y-57303219D01*
X88051131Y-57289650D01*
X88052500Y-57287009D01*
X88060662Y-57271877D01*
X88070066Y-57255179D01*
X88078941Y-57240072D01*
X88080558Y-57237339D01*
X88089172Y-57221154D01*
X88097361Y-57203481D01*
X88103543Y-57187685D01*
X88106829Y-57177493D01*
X88109434Y-57167605D01*
X88111248Y-57157423D01*
X88112477Y-57145434D01*
X88113324Y-57130124D01*
X88113991Y-57109979D01*
X88113786Y-57059212D01*
X88110053Y-57000441D01*
X88106350Y-56963907D01*
X88101444Y-56925802D01*
X88095781Y-56892797D01*
X88089144Y-56864220D01*
X88081316Y-56839397D01*
X88072078Y-56817656D01*
X88061214Y-56798324D01*
X88048507Y-56780728D01*
X88033738Y-56764194D01*
X88023742Y-56754677D01*
X87999281Y-56736510D01*
X87973387Y-56723843D01*
X87946712Y-56716952D01*
X87919911Y-56716112D01*
X87915353Y-56716477D01*
X87902665Y-56717387D01*
X87886123Y-56718488D01*
X87867357Y-56719673D01*
X87848000Y-56720833D01*
X87836501Y-56721559D01*
X87810472Y-56723809D01*
X87788650Y-56726837D01*
X87769494Y-56730947D01*
X87751466Y-56736445D01*
X87733024Y-56743637D01*
X87711711Y-56752691D01*
X87713198Y-56744152D01*
X87713357Y-56743198D01*
X87714535Y-56735045D01*
X87716076Y-56723215D01*
X87717690Y-56709924D01*
X87718597Y-56703122D01*
X87721024Y-56690789D01*
X87724807Y-56678139D01*
X87730511Y-56663420D01*
X87738702Y-56644883D01*
X87747424Y-56624093D01*
X87759722Y-56587865D01*
X87770832Y-56546032D01*
X87780810Y-56498375D01*
X87789713Y-56444671D01*
X87790600Y-56438984D01*
X87793520Y-56423702D01*
X87797475Y-56407688D01*
X87802833Y-56389666D01*
X87809962Y-56368361D01*
X87819231Y-56342498D01*
X87821987Y-56333168D01*
X87825474Y-56315885D01*
X87828887Y-56292593D01*
X87832254Y-56263123D01*
X87834195Y-56245482D01*
X87836875Y-56223885D01*
X87839696Y-56203597D01*
X87842422Y-56186290D01*
X87844820Y-56173637D01*
X87848131Y-56157927D01*
X87854074Y-56126679D01*
X87860211Y-56090956D01*
X87866367Y-56051933D01*
X87872368Y-56010782D01*
X87878038Y-55968678D01*
X87883201Y-55926792D01*
X87887684Y-55886300D01*
X87887761Y-55885565D01*
X87888745Y-55876329D01*
X87890221Y-55862704D01*
X87892002Y-55846406D01*
X87893902Y-55829150D01*
X87895845Y-55810944D01*
X87900727Y-55757038D01*
X87904257Y-55702697D01*
X87906637Y-55645000D01*
X87908459Y-55586262D01*
X87891307Y-55633887D01*
X87891210Y-55634155D01*
X87882722Y-55657527D01*
X87874562Y-55679530D01*
X87866433Y-55700880D01*
X87858040Y-55722292D01*
X87849087Y-55744480D01*
X87839277Y-55768158D01*
X87828315Y-55794042D01*
X87815905Y-55822846D01*
X87801750Y-55855285D01*
X87785555Y-55892073D01*
X87781753Y-55900659D01*
X87767023Y-55933925D01*
X87765396Y-55937591D01*
X87745785Y-55981836D01*
X87728548Y-56020825D01*
X87713472Y-56055055D01*
X87700344Y-56085024D01*
X87688951Y-56111229D01*
X87679081Y-56134166D01*
X87670520Y-56154334D01*
X87663057Y-56172229D01*
X87656478Y-56188350D01*
X87650571Y-56203192D01*
X87645123Y-56217255D01*
X87639921Y-56231034D01*
X87632228Y-56251008D01*
X87622515Y-56275189D01*
X87611782Y-56301117D01*
X87600870Y-56326763D01*
X87590619Y-56350096D01*
X87587537Y-56356987D01*
X87557726Y-56425631D01*
X87531684Y-56489499D01*
X87509321Y-56548827D01*
X87490542Y-56603850D01*
X87483431Y-56625987D01*
X87475617Y-56650329D01*
X87467939Y-56674263D01*
X87461001Y-56695908D01*
X87455405Y-56713387D01*
X87452710Y-56721588D01*
X87445435Y-56742464D01*
X87436866Y-56765797D01*
X87427857Y-56789290D01*
X87419260Y-56810646D01*
X87415479Y-56819935D01*
X87407035Y-56842208D01*
X87400114Y-56862709D01*
X87394934Y-56880634D01*
X87391712Y-56895180D01*
X87390668Y-56905545D01*
X87392018Y-56910925D01*
X87394754Y-56911472D01*
X87402230Y-56910927D01*
X87412336Y-56909148D01*
X87423839Y-56906656D01*
X87448161Y-56901466D01*
X87468289Y-56897326D01*
X87485637Y-56893969D01*
X87501618Y-56891128D01*
X87517646Y-56888535D01*
X87535135Y-56885923D01*
X87560443Y-56882835D01*
X87592636Y-56880334D01*
X87624851Y-56879233D01*
X87655536Y-56879544D01*
X87683142Y-56881282D01*
X87706116Y-56884459D01*
X87715907Y-56886493D01*
X87756225Y-56897855D01*
X87794064Y-56913322D01*
X87828561Y-56932432D01*
X87858850Y-56954723D01*
X87884068Y-56979730D01*
X87894478Y-56992620D01*
X87916372Y-57025895D01*
X87932712Y-57060685D01*
X87943446Y-57096444D01*
X87948523Y-57132623D01*
X87947892Y-57168676D01*
X87941502Y-57204054D01*
X87933609Y-57226150D01*
X87929302Y-57238211D01*
X87911241Y-57270600D01*
X87901491Y-57283639D01*
X87881820Y-57304869D01*
X87858218Y-57325791D01*
X87832064Y-57345319D01*
X87804737Y-57362366D01*
X87777616Y-57375847D01*
X87774057Y-57377358D01*
X87743291Y-57389574D01*
X87715752Y-57398591D01*
X87689621Y-57404756D01*
X87663079Y-57408421D01*
X87634307Y-57409932D01*
X87601486Y-57409640D01*
X87601012Y-57409626D01*
X87582130Y-57408972D01*
X87568443Y-57408234D01*
X87558823Y-57407250D01*
X87552140Y-57405855D01*
X87547264Y-57403885D01*
X87543067Y-57401178D01*
X87535696Y-57397028D01*
X87525856Y-57394526D01*
X87511786Y-57393385D01*
X87510321Y-57393321D01*
X87491537Y-57390679D01*
X87472960Y-57384376D01*
X87453737Y-57373958D01*
X87433017Y-57358968D01*
X87409946Y-57338951D01*
X87405978Y-57335309D01*
X87394217Y-57324850D01*
X87384177Y-57316403D01*
X87376817Y-57310757D01*
X87373098Y-57308700D01*
X87370206Y-57310887D01*
X87367451Y-57318983D01*
X87365493Y-57332685D01*
X87364382Y-57351609D01*
X87364171Y-57375375D01*
X86300258Y-57375375D01*
X86300677Y-57371147D01*
X86302728Y-57352598D01*
X86304904Y-57335439D01*
X86306989Y-57321316D01*
X86308763Y-57311875D01*
X86308856Y-57311476D01*
X86310608Y-57299464D01*
X86311826Y-57281271D01*
X86312510Y-57256850D01*
X86312664Y-57226150D01*
X86312645Y-57221775D01*
X86312251Y-57193243D01*
X86311244Y-57168266D01*
X86309418Y-57145479D01*
X86306563Y-57123516D01*
X86302470Y-57101012D01*
X86296933Y-57076602D01*
X86289742Y-57048919D01*
X86280689Y-57016600D01*
X86280673Y-57016544D01*
X86273516Y-56990524D01*
X86265936Y-56961182D01*
X86258506Y-56930865D01*
X86251804Y-56901920D01*
X86246402Y-56876694D01*
X86240830Y-56850106D01*
X86232668Y-56815309D01*
X86223946Y-56783801D01*
X86214232Y-56754714D01*
X86203096Y-56727176D01*
X86190105Y-56700320D01*
X86174828Y-56673275D01*
X86156834Y-56645172D01*
X86135692Y-56615140D01*
X86110969Y-56582312D01*
X86082234Y-56545816D01*
X86078177Y-56540749D01*
X86055091Y-56512223D01*
X86034947Y-56487969D01*
X86017068Y-56467236D01*
X86000779Y-56449275D01*
X85985403Y-56433338D01*
X85970264Y-56418675D01*
X85954685Y-56404538D01*
X85934582Y-56387046D01*
X85903189Y-56360931D01*
X85873845Y-56338404D01*
X85845509Y-56318903D01*
X85817138Y-56301867D01*
X85787691Y-56286733D01*
X85756127Y-56272940D01*
X85721402Y-56259927D01*
X85682476Y-56247131D01*
X85638306Y-56233992D01*
X85613513Y-56227090D01*
X85567176Y-56215484D01*
X85525278Y-56206985D01*
X85487104Y-56201558D01*
X85451939Y-56199171D01*
X85419067Y-56199789D01*
X85387772Y-56203378D01*
X85357338Y-56209906D01*
X85327050Y-56219338D01*
X85316390Y-56223165D01*
X85296169Y-56230607D01*
X85280486Y-56236726D01*
X85268296Y-56241957D01*
X85258559Y-56246738D01*
X85250229Y-56251505D01*
X85239921Y-56257039D01*
X85225776Y-56263363D01*
X85211743Y-56268597D01*
X85182439Y-56279396D01*
X85152955Y-56293727D01*
X85128613Y-56309993D01*
X85127760Y-56310662D01*
X85114971Y-56320047D01*
X85099943Y-56330229D01*
X85085750Y-56339117D01*
X85076683Y-56344607D01*
X85058339Y-56356330D01*
X85039821Y-56368848D01*
X85022546Y-56381167D01*
X85007930Y-56392291D01*
X84997390Y-56401223D01*
X84989918Y-56407589D01*
X84978459Y-56416299D01*
X84966688Y-56424396D01*
X84952590Y-56434384D01*
X84936846Y-56447735D01*
X84923393Y-56461513D01*
X84913330Y-56474571D01*
X84907758Y-56485764D01*
X84905451Y-56491473D01*
X84899921Y-56502509D01*
X84892007Y-56516985D01*
X84882320Y-56533869D01*
X84871475Y-56552132D01*
X84860084Y-56570744D01*
X84848761Y-56588676D01*
X84838120Y-56604897D01*
X84828773Y-56618379D01*
X84825668Y-56622731D01*
X84815862Y-56637066D01*
X84804486Y-56654526D01*
X84791160Y-56675716D01*
X84775501Y-56701240D01*
X84757127Y-56731702D01*
X84756017Y-56733574D01*
X84748011Y-56747929D01*
X84738724Y-56765695D01*
X84729220Y-56784791D01*
X84720563Y-56803140D01*
X84720333Y-56803643D01*
X84711155Y-56823653D01*
X84700865Y-56845904D01*
X84690706Y-56867720D01*
X84681918Y-56886425D01*
X84680713Y-56888987D01*
X84673550Y-56904874D01*
X84667294Y-56919787D01*
X84662582Y-56932152D01*
X84660051Y-56940400D01*
X84658493Y-56946805D01*
X84655162Y-56959088D01*
X84650870Y-56974003D01*
X84646165Y-56989612D01*
X84642985Y-57000391D01*
X84638247Y-57018154D01*
X84634283Y-57034989D01*
X84631718Y-57048350D01*
X84631705Y-57048434D01*
X84629302Y-57060947D01*
X84625485Y-57077367D01*
X84620777Y-57095571D01*
X84615700Y-57113437D01*
X84610619Y-57130911D01*
X84605214Y-57150447D01*
X84600417Y-57168702D01*
X84596871Y-57183287D01*
X84592618Y-57202034D01*
X84587052Y-57226463D01*
X84581759Y-57249578D01*
X84576963Y-57270403D01*
X84572891Y-57287961D01*
X84569766Y-57301277D01*
X84567814Y-57309374D01*
X84565859Y-57314196D01*
X84560168Y-57323506D01*
X84550730Y-57336450D01*
X84537318Y-57353333D01*
X84519706Y-57374462D01*
X84505369Y-57391543D01*
X84486989Y-57413779D01*
X84468139Y-57436883D01*
X84450362Y-57458966D01*
X84435198Y-57478137D01*
X84433195Y-57480695D01*
X84414765Y-57503534D01*
X84398775Y-57521586D01*
X84384370Y-57535392D01*
X84370698Y-57545488D01*
X84356906Y-57552414D01*
X84342143Y-57556708D01*
X84325554Y-57558909D01*
X84306288Y-57559555D01*
X84300440Y-57559622D01*
X84287995Y-57560133D01*
X84278506Y-57561034D01*
X84273670Y-57562187D01*
X84267094Y-57563857D01*
X84256036Y-57561953D01*
X84242333Y-57556265D01*
X84226896Y-57547263D01*
X84210637Y-57535420D01*
X84194467Y-57521208D01*
X84183011Y-57510933D01*
X84169376Y-57499921D01*
X84157063Y-57491065D01*
X84135153Y-57474790D01*
X84110011Y-57451953D01*
X84084544Y-57424788D01*
X84059592Y-57394199D01*
X84035995Y-57361087D01*
X84035085Y-57359679D01*
X84029102Y-57349284D01*
X84021234Y-57334284D01*
X84011912Y-57315613D01*
X84001564Y-57294208D01*
X83990617Y-57271004D01*
X83979501Y-57246936D01*
X83968644Y-57222940D01*
X83958475Y-57199952D01*
X83949422Y-57178905D01*
X83941913Y-57160737D01*
X83936378Y-57146383D01*
X83933244Y-57136777D01*
X83933224Y-57136702D01*
X83930349Y-57128429D01*
X83925222Y-57116205D01*
X83918563Y-57101667D01*
X83911091Y-57086450D01*
X83902941Y-57070077D01*
X83885315Y-57031940D01*
X83868605Y-56991681D01*
X83852572Y-56948599D01*
X83836975Y-56901994D01*
X83821575Y-56851164D01*
X83806130Y-56795408D01*
X83790402Y-56734025D01*
X83785085Y-56712603D01*
X83779033Y-56688333D01*
X83773081Y-56664563D01*
X83767703Y-56643180D01*
X83763369Y-56626075D01*
X83758745Y-56607158D01*
X83754167Y-56587088D01*
X83750188Y-56568358D01*
X83747336Y-56553361D01*
X83746482Y-56548555D01*
X83743216Y-56532205D01*
X83739611Y-56516456D01*
X83736303Y-56504149D01*
X83734562Y-56498178D01*
X83730769Y-56484101D01*
X83726611Y-56467655D01*
X83722719Y-56451290D01*
X83721927Y-56447836D01*
X83718105Y-56431881D01*
X83714579Y-56420033D01*
X83710445Y-56410524D01*
X83704795Y-56401587D01*
X83696723Y-56391454D01*
X83685323Y-56378357D01*
X83669580Y-56361340D01*
X83638742Y-56331656D01*
X83604845Y-56302908D01*
X83569392Y-56276268D01*
X83533889Y-56252906D01*
X83499838Y-56233992D01*
X83465437Y-56218690D01*
X83422278Y-56204753D01*
X83379722Y-56197078D01*
X83337539Y-56195660D01*
X83295497Y-56200494D01*
X83253365Y-56211577D01*
X83210913Y-56228905D01*
X83201831Y-56233548D01*
X83183521Y-56243974D01*
X83161591Y-56257441D01*
X83136870Y-56273376D01*
X83110186Y-56291203D01*
X83082370Y-56310351D01*
X83054251Y-56330243D01*
X83026658Y-56350308D01*
X83000420Y-56369970D01*
X82976366Y-56388656D01*
X82955325Y-56405791D01*
X82928774Y-56429388D01*
X82888285Y-56470443D01*
X82850136Y-56515315D01*
X82837717Y-56532319D01*
X82815703Y-56562463D01*
X82808467Y-56573804D01*
X82798521Y-56590381D01*
X82786997Y-56610300D01*
X82774558Y-56632355D01*
X82761871Y-56655339D01*
X82749601Y-56678045D01*
X82738414Y-56699268D01*
X82728974Y-56717801D01*
X82721948Y-56732437D01*
X82717219Y-56743269D01*
X82710368Y-56760752D01*
X82703630Y-56780290D01*
X82696907Y-56802305D01*
X82690099Y-56827220D01*
X82683108Y-56855460D01*
X82675835Y-56887447D01*
X82668180Y-56923606D01*
X82660045Y-56964360D01*
X82651330Y-57010133D01*
X82641938Y-57061348D01*
X82631768Y-57118428D01*
X82629390Y-57131962D01*
X82625397Y-57154896D01*
X82621786Y-57175996D01*
X82618396Y-57196277D01*
X82615064Y-57216754D01*
X82611629Y-57238440D01*
X82607929Y-57262352D01*
X82603802Y-57289503D01*
X82599086Y-57320909D01*
X82593619Y-57357585D01*
X82590712Y-57375522D01*
X82587574Y-57390550D01*
X82584364Y-57400931D01*
X82580854Y-57407562D01*
X82578173Y-57411374D01*
X82575956Y-57416466D01*
X82576256Y-57422380D01*
X82578860Y-57431702D01*
X82580276Y-57436845D01*
X82583127Y-57450759D01*
X82584859Y-57464275D01*
X82586354Y-57480000D01*
X82592107Y-57516268D01*
X82601364Y-57554579D01*
X82614362Y-57595836D01*
X82631339Y-57640939D01*
X82639233Y-57659202D01*
X82650703Y-57681663D01*
X82664342Y-57704044D01*
X82680836Y-57727370D01*
X82700873Y-57752666D01*
X82725138Y-57780957D01*
X82727705Y-57783959D01*
X82736250Y-57794719D01*
X82745997Y-57807792D01*
X82755300Y-57820994D01*
X82761211Y-57829264D01*
X82773504Y-57844101D01*
X82788544Y-57859308D01*
X82807688Y-57876317D01*
X82825154Y-57890482D01*
X82848146Y-57906800D01*
X82871828Y-57920643D01*
X82897332Y-57932521D01*
X82925789Y-57942948D01*
X82958332Y-57952435D01*
X82996092Y-57961493D01*
X82997429Y-57961796D01*
X83011014Y-57965327D01*
X83026974Y-57970055D01*
X83042129Y-57975045D01*
X83042834Y-57975292D01*
X83059145Y-57980600D01*
X83077010Y-57985841D01*
X83092688Y-57989913D01*
X83096372Y-57990808D01*
X83106619Y-57993728D01*
X83113230Y-57996296D01*
X83114913Y-57998043D01*
X83114326Y-57998449D01*
X83108601Y-58000660D01*
X83098359Y-58003688D01*
X83084953Y-58007202D01*
X83069736Y-58010872D01*
X83054063Y-58014370D01*
X83039288Y-58017363D01*
X83026763Y-58019524D01*
X83023158Y-58020023D01*
X83009987Y-58021538D01*
X82992966Y-58023205D01*
X82973902Y-58024852D01*
X82954599Y-58026311D01*
X82941373Y-58027178D01*
X82922916Y-58028048D01*
X82906940Y-58028138D01*
X82891706Y-58027333D01*
X82875477Y-58025522D01*
X82856517Y-58022593D01*
X82833088Y-58018431D01*
X82831063Y-58018066D01*
X82817385Y-58015870D01*
X82805002Y-58014295D01*
X82796380Y-58013660D01*
X82796022Y-58013654D01*
X82787028Y-58012698D01*
X82774650Y-58010455D01*
X82761455Y-58007389D01*
X82756740Y-58006211D01*
X82740976Y-58002702D01*
X82723082Y-57999169D01*
X82706088Y-57996222D01*
X82694996Y-57994411D01*
X82666699Y-57989239D01*
X82639623Y-57983541D01*
X82614616Y-57977543D01*
X82592521Y-57971471D01*
X82574185Y-57965551D01*
X82560454Y-57960010D01*
X82552172Y-57955073D01*
X82549342Y-57953114D01*
X82541456Y-57948461D01*
X82530335Y-57942347D01*
X82517419Y-57935579D01*
X82509320Y-57931325D01*
X82495303Y-57923509D01*
X82483058Y-57916152D01*
X82474557Y-57910411D01*
X82472172Y-57908603D01*
X82460012Y-57899548D01*
X82446745Y-57889885D01*
X82433407Y-57880343D01*
X82421035Y-57871651D01*
X82410665Y-57864539D01*
X82403333Y-57859737D01*
X82400076Y-57857975D01*
X82399799Y-57859131D01*
X81742666Y-57859131D01*
X81734902Y-57838493D01*
X81728108Y-57817388D01*
X81722356Y-57796012D01*
X81717218Y-57773230D01*
X81716407Y-57769373D01*
X81713172Y-57754347D01*
X81709099Y-57735787D01*
X81704627Y-57715690D01*
X81700197Y-57696050D01*
X81697485Y-57683937D01*
X81693707Y-57666018D01*
X81690575Y-57649233D01*
X81688020Y-57632752D01*
X81685977Y-57615741D01*
X81684376Y-57597371D01*
X81683149Y-57576808D01*
X81682230Y-57553222D01*
X81681551Y-57525781D01*
X81681043Y-57493653D01*
X81680638Y-57456007D01*
X81680509Y-57441207D01*
X81680297Y-57409507D01*
X81680242Y-57383280D01*
X81680358Y-57361905D01*
X81680657Y-57344763D01*
X81681154Y-57331234D01*
X81681863Y-57320698D01*
X81682798Y-57312533D01*
X81683971Y-57306121D01*
X81685137Y-57300653D01*
X81687456Y-57286533D01*
X81688380Y-57274956D01*
X81687856Y-57267127D01*
X81685829Y-57264250D01*
X81685010Y-57264591D01*
X81680391Y-57268270D01*
X81673083Y-57275127D01*
X81664250Y-57284093D01*
X81661809Y-57286672D01*
X81654429Y-57294924D01*
X81648669Y-57302643D01*
X81643852Y-57311157D01*
X81639305Y-57321793D01*
X81634351Y-57335877D01*
X81628318Y-57354737D01*
X81626988Y-57358681D01*
X81621198Y-57373063D01*
X81613704Y-57389083D01*
X81605786Y-57403950D01*
X81599389Y-57415515D01*
X81585442Y-57445919D01*
X81577022Y-57473874D01*
X81574200Y-57499172D01*
X81573936Y-57509205D01*
X81572823Y-57524506D01*
X81571135Y-57537510D01*
X81569828Y-57546402D01*
X81568175Y-57560519D01*
X81566519Y-57577153D01*
X81565074Y-57594294D01*
X81564128Y-57632556D01*
X81568438Y-57678852D01*
X81578870Y-57725418D01*
X81579913Y-57729104D01*
X81582703Y-57739773D01*
X81584301Y-57747223D01*
X81584384Y-57750025D01*
X81584352Y-57750021D01*
X81581070Y-57748208D01*
X81573659Y-57743532D01*
X81563189Y-57736682D01*
X81550729Y-57728348D01*
X81543075Y-57723228D01*
X81526781Y-57712519D01*
X81507896Y-57700281D01*
X81488188Y-57687658D01*
X81469425Y-57675793D01*
X81465575Y-57673371D01*
X81433025Y-57652482D01*
X81399186Y-57630080D01*
X81364566Y-57606547D01*
X81329675Y-57582264D01*
X81295023Y-57557615D01*
X81261118Y-57532980D01*
X81228470Y-57508741D01*
X81197587Y-57485280D01*
X81168980Y-57462978D01*
X81143157Y-57442219D01*
X81120628Y-57423383D01*
X81101902Y-57406852D01*
X81087488Y-57393009D01*
X81077895Y-57382234D01*
X81068952Y-57370612D01*
X81071074Y-57273775D01*
X81071569Y-57245858D01*
X81071812Y-57212127D01*
X81071615Y-57178506D01*
X81070948Y-57144079D01*
X81069780Y-57107926D01*
X81068081Y-57069130D01*
X81065818Y-57026773D01*
X81062963Y-56979935D01*
X81059484Y-56927700D01*
X81058695Y-56915697D01*
X81056488Y-56874038D01*
X81055013Y-56831815D01*
X81054263Y-56790012D01*
X81054234Y-56749609D01*
X81054919Y-56711591D01*
X81056313Y-56676937D01*
X81058410Y-56646632D01*
X81061206Y-56621657D01*
X81061252Y-56621334D01*
X81348842Y-56621334D01*
X81349416Y-56634375D01*
X81352779Y-56659122D01*
X81358806Y-56686877D01*
X81367102Y-56716140D01*
X81377272Y-56745415D01*
X81388921Y-56773202D01*
X81395163Y-56786655D01*
X81408505Y-56814836D01*
X81419990Y-56838111D01*
X81429987Y-56857170D01*
X81438865Y-56872703D01*
X81446995Y-56885399D01*
X81454747Y-56895950D01*
X81455642Y-56897082D01*
X81464896Y-56909077D01*
X81473761Y-56920989D01*
X81480431Y-56930395D01*
X81482618Y-56933389D01*
X81492980Y-56944753D01*
X81506432Y-56956796D01*
X81520987Y-56967836D01*
X81534654Y-56976193D01*
X81540458Y-56978725D01*
X81551555Y-56982636D01*
X81563687Y-56986181D01*
X81565563Y-56986639D01*
X81577886Y-56988798D01*
X81592214Y-56990291D01*
X81606483Y-56991005D01*
X81618629Y-56990825D01*
X81626588Y-56989639D01*
X81630942Y-56988440D01*
X81638494Y-56986654D01*
X81644495Y-56984213D01*
X81647225Y-56980669D01*
X81646200Y-56977143D01*
X81642841Y-56968924D01*
X81637700Y-56957502D01*
X81631350Y-56944198D01*
X81625909Y-56932652D01*
X81620505Y-56920113D01*
X81616831Y-56910284D01*
X81615475Y-56904631D01*
X81614307Y-56899702D01*
X81609378Y-56893669D01*
X81608717Y-56893209D01*
X81603524Y-56887145D01*
X81599216Y-56878618D01*
X81598480Y-56876676D01*
X81595329Y-56870050D01*
X81592923Y-56867375D01*
X81592329Y-56867205D01*
X81589519Y-56863220D01*
X81586724Y-56855508D01*
X81584581Y-56846151D01*
X81583725Y-56837235D01*
X81583174Y-56831502D01*
X81580876Y-56820491D01*
X81577399Y-56808704D01*
X81568384Y-56776898D01*
X81562997Y-56739370D01*
X81563732Y-56703262D01*
X81570576Y-56668687D01*
X81583514Y-56635761D01*
X81602533Y-56604598D01*
X81606548Y-56599528D01*
X81622093Y-56584288D01*
X81641802Y-56569559D01*
X81664076Y-56556326D01*
X81687318Y-56545577D01*
X81709932Y-56538297D01*
X81721077Y-56536381D01*
X81737987Y-56534685D01*
X81758467Y-56533441D01*
X81781077Y-56532695D01*
X81804373Y-56532493D01*
X81826912Y-56532882D01*
X81847250Y-56533907D01*
X81856864Y-56534310D01*
X81864749Y-56533817D01*
X81867406Y-56532319D01*
X81866918Y-56529719D01*
X81865348Y-56521828D01*
X81862997Y-56510231D01*
X81860158Y-56496373D01*
X81857581Y-56483121D01*
X81854108Y-56463235D01*
X81850313Y-56439358D01*
X81846160Y-56411231D01*
X81841615Y-56378595D01*
X81836644Y-56341193D01*
X81831213Y-56298765D01*
X81825288Y-56251052D01*
X81818834Y-56197797D01*
X81811818Y-56138741D01*
X81804204Y-56073625D01*
X81803160Y-56064733D01*
X81800656Y-56043875D01*
X81797541Y-56018346D01*
X81793945Y-55989207D01*
X81790000Y-55957515D01*
X81785837Y-55924332D01*
X81781589Y-55890715D01*
X81777386Y-55857725D01*
X81774169Y-55832495D01*
X81773818Y-55829719D01*
X83178552Y-55829719D01*
X83182187Y-55831007D01*
X83191401Y-55832320D01*
X83206347Y-55833701D01*
X83227179Y-55835189D01*
X83254050Y-55836826D01*
X83287113Y-55838655D01*
X83311058Y-55840227D01*
X83343072Y-55842960D01*
X83377671Y-55846456D01*
X83413067Y-55850511D01*
X83447476Y-55854918D01*
X83479111Y-55859470D01*
X83506188Y-55863962D01*
X83515114Y-55865621D01*
X83543150Y-55871520D01*
X83568609Y-55878215D01*
X83594198Y-55886475D01*
X83622621Y-55897070D01*
X83633092Y-55901112D01*
X83654097Y-55909017D01*
X83675875Y-55917011D01*
X83695100Y-55923865D01*
X83697891Y-55924840D01*
X83719693Y-55932634D01*
X83739240Y-55940030D01*
X83758521Y-55947830D01*
X83779522Y-55956834D01*
X83804231Y-55967844D01*
X83808146Y-55969593D01*
X83824453Y-55976675D01*
X83843941Y-55984905D01*
X83864499Y-55993400D01*
X83884013Y-56001273D01*
X83893803Y-56005337D01*
X83911537Y-56013161D01*
X83933092Y-56023056D01*
X83957412Y-56034523D01*
X83983443Y-56047061D01*
X84010128Y-56060172D01*
X84036413Y-56073357D01*
X84037363Y-56073838D01*
X84068082Y-56089339D01*
X84094221Y-56102279D01*
X84116782Y-56113052D01*
X84136769Y-56122056D01*
X84155186Y-56129685D01*
X84173037Y-56136336D01*
X84191325Y-56142403D01*
X84211055Y-56148284D01*
X84233229Y-56154374D01*
X84258852Y-56161069D01*
X84273388Y-56164813D01*
X84294440Y-56170236D01*
X84314540Y-56175416D01*
X84331956Y-56179905D01*
X84344955Y-56183258D01*
X84351800Y-56184945D01*
X84363972Y-56187442D01*
X84376853Y-56189292D01*
X84391854Y-56190639D01*
X84410385Y-56191629D01*
X84433855Y-56192407D01*
X84452098Y-56192763D01*
X84470758Y-56192829D01*
X84486926Y-56192580D01*
X84499318Y-56192039D01*
X84506649Y-56191224D01*
X84511938Y-56190031D01*
X84535127Y-56183928D01*
X84562323Y-56175678D01*
X84592172Y-56165758D01*
X84623316Y-56154648D01*
X84654401Y-56142828D01*
X84684070Y-56130778D01*
X84710968Y-56118975D01*
X84721667Y-56114034D01*
X84743066Y-56103911D01*
X84760525Y-56095158D01*
X84775385Y-56087020D01*
X84788989Y-56078740D01*
X84802679Y-56069560D01*
X84817798Y-56058723D01*
X84845754Y-56038946D01*
X84890877Y-56009346D01*
X84938309Y-55980707D01*
X84985738Y-55954466D01*
X85004485Y-55944372D01*
X85025123Y-55932896D01*
X85045109Y-55921470D01*
X85061938Y-55911507D01*
X85081668Y-55899701D01*
X85101348Y-55888560D01*
X85119088Y-55879468D01*
X85136656Y-55871586D01*
X85155821Y-55864070D01*
X85178349Y-55856079D01*
X85210443Y-55845499D01*
X85244364Y-55835563D01*
X85275089Y-55828145D01*
X85303900Y-55822942D01*
X85332074Y-55819649D01*
X85347023Y-55818183D01*
X85368706Y-55815612D01*
X85390033Y-55812664D01*
X85408013Y-55809728D01*
X85420457Y-55807797D01*
X85442057Y-55805343D01*
X85467909Y-55803147D01*
X85496803Y-55801266D01*
X85527531Y-55799756D01*
X85558882Y-55798675D01*
X85589649Y-55798080D01*
X85618622Y-55798027D01*
X85644592Y-55798574D01*
X85645100Y-55798592D01*
X85671030Y-55799874D01*
X85693339Y-55801889D01*
X85713922Y-55804987D01*
X85734673Y-55809515D01*
X85757485Y-55815821D01*
X85784250Y-55824253D01*
X85785752Y-55824744D01*
X85804116Y-55830615D01*
X85822765Y-55836379D01*
X85839598Y-55841396D01*
X85852513Y-55845028D01*
X85865815Y-55848679D01*
X85892247Y-55856523D01*
X85918875Y-55865101D01*
X85944104Y-55873871D01*
X85966338Y-55882289D01*
X85983982Y-55889812D01*
X85990411Y-55892736D01*
X86001152Y-55897282D01*
X86008882Y-55900096D01*
X86012250Y-55900659D01*
X86011906Y-55899568D01*
X86008024Y-55894707D01*
X86000599Y-55886693D01*
X85990368Y-55876234D01*
X85978065Y-55864041D01*
X85964426Y-55850822D01*
X85950186Y-55837287D01*
X85936079Y-55824145D01*
X85922841Y-55812107D01*
X85911207Y-55801881D01*
X85901913Y-55794176D01*
X85897024Y-55790348D01*
X85884349Y-55780776D01*
X85872783Y-55772824D01*
X85860928Y-55765688D01*
X85847386Y-55758566D01*
X85830759Y-55750653D01*
X85809650Y-55741147D01*
X85790930Y-55733000D01*
X85764763Y-55722416D01*
X85740800Y-55713998D01*
X85717028Y-55707123D01*
X85691436Y-55701169D01*
X85662013Y-55695514D01*
X85657203Y-55694653D01*
X85636128Y-55690840D01*
X85611189Y-55686279D01*
X85584250Y-55681313D01*
X85557177Y-55676285D01*
X85531838Y-55671540D01*
X85509258Y-55667433D01*
X85483139Y-55663078D01*
X85460367Y-55659739D01*
X85441888Y-55657552D01*
X85428650Y-55656655D01*
X85401663Y-55656112D01*
X85350863Y-55680413D01*
X85339691Y-55685678D01*
X85320135Y-55694573D01*
X85301113Y-55702873D01*
X85284344Y-55709835D01*
X85271544Y-55714715D01*
X85255550Y-55720602D01*
X85232951Y-55730213D01*
X85210777Y-55741500D01*
X85186428Y-55755718D01*
X85182242Y-55758209D01*
X85169619Y-55765325D01*
X85153650Y-55773964D01*
X85135958Y-55783257D01*
X85118165Y-55792331D01*
X85109261Y-55796846D01*
X85092264Y-55805720D01*
X85076703Y-55814155D01*
X85064003Y-55821372D01*
X85055588Y-55826591D01*
X85055359Y-55826748D01*
X85046374Y-55832906D01*
X85033849Y-55841517D01*
X85019412Y-55851460D01*
X85004690Y-55861616D01*
X84992942Y-55869254D01*
X84976250Y-55879368D01*
X84956166Y-55891027D01*
X84933855Y-55903565D01*
X84910483Y-55916317D01*
X84887215Y-55928619D01*
X84864692Y-55940205D01*
X84836976Y-55954000D01*
X84813043Y-55965202D01*
X84791914Y-55974194D01*
X84772610Y-55981358D01*
X84754152Y-55987080D01*
X84735563Y-55991741D01*
X84715863Y-55995725D01*
X84693875Y-55999894D01*
X84673138Y-56004289D01*
X84655666Y-56008705D01*
X84639838Y-56013603D01*
X84624034Y-56019440D01*
X84606636Y-56026675D01*
X84573426Y-56040409D01*
X84542837Y-56051632D01*
X84514345Y-56060418D01*
X84486331Y-56067315D01*
X84478653Y-56069085D01*
X84456988Y-56075684D01*
X84441564Y-56083317D01*
X84435442Y-56087257D01*
X84429267Y-56090323D01*
X84424847Y-56090397D01*
X84420149Y-56087916D01*
X84418914Y-56087202D01*
X84413110Y-56085279D01*
X84404004Y-56084029D01*
X84390584Y-56083353D01*
X84371837Y-56083150D01*
X84338848Y-56081699D01*
X84291666Y-56075157D01*
X84243134Y-56063627D01*
X84194287Y-56047418D01*
X84146160Y-56026838D01*
X84099786Y-56002194D01*
X84081093Y-55991518D01*
X84041541Y-55970668D01*
X83999582Y-55950551D01*
X83957048Y-55931988D01*
X83915772Y-55915798D01*
X83877585Y-55902801D01*
X83852237Y-55894954D01*
X83826901Y-55887051D01*
X83805823Y-55880390D01*
X83788015Y-55874651D01*
X83772487Y-55869514D01*
X83758249Y-55864661D01*
X83744313Y-55859771D01*
X83738462Y-55857789D01*
X83718918Y-55852074D01*
X83697961Y-55846970D01*
X83679225Y-55843391D01*
X83671162Y-55842131D01*
X83653558Y-55839235D01*
X83636722Y-55836302D01*
X83623412Y-55833805D01*
X83615552Y-55832533D01*
X83599205Y-55830720D01*
X83577874Y-55828991D01*
X83552371Y-55827370D01*
X83523509Y-55825878D01*
X83492100Y-55824539D01*
X83458957Y-55823373D01*
X83424892Y-55822404D01*
X83390718Y-55821654D01*
X83357247Y-55821145D01*
X83325292Y-55820898D01*
X83295666Y-55820938D01*
X83269180Y-55821285D01*
X83246648Y-55821962D01*
X83228882Y-55822992D01*
X83216730Y-55823998D01*
X83199584Y-55825596D01*
X83187404Y-55827055D01*
X83180342Y-55828416D01*
X83178552Y-55829719D01*
X81773818Y-55829719D01*
X81770386Y-55802574D01*
X81766862Y-55774446D01*
X81763690Y-55748861D01*
X81760963Y-55726569D01*
X81758772Y-55708323D01*
X81757210Y-55694872D01*
X81756370Y-55686968D01*
X81756234Y-55685537D01*
X81754866Y-55674333D01*
X81753331Y-55666061D01*
X81751937Y-55662423D01*
X81750234Y-55663572D01*
X81747496Y-55670042D01*
X81744189Y-55681315D01*
X81740478Y-55696572D01*
X81736528Y-55714995D01*
X81732504Y-55735767D01*
X81728571Y-55758069D01*
X81724893Y-55781083D01*
X81721637Y-55803991D01*
X81718966Y-55825975D01*
X81717657Y-55838338D01*
X81715690Y-55859127D01*
X81714041Y-55880152D01*
X81712638Y-55902637D01*
X81711410Y-55927804D01*
X81710282Y-55956876D01*
X81709184Y-55991075D01*
X81708847Y-56002370D01*
X81708090Y-56027645D01*
X81707259Y-56055262D01*
X81706434Y-56082581D01*
X81705695Y-56106962D01*
X81705051Y-56124673D01*
X81704064Y-56145099D01*
X81702917Y-56163725D01*
X81701706Y-56179034D01*
X81700524Y-56189512D01*
X81699522Y-56197436D01*
X81698085Y-56213033D01*
X81696901Y-56230806D01*
X81696155Y-56248250D01*
X81695681Y-56261328D01*
X81694930Y-56275319D01*
X81694073Y-56286214D01*
X81693218Y-56292387D01*
X81692070Y-56298360D01*
X81690320Y-56310080D01*
X81688290Y-56325538D01*
X81686137Y-56343335D01*
X81684019Y-56362073D01*
X81682092Y-56380352D01*
X81680515Y-56396775D01*
X81679445Y-56409942D01*
X81679038Y-56418454D01*
X81678975Y-56434671D01*
X81643257Y-56436826D01*
X81635483Y-56437323D01*
X81591821Y-56441214D01*
X81551236Y-56446712D01*
X81514370Y-56453680D01*
X81481862Y-56461980D01*
X81454356Y-56471475D01*
X81432491Y-56482027D01*
X81417509Y-56491915D01*
X81394272Y-56512558D01*
X81375253Y-56536708D01*
X81360987Y-56563479D01*
X81352006Y-56591983D01*
X81348842Y-56621334D01*
X81061252Y-56621334D01*
X81062146Y-56615122D01*
X81066722Y-56584178D01*
X81072017Y-56549530D01*
X81077882Y-56512087D01*
X81084165Y-56472755D01*
X81090716Y-56432443D01*
X81097383Y-56392057D01*
X81104017Y-56352506D01*
X81110466Y-56314698D01*
X81116580Y-56279539D01*
X81122207Y-56247937D01*
X81127198Y-56220801D01*
X81131401Y-56199037D01*
X81136929Y-56172668D01*
X81145214Y-56136847D01*
X81154751Y-56099472D01*
X81165670Y-56060162D01*
X81178097Y-56018533D01*
X81192163Y-55974202D01*
X81207995Y-55926788D01*
X81225722Y-55875906D01*
X81245473Y-55821175D01*
X81267375Y-55762211D01*
X81291558Y-55698633D01*
X81318149Y-55630056D01*
X81347278Y-55556100D01*
X81366727Y-55507336D01*
X81387780Y-55455299D01*
X81408345Y-55405366D01*
X81428763Y-55356763D01*
X81449378Y-55308717D01*
X81470533Y-55260454D01*
X81492570Y-55211202D01*
X81515833Y-55160187D01*
X81540664Y-55106636D01*
X81567406Y-55049776D01*
X81596401Y-54988834D01*
X81627994Y-54923036D01*
X81629455Y-54920004D01*
X81643987Y-54889776D01*
X81656846Y-54862840D01*
X81668400Y-54838362D01*
X81679016Y-54815506D01*
X81689063Y-54793437D01*
X81698908Y-54771322D01*
X81708919Y-54748325D01*
X81719464Y-54723612D01*
X81730911Y-54696347D01*
X81743627Y-54665697D01*
X81757980Y-54630826D01*
X81774338Y-54590900D01*
X81777960Y-54582063D01*
X81796620Y-54537204D01*
X81814051Y-54496636D01*
X81830844Y-54459161D01*
X81847590Y-54423579D01*
X81864882Y-54388692D01*
X81883309Y-54353302D01*
X81903464Y-54316209D01*
X81925937Y-54276216D01*
X81951320Y-54232125D01*
X81959026Y-54218854D01*
X81970012Y-54199923D01*
X81979964Y-54182757D01*
X81988344Y-54168288D01*
X81994611Y-54157445D01*
X81998227Y-54151162D01*
X82001700Y-54145681D01*
X82008992Y-54135323D01*
X82018250Y-54122938D01*
X82028282Y-54110153D01*
X82034990Y-54101788D01*
X82046695Y-54087059D01*
X82057816Y-54072922D01*
X82066642Y-54061544D01*
X82082200Y-54041245D01*
X82082114Y-54053341D01*
X82082041Y-54056693D01*
X82081211Y-54070630D01*
X82079590Y-54088857D01*
X82077334Y-54109880D01*
X82074599Y-54132205D01*
X82071543Y-54154337D01*
X82070768Y-54159793D01*
X82068428Y-54178258D01*
X82066374Y-54197131D01*
X82064980Y-54213075D01*
X82064717Y-54216772D01*
X82063336Y-54233740D01*
X82061741Y-54247902D01*
X82059547Y-54262243D01*
X82056368Y-54279750D01*
X82055769Y-54283310D01*
X82054074Y-54298355D01*
X82052654Y-54318684D01*
X82051509Y-54343498D01*
X82050636Y-54371993D01*
X82050036Y-54403367D01*
X82049708Y-54436819D01*
X82049651Y-54471547D01*
X82049863Y-54506748D01*
X82050345Y-54541619D01*
X82051096Y-54575360D01*
X82052114Y-54607169D01*
X82053399Y-54636242D01*
X82054950Y-54661778D01*
X82056767Y-54682975D01*
X82056916Y-54684402D01*
X82058617Y-54699816D01*
X82061047Y-54720802D01*
X82064125Y-54746713D01*
X82067769Y-54776901D01*
X82071899Y-54810720D01*
X82076433Y-54847521D01*
X82081290Y-54886657D01*
X82086388Y-54927481D01*
X82091646Y-54969345D01*
X82096983Y-55011601D01*
X82102317Y-55053603D01*
X82107568Y-55094702D01*
X82112654Y-55134251D01*
X82117493Y-55171603D01*
X82122005Y-55206110D01*
X82126108Y-55237125D01*
X82129720Y-55264000D01*
X82131995Y-55280805D01*
X82135914Y-55310053D01*
X82139569Y-55337685D01*
X82142858Y-55362921D01*
X82145682Y-55384984D01*
X82147941Y-55403094D01*
X82149534Y-55416471D01*
X82150360Y-55424337D01*
X82151612Y-55436169D01*
X82153445Y-55448809D01*
X82155323Y-55458025D01*
X82155951Y-55460587D01*
X82158097Y-55471322D01*
X82160697Y-55486350D01*
X82163530Y-55504199D01*
X82166374Y-55523397D01*
X82169010Y-55542471D01*
X82171216Y-55559948D01*
X82172771Y-55574356D01*
X82172809Y-55574767D01*
X82174087Y-55586919D01*
X82176043Y-55593904D01*
X82180067Y-55596722D01*
X82187552Y-55596373D01*
X82199887Y-55593858D01*
X82205170Y-55592833D01*
X82216065Y-55591978D01*
X82223955Y-55593835D01*
X82224456Y-55594055D01*
X82227821Y-55594903D01*
X82231824Y-55594318D01*
X82237356Y-55591827D01*
X82245305Y-55586953D01*
X82256558Y-55579222D01*
X82272006Y-55568160D01*
X82280229Y-55562205D01*
X82293186Y-55552758D01*
X82303742Y-55544980D01*
X82310978Y-55539549D01*
X82313975Y-55537144D01*
X82315906Y-55535402D01*
X82321769Y-55530630D01*
X82329850Y-55524313D01*
X82335737Y-55519725D01*
X82343548Y-55513433D01*
X82348338Y-55509309D01*
X82348977Y-55508736D01*
X82354469Y-55504412D01*
X82363249Y-55497937D01*
X82373738Y-55490479D01*
X82374897Y-55489670D01*
X82394694Y-55475787D01*
X82412464Y-55463233D01*
X82427568Y-55452466D01*
X82439367Y-55443944D01*
X82447224Y-55438125D01*
X82450500Y-55435465D01*
X82450721Y-55435243D01*
X82454697Y-55432069D01*
X82462625Y-55426104D01*
X82473472Y-55418095D01*
X82486204Y-55408793D01*
X82499790Y-55398945D01*
X82513196Y-55389302D01*
X82525389Y-55380612D01*
X82535338Y-55373624D01*
X82542010Y-55369088D01*
X82545075Y-55367050D01*
X82551835Y-55362251D01*
X82555275Y-55359334D01*
X82557231Y-55357540D01*
X82564198Y-55352517D01*
X82575070Y-55345330D01*
X82588865Y-55336587D01*
X82604605Y-55326895D01*
X82608197Y-55324738D01*
X83410938Y-55324738D01*
X83449038Y-55332763D01*
X83459405Y-55335016D01*
X83500806Y-55345174D01*
X83545356Y-55357734D01*
X83591169Y-55372142D01*
X83636363Y-55387844D01*
X83646938Y-55391664D01*
X83669398Y-55399568D01*
X83692449Y-55407444D01*
X83713913Y-55414555D01*
X83731613Y-55420163D01*
X83774013Y-55433672D01*
X83842708Y-55458022D01*
X83907880Y-55484244D01*
X83968142Y-55511798D01*
X83976846Y-55515993D01*
X83988942Y-55521501D01*
X84000774Y-55526351D01*
X84013417Y-55530897D01*
X84027943Y-55535493D01*
X84045427Y-55540492D01*
X84066943Y-55546249D01*
X84093563Y-55553116D01*
X84101237Y-55555079D01*
X84124836Y-55561164D01*
X84148336Y-55567284D01*
X84170223Y-55573043D01*
X84188983Y-55578041D01*
X84203100Y-55581882D01*
X84213591Y-55584734D01*
X84225379Y-55587631D01*
X84236134Y-55589688D01*
X84247332Y-55591074D01*
X84260449Y-55591961D01*
X84276963Y-55592520D01*
X84298350Y-55592922D01*
X84310911Y-55593078D01*
X84334608Y-55592999D01*
X84355033Y-55592164D01*
X84373728Y-55590346D01*
X84392236Y-55587316D01*
X84412099Y-55582845D01*
X84434861Y-55576704D01*
X84462064Y-55568666D01*
X84479772Y-55563252D01*
X84499929Y-55556857D01*
X84517672Y-55550826D01*
X84534351Y-55544629D01*
X84551317Y-55537733D01*
X84569920Y-55529607D01*
X84591510Y-55519721D01*
X84617438Y-55507543D01*
X84631833Y-55500795D01*
X84655009Y-55490338D01*
X84674932Y-55482090D01*
X84693115Y-55475525D01*
X84711073Y-55470117D01*
X84730322Y-55465341D01*
X84752375Y-55460669D01*
X84760159Y-55459097D01*
X84774855Y-55455999D01*
X84788209Y-55452919D01*
X84801448Y-55449515D01*
X84815799Y-55445449D01*
X84832488Y-55440378D01*
X84852742Y-55433963D01*
X84877788Y-55425864D01*
X84925571Y-55411714D01*
X84988913Y-55397490D01*
X84997546Y-55395880D01*
X85022091Y-55390974D01*
X85048968Y-55385231D01*
X85075473Y-55379239D01*
X85098900Y-55373586D01*
X85102293Y-55372733D01*
X85121041Y-55368137D01*
X85136846Y-55364600D01*
X85151257Y-55361892D01*
X85165821Y-55359784D01*
X85182084Y-55358047D01*
X85201595Y-55356451D01*
X85225900Y-55354767D01*
X85251942Y-55352849D01*
X85282537Y-55349942D01*
X85307095Y-55346730D01*
X85325463Y-55343229D01*
X85331380Y-55341890D01*
X85349462Y-55338358D01*
X85369237Y-55335101D01*
X85387375Y-55332686D01*
X85420713Y-55328973D01*
X85398362Y-55321875D01*
X85391481Y-55319766D01*
X85360001Y-55311610D01*
X85324817Y-55304520D01*
X85288035Y-55298882D01*
X85251759Y-55295080D01*
X85223350Y-55293640D01*
X85182651Y-55293639D01*
X85138649Y-55295650D01*
X85092845Y-55299598D01*
X85046744Y-55305408D01*
X85040905Y-55306276D01*
X85024596Y-55308942D01*
X85012371Y-55311572D01*
X85002509Y-55314677D01*
X84993288Y-55318767D01*
X84982989Y-55324355D01*
X84951928Y-55341029D01*
X84909225Y-55360803D01*
X84867895Y-55376391D01*
X84840063Y-55385437D01*
X84806371Y-55396065D01*
X84773232Y-55406191D01*
X84741553Y-55415553D01*
X84712242Y-55423888D01*
X84686208Y-55430933D01*
X84664358Y-55436427D01*
X84647600Y-55440105D01*
X84636047Y-55442332D01*
X84598328Y-55449531D01*
X84565669Y-55455581D01*
X84537161Y-55460569D01*
X84511895Y-55464586D01*
X84488962Y-55467720D01*
X84467454Y-55470060D01*
X84446460Y-55471695D01*
X84425073Y-55472713D01*
X84402382Y-55473204D01*
X84377479Y-55473257D01*
X84349455Y-55472960D01*
X84317400Y-55472403D01*
X84286348Y-55471799D01*
X84259679Y-55471183D01*
X84236554Y-55470426D01*
X84216090Y-55469398D01*
X84197406Y-55467970D01*
X84179621Y-55466011D01*
X84161854Y-55463391D01*
X84143222Y-55459981D01*
X84122844Y-55455650D01*
X84099840Y-55450269D01*
X84073327Y-55443706D01*
X84042425Y-55435834D01*
X84006250Y-55426521D01*
X83988240Y-55421836D01*
X83959566Y-55414100D01*
X83934917Y-55406945D01*
X83912882Y-55399883D01*
X83892054Y-55392425D01*
X83871024Y-55384081D01*
X83848385Y-55374362D01*
X83822727Y-55362779D01*
X83820134Y-55361591D01*
X83807062Y-55355696D01*
X83794937Y-55350464D01*
X83783048Y-55345671D01*
X83770686Y-55341095D01*
X83757140Y-55336513D01*
X83741701Y-55331703D01*
X83723657Y-55326442D01*
X83702300Y-55320506D01*
X83676919Y-55313674D01*
X83646804Y-55305722D01*
X83611246Y-55296427D01*
X83607788Y-55295540D01*
X83599944Y-55293848D01*
X83592961Y-55293291D01*
X83585476Y-55294086D01*
X83576128Y-55296450D01*
X83563554Y-55300601D01*
X83546393Y-55306755D01*
X83523691Y-55313983D01*
X83484761Y-55321798D01*
X83443202Y-55324531D01*
X83410938Y-55324738D01*
X82608197Y-55324738D01*
X82621311Y-55316864D01*
X82638003Y-55307102D01*
X82653700Y-55298216D01*
X82657549Y-55296076D01*
X82669741Y-55289235D01*
X82680688Y-55283021D01*
X82689353Y-55278162D01*
X82701571Y-55271467D01*
X82714025Y-55264767D01*
X82726681Y-55258005D01*
X82742463Y-55249522D01*
X82756888Y-55241722D01*
X82770113Y-55234575D01*
X82785917Y-55226091D01*
X82799750Y-55218718D01*
X82812408Y-55211975D01*
X82828189Y-55203509D01*
X82842613Y-55195718D01*
X82867501Y-55182519D01*
X82923843Y-55154784D01*
X82984687Y-55127681D01*
X82990560Y-55125213D01*
X83013725Y-55115894D01*
X83039569Y-55106030D01*
X83066869Y-55096046D01*
X83094406Y-55086364D01*
X83120957Y-55077407D01*
X83145301Y-55069600D01*
X83166216Y-55063366D01*
X83182482Y-55059127D01*
X83194326Y-55055832D01*
X83206824Y-55051223D01*
X83215932Y-55046632D01*
X83216397Y-55046329D01*
X83228794Y-55038568D01*
X83241125Y-55031659D01*
X83254092Y-55025374D01*
X83268393Y-55019484D01*
X83284729Y-55013762D01*
X83303800Y-55007980D01*
X83326306Y-55001908D01*
X83352948Y-54995320D01*
X83384424Y-54987987D01*
X83421436Y-54979681D01*
X83428064Y-54978209D01*
X83496328Y-54962687D01*
X83559658Y-54947554D01*
X83619304Y-54932476D01*
X83676521Y-54917117D01*
X83732561Y-54901142D01*
X83788676Y-54884215D01*
X83846121Y-54866002D01*
X83854479Y-54863311D01*
X83918346Y-54843993D01*
X83983168Y-54826641D01*
X84050283Y-54810942D01*
X84121031Y-54796578D01*
X84196750Y-54783234D01*
X84207857Y-54781420D01*
X84228364Y-54778185D01*
X84247370Y-54775407D01*
X84265527Y-54773052D01*
X84283490Y-54771087D01*
X84301915Y-54769477D01*
X84321454Y-54768190D01*
X84342762Y-54767191D01*
X84366495Y-54766448D01*
X84393305Y-54765926D01*
X84423847Y-54765593D01*
X84458777Y-54765413D01*
X84498747Y-54765355D01*
X84544413Y-54765384D01*
X84554382Y-54765396D01*
X84599485Y-54765476D01*
X84639056Y-54765622D01*
X84673773Y-54765888D01*
X84704314Y-54766325D01*
X84731358Y-54766988D01*
X84755584Y-54767928D01*
X84777670Y-54769199D01*
X84798294Y-54770853D01*
X84818136Y-54772942D01*
X84837874Y-54775520D01*
X84858186Y-54778640D01*
X84879752Y-54782353D01*
X84903248Y-54786714D01*
X84929355Y-54791774D01*
X84958750Y-54797586D01*
X84975474Y-54800919D01*
X85039347Y-54813948D01*
X85097385Y-54826303D01*
X85149964Y-54838074D01*
X85197457Y-54849353D01*
X85240239Y-54860230D01*
X85278684Y-54870798D01*
X85313166Y-54881147D01*
X85344060Y-54891368D01*
X85347985Y-54892730D01*
X85362048Y-54897554D01*
X85381223Y-54904080D01*
X85404851Y-54912084D01*
X85432274Y-54921346D01*
X85462834Y-54931642D01*
X85495872Y-54942752D01*
X85530731Y-54954453D01*
X85566751Y-54966524D01*
X85603275Y-54978743D01*
X85620740Y-54984581D01*
X85663472Y-54998874D01*
X85700881Y-55011407D01*
X85733480Y-55022359D01*
X85761778Y-55031907D01*
X85786289Y-55040230D01*
X85807522Y-55047506D01*
X85825989Y-55053913D01*
X85842202Y-55059630D01*
X85856672Y-55064834D01*
X85869911Y-55069705D01*
X85882429Y-55074419D01*
X85894738Y-55079156D01*
X85907350Y-55084094D01*
X85920775Y-55089410D01*
X85927745Y-55092190D01*
X85956967Y-55104114D01*
X85984152Y-55115736D01*
X86010115Y-55127481D01*
X86035669Y-55139775D01*
X86061626Y-55153042D01*
X86088800Y-55167707D01*
X86118004Y-55184196D01*
X86150052Y-55202932D01*
X86185756Y-55224342D01*
X86225931Y-55248849D01*
X86263316Y-55271671D01*
X86303733Y-55295987D01*
X86342434Y-55318826D01*
X86360005Y-55328973D01*
X86380902Y-55341041D01*
G36*
X86380902Y-55341041D02*
G01*
X86420619Y-55363489D01*
X86463070Y-55387025D01*
X86509738Y-55412504D01*
X86528755Y-55422859D01*
X86552563Y-55435907D01*
X86575913Y-55448788D01*
X86597523Y-55460792D01*
X86616110Y-55471208D01*
X86630388Y-55479324D01*
X86637082Y-55483170D01*
X86663999Y-55498502D01*
X86690308Y-55513240D01*
X86718096Y-55528548D01*
X86749450Y-55545585D01*
X86756592Y-55549452D01*
X86775089Y-55559546D01*
X86788514Y-55567020D01*
X86797289Y-55572113D01*
X86801838Y-55575063D01*
X86803800Y-55576370D01*
X86810458Y-55580339D01*
X86819300Y-55585316D01*
X86822646Y-55587152D01*
X86840735Y-55597105D01*
X86854255Y-55604604D01*
X86864080Y-55610150D01*
X86871083Y-55614240D01*
X86876137Y-55617374D01*
X86880116Y-55620049D01*
X86880529Y-55620337D01*
X86886709Y-55624311D01*
X86890176Y-55625949D01*
X86890183Y-55625950D01*
X86893443Y-55627510D01*
X86901015Y-55631697D01*
X86911778Y-55637879D01*
X86924611Y-55645420D01*
X86927258Y-55646988D01*
X86949171Y-55659620D01*
X86966620Y-55668926D01*
X86980254Y-55675208D01*
X86990726Y-55678769D01*
X86998688Y-55679913D01*
X87006819Y-55680971D01*
X87016150Y-55684184D01*
X87021064Y-55686774D01*
X87030741Y-55691831D01*
X87041550Y-55697448D01*
X87049014Y-55701452D01*
X87061479Y-55708596D01*
X87071713Y-55714967D01*
X87072219Y-55715301D01*
X87080374Y-55720213D01*
X87092511Y-55727024D01*
X87107076Y-55734876D01*
X87122513Y-55742915D01*
X87124296Y-55743833D01*
X87142223Y-55753554D01*
X87162693Y-55765346D01*
X87183318Y-55777806D01*
X87201711Y-55789528D01*
X87218566Y-55800282D01*
X87234927Y-55809871D01*
X87248146Y-55816649D01*
X87257273Y-55820091D01*
X87257469Y-55820137D01*
X87267792Y-55823392D01*
X87280855Y-55828544D01*
X87293880Y-55834501D01*
X87295387Y-55835245D01*
X87310560Y-55841923D01*
X87322436Y-55845096D01*
X87332681Y-55845017D01*
X87342960Y-55841939D01*
X87344748Y-55841101D01*
X87349592Y-55837706D01*
X87354835Y-55832101D01*
X87360954Y-55823588D01*
X87368423Y-55811465D01*
X87377716Y-55795031D01*
X87389310Y-55773587D01*
X87391928Y-55768770D01*
X87401447Y-55752215D01*
X87411769Y-55735361D01*
X87421079Y-55721200D01*
X87425987Y-55714062D01*
X87434810Y-55700676D01*
X87442355Y-55688101D01*
X87449052Y-55675349D01*
X87455331Y-55661430D01*
X87461620Y-55645355D01*
X87468348Y-55626137D01*
X87475944Y-55602785D01*
X87484839Y-55574311D01*
X87486149Y-55570062D01*
X87503293Y-55512380D01*
X87519389Y-55454150D01*
X87534664Y-55394406D01*
X87549348Y-55332182D01*
X87563669Y-55266514D01*
X87577855Y-55196435D01*
X87592134Y-55120980D01*
X87597557Y-55090434D01*
X87605166Y-55044618D01*
X87613077Y-54993953D01*
X87621179Y-54939287D01*
X87629367Y-54881467D01*
X87637532Y-54821342D01*
X87645565Y-54759759D01*
X87653359Y-54697568D01*
X87660807Y-54635615D01*
X87667800Y-54574750D01*
X87674230Y-54515821D01*
X87679989Y-54459674D01*
X87684970Y-54407160D01*
X87689065Y-54359125D01*
X87693375Y-54302597D01*
X87697773Y-54239942D01*
X87701919Y-54175784D01*
X87705774Y-54110906D01*
X87709303Y-54046091D01*
X87712468Y-53982120D01*
X87715233Y-53919776D01*
X87717562Y-53859840D01*
X87719418Y-53803096D01*
X87720765Y-53750325D01*
X87721565Y-53702309D01*
X87721782Y-53659831D01*
X87721772Y-53648902D01*
X87721849Y-53625603D01*
X87722051Y-53604822D01*
X87722362Y-53587324D01*
X87722766Y-53573877D01*
X87723247Y-53565247D01*
X87723791Y-53562200D01*
X87724699Y-53562568D01*
X87728770Y-53567156D01*
X87734715Y-53576202D01*
X87742030Y-53588714D01*
X87750206Y-53603699D01*
X87758737Y-53620164D01*
X87767117Y-53637116D01*
X87774838Y-53653562D01*
X87781394Y-53668509D01*
X87786278Y-53680964D01*
X87788983Y-53689935D01*
X87789108Y-53690519D01*
X87792786Y-53703753D01*
X87798237Y-53719204D01*
X87804330Y-53733650D01*
X87805991Y-53737274D01*
X87812617Y-53752897D01*
X87819489Y-53770532D01*
X87825359Y-53787014D01*
X87826690Y-53790940D01*
X87833050Y-53808566D01*
X87840147Y-53826910D01*
X87846679Y-53842577D01*
X87852147Y-53855191D01*
X87863787Y-53883099D01*
X87876166Y-53913930D01*
X87888478Y-53945628D01*
X87899919Y-53976139D01*
X87909682Y-54003407D01*
X87911070Y-54007362D01*
X87918473Y-54027477D01*
X87927302Y-54050280D01*
X87936568Y-54073257D01*
X87945280Y-54093895D01*
X87955526Y-54117633D01*
X87974181Y-54162033D01*
X87990382Y-54202278D01*
X88003988Y-54238009D01*
X88014862Y-54268868D01*
X88022863Y-54294494D01*
X88027848Y-54311034D01*
X88035711Y-54335144D01*
X88045133Y-54362523D01*
X88055610Y-54391763D01*
X88066637Y-54421460D01*
X88077707Y-54450206D01*
X88088315Y-54476595D01*
X88091526Y-54484548D01*
X88095899Y-54495863D01*
X88100949Y-54509449D01*
X88106865Y-54525841D01*
X88113835Y-54545577D01*
X88122050Y-54569193D01*
X88131698Y-54597225D01*
X88142969Y-54630211D01*
X88156052Y-54668687D01*
X88163412Y-54689967D01*
X88171626Y-54712987D01*
X88179785Y-54735211D01*
X88187248Y-54754893D01*
X88193373Y-54770287D01*
X88199393Y-54785224D01*
X88206532Y-54803797D01*
X88212938Y-54821309D01*
X88217718Y-54835375D01*
X88218330Y-54837293D01*
X88223631Y-54853521D01*
X88229321Y-54870406D01*
X88234270Y-54884587D01*
X88236340Y-54890520D01*
X88240676Y-54903356D01*
X88246301Y-54920315D01*
X88252842Y-54940265D01*
X88259928Y-54962071D01*
X88267185Y-54984600D01*
X88273033Y-55002709D01*
X88279557Y-55022587D01*
X88285357Y-55039913D01*
X88290136Y-55053812D01*
X88293596Y-55063407D01*
X88295439Y-55067824D01*
X88297055Y-55071248D01*
X88300473Y-55080991D01*
X88305122Y-55096404D01*
X88311053Y-55117660D01*
X88318319Y-55144937D01*
X88321155Y-55157290D01*
X88323340Y-55169974D01*
X88324196Y-55179418D01*
X88324258Y-55180679D01*
X88325730Y-55189358D01*
X88328866Y-55202148D01*
X88333268Y-55217536D01*
X88338538Y-55234007D01*
X88340156Y-55238837D01*
X88345132Y-55254201D01*
X88349155Y-55267382D01*
X88351845Y-55277109D01*
X88352826Y-55282110D01*
X88352849Y-55282618D01*
X88353780Y-55288725D01*
X88355864Y-55299412D01*
X88358828Y-55313328D01*
X88362396Y-55329120D01*
X88364198Y-55336935D01*
X88382810Y-55423756D01*
X88399960Y-55515101D01*
X88415390Y-55609399D01*
X88428841Y-55705080D01*
X88440055Y-55800575D01*
X88441129Y-55811193D01*
X88442981Y-55830698D01*
X88445180Y-55854870D01*
X88447645Y-55882742D01*
X88450293Y-55913347D01*
X88453044Y-55945717D01*
X88455816Y-55978884D01*
X88458528Y-56011883D01*
X88461098Y-56043745D01*
X88463446Y-56073502D01*
X88465490Y-56100189D01*
X88467149Y-56122837D01*
X88468969Y-56151886D01*
X88471098Y-56197481D01*
X88472709Y-56247408D01*
X88473805Y-56300499D01*
X88474384Y-56355586D01*
X88474448Y-56411501D01*
X88473997Y-56467074D01*
X88473030Y-56521137D01*
X88471548Y-56572523D01*
X88469551Y-56620062D01*
X88467040Y-56662587D01*
X88465073Y-56689056D01*
X88458710Y-56760152D01*
X88450690Y-56833543D01*
X88441172Y-56908269D01*
X88430318Y-56983370D01*
X88418286Y-57057885D01*
X88408970Y-57109979D01*
X88405238Y-57130855D01*
X88391333Y-57201319D01*
X88376731Y-57268317D01*
X88361592Y-57330889D01*
X88346077Y-57388075D01*
X88341618Y-57403189D01*
X88332282Y-57433490D01*
X88321669Y-57466584D01*
X88310438Y-57500472D01*
X88299243Y-57533156D01*
X88288740Y-57562639D01*
X88280149Y-57585810D01*
X88269514Y-57613358D01*
X88258687Y-57639965D01*
X88247375Y-57666202D01*
X88235286Y-57692643D01*
X88222128Y-57719859D01*
X88207607Y-57748425D01*
X88191432Y-57778912D01*
X88173310Y-57811893D01*
X88152949Y-57847941D01*
X88130056Y-57887629D01*
X88104340Y-57931528D01*
X88075506Y-57980212D01*
X88074422Y-57982035D01*
X88057374Y-58010720D01*
X88039509Y-58040809D01*
X88021506Y-58071159D01*
X88004041Y-58100626D01*
X87987793Y-58128068D01*
X87973439Y-58152340D01*
X87961656Y-58172300D01*
X87952779Y-58187203D01*
X87940042Y-58208030D01*
X87928448Y-58226336D01*
X87918488Y-58241366D01*
X87910653Y-58252367D01*
X87905434Y-58258584D01*
X87901336Y-58262231D01*
X87890667Y-58269436D01*
X87877865Y-58274792D01*
X87861886Y-58278578D01*
X87841687Y-58281075D01*
X87816223Y-58282564D01*
X87805459Y-58282916D01*
X87786919Y-58283069D01*
X87771154Y-58282327D01*
X87755786Y-58280538D01*
X87738435Y-58277548D01*
X87732060Y-58276385D01*
X87714176Y-58273425D01*
X87693049Y-58270232D01*
X87670804Y-58267121D01*
X87649563Y-58264405D01*
X87642922Y-58263601D01*
X87619049Y-58260654D01*
X87593488Y-58257432D01*
X87568905Y-58254271D01*
X87547963Y-58251511D01*
X87546195Y-58251273D01*
X87500402Y-58245097D01*
X87460398Y-58239622D01*
X87425688Y-58234751D01*
X87395779Y-58230385D01*
X87370178Y-58226428D01*
X87348391Y-58222782D01*
X87329926Y-58219350D01*
X87314288Y-58216035D01*
X87300984Y-58212738D01*
X87289521Y-58209363D01*
X87279406Y-58205813D01*
X87270144Y-58201989D01*
X87261244Y-58197795D01*
X87252210Y-58193133D01*
X87248348Y-58191057D01*
X87238692Y-58185894D01*
X87231605Y-58182968D01*
X87226072Y-58182787D01*
X87221079Y-58185860D01*
X87215610Y-58192694D01*
X87208651Y-58203797D01*
X87199186Y-58219678D01*
X87197834Y-58221942D01*
X87189716Y-58236204D01*
X87184629Y-58246867D01*
X87181999Y-58255321D01*
X87181250Y-58262952D01*
X87181049Y-58268627D01*
X87179403Y-58275096D01*
X87175044Y-58280903D01*
X87166731Y-58288207D01*
X87160612Y-58293666D01*
X87153347Y-58301497D01*
X87149357Y-58307613D01*
X87149344Y-58307649D01*
X87146471Y-58313189D01*
X87140824Y-58322635D01*
X87133213Y-58334675D01*
X87124449Y-58347993D01*
X87118590Y-58356553D01*
X87107875Y-58370946D01*
X87099422Y-58380227D01*
X87092882Y-58384804D01*
X87088055Y-58387614D01*
X87079521Y-58394653D01*
X87071191Y-58403439D01*
X87063326Y-58412891D01*
X87052756Y-58425515D01*
X87041547Y-58438838D01*
X87030485Y-58451931D01*
X87020355Y-58463866D01*
X87011944Y-58473716D01*
X87006037Y-58480553D01*
X87003421Y-58483450D01*
X87002373Y-58484429D01*
X86996454Y-58490942D01*
X86988087Y-58501018D01*
X86978251Y-58513392D01*
X86967924Y-58526798D01*
X86958084Y-58539972D01*
X86949711Y-58551649D01*
X86943782Y-58560562D01*
X86918183Y-58597590D01*
X86884671Y-58636041D01*
X86847125Y-58669870D01*
X86842260Y-58674051D01*
X86831141Y-58685069D01*
X86819290Y-58698287D01*
X86808566Y-58711690D01*
X86802358Y-58719968D01*
X86793467Y-58731598D01*
X86786009Y-58741098D01*
X86781146Y-58746975D01*
X86777853Y-58750758D01*
X86770692Y-58759162D01*
X86761549Y-58770013D01*
X86751616Y-58781900D01*
X86743997Y-58790767D01*
X86731522Y-58804689D01*
X86716806Y-58820656D01*
X86701091Y-58837321D01*
X86685623Y-58853337D01*
X86671631Y-58867722D01*
X86657869Y-58882061D01*
X86645725Y-58894903D01*
X86636148Y-58905242D01*
X86630090Y-58912075D01*
X86623683Y-58919402D01*
X86608579Y-58935377D01*
X86589059Y-58954784D01*
X86565469Y-58977284D01*
X86538157Y-59002533D01*
X86536595Y-59003958D01*
X86521474Y-59017850D01*
X86505750Y-59032426D01*
X86491193Y-59046037D01*
X86479575Y-59057037D01*
X86473743Y-59062585D01*
X86461607Y-59073960D01*
X86450330Y-59084332D01*
X86441761Y-59091992D01*
X86437050Y-59096123D01*
X86428700Y-59103653D01*
X86419958Y-59111847D01*
X86410394Y-59121153D01*
X86399575Y-59132018D01*
X86387068Y-59144889D01*
X86372440Y-59160212D01*
X86355259Y-59178435D01*
X86335093Y-59200005D01*
X86311508Y-59225369D01*
X86291759Y-59246681D01*
X86284074Y-59254975D01*
X86263387Y-59277200D01*
X86234865Y-59307527D01*
X86204111Y-59339927D01*
X86171720Y-59373790D01*
X86138289Y-59408504D01*
X86104414Y-59443458D01*
X86070691Y-59478042D01*
X86037717Y-59511644D01*
X86006088Y-59543653D01*
X85976400Y-59573458D01*
X85949249Y-59600447D01*
X85925231Y-59624011D01*
X85904944Y-59643537D01*
X85853462Y-59690301D01*
X85793704Y-59740327D01*
X85728759Y-59790820D01*
X85659167Y-59841413D01*
X85585467Y-59891737D01*
X85508199Y-59941426D01*
X85427901Y-59990111D01*
X85345113Y-60037424D01*
X85260375Y-60082998D01*
X85246457Y-60090252D01*
X85202412Y-60113197D01*
X85163203Y-60133570D01*
X85128213Y-60151650D01*
X85119125Y-60156302D01*
X85096828Y-60167716D01*
X85068430Y-60182047D01*
X85042405Y-60194921D01*
X85018135Y-60206618D01*
X84995005Y-60217417D01*
X84972399Y-60227595D01*
X84949701Y-60237433D01*
X84926296Y-60247210D01*
X84901566Y-60257203D01*
X84874896Y-60267692D01*
X84845671Y-60278956D01*
X84813274Y-60291273D01*
X84777089Y-60304923D01*
X84736500Y-60320184D01*
X84682176Y-60340534D01*
X84627061Y-60361017D01*
X84577186Y-60379367D01*
X84532635Y-60395555D01*
X84493488Y-60409552D01*
X84459827Y-60421329D01*
X84431733Y-60430858D01*
X84409288Y-60438110D01*
X84392574Y-60443056D01*
X84381671Y-60445666D01*
X84379298Y-60446027D01*
X84367682Y-60446928D01*
X84353065Y-60447186D01*
X84338038Y-60446738D01*
X84327586Y-60446015D01*
X84307976Y-60444243D01*
X84284874Y-60441782D01*
X84259096Y-60438747D01*
X84231460Y-60435258D01*
X84202783Y-60431432D01*
X84173880Y-60427387D01*
X84145569Y-60423240D01*
X84118666Y-60419111D01*
X84093988Y-60415115D01*
X84072352Y-60411373D01*
X84054574Y-60408000D01*
X84041472Y-60405116D01*
X84033861Y-60402838D01*
X84027538Y-60399721D01*
X84016032Y-60393335D01*
X84000794Y-60384451D01*
X83982669Y-60373591D01*
X83962501Y-60361280D01*
X83941136Y-60348042D01*
X83919419Y-60334401D01*
X83898193Y-60320880D01*
X83878303Y-60308003D01*
X83860595Y-60296294D01*
X83845913Y-60286277D01*
X83841268Y-60283021D01*
X83819606Y-60267563D01*
X83794713Y-60249445D01*
X83767641Y-60229459D01*
X83739441Y-60208396D01*
X83711162Y-60187049D01*
X83683857Y-60166211D01*
X83658575Y-60146674D01*
X83636369Y-60129229D01*
X83618288Y-60114670D01*
X83608104Y-60106284D01*
X83588668Y-60089880D01*
X84018962Y-60089880D01*
X84019031Y-60091331D01*
X84021234Y-60101237D01*
X84026030Y-60114656D01*
X84032721Y-60130069D01*
X84040607Y-60145955D01*
X84048991Y-60160795D01*
X84057176Y-60173069D01*
X84067430Y-60185449D01*
X84080362Y-60199065D01*
X84092716Y-60210392D01*
X84105546Y-60220000D01*
X84126572Y-60233031D01*
X84149385Y-60244717D01*
X84171889Y-60254014D01*
X84191988Y-60259877D01*
X84195658Y-60260579D01*
X84214861Y-60262936D01*
X84237931Y-60264183D01*
X84262934Y-60264339D01*
X84287933Y-60263425D01*
X84310994Y-60261461D01*
X84330183Y-60258465D01*
X84340614Y-60256082D01*
X84379582Y-60243542D01*
X84414649Y-60226063D01*
X84418412Y-60223644D01*
X84430948Y-60214019D01*
X84444369Y-60201911D01*
X84457150Y-60188845D01*
X84467767Y-60176349D01*
X84474693Y-60165949D01*
X84479681Y-60156302D01*
X84450496Y-60124649D01*
X84445267Y-60119046D01*
X84420517Y-60094351D01*
X84396586Y-60073421D01*
X84374210Y-60056862D01*
X84354125Y-60045278D01*
X84344405Y-60040886D01*
X84329959Y-60034720D01*
X84313412Y-60027916D01*
X84296763Y-60021307D01*
X84258663Y-60006500D01*
X84196750Y-60007070D01*
X84188967Y-60007138D01*
X84165881Y-60007374D01*
X84147692Y-60007825D01*
X84133279Y-60008777D01*
X84121516Y-60010514D01*
X84111280Y-60013322D01*
X84101447Y-60017486D01*
X84090893Y-60023291D01*
X84078496Y-60031021D01*
X84063131Y-60040962D01*
X84053039Y-60047705D01*
X84037339Y-60059640D01*
X84026783Y-60070252D01*
X84020836Y-60080135D01*
X84018962Y-60089880D01*
X83588668Y-60089880D01*
X83556930Y-60063092D01*
X83506991Y-60019082D01*
X83457337Y-59973360D01*
X83407013Y-59925035D01*
X83355069Y-59873214D01*
X83300550Y-59817004D01*
X83278054Y-59793518D01*
X83217362Y-59730594D01*
X83159022Y-59670764D01*
X83103254Y-59614244D01*
X83050279Y-59561252D01*
X83000316Y-59512007D01*
X82953586Y-59466727D01*
X82910311Y-59425629D01*
X82870709Y-59388931D01*
X82835002Y-59356851D01*
X82829965Y-59352353D01*
X82815853Y-59339408D01*
X82797983Y-59322667D01*
X82776851Y-59302616D01*
X82752952Y-59279741D01*
X82726782Y-59254526D01*
X82698836Y-59227459D01*
X82678664Y-59207832D01*
X83256950Y-59207832D01*
X83258741Y-59210424D01*
X83264308Y-59216557D01*
X83272750Y-59225185D01*
X83283144Y-59235338D01*
X83312717Y-59263036D01*
X83352290Y-59298632D01*
X83395789Y-59336393D01*
X83442417Y-59375671D01*
X83491381Y-59415813D01*
X83541884Y-59456171D01*
X83593131Y-59496093D01*
X83644329Y-59534928D01*
X83694680Y-59572027D01*
X83731130Y-59598188D01*
X83766896Y-59623158D01*
X83799388Y-59644970D01*
X83829418Y-59664126D01*
X83857798Y-59681128D01*
X83885341Y-59696476D01*
X83912859Y-59710673D01*
X83941163Y-59724219D01*
X83954841Y-59730395D01*
X83967872Y-59735995D01*
X83978087Y-59740083D01*
X83984025Y-59742052D01*
X83987195Y-59742145D01*
X83996849Y-59740014D01*
X84011600Y-59734840D01*
X84031650Y-59726558D01*
X84056737Y-59716300D01*
X84088658Y-59705333D01*
X84119875Y-59697330D01*
X84151315Y-59692238D01*
X84183908Y-59690005D01*
X84218584Y-59690576D01*
X84256269Y-59693898D01*
X84297894Y-59699919D01*
X84344388Y-59708584D01*
X84362470Y-59712216D01*
X84394858Y-59718510D01*
X84422896Y-59723568D01*
X84447807Y-59727542D01*
X84470813Y-59730583D01*
X84493135Y-59732846D01*
X84515997Y-59734481D01*
X84540619Y-59735641D01*
X84568225Y-59736479D01*
X84584429Y-59736814D01*
X84605141Y-59737003D01*
X84625667Y-59736858D01*
X84647092Y-59736345D01*
X84670501Y-59735425D01*
X84696980Y-59734062D01*
X84727614Y-59732220D01*
X84763488Y-59729860D01*
X84787941Y-59728187D01*
X84828880Y-59725270D01*
X84864353Y-59722544D01*
X84894931Y-59719933D01*
X84921184Y-59717363D01*
X84943683Y-59714755D01*
X84962998Y-59712036D01*
X84979699Y-59709127D01*
X84994357Y-59705954D01*
X85007542Y-59702440D01*
X85019825Y-59698509D01*
X85031775Y-59694086D01*
X85036857Y-59691909D01*
X85048375Y-59686541D01*
X85064354Y-59678804D01*
X85084117Y-59669048D01*
X85106987Y-59657617D01*
X85132287Y-59644861D01*
X85159340Y-59631125D01*
X85187467Y-59616757D01*
X85215992Y-59602105D01*
X85244238Y-59587516D01*
X85271527Y-59573336D01*
X85297181Y-59559913D01*
X85320524Y-59547594D01*
X85340879Y-59536727D01*
X85357568Y-59527658D01*
X85369913Y-59520736D01*
X85381559Y-59513882D01*
X85412530Y-59494295D01*
X85444680Y-59471974D01*
X85478474Y-59446548D01*
X85514376Y-59417647D01*
X85552853Y-59384901D01*
X85594370Y-59347939D01*
X85639391Y-59306392D01*
X85645911Y-59300280D01*
X85663251Y-59283953D01*
X85676528Y-59271260D01*
X85686202Y-59261695D01*
X85692730Y-59254748D01*
X85696571Y-59249913D01*
X85698181Y-59246681D01*
X85698018Y-59244544D01*
X85696541Y-59242995D01*
X85693753Y-59241171D01*
X85685764Y-59236348D01*
X85674682Y-59229906D01*
X85662013Y-59222728D01*
X85645628Y-59213184D01*
X85627932Y-59201878D01*
X85610268Y-59189390D01*
X85592118Y-59175263D01*
X85572963Y-59159041D01*
X85552287Y-59140266D01*
X85529569Y-59118482D01*
X85504293Y-59093231D01*
X85475939Y-59064056D01*
X85443989Y-59030502D01*
X85422026Y-59007460D01*
X85394422Y-58979088D01*
X85368248Y-58952840D01*
X85343902Y-58929091D01*
X85321784Y-58908215D01*
X85302291Y-58890587D01*
X85285822Y-58876580D01*
X85272776Y-58866570D01*
X85263550Y-58860932D01*
X85260048Y-58859105D01*
X85248843Y-58851206D01*
X85239738Y-58842140D01*
X85237058Y-58838848D01*
X85224561Y-58827179D01*
X85211486Y-58821323D01*
X85196973Y-58820854D01*
X85189669Y-58822227D01*
X85181239Y-58825471D01*
X85174205Y-58830926D01*
X85168209Y-58839275D01*
X85162894Y-58851199D01*
X85157901Y-58867381D01*
X85152872Y-58888504D01*
X85147450Y-58915250D01*
X85145826Y-58923218D01*
X85141164Y-58943335D01*
X85135421Y-58965448D01*
X85129004Y-58988189D01*
X85122323Y-59010194D01*
X85115785Y-59030095D01*
X85109798Y-59046527D01*
X85104771Y-59058125D01*
X85102852Y-59062728D01*
X85099194Y-59073254D01*
X85094615Y-59087688D01*
X85089515Y-59104764D01*
X85084292Y-59123212D01*
X85082185Y-59130778D01*
X85075309Y-59154631D01*
X85067669Y-59180171D01*
X85060054Y-59204786D01*
X85053253Y-59225868D01*
X85037073Y-59274549D01*
X85000293Y-59304246D01*
X84997922Y-59306162D01*
X84980665Y-59320120D01*
X84961075Y-59335994D01*
X84941384Y-59351974D01*
X84923825Y-59366249D01*
X84917679Y-59371219D01*
X84901983Y-59383657D01*
X84886714Y-59395440D01*
X84873358Y-59405431D01*
X84863397Y-59412496D01*
X84842656Y-59426438D01*
X84807835Y-59425674D01*
X84796645Y-59425561D01*
X84782152Y-59425804D01*
X84770373Y-59426445D01*
X84763123Y-59427413D01*
X84760843Y-59427941D01*
X84756681Y-59428194D01*
X84752589Y-59426642D01*
X84747521Y-59422525D01*
X84740433Y-59415085D01*
X84730280Y-59403564D01*
X84730013Y-59403258D01*
X84721479Y-59393786D01*
X84709350Y-59380732D01*
X84694469Y-59364981D01*
X84677679Y-59347421D01*
X84659823Y-59328939D01*
X84641744Y-59310421D01*
X84607200Y-59275039D01*
X84567629Y-59234024D01*
X84529616Y-59194109D01*
X84494188Y-59156373D01*
X84462370Y-59121895D01*
X84455301Y-59113903D01*
X84442524Y-59098471D01*
X84430423Y-59082785D01*
X84420882Y-59069237D01*
X84417878Y-59064896D01*
X84409855Y-59054399D01*
X84399415Y-59041643D01*
X84387282Y-59027420D01*
X84374174Y-59012523D01*
X84360814Y-58997744D01*
X84347922Y-58983875D01*
X84336219Y-58971709D01*
X84326425Y-58962037D01*
X84319263Y-58955654D01*
X84315451Y-58953350D01*
X84315283Y-58953341D01*
X84311089Y-58950655D01*
X84306219Y-58944618D01*
X84305147Y-58942950D01*
X84296455Y-58930166D01*
X84286196Y-58916052D01*
X84275236Y-58901698D01*
X84264443Y-58888191D01*
X84254686Y-58876623D01*
X84246830Y-58868081D01*
X84241743Y-58863656D01*
X84241696Y-58863628D01*
X84227684Y-58858839D01*
X84212399Y-58859136D01*
X84198300Y-58864473D01*
X84196960Y-58865366D01*
X84189024Y-58873194D01*
X84180516Y-58885885D01*
X84171258Y-58903777D01*
X84161070Y-58927211D01*
X84149775Y-58956525D01*
X84149513Y-58957236D01*
X84142406Y-58976148D01*
X84134697Y-58996054D01*
X84127299Y-59014629D01*
X84121124Y-59029550D01*
X84120302Y-59031504D01*
X84114335Y-59046940D01*
X84107650Y-59065945D01*
X84101004Y-59086290D01*
X84095157Y-59105750D01*
X84093812Y-59110480D01*
X84088535Y-59129046D01*
X84083416Y-59147057D01*
X84078981Y-59162663D01*
X84075757Y-59174012D01*
X84071838Y-59187115D01*
X84066409Y-59204077D01*
X84061152Y-59219482D01*
X84058897Y-59225647D01*
X84056021Y-59232392D01*
X84052565Y-59238356D01*
X84047911Y-59244028D01*
X84041442Y-59249895D01*
X84032538Y-59256447D01*
X84020581Y-59264173D01*
X84004954Y-59273561D01*
X83985037Y-59285101D01*
X83960213Y-59299280D01*
X83957926Y-59300585D01*
X83939660Y-59311139D01*
X83922447Y-59321297D01*
X83907411Y-59330381D01*
X83895671Y-59337715D01*
X83888350Y-59342624D01*
X83881919Y-59347118D01*
X83874569Y-59351646D01*
X83870423Y-59353400D01*
X83868025Y-59351459D01*
X83862351Y-59345172D01*
X83854168Y-59335318D01*
X83844145Y-59322709D01*
X83832956Y-59308156D01*
X83824203Y-59296851D01*
X83790337Y-59256915D01*
X83751932Y-59216875D01*
X83736261Y-59201071D01*
X83720821Y-59184819D01*
X83706714Y-59169329D01*
X83695034Y-59155802D01*
X83686874Y-59145437D01*
X83677963Y-59133288D01*
X83660453Y-59110612D01*
X83640613Y-59086401D01*
X83617671Y-59059725D01*
X83590853Y-59029653D01*
X83583083Y-59020905D01*
X83567094Y-59002230D01*
X83549896Y-58981452D01*
X83533102Y-58960532D01*
X83518321Y-58941428D01*
X83513427Y-58934983D01*
X83499118Y-58916738D01*
X83487716Y-58903211D01*
X83479402Y-58894607D01*
X83474353Y-58891132D01*
X83472070Y-58890036D01*
X83465389Y-58884717D01*
X83456811Y-58876212D01*
X83447625Y-58865747D01*
X83442593Y-58859728D01*
X83434654Y-58850725D01*
X83428634Y-58844530D01*
X83425549Y-58842225D01*
X83425334Y-58842312D01*
X83423085Y-58846079D01*
X83419467Y-58854581D01*
X83414932Y-58866690D01*
X83409932Y-58881276D01*
X83405342Y-58894910D01*
X83397460Y-58916701D01*
X83388941Y-58938024D01*
X83379254Y-58960059D01*
X83367872Y-58983987D01*
X83354267Y-59010990D01*
X83337909Y-59042250D01*
X83335514Y-59046791D01*
X83325279Y-59066722D01*
X83315693Y-59086175D01*
X83307359Y-59103879D01*
X83300878Y-59118561D01*
X83296853Y-59128950D01*
X83291159Y-59144924D01*
X83278833Y-59172509D01*
X83265139Y-59194473D01*
X83263091Y-59197285D01*
X83258700Y-59204002D01*
X83256950Y-59207832D01*
X82678664Y-59207832D01*
X82669610Y-59199023D01*
X82639600Y-59169705D01*
X82609300Y-59139990D01*
X82579207Y-59110364D01*
X82549815Y-59081313D01*
X82521621Y-59053321D01*
X82495119Y-59026874D01*
X82470806Y-59002458D01*
X82449177Y-58980558D01*
X82430727Y-58961660D01*
X82415953Y-58946250D01*
X82397225Y-58926319D01*
X82368784Y-58895381D01*
X82343446Y-58866755D01*
X82320212Y-58839211D01*
X82298079Y-58811517D01*
X82276049Y-58782443D01*
X82253121Y-58750756D01*
X82228295Y-58715225D01*
X82223699Y-58708569D01*
X82212398Y-58692246D01*
X82198362Y-58672017D01*
X82182187Y-58648737D01*
X82164466Y-58623258D01*
X82145794Y-58596438D01*
X82126765Y-58569129D01*
X82107973Y-58542187D01*
X82100177Y-58531009D01*
X82067280Y-58483648D01*
X82037809Y-58440827D01*
X82011490Y-58402070D01*
X81988051Y-58366906D01*
X81967218Y-58334861D01*
X81948718Y-58305461D01*
X81932277Y-58278233D01*
X81917623Y-58252704D01*
X81904481Y-58228400D01*
X81892578Y-58204849D01*
X81881641Y-58181577D01*
X81871397Y-58158110D01*
X81861572Y-58133976D01*
X81851893Y-58108701D01*
X81842087Y-58081812D01*
X81839130Y-58073691D01*
X81823840Y-58035178D01*
X81804943Y-57992511D01*
X81782264Y-57945287D01*
X81781064Y-57942866D01*
X81765818Y-57911513D01*
X81753328Y-57884422D01*
X81743166Y-57860460D01*
X81742666Y-57859131D01*
X82399799Y-57859131D01*
X82399930Y-57865472D01*
X82400680Y-57876432D01*
X82401941Y-57890971D01*
X82403601Y-57908049D01*
X82405550Y-57926627D01*
X82407677Y-57945664D01*
X82409873Y-57964121D01*
X82412026Y-57980958D01*
X82414026Y-57995135D01*
X82415762Y-58005612D01*
X82417871Y-58015649D01*
X82422290Y-58032702D01*
X82428272Y-58051998D01*
X82436009Y-58074022D01*
X82445687Y-58099264D01*
X82457498Y-58128210D01*
X82471631Y-58161348D01*
X82488274Y-58199165D01*
X82507616Y-58242150D01*
X82508125Y-58243269D01*
X82528252Y-58287128D01*
X82547117Y-58327093D01*
X82565146Y-58363826D01*
X82582764Y-58397989D01*
X82600394Y-58430243D01*
X82618462Y-58461249D01*
X82637394Y-58491671D01*
X82657613Y-58522168D01*
X82679545Y-58553403D01*
X82703614Y-58586037D01*
X82730245Y-58620732D01*
X82759864Y-58658150D01*
X82792895Y-58698952D01*
X82829763Y-58743800D01*
X82846413Y-58763958D01*
X82865132Y-58786656D01*
X82883188Y-58808585D01*
X82899902Y-58828921D01*
X82914598Y-58846839D01*
X82926599Y-58861516D01*
X82935226Y-58872126D01*
X82938350Y-58875968D01*
X82948704Y-58888422D01*
X82957771Y-58898919D01*
X82964667Y-58906452D01*
X82968506Y-58910012D01*
X82969452Y-58910504D01*
X82973932Y-58910718D01*
X82980408Y-58907651D01*
X82990177Y-58900748D01*
X82992812Y-58898606D01*
X83002876Y-58888908D01*
X83015060Y-58875536D01*
X83028363Y-58859742D01*
X83041783Y-58842780D01*
X83054319Y-58825903D01*
X83064970Y-58810365D01*
X83072734Y-58797419D01*
X83074317Y-58794198D01*
X83078929Y-58783454D01*
X83084880Y-58768355D01*
X83091738Y-58750043D01*
X83099071Y-58729662D01*
X83106445Y-58708354D01*
X83110632Y-58696045D01*
X83120724Y-58666876D01*
X83129589Y-58642213D01*
X83137684Y-58620917D01*
X83145469Y-58601849D01*
X83153401Y-58583868D01*
X83161939Y-58565837D01*
X83171542Y-58546615D01*
X83182979Y-58525160D01*
X83198585Y-58498555D01*
X83214761Y-58473611D01*
X83231034Y-58450907D01*
X83246933Y-58431027D01*
X83261987Y-58414552D01*
X83275724Y-58402063D01*
X83287672Y-58394144D01*
X83297360Y-58391375D01*
X83298170Y-58391436D01*
X83305456Y-58393959D01*
X83316694Y-58399791D01*
X83331017Y-58408389D01*
X83347556Y-58419212D01*
X83365444Y-58431716D01*
X83383810Y-58445359D01*
X83384888Y-58446201D01*
X83393973Y-58453954D01*
X83406479Y-58465408D01*
X83421594Y-58479781D01*
X83438501Y-58496289D01*
X83456388Y-58514147D01*
X83474438Y-58532572D01*
X83493429Y-58551985D01*
X83513205Y-58571840D01*
X83532691Y-58591084D01*
X83550868Y-58608716D01*
X83566715Y-58623740D01*
X83579213Y-58635154D01*
X83585570Y-58640796D01*
X83599852Y-58653569D01*
X83613120Y-58665558D01*
X83624120Y-58675630D01*
X83631600Y-58682648D01*
X83638423Y-58688763D01*
X83649940Y-58698270D01*
X83663534Y-58708908D01*
X83677500Y-58719316D01*
X83683380Y-58723605D01*
X83698018Y-58734687D01*
X83710793Y-58745212D01*
X83722869Y-58756283D01*
X83735408Y-58769006D01*
X83749577Y-58784485D01*
X83766538Y-58803825D01*
X83773478Y-58811713D01*
X83794210Y-58833987D01*
X83815461Y-58855108D01*
X83836359Y-58874294D01*
X83856030Y-58890767D01*
X83873601Y-58903746D01*
X83888199Y-58912453D01*
X83896098Y-58915660D01*
X83912432Y-58918123D01*
X83927599Y-58914951D01*
X83940491Y-58906275D01*
X83946532Y-58899189D01*
X83949374Y-58891822D01*
X83949925Y-58881322D01*
X83950178Y-58875671D01*
X83953452Y-58858761D01*
X83960397Y-58837462D01*
X83969997Y-58812027D01*
X83983127Y-58778066D01*
X83994935Y-58748773D01*
X84005808Y-58723322D01*
X84016130Y-58700889D01*
X84026287Y-58680648D01*
X84036662Y-58661774D01*
X84047643Y-58643440D01*
X84059613Y-58624823D01*
X84063859Y-58618588D01*
X84074520Y-58604070D01*
X84086230Y-58589348D01*
X84098189Y-58575311D01*
X84109599Y-58562846D01*
X84119660Y-58552843D01*
X84127572Y-58546190D01*
X84132537Y-58543775D01*
X84132938Y-58543803D01*
X84138892Y-58546143D01*
X84148955Y-58551867D01*
X84162379Y-58560443D01*
X84178411Y-58571340D01*
X84196304Y-58584028D01*
X84215305Y-58597976D01*
X84234666Y-58612653D01*
X84253635Y-58627528D01*
X84271462Y-58642071D01*
X84279409Y-58648587D01*
X84296607Y-58662176D01*
X84314733Y-58675982D01*
X84330975Y-58687843D01*
X84340888Y-58695267D01*
X84356064Y-58707522D01*
X84373134Y-58722037D01*
X84390660Y-58737582D01*
X84407202Y-58752930D01*
X84450693Y-58793056D01*
X84497092Y-58833025D01*
X84547264Y-58873461D01*
X84553214Y-58878165D01*
X84566272Y-58888771D01*
X84578295Y-58898873D01*
X84587275Y-58906799D01*
X84593935Y-58912750D01*
X84605159Y-58922399D01*
X84618309Y-58933429D01*
X84631725Y-58944433D01*
X84640551Y-58951779D01*
X84657398Y-58966566D01*
X84674371Y-58982244D01*
X84688875Y-58996451D01*
X84698010Y-59005476D01*
X84712666Y-59019042D01*
X84727258Y-59031663D01*
X84739675Y-59041469D01*
X84742307Y-59043415D01*
X84756043Y-59054072D01*
X84769798Y-59065417D01*
X84780950Y-59075301D01*
X84787790Y-59081646D01*
X84804369Y-59096299D01*
X84819092Y-59108281D01*
X84831131Y-59116936D01*
X84839656Y-59121612D01*
X84847071Y-59123671D01*
X84861065Y-59123331D01*
X84873147Y-59117605D01*
X84882274Y-59107130D01*
X84887399Y-59092543D01*
X84888774Y-59086447D01*
X84892559Y-59074278D01*
X84897302Y-59062143D01*
X84897407Y-59061903D01*
X84900755Y-59053121D01*
X84905337Y-59039558D01*
X84910743Y-59022511D01*
X84916562Y-59003274D01*
X84922383Y-58983141D01*
X84927383Y-58965621D01*
X84934393Y-58941573D01*
X84941529Y-58917579D01*
X84948187Y-58895662D01*
X84953765Y-58877845D01*
X84957437Y-58866297D01*
X84964241Y-58844167D01*
X84970097Y-58823776D01*
X84975411Y-58803525D01*
X84980595Y-58781815D01*
X84986056Y-58757047D01*
X84992204Y-58727624D01*
X84995551Y-58711926D01*
X85002883Y-58681088D01*
X85010595Y-58652916D01*
X85018410Y-58628321D01*
X85026048Y-58608212D01*
X85033230Y-58593500D01*
X85037424Y-58586716D01*
X85046770Y-58573696D01*
X85056110Y-58563076D01*
X85064447Y-58555921D01*
X85070786Y-58553300D01*
X85071090Y-58553306D01*
X85075951Y-58554199D01*
X85084012Y-58556748D01*
X85095788Y-58561151D01*
X85111792Y-58567609D01*
X85132537Y-58576322D01*
X85158537Y-58587490D01*
X85159126Y-58587747D01*
X85170121Y-58593019D01*
X85185864Y-58601177D01*
X85205716Y-58611853D01*
X85229034Y-58624676D01*
X85255179Y-58639276D01*
X85283510Y-58655283D01*
X85313386Y-58672327D01*
X85344166Y-58690038D01*
X85375211Y-58708046D01*
X85405878Y-58725981D01*
X85435528Y-58743473D01*
X85463519Y-58760151D01*
X85489212Y-58775646D01*
X85511965Y-58789588D01*
X85531138Y-58801607D01*
X85546090Y-58811332D01*
X85560087Y-58820749D01*
X85615882Y-58859199D01*
X85668571Y-58896987D01*
X85716808Y-58933152D01*
X85721278Y-58936492D01*
X85737824Y-58947807D01*
X85755916Y-58958986D01*
X85772371Y-58968030D01*
X85781033Y-58972507D01*
X85798546Y-58982062D01*
X85816954Y-58992601D01*
X85833463Y-59002547D01*
X85841727Y-59007633D01*
X85863224Y-59020203D01*
X85882713Y-59030656D01*
X85899401Y-59038602D01*
X85912494Y-59043654D01*
X85921199Y-59045425D01*
X85921689Y-59045416D01*
X85930489Y-59042301D01*
X85937172Y-59034991D01*
X85939825Y-59025529D01*
X85939904Y-59024862D01*
X85942546Y-59019041D01*
X85948187Y-59010402D01*
X85955796Y-59000556D01*
X85964772Y-58988809D01*
X85974243Y-58974685D01*
X85981528Y-58962028D01*
X85984261Y-58956298D01*
X85990126Y-58942973D01*
X85997436Y-58925512D01*
X86005741Y-58905040D01*
X86014593Y-58882684D01*
X86023543Y-58859569D01*
X86032141Y-58836822D01*
X86039938Y-58815569D01*
X86040990Y-58812715D01*
X86046241Y-58799998D01*
X86051555Y-58789136D01*
X86055928Y-58782223D01*
X86057102Y-58780659D01*
X86059473Y-58776608D01*
X86062381Y-58770487D01*
X86066010Y-58761803D01*
X86070543Y-58750060D01*
X86076165Y-58734765D01*
X86083060Y-58715423D01*
X86091411Y-58691539D01*
X86101401Y-58662620D01*
X86113216Y-58628172D01*
X86118885Y-58610724D01*
X86124793Y-58590857D01*
X86129894Y-58572043D01*
X86133493Y-58556734D01*
X86134254Y-58553143D01*
X86138722Y-58534587D01*
X86144140Y-58514884D01*
X86149505Y-58497737D01*
X86151118Y-58492852D01*
X86155824Y-58477416D01*
X86161189Y-58458537D01*
X86166671Y-58438162D01*
X86171725Y-58418236D01*
X86176008Y-58400906D01*
X86184898Y-58366191D01*
X86194209Y-58331635D01*
X86204368Y-58295703D01*
X86215806Y-58256861D01*
X86228951Y-58213575D01*
X86230001Y-58210153D01*
X86235159Y-58193279D01*
X86239910Y-58177622D01*
X86243765Y-58164798D01*
X86246236Y-58156425D01*
X86246362Y-58155987D01*
X86249608Y-58145506D01*
X86254049Y-58132017D01*
X86258763Y-58118325D01*
X86258905Y-58117922D01*
X86263701Y-58103854D01*
X86268242Y-58089761D01*
X86271561Y-58078637D01*
X86274064Y-58069878D01*
X86278262Y-58055820D01*
X86282515Y-58042125D01*
X86282841Y-58041086D01*
X86286503Y-58028044D01*
X86290293Y-58012418D01*
X86293927Y-57995664D01*
X86297120Y-57979237D01*
X86299587Y-57964593D01*
X86301045Y-57953188D01*
X86301209Y-57946478D01*
X86300952Y-57945458D01*
X86299334Y-57944516D01*
X86295909Y-57946491D01*
X86290118Y-57951877D01*
X86281403Y-57961170D01*
X86269205Y-57974865D01*
X86265230Y-57979370D01*
X86250591Y-57995569D01*
X86238831Y-58007674D01*
X86229088Y-58016399D01*
X86220502Y-58022457D01*
X86212210Y-58026564D01*
X86203350Y-58029431D01*
X86196088Y-58031846D01*
X86183608Y-58037257D01*
X86171600Y-58043641D01*
X86154301Y-58053592D01*
X86116629Y-58072254D01*
X86081251Y-58085365D01*
X86047858Y-58093050D01*
X86044683Y-58093560D01*
X86030469Y-58096126D01*
X86013885Y-58099428D01*
X85997899Y-58102884D01*
X85986256Y-58105347D01*
X85975505Y-58107070D01*
X85964369Y-58108094D01*
X85951359Y-58108506D01*
X85934986Y-58108393D01*
X85913761Y-58107844D01*
X85891689Y-58107000D01*
X85864183Y-58105369D01*
X85841120Y-58103269D01*
X85822977Y-58100755D01*
X85810229Y-58097884D01*
X85803350Y-58094714D01*
X85793926Y-58088280D01*
X85776591Y-58081026D01*
X85753331Y-58075014D01*
X85742045Y-58072159D01*
X85719467Y-58064161D01*
X85694567Y-58052831D01*
X85684359Y-58047834D01*
X85665004Y-58038798D01*
X85645294Y-58030034D01*
X85628214Y-58022890D01*
X85626515Y-58022213D01*
X85609100Y-58015162D01*
X85595760Y-58009374D01*
X85584778Y-58003932D01*
X85574438Y-57997922D01*
X85563021Y-57990426D01*
X85548812Y-57980529D01*
X85543489Y-57976834D01*
X85526980Y-57965859D01*
X85509606Y-57954858D01*
X85494349Y-57945736D01*
X85489838Y-57943132D01*
X85470288Y-57931045D01*
X85456099Y-57920753D01*
X85447464Y-57912408D01*
X85444574Y-57906162D01*
X85444949Y-57901235D01*
X85446758Y-57897489D01*
X85450852Y-57896333D01*
X85458080Y-57897825D01*
X85469295Y-57902024D01*
X85485345Y-57908989D01*
X85488754Y-57910484D01*
X85510902Y-57919231D01*
X85534088Y-57927011D01*
X85555048Y-57932714D01*
X85563384Y-57934670D01*
X85582006Y-57939295D01*
X85600386Y-57944144D01*
X85615541Y-57948440D01*
X85619306Y-57949535D01*
X85632992Y-57953033D01*
X85645195Y-57955480D01*
X85653641Y-57956403D01*
X85658528Y-57956789D01*
X85669547Y-57958557D01*
X85683507Y-57961431D01*
X85698525Y-57965048D01*
X85709247Y-57967751D01*
X85719864Y-57970086D01*
X85729881Y-57971684D01*
X85740688Y-57972663D01*
X85753676Y-57973145D01*
X85770233Y-57973248D01*
X85791748Y-57973094D01*
X85803470Y-57972962D01*
X85822110Y-57972623D01*
X85835994Y-57972091D01*
X85846179Y-57971264D01*
X85853717Y-57970040D01*
X85859665Y-57968316D01*
X85865078Y-57965990D01*
X85871151Y-57963328D01*
X85884036Y-57958587D01*
X85897013Y-57954665D01*
X85909493Y-57950793D01*
X85929380Y-57942972D01*
X85950230Y-57933291D01*
X85969666Y-57922876D01*
X85985312Y-57912852D01*
X85990686Y-57908843D01*
X86015260Y-57888594D01*
X86041676Y-57864147D01*
X86068943Y-57836610D01*
X86096073Y-57807088D01*
X86122075Y-57776688D01*
X86145961Y-57746517D01*
X86166740Y-57717681D01*
X86183424Y-57691287D01*
X86187729Y-57683714D01*
X86207373Y-57646602D01*
X86227144Y-57605378D01*
X86246267Y-57561795D01*
X86263963Y-57517605D01*
X86279456Y-57474564D01*
X86283704Y-57461803D01*
X86289007Y-57444732D01*
X86292816Y-57430055D01*
X86295598Y-57415587D01*
X86297819Y-57399146D01*
X86299944Y-57378550D01*
X86300258Y-57375375D01*
X87364171Y-57375375D01*
X87364238Y-57380520D01*
X87364855Y-57397693D01*
X87366276Y-57411368D01*
X87368817Y-57423810D01*
X87372792Y-57437287D01*
X87384635Y-57465992D01*
X87401554Y-57492661D01*
X87422569Y-57514654D01*
X87447475Y-57531758D01*
X87476066Y-57543763D01*
X87477826Y-57544297D01*
X87485864Y-57546396D01*
X87494438Y-57547933D01*
X87504377Y-57548923D01*
X87516508Y-57549383D01*
X87531660Y-57549328D01*
X87550662Y-57548776D01*
X87574341Y-57547741D01*
X87603525Y-57546240D01*
X87605699Y-57546122D01*
X87632091Y-57544302D01*
X87654123Y-57541786D01*
X87673643Y-57538155D01*
X87692501Y-57532992D01*
X87712544Y-57525879D01*
X87735621Y-57516399D01*
X87747925Y-57511197D01*
X87763237Y-57504898D01*
X87776603Y-57499581D01*
X87786088Y-57496027D01*
X87788315Y-57495230D01*
X87801837Y-57489952D01*
X87819721Y-57482455D01*
X87840864Y-57473219D01*
X87864165Y-57462721D01*
X87888524Y-57451442D01*
X87893514Y-57449040D01*
X87902726Y-57444123D01*
X87911585Y-57438490D01*
X87921062Y-57431390D01*
X87932128Y-57422070D01*
X87945754Y-57409777D01*
X87962910Y-57393757D01*
X87983916Y-57373715D01*
X88001309Y-57356445D01*
X88015270Y-57341606D01*
X88026517Y-57328352D01*
X88035766Y-57315838D01*
X88043731Y-57303219D01*
X88051131Y-57289650D01*
X88052500Y-57287009D01*
X88060662Y-57271877D01*
X88070066Y-57255179D01*
X88078941Y-57240072D01*
X88080558Y-57237339D01*
X88089172Y-57221154D01*
X88097361Y-57203481D01*
X88103543Y-57187685D01*
X88106829Y-57177493D01*
X88109434Y-57167605D01*
X88111248Y-57157423D01*
X88112477Y-57145434D01*
X88113324Y-57130124D01*
X88113991Y-57109979D01*
X88113786Y-57059212D01*
X88110053Y-57000441D01*
X88106350Y-56963907D01*
X88101444Y-56925802D01*
X88095781Y-56892797D01*
X88089144Y-56864220D01*
X88081316Y-56839397D01*
X88072078Y-56817656D01*
X88061214Y-56798324D01*
X88048507Y-56780728D01*
X88033738Y-56764194D01*
X88023742Y-56754677D01*
X87999281Y-56736510D01*
X87973387Y-56723843D01*
X87946712Y-56716952D01*
X87919911Y-56716112D01*
X87915353Y-56716477D01*
X87902665Y-56717387D01*
X87886123Y-56718488D01*
X87867357Y-56719673D01*
X87848000Y-56720833D01*
X87836501Y-56721559D01*
X87810472Y-56723809D01*
X87788650Y-56726837D01*
X87769494Y-56730947D01*
X87751466Y-56736445D01*
X87733024Y-56743637D01*
X87711711Y-56752691D01*
X87713198Y-56744152D01*
X87713357Y-56743198D01*
X87714535Y-56735045D01*
X87716076Y-56723215D01*
X87717690Y-56709924D01*
X87718597Y-56703122D01*
X87721024Y-56690789D01*
X87724807Y-56678139D01*
X87730511Y-56663420D01*
X87738702Y-56644883D01*
X87747424Y-56624093D01*
X87759722Y-56587865D01*
X87770832Y-56546032D01*
X87780810Y-56498375D01*
X87789713Y-56444671D01*
X87790600Y-56438984D01*
X87793520Y-56423702D01*
X87797475Y-56407688D01*
X87802833Y-56389666D01*
X87809962Y-56368361D01*
X87819231Y-56342498D01*
X87821987Y-56333168D01*
X87825474Y-56315885D01*
X87828887Y-56292593D01*
X87832254Y-56263123D01*
X87834195Y-56245482D01*
X87836875Y-56223885D01*
X87839696Y-56203597D01*
X87842422Y-56186290D01*
X87844820Y-56173637D01*
X87848131Y-56157927D01*
X87854074Y-56126679D01*
X87860211Y-56090956D01*
X87866367Y-56051933D01*
X87872368Y-56010782D01*
X87878038Y-55968678D01*
X87883201Y-55926792D01*
X87887684Y-55886300D01*
X87887761Y-55885565D01*
X87888745Y-55876329D01*
X87890221Y-55862704D01*
X87892002Y-55846406D01*
X87893902Y-55829150D01*
X87895845Y-55810944D01*
X87900727Y-55757038D01*
X87904257Y-55702697D01*
X87906637Y-55645000D01*
X87908459Y-55586262D01*
X87891307Y-55633887D01*
X87891210Y-55634155D01*
X87882722Y-55657527D01*
X87874562Y-55679530D01*
X87866433Y-55700880D01*
X87858040Y-55722292D01*
X87849087Y-55744480D01*
X87839277Y-55768158D01*
X87828315Y-55794042D01*
X87815905Y-55822846D01*
X87801750Y-55855285D01*
X87785555Y-55892073D01*
X87781753Y-55900659D01*
X87767023Y-55933925D01*
X87765396Y-55937591D01*
X87745785Y-55981836D01*
X87728548Y-56020825D01*
X87713472Y-56055055D01*
X87700344Y-56085024D01*
X87688951Y-56111229D01*
X87679081Y-56134166D01*
X87670520Y-56154334D01*
X87663057Y-56172229D01*
X87656478Y-56188350D01*
X87650571Y-56203192D01*
X87645123Y-56217255D01*
X87639921Y-56231034D01*
X87632228Y-56251008D01*
X87622515Y-56275189D01*
X87611782Y-56301117D01*
X87600870Y-56326763D01*
X87590619Y-56350096D01*
X87587537Y-56356987D01*
X87557726Y-56425631D01*
X87531684Y-56489499D01*
X87509321Y-56548827D01*
X87490542Y-56603850D01*
X87483431Y-56625987D01*
X87475617Y-56650329D01*
X87467939Y-56674263D01*
X87461001Y-56695908D01*
X87455405Y-56713387D01*
X87452710Y-56721588D01*
X87445435Y-56742464D01*
X87436866Y-56765797D01*
X87427857Y-56789290D01*
X87419260Y-56810646D01*
X87415479Y-56819935D01*
X87407035Y-56842208D01*
X87400114Y-56862709D01*
X87394934Y-56880634D01*
X87391712Y-56895180D01*
X87390668Y-56905545D01*
X87392018Y-56910925D01*
X87394754Y-56911472D01*
X87402230Y-56910927D01*
X87412336Y-56909148D01*
X87423839Y-56906656D01*
X87448161Y-56901466D01*
X87468289Y-56897326D01*
X87485637Y-56893969D01*
X87501618Y-56891128D01*
X87517646Y-56888535D01*
X87535135Y-56885923D01*
X87560443Y-56882835D01*
X87592636Y-56880334D01*
X87624851Y-56879233D01*
X87655536Y-56879544D01*
X87683142Y-56881282D01*
X87706116Y-56884459D01*
X87715907Y-56886493D01*
X87756225Y-56897855D01*
X87794064Y-56913322D01*
X87828561Y-56932432D01*
X87858850Y-56954723D01*
X87884068Y-56979730D01*
X87894478Y-56992620D01*
X87916372Y-57025895D01*
X87932712Y-57060685D01*
X87943446Y-57096444D01*
X87948523Y-57132623D01*
X87947892Y-57168676D01*
X87941502Y-57204054D01*
X87933609Y-57226150D01*
X87929302Y-57238211D01*
X87911241Y-57270600D01*
X87901491Y-57283639D01*
X87881820Y-57304869D01*
X87858218Y-57325791D01*
X87832064Y-57345319D01*
X87804737Y-57362366D01*
X87777616Y-57375847D01*
X87774057Y-57377358D01*
X87743291Y-57389574D01*
X87715752Y-57398591D01*
X87689621Y-57404756D01*
X87663079Y-57408421D01*
X87634307Y-57409932D01*
X87601486Y-57409640D01*
X87601012Y-57409626D01*
X87582130Y-57408972D01*
X87568443Y-57408234D01*
X87558823Y-57407250D01*
X87552140Y-57405855D01*
X87547264Y-57403885D01*
X87543067Y-57401178D01*
X87535696Y-57397028D01*
X87525856Y-57394526D01*
X87511786Y-57393385D01*
X87510321Y-57393321D01*
X87491537Y-57390679D01*
X87472960Y-57384376D01*
X87453737Y-57373958D01*
X87433017Y-57358968D01*
X87409946Y-57338951D01*
X87405978Y-57335309D01*
X87394217Y-57324850D01*
X87384177Y-57316403D01*
X87376817Y-57310757D01*
X87373098Y-57308700D01*
X87370206Y-57310887D01*
X87367451Y-57318983D01*
X87365493Y-57332685D01*
X87364382Y-57351609D01*
X87364171Y-57375375D01*
X86300258Y-57375375D01*
X86300677Y-57371147D01*
X86302728Y-57352598D01*
X86304904Y-57335439D01*
X86306989Y-57321316D01*
X86308763Y-57311875D01*
X86308856Y-57311476D01*
X86310608Y-57299464D01*
X86311826Y-57281271D01*
X86312510Y-57256850D01*
X86312664Y-57226150D01*
X86312645Y-57221775D01*
X86312251Y-57193243D01*
X86311244Y-57168266D01*
X86309418Y-57145479D01*
X86306563Y-57123516D01*
X86302470Y-57101012D01*
X86296933Y-57076602D01*
X86289742Y-57048919D01*
X86280689Y-57016600D01*
X86280673Y-57016544D01*
X86273516Y-56990524D01*
X86265936Y-56961182D01*
X86258506Y-56930865D01*
X86251804Y-56901920D01*
X86246402Y-56876694D01*
X86240830Y-56850106D01*
X86232668Y-56815309D01*
X86223946Y-56783801D01*
X86214232Y-56754714D01*
X86203096Y-56727176D01*
X86190105Y-56700320D01*
X86174828Y-56673275D01*
X86156834Y-56645172D01*
X86135692Y-56615140D01*
X86110969Y-56582312D01*
X86082234Y-56545816D01*
X86078177Y-56540749D01*
X86055091Y-56512223D01*
X86034947Y-56487969D01*
X86017068Y-56467236D01*
X86000779Y-56449275D01*
X85985403Y-56433338D01*
X85970264Y-56418675D01*
X85954685Y-56404538D01*
X85934582Y-56387046D01*
X85903189Y-56360931D01*
X85873845Y-56338404D01*
X85845509Y-56318903D01*
X85817138Y-56301867D01*
X85787691Y-56286733D01*
X85756127Y-56272940D01*
X85721402Y-56259927D01*
X85682476Y-56247131D01*
X85638306Y-56233992D01*
X85613513Y-56227090D01*
X85567176Y-56215484D01*
X85525278Y-56206985D01*
X85487104Y-56201558D01*
X85451939Y-56199171D01*
X85419067Y-56199789D01*
X85387772Y-56203378D01*
X85357338Y-56209906D01*
X85327050Y-56219338D01*
X85316390Y-56223165D01*
X85296169Y-56230607D01*
X85280486Y-56236726D01*
X85268296Y-56241957D01*
X85258559Y-56246738D01*
X85250229Y-56251505D01*
X85239921Y-56257039D01*
X85225776Y-56263363D01*
X85211743Y-56268597D01*
X85182439Y-56279396D01*
X85152955Y-56293727D01*
X85128613Y-56309993D01*
X85127760Y-56310662D01*
X85114971Y-56320047D01*
X85099943Y-56330229D01*
X85085750Y-56339117D01*
X85076683Y-56344607D01*
X85058339Y-56356330D01*
X85039821Y-56368848D01*
X85022546Y-56381167D01*
X85007930Y-56392291D01*
X84997390Y-56401223D01*
X84989918Y-56407589D01*
X84978459Y-56416299D01*
X84966688Y-56424396D01*
X84952590Y-56434384D01*
X84936846Y-56447735D01*
X84923393Y-56461513D01*
X84913330Y-56474571D01*
X84907758Y-56485764D01*
X84905451Y-56491473D01*
X84899921Y-56502509D01*
X84892007Y-56516985D01*
X84882320Y-56533869D01*
X84871475Y-56552132D01*
X84860084Y-56570744D01*
X84848761Y-56588676D01*
X84838120Y-56604897D01*
X84828773Y-56618379D01*
X84825668Y-56622731D01*
X84815862Y-56637066D01*
X84804486Y-56654526D01*
X84791160Y-56675716D01*
X84775501Y-56701240D01*
X84757127Y-56731702D01*
X84756017Y-56733574D01*
X84748011Y-56747929D01*
X84738724Y-56765695D01*
X84729220Y-56784791D01*
X84720563Y-56803140D01*
X84720333Y-56803643D01*
X84711155Y-56823653D01*
X84700865Y-56845904D01*
X84690706Y-56867720D01*
X84681918Y-56886425D01*
X84680713Y-56888987D01*
X84673550Y-56904874D01*
X84667294Y-56919787D01*
X84662582Y-56932152D01*
X84660051Y-56940400D01*
X84658493Y-56946805D01*
X84655162Y-56959088D01*
X84650870Y-56974003D01*
X84646165Y-56989612D01*
X84642985Y-57000391D01*
X84638247Y-57018154D01*
X84634283Y-57034989D01*
X84631718Y-57048350D01*
X84631705Y-57048434D01*
X84629302Y-57060947D01*
X84625485Y-57077367D01*
X84620777Y-57095571D01*
X84615700Y-57113437D01*
X84610619Y-57130911D01*
X84605214Y-57150447D01*
X84600417Y-57168702D01*
X84596871Y-57183287D01*
X84592618Y-57202034D01*
X84587052Y-57226463D01*
X84581759Y-57249578D01*
X84576963Y-57270403D01*
X84572891Y-57287961D01*
X84569766Y-57301277D01*
X84567814Y-57309374D01*
X84565859Y-57314196D01*
X84560168Y-57323506D01*
X84550730Y-57336450D01*
X84537318Y-57353333D01*
X84519706Y-57374462D01*
X84505369Y-57391543D01*
X84486989Y-57413779D01*
X84468139Y-57436883D01*
X84450362Y-57458966D01*
X84435198Y-57478137D01*
X84433195Y-57480695D01*
X84414765Y-57503534D01*
X84398775Y-57521586D01*
X84384370Y-57535392D01*
X84370698Y-57545488D01*
X84356906Y-57552414D01*
X84342143Y-57556708D01*
X84325554Y-57558909D01*
X84306288Y-57559555D01*
X84300440Y-57559622D01*
X84287995Y-57560133D01*
X84278506Y-57561034D01*
X84273670Y-57562187D01*
X84267094Y-57563857D01*
X84256036Y-57561953D01*
X84242333Y-57556265D01*
X84226896Y-57547263D01*
X84210637Y-57535420D01*
X84194467Y-57521208D01*
X84183011Y-57510933D01*
X84169376Y-57499921D01*
X84157063Y-57491065D01*
X84135153Y-57474790D01*
X84110011Y-57451953D01*
X84084544Y-57424788D01*
X84059592Y-57394199D01*
X84035995Y-57361087D01*
X84035085Y-57359679D01*
X84029102Y-57349284D01*
X84021234Y-57334284D01*
X84011912Y-57315613D01*
X84001564Y-57294208D01*
X83990617Y-57271004D01*
X83979501Y-57246936D01*
X83968644Y-57222940D01*
X83958475Y-57199952D01*
X83949422Y-57178905D01*
X83941913Y-57160737D01*
X83936378Y-57146383D01*
X83933244Y-57136777D01*
X83933224Y-57136702D01*
X83930349Y-57128429D01*
X83925222Y-57116205D01*
X83918563Y-57101667D01*
X83911091Y-57086450D01*
X83902941Y-57070077D01*
X83885315Y-57031940D01*
X83868605Y-56991681D01*
X83852572Y-56948599D01*
X83836975Y-56901994D01*
X83821575Y-56851164D01*
X83806130Y-56795408D01*
X83790402Y-56734025D01*
X83785085Y-56712603D01*
X83779033Y-56688333D01*
X83773081Y-56664563D01*
X83767703Y-56643180D01*
X83763369Y-56626075D01*
X83758745Y-56607158D01*
X83754167Y-56587088D01*
X83750188Y-56568358D01*
X83747336Y-56553361D01*
X83746482Y-56548555D01*
X83743216Y-56532205D01*
X83739611Y-56516456D01*
X83736303Y-56504149D01*
X83734562Y-56498178D01*
X83730769Y-56484101D01*
X83726611Y-56467655D01*
X83722719Y-56451290D01*
X83721927Y-56447836D01*
X83718105Y-56431881D01*
X83714579Y-56420033D01*
X83710445Y-56410524D01*
X83704795Y-56401587D01*
X83696723Y-56391454D01*
X83685323Y-56378357D01*
X83669580Y-56361340D01*
X83638742Y-56331656D01*
X83604845Y-56302908D01*
X83569392Y-56276268D01*
X83533889Y-56252906D01*
X83499838Y-56233992D01*
X83465437Y-56218690D01*
X83422278Y-56204753D01*
X83379722Y-56197078D01*
X83337539Y-56195660D01*
X83295497Y-56200494D01*
X83253365Y-56211577D01*
X83210913Y-56228905D01*
X83201831Y-56233548D01*
X83183521Y-56243974D01*
X83161591Y-56257441D01*
X83136870Y-56273376D01*
X83110186Y-56291203D01*
X83082370Y-56310351D01*
X83054251Y-56330243D01*
X83026658Y-56350308D01*
X83000420Y-56369970D01*
X82976366Y-56388656D01*
X82955325Y-56405791D01*
X82928774Y-56429388D01*
X82888285Y-56470443D01*
X82850136Y-56515315D01*
X82837717Y-56532319D01*
X82815703Y-56562463D01*
X82808467Y-56573804D01*
X82798521Y-56590381D01*
X82786997Y-56610300D01*
X82774558Y-56632355D01*
X82761871Y-56655339D01*
X82749601Y-56678045D01*
X82738414Y-56699268D01*
X82728974Y-56717801D01*
X82721948Y-56732437D01*
X82717219Y-56743269D01*
X82710368Y-56760752D01*
X82703630Y-56780290D01*
X82696907Y-56802305D01*
X82690099Y-56827220D01*
X82683108Y-56855460D01*
X82675835Y-56887447D01*
X82668180Y-56923606D01*
X82660045Y-56964360D01*
X82651330Y-57010133D01*
X82641938Y-57061348D01*
X82631768Y-57118428D01*
X82629390Y-57131962D01*
X82625397Y-57154896D01*
X82621786Y-57175996D01*
X82618396Y-57196277D01*
X82615064Y-57216754D01*
X82611629Y-57238440D01*
X82607929Y-57262352D01*
X82603802Y-57289503D01*
X82599086Y-57320909D01*
X82593619Y-57357585D01*
X82590712Y-57375522D01*
X82587574Y-57390550D01*
X82584364Y-57400931D01*
X82580854Y-57407562D01*
X82578173Y-57411374D01*
X82575956Y-57416466D01*
X82576256Y-57422380D01*
X82578860Y-57431702D01*
X82580276Y-57436845D01*
X82583127Y-57450759D01*
X82584859Y-57464275D01*
X82586354Y-57480000D01*
X82592107Y-57516268D01*
X82601364Y-57554579D01*
X82614362Y-57595836D01*
X82631339Y-57640939D01*
X82639233Y-57659202D01*
X82650703Y-57681663D01*
X82664342Y-57704044D01*
X82680836Y-57727370D01*
X82700873Y-57752666D01*
X82725138Y-57780957D01*
X82727705Y-57783959D01*
X82736250Y-57794719D01*
X82745997Y-57807792D01*
X82755300Y-57820994D01*
X82761211Y-57829264D01*
X82773504Y-57844101D01*
X82788544Y-57859308D01*
X82807688Y-57876317D01*
X82825154Y-57890482D01*
X82848146Y-57906800D01*
X82871828Y-57920643D01*
X82897332Y-57932521D01*
X82925789Y-57942948D01*
X82958332Y-57952435D01*
X82996092Y-57961493D01*
X82997429Y-57961796D01*
X83011014Y-57965327D01*
X83026974Y-57970055D01*
X83042129Y-57975045D01*
X83042834Y-57975292D01*
X83059145Y-57980600D01*
X83077010Y-57985841D01*
X83092688Y-57989913D01*
X83096372Y-57990808D01*
X83106619Y-57993728D01*
X83113230Y-57996296D01*
X83114913Y-57998043D01*
X83114326Y-57998449D01*
X83108601Y-58000660D01*
X83098359Y-58003688D01*
X83084953Y-58007202D01*
X83069736Y-58010872D01*
X83054063Y-58014370D01*
X83039288Y-58017363D01*
X83026763Y-58019524D01*
X83023158Y-58020023D01*
X83009987Y-58021538D01*
X82992966Y-58023205D01*
X82973902Y-58024852D01*
X82954599Y-58026311D01*
X82941373Y-58027178D01*
X82922916Y-58028048D01*
X82906940Y-58028138D01*
X82891706Y-58027333D01*
X82875477Y-58025522D01*
X82856517Y-58022593D01*
X82833088Y-58018431D01*
X82831063Y-58018066D01*
X82817385Y-58015870D01*
X82805002Y-58014295D01*
X82796380Y-58013660D01*
X82796022Y-58013654D01*
X82787028Y-58012698D01*
X82774650Y-58010455D01*
X82761455Y-58007389D01*
X82756740Y-58006211D01*
X82740976Y-58002702D01*
X82723082Y-57999169D01*
X82706088Y-57996222D01*
X82694996Y-57994411D01*
X82666699Y-57989239D01*
X82639623Y-57983541D01*
X82614616Y-57977543D01*
X82592521Y-57971471D01*
X82574185Y-57965551D01*
X82560454Y-57960010D01*
X82552172Y-57955073D01*
X82549342Y-57953114D01*
X82541456Y-57948461D01*
X82530335Y-57942347D01*
X82517419Y-57935579D01*
X82509320Y-57931325D01*
X82495303Y-57923509D01*
X82483058Y-57916152D01*
X82474557Y-57910411D01*
X82472172Y-57908603D01*
X82460012Y-57899548D01*
X82446745Y-57889885D01*
X82433407Y-57880343D01*
X82421035Y-57871651D01*
X82410665Y-57864539D01*
X82403333Y-57859737D01*
X82400076Y-57857975D01*
X82399799Y-57859131D01*
X81742666Y-57859131D01*
X81734902Y-57838493D01*
X81728108Y-57817388D01*
X81722356Y-57796012D01*
X81717218Y-57773230D01*
X81716407Y-57769373D01*
X81713172Y-57754347D01*
X81709099Y-57735787D01*
X81704627Y-57715690D01*
X81700197Y-57696050D01*
X81697485Y-57683937D01*
X81693707Y-57666018D01*
X81690575Y-57649233D01*
X81688020Y-57632752D01*
X81685977Y-57615741D01*
X81684376Y-57597371D01*
X81683149Y-57576808D01*
X81682230Y-57553222D01*
X81681551Y-57525781D01*
X81681043Y-57493653D01*
X81680638Y-57456007D01*
X81680509Y-57441207D01*
X81680297Y-57409507D01*
X81680242Y-57383280D01*
X81680358Y-57361905D01*
X81680657Y-57344763D01*
X81681154Y-57331234D01*
X81681863Y-57320698D01*
X81682798Y-57312533D01*
X81683971Y-57306121D01*
X81685137Y-57300653D01*
X81687456Y-57286533D01*
X81688380Y-57274956D01*
X81687856Y-57267127D01*
X81685829Y-57264250D01*
X81685010Y-57264591D01*
X81680391Y-57268270D01*
X81673083Y-57275127D01*
X81664250Y-57284093D01*
X81661809Y-57286672D01*
X81654429Y-57294924D01*
X81648669Y-57302643D01*
X81643852Y-57311157D01*
X81639305Y-57321793D01*
X81634351Y-57335877D01*
X81628318Y-57354737D01*
X81626988Y-57358681D01*
X81621198Y-57373063D01*
X81613704Y-57389083D01*
X81605786Y-57403950D01*
X81599389Y-57415515D01*
X81585442Y-57445919D01*
X81577022Y-57473874D01*
X81574200Y-57499172D01*
X81573936Y-57509205D01*
X81572823Y-57524506D01*
X81571135Y-57537510D01*
X81569828Y-57546402D01*
X81568175Y-57560519D01*
X81566519Y-57577153D01*
X81565074Y-57594294D01*
X81564128Y-57632556D01*
X81568438Y-57678852D01*
X81578870Y-57725418D01*
X81579913Y-57729104D01*
X81582703Y-57739773D01*
X81584301Y-57747223D01*
X81584384Y-57750025D01*
X81584352Y-57750021D01*
X81581070Y-57748208D01*
X81573659Y-57743532D01*
X81563189Y-57736682D01*
X81550729Y-57728348D01*
X81543075Y-57723228D01*
X81526781Y-57712519D01*
X81507896Y-57700281D01*
X81488188Y-57687658D01*
X81469425Y-57675793D01*
X81465575Y-57673371D01*
X81433025Y-57652482D01*
X81399186Y-57630080D01*
X81364566Y-57606547D01*
X81329675Y-57582264D01*
X81295023Y-57557615D01*
X81261118Y-57532980D01*
X81228470Y-57508741D01*
X81197587Y-57485280D01*
X81168980Y-57462978D01*
X81143157Y-57442219D01*
X81120628Y-57423383D01*
X81101902Y-57406852D01*
X81087488Y-57393009D01*
X81077895Y-57382234D01*
X81068952Y-57370612D01*
X81071074Y-57273775D01*
X81071569Y-57245858D01*
X81071812Y-57212127D01*
X81071615Y-57178506D01*
X81070948Y-57144079D01*
X81069780Y-57107926D01*
X81068081Y-57069130D01*
X81065818Y-57026773D01*
X81062963Y-56979935D01*
X81059484Y-56927700D01*
X81058695Y-56915697D01*
X81056488Y-56874038D01*
X81055013Y-56831815D01*
X81054263Y-56790012D01*
X81054234Y-56749609D01*
X81054919Y-56711591D01*
X81056313Y-56676937D01*
X81058410Y-56646632D01*
X81061206Y-56621657D01*
X81061252Y-56621334D01*
X81348842Y-56621334D01*
X81349416Y-56634375D01*
X81352779Y-56659122D01*
X81358806Y-56686877D01*
X81367102Y-56716140D01*
X81377272Y-56745415D01*
X81388921Y-56773202D01*
X81395163Y-56786655D01*
X81408505Y-56814836D01*
X81419990Y-56838111D01*
X81429987Y-56857170D01*
X81438865Y-56872703D01*
X81446995Y-56885399D01*
X81454747Y-56895950D01*
X81455642Y-56897082D01*
X81464896Y-56909077D01*
X81473761Y-56920989D01*
X81480431Y-56930395D01*
X81482618Y-56933389D01*
X81492980Y-56944753D01*
X81506432Y-56956796D01*
X81520987Y-56967836D01*
X81534654Y-56976193D01*
X81540458Y-56978725D01*
X81551555Y-56982636D01*
X81563687Y-56986181D01*
X81565563Y-56986639D01*
X81577886Y-56988798D01*
X81592214Y-56990291D01*
X81606483Y-56991005D01*
X81618629Y-56990825D01*
X81626588Y-56989639D01*
X81630942Y-56988440D01*
X81638494Y-56986654D01*
X81644495Y-56984213D01*
X81647225Y-56980669D01*
X81646200Y-56977143D01*
X81642841Y-56968924D01*
X81637700Y-56957502D01*
X81631350Y-56944198D01*
X81625909Y-56932652D01*
X81620505Y-56920113D01*
X81616831Y-56910284D01*
X81615475Y-56904631D01*
X81614307Y-56899702D01*
X81609378Y-56893669D01*
X81608717Y-56893209D01*
X81603524Y-56887145D01*
X81599216Y-56878618D01*
X81598480Y-56876676D01*
X81595329Y-56870050D01*
X81592923Y-56867375D01*
X81592329Y-56867205D01*
X81589519Y-56863220D01*
X81586724Y-56855508D01*
X81584581Y-56846151D01*
X81583725Y-56837235D01*
X81583174Y-56831502D01*
X81580876Y-56820491D01*
X81577399Y-56808704D01*
X81568384Y-56776898D01*
X81562997Y-56739370D01*
X81563732Y-56703262D01*
X81570576Y-56668687D01*
X81583514Y-56635761D01*
X81602533Y-56604598D01*
X81606548Y-56599528D01*
X81622093Y-56584288D01*
X81641802Y-56569559D01*
X81664076Y-56556326D01*
X81687318Y-56545577D01*
X81709932Y-56538297D01*
X81721077Y-56536381D01*
X81737987Y-56534685D01*
X81758467Y-56533441D01*
X81781077Y-56532695D01*
X81804373Y-56532493D01*
X81826912Y-56532882D01*
X81847250Y-56533907D01*
X81856864Y-56534310D01*
X81864749Y-56533817D01*
X81867406Y-56532319D01*
X81866918Y-56529719D01*
X81865348Y-56521828D01*
X81862997Y-56510231D01*
X81860158Y-56496373D01*
X81857581Y-56483121D01*
X81854108Y-56463235D01*
X81850313Y-56439358D01*
X81846160Y-56411231D01*
X81841615Y-56378595D01*
X81836644Y-56341193D01*
X81831213Y-56298765D01*
X81825288Y-56251052D01*
X81818834Y-56197797D01*
X81811818Y-56138741D01*
X81804204Y-56073625D01*
X81803160Y-56064733D01*
X81800656Y-56043875D01*
X81797541Y-56018346D01*
X81793945Y-55989207D01*
X81790000Y-55957515D01*
X81785837Y-55924332D01*
X81781589Y-55890715D01*
X81777386Y-55857725D01*
X81774169Y-55832495D01*
X81773818Y-55829719D01*
X83178552Y-55829719D01*
X83182187Y-55831007D01*
X83191401Y-55832320D01*
X83206347Y-55833701D01*
X83227179Y-55835189D01*
X83254050Y-55836826D01*
X83287113Y-55838655D01*
X83311058Y-55840227D01*
X83343072Y-55842960D01*
X83377671Y-55846456D01*
X83413067Y-55850511D01*
X83447476Y-55854918D01*
X83479111Y-55859470D01*
X83506188Y-55863962D01*
X83515114Y-55865621D01*
X83543150Y-55871520D01*
X83568609Y-55878215D01*
X83594198Y-55886475D01*
X83622621Y-55897070D01*
X83633092Y-55901112D01*
X83654097Y-55909017D01*
X83675875Y-55917011D01*
X83695100Y-55923865D01*
X83697891Y-55924840D01*
X83719693Y-55932634D01*
X83739240Y-55940030D01*
X83758521Y-55947830D01*
X83779522Y-55956834D01*
X83804231Y-55967844D01*
X83808146Y-55969593D01*
X83824453Y-55976675D01*
X83843941Y-55984905D01*
X83864499Y-55993400D01*
X83884013Y-56001273D01*
X83893803Y-56005337D01*
X83911537Y-56013161D01*
X83933092Y-56023056D01*
X83957412Y-56034523D01*
X83983443Y-56047061D01*
X84010128Y-56060172D01*
X84036413Y-56073357D01*
X84037363Y-56073838D01*
X84068082Y-56089339D01*
X84094221Y-56102279D01*
X84116782Y-56113052D01*
X84136769Y-56122056D01*
X84155186Y-56129685D01*
X84173037Y-56136336D01*
X84191325Y-56142403D01*
X84211055Y-56148284D01*
X84233229Y-56154374D01*
X84258852Y-56161069D01*
X84273388Y-56164813D01*
X84294440Y-56170236D01*
X84314540Y-56175416D01*
X84331956Y-56179905D01*
X84344955Y-56183258D01*
X84351800Y-56184945D01*
X84363972Y-56187442D01*
X84376853Y-56189292D01*
X84391854Y-56190639D01*
X84410385Y-56191629D01*
X84433855Y-56192407D01*
X84452098Y-56192763D01*
X84470758Y-56192829D01*
X84486926Y-56192580D01*
X84499318Y-56192039D01*
X84506649Y-56191224D01*
X84511938Y-56190031D01*
X84535127Y-56183928D01*
X84562323Y-56175678D01*
X84592172Y-56165758D01*
X84623316Y-56154648D01*
X84654401Y-56142828D01*
X84684070Y-56130778D01*
X84710968Y-56118975D01*
X84721667Y-56114034D01*
X84743066Y-56103911D01*
X84760525Y-56095158D01*
X84775385Y-56087020D01*
X84788989Y-56078740D01*
X84802679Y-56069560D01*
X84817798Y-56058723D01*
X84845754Y-56038946D01*
X84890877Y-56009346D01*
X84938309Y-55980707D01*
X84985738Y-55954466D01*
X85004485Y-55944372D01*
X85025123Y-55932896D01*
X85045109Y-55921470D01*
X85061938Y-55911507D01*
X85081668Y-55899701D01*
X85101348Y-55888560D01*
X85119088Y-55879468D01*
X85136656Y-55871586D01*
X85155821Y-55864070D01*
X85178349Y-55856079D01*
X85210443Y-55845499D01*
X85244364Y-55835563D01*
X85275089Y-55828145D01*
X85303900Y-55822942D01*
X85332074Y-55819649D01*
X85347023Y-55818183D01*
X85368706Y-55815612D01*
X85390033Y-55812664D01*
X85408013Y-55809728D01*
X85420457Y-55807797D01*
X85442057Y-55805343D01*
X85467909Y-55803147D01*
X85496803Y-55801266D01*
X85527531Y-55799756D01*
X85558882Y-55798675D01*
X85589649Y-55798080D01*
X85618622Y-55798027D01*
X85644592Y-55798574D01*
X85645100Y-55798592D01*
X85671030Y-55799874D01*
X85693339Y-55801889D01*
X85713922Y-55804987D01*
X85734673Y-55809515D01*
X85757485Y-55815821D01*
X85784250Y-55824253D01*
X85785752Y-55824744D01*
X85804116Y-55830615D01*
X85822765Y-55836379D01*
X85839598Y-55841396D01*
X85852513Y-55845028D01*
X85865815Y-55848679D01*
X85892247Y-55856523D01*
X85918875Y-55865101D01*
X85944104Y-55873871D01*
X85966338Y-55882289D01*
X85983982Y-55889812D01*
X85990411Y-55892736D01*
X86001152Y-55897282D01*
X86008882Y-55900096D01*
X86012250Y-55900659D01*
X86011906Y-55899568D01*
X86008024Y-55894707D01*
X86000599Y-55886693D01*
X85990368Y-55876234D01*
X85978065Y-55864041D01*
X85964426Y-55850822D01*
X85950186Y-55837287D01*
X85936079Y-55824145D01*
X85922841Y-55812107D01*
X85911207Y-55801881D01*
X85901913Y-55794176D01*
X85897024Y-55790348D01*
X85884349Y-55780776D01*
X85872783Y-55772824D01*
X85860928Y-55765688D01*
X85847386Y-55758566D01*
X85830759Y-55750653D01*
X85809650Y-55741147D01*
X85790930Y-55733000D01*
X85764763Y-55722416D01*
X85740800Y-55713998D01*
X85717028Y-55707123D01*
X85691436Y-55701169D01*
X85662013Y-55695514D01*
X85657203Y-55694653D01*
X85636128Y-55690840D01*
X85611189Y-55686279D01*
X85584250Y-55681313D01*
X85557177Y-55676285D01*
X85531838Y-55671540D01*
X85509258Y-55667433D01*
X85483139Y-55663078D01*
X85460367Y-55659739D01*
X85441888Y-55657552D01*
X85428650Y-55656655D01*
X85401663Y-55656112D01*
X85350863Y-55680413D01*
X85339691Y-55685678D01*
X85320135Y-55694573D01*
X85301113Y-55702873D01*
X85284344Y-55709835D01*
X85271544Y-55714715D01*
X85255550Y-55720602D01*
X85232951Y-55730213D01*
X85210777Y-55741500D01*
X85186428Y-55755718D01*
X85182242Y-55758209D01*
X85169619Y-55765325D01*
X85153650Y-55773964D01*
X85135958Y-55783257D01*
X85118165Y-55792331D01*
X85109261Y-55796846D01*
X85092264Y-55805720D01*
X85076703Y-55814155D01*
X85064003Y-55821372D01*
X85055588Y-55826591D01*
X85055359Y-55826748D01*
X85046374Y-55832906D01*
X85033849Y-55841517D01*
X85019412Y-55851460D01*
X85004690Y-55861616D01*
X84992942Y-55869254D01*
X84976250Y-55879368D01*
X84956166Y-55891027D01*
X84933855Y-55903565D01*
X84910483Y-55916317D01*
X84887215Y-55928619D01*
X84864692Y-55940205D01*
X84836976Y-55954000D01*
X84813043Y-55965202D01*
X84791914Y-55974194D01*
X84772610Y-55981358D01*
X84754152Y-55987080D01*
X84735563Y-55991741D01*
X84715863Y-55995725D01*
X84693875Y-55999894D01*
X84673138Y-56004289D01*
X84655666Y-56008705D01*
X84639838Y-56013603D01*
X84624034Y-56019440D01*
X84606636Y-56026675D01*
X84573426Y-56040409D01*
X84542837Y-56051632D01*
X84514345Y-56060418D01*
X84486331Y-56067315D01*
X84478653Y-56069085D01*
X84456988Y-56075684D01*
X84441564Y-56083317D01*
X84435442Y-56087257D01*
X84429267Y-56090323D01*
X84424847Y-56090397D01*
X84420149Y-56087916D01*
X84418914Y-56087202D01*
X84413110Y-56085279D01*
X84404004Y-56084029D01*
X84390584Y-56083353D01*
X84371837Y-56083150D01*
X84338848Y-56081699D01*
X84291666Y-56075157D01*
X84243134Y-56063627D01*
X84194287Y-56047418D01*
X84146160Y-56026838D01*
X84099786Y-56002194D01*
X84081093Y-55991518D01*
X84041541Y-55970668D01*
X83999582Y-55950551D01*
X83957048Y-55931988D01*
X83915772Y-55915798D01*
X83877585Y-55902801D01*
X83852237Y-55894954D01*
X83826901Y-55887051D01*
X83805823Y-55880390D01*
X83788015Y-55874651D01*
X83772487Y-55869514D01*
X83758249Y-55864661D01*
X83744313Y-55859771D01*
X83738462Y-55857789D01*
X83718918Y-55852074D01*
X83697961Y-55846970D01*
X83679225Y-55843391D01*
X83671162Y-55842131D01*
X83653558Y-55839235D01*
X83636722Y-55836302D01*
X83623412Y-55833805D01*
X83615552Y-55832533D01*
X83599205Y-55830720D01*
X83577874Y-55828991D01*
X83552371Y-55827370D01*
X83523509Y-55825878D01*
X83492100Y-55824539D01*
X83458957Y-55823373D01*
X83424892Y-55822404D01*
X83390718Y-55821654D01*
X83357247Y-55821145D01*
X83325292Y-55820898D01*
X83295666Y-55820938D01*
X83269180Y-55821285D01*
X83246648Y-55821962D01*
X83228882Y-55822992D01*
X83216730Y-55823998D01*
X83199584Y-55825596D01*
X83187404Y-55827055D01*
X83180342Y-55828416D01*
X83178552Y-55829719D01*
X81773818Y-55829719D01*
X81770386Y-55802574D01*
X81766862Y-55774446D01*
X81763690Y-55748861D01*
X81760963Y-55726569D01*
X81758772Y-55708323D01*
X81757210Y-55694872D01*
X81756370Y-55686968D01*
X81756234Y-55685537D01*
X81754866Y-55674333D01*
X81753331Y-55666061D01*
X81751937Y-55662423D01*
X81750234Y-55663572D01*
X81747496Y-55670042D01*
X81744189Y-55681315D01*
X81740478Y-55696572D01*
X81736528Y-55714995D01*
X81732504Y-55735767D01*
X81728571Y-55758069D01*
X81724893Y-55781083D01*
X81721637Y-55803991D01*
X81718966Y-55825975D01*
X81717657Y-55838338D01*
X81715690Y-55859127D01*
X81714041Y-55880152D01*
X81712638Y-55902637D01*
X81711410Y-55927804D01*
X81710282Y-55956876D01*
X81709184Y-55991075D01*
X81708847Y-56002370D01*
X81708090Y-56027645D01*
X81707259Y-56055262D01*
X81706434Y-56082581D01*
X81705695Y-56106962D01*
X81705051Y-56124673D01*
X81704064Y-56145099D01*
X81702917Y-56163725D01*
X81701706Y-56179034D01*
X81700524Y-56189512D01*
X81699522Y-56197436D01*
X81698085Y-56213033D01*
X81696901Y-56230806D01*
X81696155Y-56248250D01*
X81695681Y-56261328D01*
X81694930Y-56275319D01*
X81694073Y-56286214D01*
X81693218Y-56292387D01*
X81692070Y-56298360D01*
X81690320Y-56310080D01*
X81688290Y-56325538D01*
X81686137Y-56343335D01*
X81684019Y-56362073D01*
X81682092Y-56380352D01*
X81680515Y-56396775D01*
X81679445Y-56409942D01*
X81679038Y-56418454D01*
X81678975Y-56434671D01*
X81643257Y-56436826D01*
X81635483Y-56437323D01*
X81591821Y-56441214D01*
X81551236Y-56446712D01*
X81514370Y-56453680D01*
X81481862Y-56461980D01*
X81454356Y-56471475D01*
X81432491Y-56482027D01*
X81417509Y-56491915D01*
X81394272Y-56512558D01*
X81375253Y-56536708D01*
X81360987Y-56563479D01*
X81352006Y-56591983D01*
X81348842Y-56621334D01*
X81061252Y-56621334D01*
X81062146Y-56615122D01*
X81066722Y-56584178D01*
X81072017Y-56549530D01*
X81077882Y-56512087D01*
X81084165Y-56472755D01*
X81090716Y-56432443D01*
X81097383Y-56392057D01*
X81104017Y-56352506D01*
X81110466Y-56314698D01*
X81116580Y-56279539D01*
X81122207Y-56247937D01*
X81127198Y-56220801D01*
X81131401Y-56199037D01*
X81136929Y-56172668D01*
X81145214Y-56136847D01*
X81154751Y-56099472D01*
X81165670Y-56060162D01*
X81178097Y-56018533D01*
X81192163Y-55974202D01*
X81207995Y-55926788D01*
X81225722Y-55875906D01*
X81245473Y-55821175D01*
X81267375Y-55762211D01*
X81291558Y-55698633D01*
X81318149Y-55630056D01*
X81347278Y-55556100D01*
X81366727Y-55507336D01*
X81387780Y-55455299D01*
X81408345Y-55405366D01*
X81428763Y-55356763D01*
X81449378Y-55308717D01*
X81470533Y-55260454D01*
X81492570Y-55211202D01*
X81515833Y-55160187D01*
X81540664Y-55106636D01*
X81567406Y-55049776D01*
X81596401Y-54988834D01*
X81627994Y-54923036D01*
X81629455Y-54920004D01*
X81643987Y-54889776D01*
X81656846Y-54862840D01*
X81668400Y-54838362D01*
X81679016Y-54815506D01*
X81689063Y-54793437D01*
X81698908Y-54771322D01*
X81708919Y-54748325D01*
X81719464Y-54723612D01*
X81730911Y-54696347D01*
X81743627Y-54665697D01*
X81757980Y-54630826D01*
X81774338Y-54590900D01*
X81777960Y-54582063D01*
X81796620Y-54537204D01*
X81814051Y-54496636D01*
X81830844Y-54459161D01*
X81847590Y-54423579D01*
X81864882Y-54388692D01*
X81883309Y-54353302D01*
X81903464Y-54316209D01*
X81925937Y-54276216D01*
X81951320Y-54232125D01*
X81959026Y-54218854D01*
X81970012Y-54199923D01*
X81979964Y-54182757D01*
X81988344Y-54168288D01*
X81994611Y-54157445D01*
X81998227Y-54151162D01*
X82001700Y-54145681D01*
X82008992Y-54135323D01*
X82018250Y-54122938D01*
X82028282Y-54110153D01*
X82034990Y-54101788D01*
X82046695Y-54087059D01*
X82057816Y-54072922D01*
X82066642Y-54061544D01*
X82082200Y-54041245D01*
X82082114Y-54053341D01*
X82082041Y-54056693D01*
X82081211Y-54070630D01*
X82079590Y-54088857D01*
X82077334Y-54109880D01*
X82074599Y-54132205D01*
X82071543Y-54154337D01*
X82070768Y-54159793D01*
X82068428Y-54178258D01*
X82066374Y-54197131D01*
X82064980Y-54213075D01*
X82064717Y-54216772D01*
X82063336Y-54233740D01*
X82061741Y-54247902D01*
X82059547Y-54262243D01*
X82056368Y-54279750D01*
X82055769Y-54283310D01*
X82054074Y-54298355D01*
X82052654Y-54318684D01*
X82051509Y-54343498D01*
X82050636Y-54371993D01*
X82050036Y-54403367D01*
X82049708Y-54436819D01*
X82049651Y-54471547D01*
X82049863Y-54506748D01*
X82050345Y-54541619D01*
X82051096Y-54575360D01*
X82052114Y-54607169D01*
X82053399Y-54636242D01*
X82054950Y-54661778D01*
X82056767Y-54682975D01*
X82056916Y-54684402D01*
X82058617Y-54699816D01*
X82061047Y-54720802D01*
X82064125Y-54746713D01*
X82067769Y-54776901D01*
X82071899Y-54810720D01*
X82076433Y-54847521D01*
X82081290Y-54886657D01*
X82086388Y-54927481D01*
X82091646Y-54969345D01*
X82096983Y-55011601D01*
X82102317Y-55053603D01*
X82107568Y-55094702D01*
X82112654Y-55134251D01*
X82117493Y-55171603D01*
X82122005Y-55206110D01*
X82126108Y-55237125D01*
X82129720Y-55264000D01*
X82131995Y-55280805D01*
X82135914Y-55310053D01*
X82139569Y-55337685D01*
X82142858Y-55362921D01*
X82145682Y-55384984D01*
X82147941Y-55403094D01*
X82149534Y-55416471D01*
X82150360Y-55424337D01*
X82151612Y-55436169D01*
X82153445Y-55448809D01*
X82155323Y-55458025D01*
X82155951Y-55460587D01*
X82158097Y-55471322D01*
X82160697Y-55486350D01*
X82163530Y-55504199D01*
X82166374Y-55523397D01*
X82169010Y-55542471D01*
X82171216Y-55559948D01*
X82172771Y-55574356D01*
X82172809Y-55574767D01*
X82174087Y-55586919D01*
X82176043Y-55593904D01*
X82180067Y-55596722D01*
X82187552Y-55596373D01*
X82199887Y-55593858D01*
X82205170Y-55592833D01*
X82216065Y-55591978D01*
X82223955Y-55593835D01*
X82224456Y-55594055D01*
X82227821Y-55594903D01*
X82231824Y-55594318D01*
X82237356Y-55591827D01*
X82245305Y-55586953D01*
X82256558Y-55579222D01*
X82272006Y-55568160D01*
X82280229Y-55562205D01*
X82293186Y-55552758D01*
X82303742Y-55544980D01*
X82310978Y-55539549D01*
X82313975Y-55537144D01*
X82315906Y-55535402D01*
X82321769Y-55530630D01*
X82329850Y-55524313D01*
X82335737Y-55519725D01*
X82343548Y-55513433D01*
X82348338Y-55509309D01*
X82348977Y-55508736D01*
X82354469Y-55504412D01*
X82363249Y-55497937D01*
X82373738Y-55490479D01*
X82374897Y-55489670D01*
X82394694Y-55475787D01*
X82412464Y-55463233D01*
X82427568Y-55452466D01*
X82439367Y-55443944D01*
X82447224Y-55438125D01*
X82450500Y-55435465D01*
X82450721Y-55435243D01*
X82454697Y-55432069D01*
X82462625Y-55426104D01*
X82473472Y-55418095D01*
X82486204Y-55408793D01*
X82499790Y-55398945D01*
X82513196Y-55389302D01*
X82525389Y-55380612D01*
X82535338Y-55373624D01*
X82542010Y-55369088D01*
X82545075Y-55367050D01*
X82551835Y-55362251D01*
X82555275Y-55359334D01*
X82557231Y-55357540D01*
X82564198Y-55352517D01*
X82575070Y-55345330D01*
X82588865Y-55336587D01*
X82604605Y-55326895D01*
X82608197Y-55324738D01*
X83410938Y-55324738D01*
X83449038Y-55332763D01*
X83459405Y-55335016D01*
X83500806Y-55345174D01*
X83545356Y-55357734D01*
X83591169Y-55372142D01*
X83636363Y-55387844D01*
X83646938Y-55391664D01*
X83669398Y-55399568D01*
X83692449Y-55407444D01*
X83713913Y-55414555D01*
X83731613Y-55420163D01*
X83774013Y-55433672D01*
X83842708Y-55458022D01*
X83907880Y-55484244D01*
X83968142Y-55511798D01*
X83976846Y-55515993D01*
X83988942Y-55521501D01*
X84000774Y-55526351D01*
X84013417Y-55530897D01*
X84027943Y-55535493D01*
X84045427Y-55540492D01*
X84066943Y-55546249D01*
X84093563Y-55553116D01*
X84101237Y-55555079D01*
X84124836Y-55561164D01*
X84148336Y-55567284D01*
X84170223Y-55573043D01*
X84188983Y-55578041D01*
X84203100Y-55581882D01*
X84213591Y-55584734D01*
X84225379Y-55587631D01*
X84236134Y-55589688D01*
X84247332Y-55591074D01*
X84260449Y-55591961D01*
X84276963Y-55592520D01*
X84298350Y-55592922D01*
X84310911Y-55593078D01*
X84334608Y-55592999D01*
X84355033Y-55592164D01*
X84373728Y-55590346D01*
X84392236Y-55587316D01*
X84412099Y-55582845D01*
X84434861Y-55576704D01*
X84462064Y-55568666D01*
X84479772Y-55563252D01*
X84499929Y-55556857D01*
X84517672Y-55550826D01*
X84534351Y-55544629D01*
X84551317Y-55537733D01*
X84569920Y-55529607D01*
X84591510Y-55519721D01*
X84617438Y-55507543D01*
X84631833Y-55500795D01*
X84655009Y-55490338D01*
X84674932Y-55482090D01*
X84693115Y-55475525D01*
X84711073Y-55470117D01*
X84730322Y-55465341D01*
X84752375Y-55460669D01*
X84760159Y-55459097D01*
X84774855Y-55455999D01*
X84788209Y-55452919D01*
X84801448Y-55449515D01*
X84815799Y-55445449D01*
X84832488Y-55440378D01*
X84852742Y-55433963D01*
X84877788Y-55425864D01*
X84925571Y-55411714D01*
X84988913Y-55397490D01*
X84997546Y-55395880D01*
X85022091Y-55390974D01*
X85048968Y-55385231D01*
X85075473Y-55379239D01*
X85098900Y-55373586D01*
X85102293Y-55372733D01*
X85121041Y-55368137D01*
X85136846Y-55364600D01*
X85151257Y-55361892D01*
X85165821Y-55359784D01*
X85182084Y-55358047D01*
X85201595Y-55356451D01*
X85225900Y-55354767D01*
X85251942Y-55352849D01*
X85282537Y-55349942D01*
X85307095Y-55346730D01*
X85325463Y-55343229D01*
X85331380Y-55341890D01*
X85349462Y-55338358D01*
X85369237Y-55335101D01*
X85387375Y-55332686D01*
X85420713Y-55328973D01*
X85398362Y-55321875D01*
X85391481Y-55319766D01*
X85360001Y-55311610D01*
X85324817Y-55304520D01*
X85288035Y-55298882D01*
X85251759Y-55295080D01*
X85223350Y-55293640D01*
X85182651Y-55293639D01*
X85138649Y-55295650D01*
X85092845Y-55299598D01*
X85046744Y-55305408D01*
X85040905Y-55306276D01*
X85024596Y-55308942D01*
X85012371Y-55311572D01*
X85002509Y-55314677D01*
X84993288Y-55318767D01*
X84982989Y-55324355D01*
X84951928Y-55341029D01*
X84909225Y-55360803D01*
X84867895Y-55376391D01*
X84840063Y-55385437D01*
X84806371Y-55396065D01*
X84773232Y-55406191D01*
X84741553Y-55415553D01*
X84712242Y-55423888D01*
X84686208Y-55430933D01*
X84664358Y-55436427D01*
X84647600Y-55440105D01*
X84636047Y-55442332D01*
X84598328Y-55449531D01*
X84565669Y-55455581D01*
X84537161Y-55460569D01*
X84511895Y-55464586D01*
X84488962Y-55467720D01*
X84467454Y-55470060D01*
X84446460Y-55471695D01*
X84425073Y-55472713D01*
X84402382Y-55473204D01*
X84377479Y-55473257D01*
X84349455Y-55472960D01*
X84317400Y-55472403D01*
X84286348Y-55471799D01*
X84259679Y-55471183D01*
X84236554Y-55470426D01*
X84216090Y-55469398D01*
X84197406Y-55467970D01*
X84179621Y-55466011D01*
X84161854Y-55463391D01*
X84143222Y-55459981D01*
X84122844Y-55455650D01*
X84099840Y-55450269D01*
X84073327Y-55443706D01*
X84042425Y-55435834D01*
X84006250Y-55426521D01*
X83988240Y-55421836D01*
X83959566Y-55414100D01*
X83934917Y-55406945D01*
X83912882Y-55399883D01*
X83892054Y-55392425D01*
X83871024Y-55384081D01*
X83848385Y-55374362D01*
X83822727Y-55362779D01*
X83820134Y-55361591D01*
X83807062Y-55355696D01*
X83794937Y-55350464D01*
X83783048Y-55345671D01*
X83770686Y-55341095D01*
X83757140Y-55336513D01*
X83741701Y-55331703D01*
X83723657Y-55326442D01*
X83702300Y-55320506D01*
X83676919Y-55313674D01*
X83646804Y-55305722D01*
X83611246Y-55296427D01*
X83607788Y-55295540D01*
X83599944Y-55293848D01*
X83592961Y-55293291D01*
X83585476Y-55294086D01*
X83576128Y-55296450D01*
X83563554Y-55300601D01*
X83546393Y-55306755D01*
X83523691Y-55313983D01*
X83484761Y-55321798D01*
X83443202Y-55324531D01*
X83410938Y-55324738D01*
X82608197Y-55324738D01*
X82621311Y-55316864D01*
X82638003Y-55307102D01*
X82653700Y-55298216D01*
X82657549Y-55296076D01*
X82669741Y-55289235D01*
X82680688Y-55283021D01*
X82689353Y-55278162D01*
X82701571Y-55271467D01*
X82714025Y-55264767D01*
X82726681Y-55258005D01*
X82742463Y-55249522D01*
X82756888Y-55241722D01*
X82770113Y-55234575D01*
X82785917Y-55226091D01*
X82799750Y-55218718D01*
X82812408Y-55211975D01*
X82828189Y-55203509D01*
X82842613Y-55195718D01*
X82867501Y-55182519D01*
X82923843Y-55154784D01*
X82984687Y-55127681D01*
X82990560Y-55125213D01*
X83013725Y-55115894D01*
X83039569Y-55106030D01*
X83066869Y-55096046D01*
X83094406Y-55086364D01*
X83120957Y-55077407D01*
X83145301Y-55069600D01*
X83166216Y-55063366D01*
X83182482Y-55059127D01*
X83194326Y-55055832D01*
X83206824Y-55051223D01*
X83215932Y-55046632D01*
X83216397Y-55046329D01*
X83228794Y-55038568D01*
X83241125Y-55031659D01*
X83254092Y-55025374D01*
X83268393Y-55019484D01*
X83284729Y-55013762D01*
X83303800Y-55007980D01*
X83326306Y-55001908D01*
X83352948Y-54995320D01*
X83384424Y-54987987D01*
X83421436Y-54979681D01*
X83428064Y-54978209D01*
X83496328Y-54962687D01*
X83559658Y-54947554D01*
X83619304Y-54932476D01*
X83676521Y-54917117D01*
X83732561Y-54901142D01*
X83788676Y-54884215D01*
X83846121Y-54866002D01*
X83854479Y-54863311D01*
X83918346Y-54843993D01*
X83983168Y-54826641D01*
X84050283Y-54810942D01*
X84121031Y-54796578D01*
X84196750Y-54783234D01*
X84207857Y-54781420D01*
X84228364Y-54778185D01*
X84247370Y-54775407D01*
X84265527Y-54773052D01*
X84283490Y-54771087D01*
X84301915Y-54769477D01*
X84321454Y-54768190D01*
X84342762Y-54767191D01*
X84366495Y-54766448D01*
X84393305Y-54765926D01*
X84423847Y-54765593D01*
X84458777Y-54765413D01*
X84498747Y-54765355D01*
X84544413Y-54765384D01*
X84554382Y-54765396D01*
X84599485Y-54765476D01*
X84639056Y-54765622D01*
X84673773Y-54765888D01*
X84704314Y-54766325D01*
X84731358Y-54766988D01*
X84755584Y-54767928D01*
X84777670Y-54769199D01*
X84798294Y-54770853D01*
X84818136Y-54772942D01*
X84837874Y-54775520D01*
X84858186Y-54778640D01*
X84879752Y-54782353D01*
X84903248Y-54786714D01*
X84929355Y-54791774D01*
X84958750Y-54797586D01*
X84975474Y-54800919D01*
X85039347Y-54813948D01*
X85097385Y-54826303D01*
X85149964Y-54838074D01*
X85197457Y-54849353D01*
X85240239Y-54860230D01*
X85278684Y-54870798D01*
X85313166Y-54881147D01*
X85344060Y-54891368D01*
X85347985Y-54892730D01*
X85362048Y-54897554D01*
X85381223Y-54904080D01*
X85404851Y-54912084D01*
X85432274Y-54921346D01*
X85462834Y-54931642D01*
X85495872Y-54942752D01*
X85530731Y-54954453D01*
X85566751Y-54966524D01*
X85603275Y-54978743D01*
X85620740Y-54984581D01*
X85663472Y-54998874D01*
X85700881Y-55011407D01*
X85733480Y-55022359D01*
X85761778Y-55031907D01*
X85786289Y-55040230D01*
X85807522Y-55047506D01*
X85825989Y-55053913D01*
X85842202Y-55059630D01*
X85856672Y-55064834D01*
X85869911Y-55069705D01*
X85882429Y-55074419D01*
X85894738Y-55079156D01*
X85907350Y-55084094D01*
X85920775Y-55089410D01*
X85927745Y-55092190D01*
X85956967Y-55104114D01*
X85984152Y-55115736D01*
X86010115Y-55127481D01*
X86035669Y-55139775D01*
X86061626Y-55153042D01*
X86088800Y-55167707D01*
X86118004Y-55184196D01*
X86150052Y-55202932D01*
X86185756Y-55224342D01*
X86225931Y-55248849D01*
X86263316Y-55271671D01*
X86303733Y-55295987D01*
X86342434Y-55318826D01*
X86360005Y-55328973D01*
X86380902Y-55341041D01*
G37*
D11*
X71600000Y-55000000D03*
D12*
X141000000Y-66187500D03*
D13*
X143540000Y-66187500D03*
X146080000Y-66187500D03*
X146080000Y-56027500D03*
X143540000Y-56027500D03*
X141000000Y-56027500D03*
D14*
X77300000Y-128437500D03*
D15*
X71400000Y-128437500D03*
D16*
X71400000Y-128437500D03*
D17*
X74500000Y-133137500D03*
D15*
X71400000Y-123437500D03*
D12*
X77587500Y-69675000D03*
D18*
X77587500Y-67175000D03*
X75587500Y-67175000D03*
X75587500Y-69675000D03*
D19*
X72727500Y-74425000D03*
X72727500Y-62425000D03*
D11*
X210600000Y-140000000D03*
X71600000Y-140000000D03*
D12*
X141000000Y-81250000D03*
D13*
X143540000Y-81250000D03*
X146080000Y-81250000D03*
X146080000Y-71090000D03*
X143540000Y-71090000D03*
X141000000Y-71090000D03*
D20*
X122550000Y-64170000D03*
D21*
X125090000Y-64170000D03*
X122550000Y-66710000D03*
X125090000Y-66710000D03*
X122550000Y-69250000D03*
X125090000Y-69250000D03*
X122550000Y-71790000D03*
X125090000Y-71790000D03*
D11*
X210600000Y-55000000D03*
D22*
X80550000Y-108850000D03*
X154450000Y-99450000D03*
X206375000Y-95087500D03*
X158350000Y-75850000D03*
X80550000Y-102450000D03*
X105350000Y-93050000D03*
X87350000Y-66150000D03*
X170150000Y-97025000D03*
X133350000Y-120650000D03*
X170200000Y-125412500D03*
X186150000Y-104150000D03*
X203425000Y-64437500D03*
X76750000Y-95650000D03*
X206375001Y-70487500D03*
X203425000Y-125625000D03*
X184650000Y-129950000D03*
X133450000Y-100250000D03*
X206350001Y-99087500D03*
X156150000Y-55150000D03*
X206325000Y-127625000D03*
X206400000Y-66487500D03*
X153150000Y-82750000D03*
X144850000Y-91150000D03*
X133450000Y-110350000D03*
X173125000Y-123412500D03*
X173075000Y-66525000D03*
X203450000Y-97087500D03*
X170150000Y-121362500D03*
X173100001Y-127412500D03*
X170150000Y-68525000D03*
X173050001Y-70525000D03*
X82150000Y-114950000D03*
X170100000Y-92975000D03*
X133450000Y-130950000D03*
X170100000Y-64475000D03*
X154250000Y-132550000D03*
X87350000Y-70650000D03*
X73350000Y-104050000D03*
X80550000Y-105650000D03*
X203375000Y-121575000D03*
X77950000Y-76250000D03*
X184150000Y-72150000D03*
X144850000Y-99650000D03*
X203475000Y-68487500D03*
X206350000Y-123625000D03*
X203400000Y-93037500D03*
X189550000Y-54950000D03*
X85450000Y-78350000D03*
X157350000Y-111450000D03*
X173075000Y-95025000D03*
X190350000Y-83050000D03*
X88550000Y-78350000D03*
X76750000Y-87250000D03*
X105350000Y-100150000D03*
X186750000Y-115650000D03*
X173050001Y-99025000D03*
M02*
